<svg width="1440" height="270" viewBox="0 0 1440 270" fill="none" xmlns="http://www.w3.org/2000/svg">
    <rect width="1440" height="270" fill="#1F1F1F"/>
    <path fill-rule="evenodd" clip-rule="evenodd" d="M538.471 169.185C555.377 169.185 569.074 155.89 569.074 139.5C569.074 123.11 555.377 109.815 538.471 109.815C521.623 109.815 507.927 123.11 507.927 139.5C507.926 155.89 521.623 169.185 538.471 169.185Z" fill="white"/>
    <path fill-rule="evenodd" clip-rule="evenodd" d="M548.156 130.56C549.016 130.904 549.99 131.19 550.449 130.617C550.907 130.044 550.85 130.502 550.735 130.674C550.506 131.305 548.386 131.706 547.583 130.904C546.839 130.102 548.099 130.56 548.156 130.56V130.56ZM534.345 133.941C535.721 135.145 539.102 136.405 543.973 135.316C539.56 137.895 536.981 139.328 537.554 147.065C534.861 142.938 533.829 137.093 534.345 133.941V133.941ZM535.033 167.409C541.165 163.283 541.68 158.756 541.165 154.4C540.42 147.752 542.311 140.245 545.176 137.208C546.494 135.833 546.953 136.749 545.749 137.781C541.795 141.277 540.993 147.179 546.552 152.738C550.907 156.979 551.423 169.071 535.033 167.409V167.409Z" fill="#C23C40"/>
    <path fill-rule="evenodd" clip-rule="evenodd" d="M529.302 135.431C529.13 139.271 531.021 142.709 534.116 145.689C544.145 155.489 539.79 163.11 533.428 167.065C529.36 162.251 522.024 151.42 529.302 135.431Z" fill="#C23C40"/>
    <path fill-rule="evenodd" clip-rule="evenodd" d="M531.766 167.008C524.431 165.919 518.7 160.188 517.382 155.03C515.205 146.549 516.752 139.443 521.394 134.801C526.265 129.987 526.953 129.93 528.672 128.841C525.635 134.457 524.145 144.142 524.775 149.701C525.406 155.26 527.01 161.621 531.766 167.008V167.008Z" fill="#C23C40"/>
    <path fill-rule="evenodd" clip-rule="evenodd" d="M518.643 160.36C513.428 156.177 509.245 148.154 509.474 140.13C509.703 132.108 516.408 125.403 521.394 124.314C525.348 123.397 528.615 122.652 532.282 125.059C528.443 126.835 523.227 129.357 519.904 134.113C516.58 138.812 511.136 146.721 518.643 160.36V160.36Z" fill="#C23C40"/>
    <path fill-rule="evenodd" clip-rule="evenodd" d="M509.818 134.514C511.193 127.064 515.033 122.251 519.502 118.583C524.718 114.285 531.308 113.884 535.434 116.405C539.159 118.64 537.956 120.99 537.784 122.021C536.867 122.766 535.892 123.397 535.262 123.741C534.689 124.085 533.486 123.798 532.684 123.454C531.881 123.168 528.099 121.506 522.712 122.652C517.783 123.741 512.053 127.351 509.818 134.514V134.514ZM547.64 120.245C548.558 119.557 550.563 118.01 553.601 117.895C557.039 117.838 559.847 119.672 562.597 123.11C566.953 128.44 568.271 136.979 567.813 141.678C567.239 147.179 566.495 151.764 561.28 156.75C562.884 153.884 564.202 147.924 563.686 144.486C563.228 141.048 562.541 138.698 560.248 136.176C559.503 135.317 559.846 135.89 559.846 135.145C559.846 134.342 559.732 134.285 559.846 133.827C559.961 133.311 559.732 133.368 559.445 133.024C559.216 132.623 559.159 132.394 558.872 132.165C558.585 131.935 557.841 131.878 557.898 132.394C557.956 132.795 557.898 132.795 557.727 133.024C557.554 133.196 557.44 133.54 557.096 133.827C556.809 134.113 556.638 134.285 555.95 133.712C555.548 133.311 553.314 132.451 551.881 132.279C551.365 132.222 551.079 131.821 552.168 131.649C552.855 131.534 554.403 131.878 555.09 131.878C556.351 131.935 557.669 131.248 557.497 130.446C557.267 129.643 556.637 129.185 555.95 129.299C555.319 129.414 554.918 129.357 554.918 128.669C554.918 128.039 554.689 127.58 553.714 127.523C552.855 127.466 551.479 127.064 550.734 126.721C550.161 126.549 549.76 126.319 549.531 125.173C549.416 124.6 550.161 124.429 550.505 125.116C550.792 125.632 551.537 126.148 551.708 126.377C552.167 126.778 552.453 127.294 552.74 126.262C552.969 125.402 552.568 125.345 552.396 125.116C551.766 124.142 549.015 122.193 548.155 122.079C547.526 121.964 546.666 121.047 547.64 120.245V120.245ZM545.291 111.649C547.583 111.649 555.148 115.603 556.236 116.806C553.887 115.775 549.99 116.52 547.813 118.526C548.328 115.775 547.698 113.024 545.291 111.649V111.649Z" fill="#C23C40"/>
    <path fill-rule="evenodd" clip-rule="evenodd" d="M525.634 114.228C527.525 113.196 534.345 110.216 541.852 111.591C547.239 112.566 546.895 117.609 546.094 118.984C545.865 119.328 545.52 120.761 545.635 121.219L539.503 121.563C539.675 120.073 539.331 116.806 535.893 115.087C532.454 113.425 528.729 113.597 525.634 114.228V114.228ZM533.944 130.274C534.517 130.503 534.689 130.961 535.491 130.331C536.236 129.7 537.382 128.669 538.07 128.268C538.815 127.867 540.019 127.466 541.165 128.268C542.311 129.013 544.603 129.815 545.864 129.758C545.807 130.503 546.093 130.847 546.265 131.019C546.494 131.248 546.094 131.362 545.921 131.133C545.692 130.961 545.176 130.102 543.4 129.93C541.222 129.758 539.331 130.216 537.898 131.305C537.21 131.821 536.694 131.305 536.179 131.305C535.147 131.305 534.46 131.019 533.886 130.846C533.371 130.732 533.084 129.987 533.944 130.274V130.274ZM536.523 130.618C536.523 131.019 536.695 131.19 537.153 131.19C537.612 131.248 537.726 131.076 537.784 130.675C537.784 130.274 537.612 129.987 537.096 129.987C536.695 130.045 536.465 130.274 536.523 130.618ZM546.895 138.927C546.494 139.271 546.666 139.672 547.182 139.615C547.64 139.558 548.615 139.844 549.245 140.188C549.531 140.302 551.365 140.761 551.995 139.73C552.683 138.755 556.179 137.151 556.637 136.463C557.153 137.036 557.382 137.094 557.783 137.094C558.242 137.094 558.815 137.151 559.044 137.094C561.107 138.412 562.941 142.996 562.368 148.613C561.738 154.515 558.528 160.36 554.288 162.825C552.168 164.085 549.416 165.747 547.354 166.034C550.505 162.996 551.708 156.177 549.875 153.483C554.345 153.942 556.293 151.821 557.038 151.134C557.841 150.446 557.611 150.618 557.611 149.816C557.611 149.013 557.325 149.013 556.522 149.242C555.72 149.472 552.225 151.248 549.99 150.618C547.755 149.93 545.864 147.867 545.291 147.179C544.775 146.435 544.202 145.002 544.488 143.626C544.775 142.251 545.004 140.016 546.265 138.927C547.239 138.067 547.182 138.698 546.895 138.927V138.927ZM551.939 147.466C551.939 147.065 551.881 147.122 551.595 147.122C551.251 147.122 551.136 147.351 551.079 147.81C550.964 148.211 551.079 149.3 551.193 149.644C551.251 150.045 551.652 150.102 551.996 150.102C552.34 150.102 556.18 148.555 556.523 148.44C556.81 148.383 556.925 148.325 556.925 147.981C556.925 147.695 557.039 146.663 557.096 146.148C557.211 145.689 556.581 145.632 556.466 145.804C556.351 146.033 556.236 146.32 556.065 146.606C555.95 146.836 556.122 146.892 555.664 146.892C554.69 146.892 553.027 147.867 552.511 148.039C551.995 148.211 551.996 147.867 551.939 147.466V147.466ZM552.34 142.194C552.397 142.767 552.97 142.881 553.257 142.309V140.417C553.257 140.417 553.658 140.016 554.059 139.901C554.461 139.844 554.517 139.901 554.747 139.672C555.091 139.157 555.836 138.927 556.696 138.87V140.532L557.326 140.474C557.326 140.073 557.727 138.411 557.842 137.781C556.122 136.921 553.085 139.443 552.34 140.302C552.34 141.277 552.225 141.62 552.34 142.194V142.194Z" fill="#C23C40"/>
    <path d="M831.737 139.735C831.737 156.708 817.974 170.47 801 170.47C784.026 170.47 770.264 156.71 770.264 139.735C770.264 122.763 784.025 109.002 800.999 109C817.972 109 831.737 122.761 831.737 139.735V139.735Z" fill="black"/>
    <path d="M816.482 138.315C814.734 147.35 805.435 145.947 805.435 145.947L807.975 130.611C807.975 130.611 818.294 128.938 816.482 138.315ZM822.627 131.772C821.733 128.825 817.851 124.41 812.061 124.41H802.606L798.013 152.224H807.471C816.396 152.224 821.977 145.313 823.127 138.361C823.499 136.076 823.351 133.767 822.627 131.772V131.772ZM794.42 124.371C794.381 124.79 791.897 144.607 782.505 145.908C782.333 145.934 782.174 145.934 781.038 145.999L780.158 152.441C780.158 152.441 781.2 152.461 781.64 152.484C783.671 152.595 789.939 152.324 794.953 143.997C797.491 139.777 799.639 133.527 801 124.369L794.42 124.371V124.371Z" fill="white"/>
    <path d="M608.179 117.332C608.118 117.394 608.034 117.555 607.98 117.7C607.927 117.838 607.835 118.084 607.774 118.237C607.498 118.981 607.429 119.165 607.314 119.463C607.246 119.647 607.146 119.916 607.092 120.061C607.039 120.207 606.932 120.483 606.863 120.675C606.794 120.866 606.687 121.15 606.626 121.303C606.564 121.464 606.473 121.725 606.411 121.878C606.35 122.039 606.251 122.315 606.182 122.492C606.029 122.913 605.86 123.358 605.723 123.718C605.661 123.879 605.554 124.163 605.485 124.355C605.416 124.546 605.309 124.83 605.248 124.983C605.187 125.144 605.095 125.405 605.034 125.558C604.973 125.719 604.873 125.995 604.804 126.172C604.735 126.356 604.636 126.632 604.575 126.785C604.513 126.946 604.406 127.23 604.337 127.421C604.268 127.613 604.161 127.889 604.108 128.035C604.054 128.18 603.947 128.456 603.878 128.648C603.809 128.84 603.702 129.123 603.641 129.276C603.503 129.644 603.335 130.089 603.182 130.503C603.113 130.687 603.013 130.955 602.96 131.101C602.906 131.247 602.814 131.507 602.745 131.676C602.684 131.845 602.569 132.136 602.5 132.328C602.332 132.765 602.164 133.209 602.041 133.554C601.988 133.7 601.888 133.968 601.819 134.145C601.75 134.329 601.643 134.62 601.574 134.796C601.506 134.98 601.421 135.187 601.383 135.256C601.345 135.333 601.314 135.463 601.314 135.548C601.314 135.701 601.36 135.701 603.442 135.701H605.577L605.669 135.486C605.723 135.371 605.906 134.919 606.075 134.474C606.243 134.03 606.45 133.493 606.534 133.286C606.618 133.071 606.717 132.795 606.748 132.673C606.825 132.404 606.916 132.159 607.437 130.833C607.651 130.281 607.858 129.729 607.896 129.606C608.003 129.246 608.21 128.694 608.271 128.61C608.309 128.571 608.355 128.433 608.386 128.311C608.424 128.15 608.462 128.111 608.524 128.173C608.608 128.257 608.57 128.84 608.233 133.363C608.164 134.244 608.126 135.126 608.141 135.318L608.164 135.663L610.345 135.686C611.547 135.693 612.603 135.686 612.695 135.663C612.787 135.64 612.886 135.548 612.909 135.448C612.97 135.241 613.384 134.137 613.521 133.823C613.575 133.692 613.636 133.524 613.659 133.439C613.682 133.355 613.766 133.11 613.85 132.903C613.927 132.688 614.179 132.036 614.394 131.446C614.616 130.856 614.845 130.273 614.907 130.158C614.968 130.035 615.014 129.89 615.014 129.836C615.014 129.775 615.067 129.598 615.136 129.437C615.327 129.008 615.618 128.272 615.817 127.728C615.871 127.582 615.978 127.306 616.047 127.115C616.116 126.923 616.223 126.647 616.277 126.501C616.33 126.356 616.43 126.087 616.498 125.903C616.567 125.727 616.674 125.443 616.736 125.275C616.797 125.106 616.904 124.83 616.965 124.661C617.027 124.493 617.134 124.217 617.195 124.048C617.256 123.879 617.363 123.603 617.425 123.435C617.486 123.266 617.593 122.99 617.654 122.821C617.715 122.653 617.822 122.377 617.884 122.208C617.945 122.039 618.052 121.756 618.121 121.572C618.19 121.395 618.289 121.127 618.343 120.981C618.45 120.69 618.603 120.276 618.794 119.77C618.863 119.594 618.97 119.31 619.032 119.142C619.269 118.498 619.399 118.176 619.506 117.907C619.567 117.754 619.606 117.547 619.59 117.447L619.567 117.263L617.692 117.24C616.659 117.225 615.71 117.24 615.58 117.263C615.327 117.309 615.335 117.279 614.669 119.065C614.608 119.234 614.501 119.509 614.44 119.678C614.378 119.847 614.279 120.115 614.218 120.268C614.157 120.429 614.057 120.705 613.988 120.882C613.919 121.066 613.812 121.357 613.743 121.533C613.506 122.162 613.414 122.4 613.177 123.051C612.741 124.217 612.702 124.316 612.603 124.546C612.549 124.669 612.48 124.845 612.457 124.922C612.427 125.014 612.381 125.045 612.335 124.999C612.289 124.953 612.304 124.523 612.373 123.818C612.435 123.205 612.488 122.43 612.488 122.093C612.488 121.756 612.542 120.943 612.595 120.291C612.725 118.866 612.771 117.455 612.695 117.317C612.603 117.171 608.332 117.187 608.179 117.332V117.332ZM620.264 117.371C620.195 117.447 620.103 117.608 620.065 117.731C620.034 117.854 619.927 118.145 619.835 118.375C619.743 118.605 619.644 118.881 619.606 118.988C619.567 119.096 619.468 119.372 619.376 119.601C619.284 119.831 619.185 120.107 619.147 120.215C619.108 120.322 619.009 120.598 618.917 120.828C618.825 121.058 618.726 121.334 618.687 121.441C618.649 121.549 618.55 121.825 618.458 122.055C618.366 122.285 618.266 122.561 618.228 122.668C618.19 122.775 618.09 123.051 617.999 123.281C617.907 123.511 617.807 123.787 617.769 123.895C617.731 124.002 617.631 124.278 617.539 124.508C617.447 124.738 617.348 125.014 617.31 125.121C617.271 125.229 617.172 125.505 617.08 125.735C616.988 125.965 616.889 126.241 616.851 126.348C616.812 126.455 616.713 126.731 616.621 126.961C616.529 127.191 616.43 127.467 616.391 127.575C616.353 127.682 616.254 127.958 616.162 128.188C615.932 128.786 615.779 129.192 615.703 129.414C615.664 129.522 615.565 129.798 615.473 130.028C615.381 130.258 615.282 130.534 615.243 130.641C615.205 130.748 615.106 131.024 615.014 131.254C614.922 131.484 614.822 131.76 614.784 131.868C614.746 131.975 614.646 132.251 614.555 132.481C614.463 132.711 614.363 132.987 614.325 133.094C614.287 133.202 614.187 133.478 614.095 133.708C614.003 133.938 613.904 134.214 613.866 134.321C613.827 134.428 613.728 134.704 613.636 134.934C613.322 135.732 613.139 135.663 615.565 135.686L617.685 135.701L617.815 135.456C617.884 135.325 617.968 135.126 617.999 135.019C618.037 134.911 618.136 134.628 618.228 134.398C618.32 134.168 618.419 133.892 618.458 133.784C618.496 133.677 618.595 133.401 618.687 133.171C618.779 132.941 618.879 132.665 618.917 132.558C618.955 132.45 619.055 132.174 619.147 131.944C619.238 131.714 619.338 131.438 619.376 131.331C619.414 131.224 619.514 130.948 619.606 130.718C619.698 130.488 619.797 130.212 619.835 130.104C619.874 129.997 619.973 129.721 620.065 129.491C620.157 129.261 620.256 128.985 620.295 128.878C620.333 128.771 620.432 128.495 620.524 128.265C620.616 128.035 620.715 127.759 620.754 127.651C620.792 127.544 620.891 127.268 620.983 127.038C621.075 126.808 621.175 126.532 621.213 126.425C621.251 126.317 621.351 126.041 621.443 125.811C621.534 125.581 621.634 125.305 621.672 125.198C621.71 125.091 621.81 124.815 621.902 124.585C621.994 124.355 622.093 124.079 622.131 123.971C622.17 123.864 622.269 123.588 622.361 123.358C622.453 123.128 622.552 122.852 622.591 122.745C622.629 122.637 622.728 122.361 622.82 122.131C622.912 121.901 623.011 121.625 623.05 121.518C623.088 121.411 623.187 121.135 623.279 120.905C623.371 120.675 623.471 120.399 623.509 120.291C623.547 120.184 623.647 119.908 623.739 119.678C623.83 119.448 623.93 119.172 623.968 119.065C624.006 118.958 624.106 118.682 624.198 118.452C624.573 117.486 624.603 117.363 624.489 117.294C624.435 117.256 623.494 117.225 622.392 117.225C620.539 117.225 620.386 117.233 620.264 117.371V117.371Z" fill="white"/>
    <path d="M625.308 117.424C625.239 117.539 625.147 117.715 625.117 117.83C625.078 117.938 624.979 118.221 624.887 118.451C624.795 118.681 624.696 118.957 624.658 119.065C624.619 119.172 624.52 119.448 624.428 119.678C624.336 119.908 624.229 120.199 624.191 120.33C624.152 120.452 624.091 120.629 624.053 120.713C624.015 120.797 623.823 121.311 623.624 121.863C623.425 122.407 623.234 122.929 623.196 123.013C623.157 123.097 623.096 123.266 623.058 123.396C623.02 123.519 622.913 123.818 622.821 124.048C622.729 124.278 622.629 124.554 622.591 124.661C622.553 124.769 622.453 125.045 622.362 125.275C622.27 125.505 622.17 125.78 622.132 125.888C622.094 125.995 621.994 126.271 621.902 126.501C621.81 126.731 621.711 127.007 621.673 127.114C621.634 127.222 621.535 127.498 621.443 127.728C621.351 127.958 621.252 128.234 621.213 128.341C621.175 128.448 621.076 128.724 620.984 128.954C620.754 129.552 620.601 129.959 620.525 130.181C620.486 130.288 620.387 130.564 620.295 130.794C620.203 131.024 620.104 131.3 620.065 131.408C620.027 131.515 619.928 131.791 619.836 132.021C619.752 132.251 619.606 132.65 619.522 132.903C619.438 133.156 619.338 133.432 619.3 133.516C619.262 133.6 619.139 133.907 619.032 134.206C618.925 134.497 618.81 134.812 618.772 134.896C618.389 135.777 618.213 135.701 620.67 135.701C622.798 135.701 622.813 135.701 622.928 135.532C622.997 135.44 623.05 135.302 623.05 135.233C623.05 135.156 623.096 135.003 623.157 134.881C623.219 134.766 623.326 134.52 623.387 134.336C623.456 134.16 623.563 133.876 623.624 133.708C623.686 133.539 623.785 133.271 623.846 133.11C623.907 132.956 624.007 132.68 624.076 132.496C624.145 132.32 624.244 132.044 624.305 131.883C624.367 131.73 624.573 131.185 624.772 130.679C624.964 130.173 625.17 129.637 625.232 129.491C625.614 128.502 625.683 128.349 625.737 128.433C625.76 128.487 625.813 129.79 625.844 131.331C625.874 132.872 625.92 134.474 625.951 134.896L625.997 135.662L628.829 135.701L631.66 135.739L631.285 135.908C631.079 136.007 630.857 136.084 630.788 136.084C630.711 136.084 630.505 136.13 630.313 136.191C630.13 136.245 629.755 136.36 629.479 136.429C628.905 136.582 628.285 136.751 627.795 136.889C627.604 136.943 627.229 137.042 626.954 137.111C626.678 137.188 626.265 137.295 626.035 137.357C625.277 137.564 624.78 137.702 624.367 137.809C623.907 137.939 623.311 138.1 622.721 138.261C622.507 138.323 622.101 138.43 621.826 138.499C621.55 138.576 621.175 138.675 620.984 138.729C620.793 138.783 620.418 138.882 620.142 138.959C619.867 139.036 619.491 139.135 619.3 139.189C619.109 139.243 618.734 139.342 618.458 139.419C618.183 139.488 617.769 139.595 617.54 139.664C617.31 139.726 616.935 139.825 616.713 139.887C616.124 140.048 615.527 140.209 615.068 140.331C614.854 140.393 614.448 140.5 614.172 140.569C613.897 140.646 613.522 140.745 613.331 140.799C613.139 140.853 612.764 140.952 612.489 141.029C611.884 141.19 611.264 141.359 610.805 141.489C610.614 141.543 610.239 141.642 609.963 141.719C609.688 141.788 609.297 141.895 609.083 141.949C607.828 142.286 607.56 142.325 606.136 142.317C604.682 142.317 604.491 142.294 603.266 141.911C603.014 141.834 602.593 141.65 602.325 141.512C602.057 141.374 601.751 141.213 601.636 141.152C601.521 141.09 601.101 140.715 600.703 140.308C600.144 139.741 599.914 139.442 599.692 138.997C599.18 137.932 599.011 137.257 598.965 136.046C598.927 135.064 599.08 133.93 599.401 132.826C599.493 132.527 599.593 132.182 599.631 132.059C599.738 131.691 599.907 131.262 600.236 130.495C600.725 129.368 600.649 129.414 599.432 130.925C597.924 132.803 596.899 134.221 595.636 136.199C595.452 136.49 595.269 136.789 595.246 136.851C595.215 136.912 595.123 137.065 595.039 137.196C594.886 137.441 594.809 137.571 594.434 138.269C593.57 139.856 592.965 141.244 592.628 142.409C592.33 143.429 592.292 143.582 592.177 144.172C592.001 145.077 592.016 146.779 592.207 147.469C592.521 148.611 592.835 149.194 593.539 149.945C594.274 150.719 595.781 151.77 596.463 151.977C596.547 152 596.799 152.092 597.029 152.176C598.093 152.582 598.72 152.674 600.473 152.674C602.134 152.674 602.516 152.628 603.879 152.291C604.644 152.099 605.792 151.762 606.136 151.632C606.236 151.593 606.527 151.494 606.787 151.409C607.04 151.325 607.506 151.149 607.82 151.018C608.134 150.896 608.532 150.735 608.7 150.673C608.869 150.604 609.114 150.512 609.236 150.451C609.366 150.397 610.101 150.091 610.881 149.769C612.588 149.056 612.672 149.017 613.063 148.849C613.231 148.78 613.484 148.672 613.621 148.611C613.751 148.55 613.989 148.45 614.134 148.389C614.471 148.235 614.861 148.067 615.206 147.929C615.351 147.867 615.596 147.76 615.741 147.699C616.147 147.53 616.514 147.377 616.836 147.231C616.989 147.162 617.226 147.062 617.349 147.009C617.907 146.779 618.466 146.541 618.956 146.326C619.124 146.25 619.369 146.142 619.491 146.089C619.622 146.035 619.851 145.935 620.004 145.866C620.326 145.721 620.693 145.567 621.099 145.399C621.726 145.13 622.025 145 622.92 144.601C623.203 144.471 623.464 144.364 623.502 144.364C623.54 144.364 623.686 144.303 623.831 144.234C624.198 144.05 624.038 144.119 627.757 142.524C629.647 141.711 631.247 141.021 631.316 140.991C631.546 140.883 631.974 140.699 632.387 140.531C632.617 140.439 633 140.278 633.229 140.17C633.918 139.856 634.132 139.764 634.416 139.649C634.974 139.411 635.694 139.097 635.908 138.997C635.977 138.967 637.331 138.376 638.931 137.694C640.531 137.012 641.885 136.421 641.954 136.391C642.084 136.322 642.52 136.138 642.895 135.984C643.179 135.862 643.699 135.632 643.867 135.547C643.936 135.517 645.413 134.881 647.158 134.129C648.903 133.378 650.38 132.742 650.449 132.711C650.556 132.657 650.74 132.573 651.368 132.312C651.697 132.174 652.21 131.944 652.37 131.868C652.431 131.837 653.312 131.454 654.322 131.024C655.324 130.595 656.182 130.212 656.228 130.173C656.266 130.135 656.342 130.104 656.396 130.104C656.45 130.104 656.717 129.997 656.978 129.874C657.245 129.744 657.49 129.644 657.521 129.644C657.544 129.644 657.804 129.537 658.087 129.407C658.37 129.269 658.707 129.115 658.83 129.062C659.809 128.632 660.001 128.51 659.901 128.341C659.832 128.234 659.618 128.241 659.151 128.379C658.654 128.533 658.133 128.671 657.49 128.839C657.215 128.916 656.84 129.016 656.648 129.069C656.457 129.123 656.082 129.223 655.807 129.299C655.531 129.376 655.156 129.476 654.965 129.529C654.773 129.583 654.398 129.683 654.123 129.759C653.847 129.828 653.442 129.936 653.227 129.997C653.005 130.058 652.638 130.15 652.424 130.212C652.202 130.273 651.796 130.38 651.521 130.449C651.245 130.526 650.855 130.633 650.641 130.687C649.5 131.009 648.75 131.216 648.153 131.369C647.878 131.446 647.503 131.546 647.311 131.599C647.12 131.653 646.745 131.753 646.47 131.829C646.194 131.906 645.819 132.006 645.628 132.059C645.436 132.113 645.061 132.213 644.786 132.289C644.51 132.358 644.105 132.466 643.89 132.527C643.668 132.588 643.301 132.68 643.087 132.742C642.865 132.803 642.459 132.91 642.184 132.987C641.173 133.248 640.837 133.34 640.668 133.409C640.569 133.447 640.423 133.478 640.339 133.478C640.201 133.478 640.186 133.447 640.232 133.225C640.263 133.094 640.332 132.895 640.385 132.788C640.439 132.68 640.5 132.512 640.508 132.404L640.538 132.213L638.173 132.19C636.681 132.182 635.77 132.144 635.709 132.09C635.648 132.036 635.632 131.952 635.678 131.806C635.9 131.109 636.689 129.008 636.941 128.433C637.002 128.295 637.056 128.119 637.056 128.034C637.056 127.958 637.132 127.835 637.224 127.774C637.37 127.666 637.706 127.651 639.36 127.651C641.548 127.651 641.426 127.682 641.61 127.099C641.671 126.915 641.786 126.578 641.878 126.348C642.505 124.707 642.589 124.454 642.543 124.324C642.497 124.217 642.276 124.201 640.576 124.201C639.038 124.201 638.648 124.178 638.617 124.094C638.579 123.994 639.275 122.001 639.704 120.997C639.765 120.859 639.811 120.698 639.811 120.629C639.811 120.414 640.209 120.368 642.268 120.368H644.327L644.449 120.077C644.518 119.923 644.602 119.709 644.633 119.601C644.671 119.494 644.77 119.218 644.862 118.988C644.954 118.758 645.054 118.482 645.092 118.375C645.13 118.267 645.23 117.999 645.314 117.769C645.398 117.539 645.452 117.332 645.429 117.309C645.406 117.286 642.452 117.255 638.854 117.24C632.709 117.225 632.319 117.232 632.173 117.355C632.02 117.493 629.54 120.46 629.02 121.135C628.874 121.326 628.676 121.564 628.584 121.671C628.492 121.779 628.308 121.978 628.186 122.116C627.925 122.415 627.795 122.323 627.971 121.955C628.033 121.817 628.14 121.564 628.209 121.38C628.653 120.192 628.691 120.084 629.135 118.95C629.326 118.444 629.54 117.915 629.602 117.777C629.739 117.455 629.739 117.332 629.586 117.271C629.517 117.248 628.561 117.225 627.451 117.225H625.438L625.308 117.424ZM636.344 118.237C636.321 118.336 636.229 118.605 636.138 118.835C636.046 119.065 635.946 119.341 635.908 119.448C635.87 119.555 635.77 119.831 635.678 120.061C635.586 120.291 635.487 120.567 635.449 120.675C635.41 120.782 635.311 121.058 635.219 121.288C635.127 121.518 635.028 121.794 634.99 121.901C634.951 122.009 634.852 122.285 634.76 122.515C634.668 122.745 634.569 123.021 634.53 123.128C634.492 123.235 634.393 123.511 634.301 123.741C634.209 123.971 634.109 124.247 634.071 124.355C634.033 124.462 633.933 124.738 633.842 124.968C633.75 125.198 633.65 125.474 633.612 125.581C633.574 125.688 633.474 125.964 633.382 126.194C633.29 126.424 633.191 126.7 633.153 126.808C633.114 126.915 633.015 127.191 632.923 127.421C632.831 127.651 632.732 127.927 632.694 128.034C632.655 128.142 632.556 128.418 632.464 128.648C632.372 128.878 632.273 129.154 632.234 129.261C632.158 129.483 632.005 129.89 631.775 130.488C631.683 130.718 631.584 130.994 631.546 131.101C631.507 131.208 631.408 131.484 631.316 131.714C631.224 131.944 631.125 132.22 631.086 132.328C631.048 132.435 630.949 132.711 630.857 132.941C630.765 133.171 630.658 133.47 630.619 133.608C630.558 133.807 630.352 133.999 630.275 133.922C630.267 133.907 630.221 132.159 630.176 130.028C630.13 127.896 630.068 125.895 630.045 125.573C629.992 124.907 629.992 124.899 630.604 124.255C630.811 124.033 631.148 123.665 631.354 123.435C631.553 123.205 632.089 122.614 632.533 122.131C632.977 121.648 633.551 121.027 633.803 120.751C634.056 120.475 634.561 119.916 634.928 119.517C635.296 119.111 635.74 118.62 635.916 118.428C636.26 118.037 636.405 117.976 636.344 118.237Z" fill="white"/>
    <path d="M646.698 117.355C646.346 117.6 646.247 117.784 646.239 118.16C646.239 118.459 646.285 118.574 646.476 118.796C646.698 119.049 646.744 119.065 647.165 119.065C647.556 119.065 647.647 119.034 647.862 118.842C648.091 118.635 648.114 118.574 648.114 118.183C648.114 117.777 648.091 117.731 647.831 117.485C647.594 117.271 647.479 117.225 647.211 117.225C647.028 117.225 646.806 117.278 646.698 117.355V117.355ZM647.831 118.114C647.854 118.398 647.755 118.551 647.594 118.482C647.456 118.428 647.41 118.145 647.54 118.145C647.586 118.145 647.617 118.076 647.617 117.984C647.617 117.738 647.808 117.853 647.831 118.114V118.114ZM646.721 118.083C646.775 118.26 646.729 118.375 646.614 118.375C646.576 118.375 646.545 118.267 646.545 118.145C646.545 117.876 646.66 117.838 646.721 118.083V118.083ZM647.372 118.697C647.349 118.75 647.272 118.796 647.196 118.796C647.119 118.796 647.043 118.75 647.028 118.697C647.005 118.643 647.066 118.605 647.196 118.605C647.326 118.605 647.387 118.643 647.372 118.697ZM603.151 139.013C602.332 139.212 602.217 140.354 602.975 140.715C603.488 140.96 604.054 140.784 604.299 140.301C604.506 139.902 604.49 139.764 604.23 139.404C603.97 139.051 603.587 138.905 603.151 139.013ZM603.059 139.963C603.044 140.132 603.005 140.255 602.96 140.239C602.845 140.209 602.783 139.894 602.86 139.695C602.96 139.419 603.09 139.603 603.059 139.963V139.963ZM603.518 139.618C603.503 139.664 603.457 139.695 603.419 139.695C603.38 139.695 603.335 139.664 603.319 139.618C603.304 139.572 603.35 139.534 603.419 139.534C603.488 139.534 603.534 139.572 603.518 139.618ZM604.069 139.917C604.069 139.986 604.023 140.101 603.97 140.178C603.886 140.293 603.855 140.301 603.778 140.209C603.717 140.124 603.71 140.025 603.771 139.802C603.847 139.519 603.863 139.511 603.962 139.649C604.023 139.726 604.069 139.848 604.069 139.917V139.917ZM603.503 140.423C603.465 140.523 603.426 140.531 603.365 140.469C603.319 140.423 603.304 140.331 603.335 140.255C603.373 140.155 603.411 140.147 603.472 140.209C603.518 140.255 603.534 140.347 603.503 140.423ZM631.086 153.326C630.611 153.395 629.8 153.817 629.425 154.184C629.057 154.537 628.644 155.15 628.468 155.595C628.277 156.086 628.101 156.737 628.101 156.983C628.101 157.305 627.986 157.458 627.925 157.228C627.894 157.136 627.871 156.975 627.871 156.891C627.871 156.638 627.649 155.948 627.427 155.48C627.045 154.69 626.249 153.993 625.384 153.694C625.047 153.579 624.741 153.564 623.088 153.579L621.174 153.602L621.129 153.832C621.098 153.955 621.075 156.124 621.067 158.639L621.06 163.223L621.259 163.269C621.373 163.3 622.238 163.3 623.195 163.277C625.101 163.231 625.369 163.177 626.103 162.694C627.075 162.066 627.58 161.153 627.909 159.444C627.963 159.175 628.101 159.244 628.101 159.543C628.101 159.927 628.376 160.939 628.621 161.468C629.042 162.372 629.7 162.963 630.665 163.315C631.2 163.514 632.44 163.507 633.022 163.308C634.086 162.94 634.813 162.127 635.264 160.808C635.41 160.364 635.601 158.984 635.601 158.355C635.593 157.358 635.333 155.978 635.035 155.327C634.3 153.74 632.953 153.058 631.086 153.326V153.326ZM631.966 155.725C632.31 155.879 632.448 156.277 632.54 157.404C632.609 158.179 632.609 158.646 632.54 159.344C632.417 160.571 632.234 160.923 631.728 160.923C631.507 160.923 631.438 160.877 631.292 160.64C630.91 159.98 630.756 158.355 630.971 157.082C631.124 156.124 631.308 155.787 631.751 155.641C631.759 155.633 631.859 155.672 631.966 155.725V155.725ZM624.404 156.247C624.718 156.438 624.848 156.684 624.994 157.412C625.185 158.317 625.131 159.405 624.863 160.21C624.756 160.532 624.175 161.008 624.044 160.877C623.968 160.801 623.93 156.3 624.006 156.17C624.075 156.063 624.129 156.07 624.404 156.247V156.247ZM609.809 153.472C608.906 153.809 608.355 154.361 608.095 155.196C607.988 155.541 607.896 155.181 607.896 154.399V153.564H605.141V156.822C605.141 159.62 605.125 160.118 605.018 160.379C604.842 160.824 604.506 160.908 604.169 160.594C604 160.44 603.993 160.394 603.993 159.014C603.993 158.232 603.97 156.684 603.939 155.58L603.893 153.564H598.253V157.082C598.253 160.433 598.245 160.609 598.107 160.778C597.985 160.931 597.893 160.962 597.617 160.946C597.426 160.939 597.181 160.877 597.074 160.808C596.691 160.555 596.646 160.655 596.646 161.828C596.646 163.062 596.638 163.055 597.403 163.3C599.072 163.829 600.694 162.917 601 161.268C601.084 160.831 601.138 160.77 601.199 161.046C601.306 161.521 601.505 161.974 601.781 162.342C602.148 162.832 602.454 163.032 603.227 163.308C603.817 163.514 605.217 163.514 605.898 163.3C606.779 163.024 607.483 162.326 607.682 161.552C607.796 161.077 607.919 161.261 607.934 161.935C607.942 162.242 607.957 162.549 607.957 162.618C607.972 162.763 608.554 163.093 609.166 163.3C609.756 163.507 610.774 163.507 611.386 163.308C612.044 163.093 612.335 162.924 612.718 162.541C613.177 162.081 613.376 161.682 613.536 160.9C613.659 160.295 613.659 160.241 613.529 159.697C613.307 158.777 613.031 158.439 611.386 156.99C610.98 156.622 610.881 156.5 610.881 156.316C610.881 156.009 611.187 155.71 611.485 155.71C611.776 155.71 612.488 155.971 612.741 156.17C612.97 156.354 613.093 156.362 613.207 156.201C613.292 156.086 613.712 156.055 614.746 156.093C614.845 156.093 614.86 156.561 614.876 159.635L614.899 163.185H617.654L617.677 159.697C617.685 157.68 617.723 156.185 617.769 156.139C617.807 156.101 618.113 156.078 618.45 156.086C618.993 156.101 619.07 156.086 619.146 155.948C619.192 155.848 619.223 155.38 619.208 154.698L619.185 153.602L616.269 153.579C613.743 153.564 613.337 153.579 613.253 153.679C613.138 153.817 612.924 153.824 612.71 153.709C612.052 153.357 610.467 153.226 609.809 153.472V153.472ZM608.126 157.213C608.126 157.55 608.646 158.186 609.748 159.183C610.506 159.873 610.674 160.141 610.559 160.479C610.383 160.977 609.733 161.077 608.983 160.709C608.355 160.394 608.018 160.203 607.957 160.118C607.888 160.026 607.873 157.136 607.942 157.067C608.018 156.998 608.126 157.082 608.126 157.213ZM637.247 153.663C637.224 153.709 637.216 155.879 637.224 158.47L637.247 163.185L638.647 163.208L640.04 163.223V159.681C640.04 157.726 640.071 156.093 640.101 156.04C640.139 155.978 640.201 155.971 640.27 156.017C640.331 156.063 640.706 156.093 641.089 156.093H641.8L641.816 159.635L641.839 163.185L643.17 163.208C643.905 163.216 644.533 163.2 644.571 163.162C644.609 163.124 644.64 161.529 644.632 159.589V156.093H645.275C646.186 156.093 646.17 156.116 646.147 154.729L646.124 153.602L641.701 153.587C638.257 153.571 637.269 153.587 637.247 153.663V153.663Z" fill="white"/>
    <path d="M645.864 160.402C645.52 160.502 645.191 160.747 644.992 161.077C644.862 161.284 644.831 161.46 644.831 161.897C644.831 162.388 644.854 162.487 645.061 162.779C645.382 163.239 645.788 163.453 646.339 163.453C646.897 163.453 647.311 163.254 647.617 162.825C647.823 162.541 647.846 162.457 647.846 161.889C647.846 161.276 647.839 161.261 647.54 160.908C647.096 160.394 646.507 160.21 645.864 160.402V160.402Z" fill="white"/>
    <g clip-path="url(#clip0_35_47)">
    <path d="M749.583 123.055C749.583 123.055 747.634 121.546 741.321 119.228C735.781 117.189 731.55 116.721 731.55 116.721L731.571 128.81C731.571 133.92 725.796 139.347 715.934 139.347H715.652C705.791 139.347 700.019 133.92 700.019 128.81L700.038 116.721C700.038 116.721 695.811 117.189 690.269 119.228C683.956 121.546 682.007 123.055 682.007 123.055C682.475 132.751 697.538 140.74 715.791 140.744H715.796C734.05 140.74 749.117 132.751 749.583 123.055" fill="white"/>
    <path d="M749.591 150.205C749.591 150.205 747.642 151.709 741.329 154.03C735.786 156.069 731.558 156.535 731.558 156.535L731.579 144.447C731.579 139.338 725.805 133.914 715.943 133.914L715.804 133.91H715.8L715.663 133.914C705.8 133.914 700.028 139.338 700.028 144.447L700.049 156.535C700.049 156.535 695.82 156.069 690.278 154.03C683.967 151.709 682.014 150.205 682.014 150.205C682.482 140.509 697.549 132.521 715.804 132.514C734.059 132.521 749.126 140.509 749.591 150.205ZM685.296 167.695C683.757 167.695 683.73 166.523 683.73 166.071V163.938C683.73 163.805 683.721 163.635 683.995 163.635H684.788C685.048 163.635 685.034 163.814 685.034 163.938V166.071C685.034 166.225 685.059 166.631 685.619 166.631H686.953C687.502 166.631 687.534 166.225 687.534 166.071V163.938C687.534 163.814 687.517 163.635 687.776 163.635H688.579C688.868 163.635 688.842 163.814 688.842 163.938V166.071C688.842 166.524 688.812 167.695 687.271 167.695H685.296ZM692.667 167.434C692.125 166.703 691.349 165.784 690.558 164.809V167.408C690.558 167.523 690.586 167.695 690.314 167.695H689.573C689.306 167.695 689.336 167.524 689.336 167.408V163.933C689.336 163.813 689.325 163.633 689.573 163.633H691.02C691.428 163.633 692.011 164.454 692.392 165.001C692.689 165.412 693.232 166.035 693.597 166.506V163.933C693.597 163.813 693.582 163.633 693.851 163.633H694.657C694.913 163.633 694.899 163.813 694.899 163.933V167.694H693.414C693.095 167.695 692.958 167.716 692.667 167.434V167.434ZM695.39 167.695V163.639H698.974C699.192 163.639 700.665 163.609 700.665 165.156C700.665 166.733 700.834 167.695 699.004 167.695H697.072L696.656 166.849V167.695H695.39ZM698.784 166.626C699.436 166.626 699.386 166.003 699.386 165.716C699.386 164.758 699.117 164.719 698.687 164.719H696.642V166.626L698.784 166.626V166.626ZM702.067 163.664H705.371C705.649 163.664 705.612 163.847 705.612 164.186C705.612 164.502 705.655 164.681 705.371 164.681H702.759C702.691 164.681 702.452 164.648 702.452 164.891C702.452 165.139 702.407 165.237 702.668 165.237H704.976L705.348 165.976C705.401 166.079 705.395 166.169 705.191 166.169H702.802L702.432 165.446V166.511C702.432 166.759 702.652 166.712 702.716 166.712H705.428C705.698 166.712 705.674 166.9 705.674 167.208C705.674 167.537 705.698 167.721 705.428 167.721H701.996C701.709 167.721 701.152 167.632 701.152 166.737V164.502C701.152 164.267 701.274 163.664 702.067 163.664V163.664ZM706.503 163.638H710.117C710.602 163.638 711.308 163.634 711.308 164.942C711.308 165.797 711.126 165.84 710.737 166.105C711.389 166.216 711.301 167.049 711.301 167.481C711.301 167.699 711.222 167.695 711.158 167.695H710.098C709.875 167.695 709.929 167.344 709.929 167.161C709.929 166.665 709.651 166.686 709.542 166.686H707.982C707.832 166.425 707.542 165.844 707.542 165.844V167.528L707.343 167.694H706.276L706.17 167.561V163.988C706.17 163.737 706.347 163.638 706.503 163.638V163.638ZM709.382 164.711H707.773C707.503 164.711 707.516 164.801 707.516 164.882V165.608H709.173C709.976 165.608 709.976 165.408 709.976 165.198C709.976 164.78 709.942 164.711 709.382 164.711ZM717.531 163.664C717.796 163.664 718.054 163.784 718.333 164.327C718.521 164.716 719.834 167.088 720.111 167.584V167.72H718.744L718.35 167.006H716.687L716.327 166.19C716.224 166.356 715.675 167.399 715.487 167.72H714.115V167.63C714.395 167.104 716.306 163.664 716.306 163.664L717.531 163.664ZM717.104 164.789L716.433 166.006L716.495 166.067H717.739L717.801 166.006L717.166 164.784L717.104 164.789ZM720.979 163.638H724.595C725.078 163.638 725.784 163.634 725.784 164.942C725.784 165.797 725.604 165.84 725.215 166.105C725.869 166.216 725.779 167.049 725.779 167.481C725.779 167.699 725.698 167.695 725.633 167.695H724.573C724.352 167.695 724.407 167.344 724.407 167.161C724.407 166.665 724.129 166.686 724.022 166.686H722.459C722.309 166.425 722.017 165.844 722.017 165.844V167.528L721.822 167.694H720.753L720.646 167.561V163.988C720.646 163.737 720.825 163.638 720.979 163.638V163.638ZM723.86 164.711H722.249C721.98 164.711 721.993 164.801 721.993 164.882V165.608H723.651C724.45 165.608 724.45 165.408 724.45 165.198C724.45 164.78 724.42 164.711 723.86 164.711V164.711ZM728.942 167.695C728.674 167.191 727.925 165.797 727.421 164.882V167.413C727.421 167.52 727.438 167.695 727.178 167.695H726.447C726.173 167.695 726.194 167.52 726.194 167.413V163.937C726.194 163.813 726.177 163.638 726.447 163.638H727.712C727.9 163.638 728.169 163.596 728.468 164.198C728.695 164.681 729.174 165.686 729.508 166.216C729.841 165.686 730.332 164.681 730.559 164.198C730.854 163.596 731.114 163.638 731.328 163.638H732.589C732.845 163.638 732.816 163.813 732.816 163.937V167.413C732.816 167.52 732.854 167.695 732.589 167.695H731.85C731.581 167.695 731.602 167.52 731.602 167.413V164.882C731.089 165.797 730.349 167.19 730.068 167.695H728.942ZM734.439 167.703C733.242 167.703 733.294 166.421 733.294 165.584C733.294 164.822 733.208 163.63 734.708 163.618H737.376C738.88 163.618 738.782 164.827 738.782 165.584C738.782 166.421 738.842 167.703 737.623 167.703H734.439ZM736.85 166.66C737.457 166.66 737.435 166.032 737.435 165.614C737.435 165.233 737.525 164.643 736.734 164.643H735.392C734.606 164.643 734.7 165.233 734.7 165.614C734.7 166.033 734.661 166.66 735.269 166.66H736.85V166.66ZM740.786 167.695C739.252 167.695 739.222 166.523 739.222 166.071V163.938C739.222 163.805 739.214 163.635 739.488 163.635H740.283C740.544 163.635 740.526 163.814 740.526 163.938V166.071C740.526 166.225 740.552 166.631 741.112 166.631H742.445C742.997 166.631 743.027 166.225 743.027 166.071V163.938C743.027 163.814 743.014 163.635 743.27 163.635H744.069C744.36 163.635 744.334 163.814 744.334 163.938V166.071C744.334 166.524 744.308 167.695 742.761 167.695H740.786ZM745.189 163.638H748.805C749.288 163.638 749.993 163.634 749.993 164.942C749.993 165.797 749.81 165.84 749.421 166.105C750.075 166.216 749.989 167.049 749.989 167.481C749.989 167.699 749.908 167.695 749.844 167.695H748.784C748.566 167.695 748.617 167.344 748.617 167.161C748.617 166.665 748.335 166.686 748.228 166.686H746.668C746.519 166.425 746.228 165.844 746.228 165.844V167.528L746.027 167.694H744.962L744.855 167.561V163.988C744.855 163.737 745.035 163.638 745.189 163.638V163.638ZM748.065 164.711H746.458C746.189 164.711 746.202 164.801 746.202 164.882V165.608H747.86C748.659 165.608 748.659 165.408 748.659 165.198C748.66 164.78 748.625 164.711 748.065 164.711" fill="white"/>
    </g>
    <path d="M667.118 61.1H674.786C676.604 61.1 678.053 61.541 679.133 62.423C680.213 63.305 680.753 64.484 680.753 65.96C680.753 66.932 680.492 67.778 679.97 68.498C679.466 69.218 678.764 69.767 677.864 70.145C678.998 70.487 679.889 71.063 680.537 71.873C681.203 72.665 681.536 73.601 681.536 74.681C681.536 76.301 680.942 77.597 679.754 78.569C678.584 79.523 677.036 80 675.11 80H667.118V61.1ZM674.678 62.909H669.197V69.335H674.678C675.902 69.335 676.874 69.047 677.594 68.471C678.332 67.877 678.701 67.094 678.701 66.122C678.701 65.15 678.332 64.376 677.594 63.8C676.874 63.206 675.902 62.909 674.678 62.909ZM674.948 78.191C676.298 78.191 677.378 77.867 678.188 77.219C679.016 76.571 679.43 75.707 679.43 74.627C679.43 73.547 679.016 72.683 678.188 72.035C677.378 71.387 676.298 71.063 674.948 71.063H669.197V78.191H674.948ZM684.863 80V61.1H692.963C694.799 61.1 696.284 61.604 697.418 62.612C698.552 63.602 699.119 64.907 699.119 66.527C699.119 67.769 698.75 68.84 698.012 69.74C697.292 70.64 696.32 71.261 695.096 71.603L699.335 80H697.04L692.99 71.873H686.942V80H684.863ZM692.828 62.963H686.942V70.118H692.828C694.088 70.118 695.105 69.794 695.879 69.146C696.653 68.48 697.04 67.607 697.04 66.527C697.04 65.447 696.653 64.583 695.879 63.935C695.105 63.287 694.088 62.963 692.828 62.963ZM700.558 80L708.415 61.1H710.926L718.675 80H716.407L714.031 74.06H705.121L702.718 80H700.558ZM705.85 72.278H713.302L709.603 63.044L705.85 72.278ZM720.854 61.1H722.933L734.3 76.436V61.1H736.271V80H734.435L722.825 64.259V80H720.854V61.1ZM740.418 80V61.1H746.655C748.077 61.1 749.4 61.343 750.624 61.829C751.848 62.297 752.901 62.945 753.783 63.773C754.665 64.601 755.349 65.6 755.835 66.77C756.339 67.922 756.591 69.182 756.591 70.55C756.591 71.918 756.339 73.187 755.835 74.357C755.349 75.509 754.665 76.499 753.783 77.327C752.919 78.155 751.875 78.812 750.651 79.298C749.427 79.766 748.095 80 746.655 80H740.418ZM746.763 62.99H742.497V78.11H746.763C747.843 78.11 748.86 77.921 749.814 77.543C750.768 77.147 751.587 76.616 752.271 75.95C752.955 75.266 753.495 74.465 753.891 73.547C754.287 72.611 754.485 71.612 754.485 70.55C754.485 69.488 754.287 68.498 753.891 67.58C753.495 66.644 752.955 65.843 752.271 65.177C751.587 64.493 750.768 63.962 749.814 63.584C748.86 63.188 747.843 62.99 746.763 62.99ZM758.069 76.76L759.446 75.329C760.418 76.355 761.453 77.138 762.551 77.678C763.667 78.2 764.837 78.461 766.061 78.461C767.537 78.461 768.752 78.11 769.706 77.408C770.66 76.706 771.137 75.815 771.137 74.735C771.137 73.763 770.795 73.016 770.111 72.494C769.445 71.972 768.338 71.585 766.79 71.333L764.063 70.901C762.245 70.613 760.904 70.082 760.04 69.308C759.176 68.516 758.744 67.454 758.744 66.122C758.744 64.556 759.356 63.287 760.58 62.315C761.804 61.343 763.406 60.857 765.386 60.857C766.7 60.857 768.005 61.073 769.301 61.505C770.597 61.937 771.776 62.558 772.838 63.368L771.65 64.988C770.624 64.214 769.58 63.629 768.518 63.233C767.456 62.837 766.385 62.639 765.305 62.639C763.955 62.639 762.857 62.954 762.011 63.584C761.183 64.196 760.769 64.988 760.769 65.96C760.769 66.842 761.066 67.517 761.66 67.985C762.254 68.453 763.235 68.795 764.603 69.011L767.303 69.443C769.355 69.785 770.849 70.37 771.785 71.198C772.739 72.026 773.216 73.169 773.216 74.627C773.216 75.455 773.036 76.22 772.676 76.922C772.334 77.606 771.839 78.2 771.191 78.704C770.561 79.19 769.796 79.577 768.896 79.865C768.014 80.135 767.042 80.27 765.98 80.27C764.486 80.27 763.046 79.973 761.66 79.379C760.292 78.767 759.095 77.894 758.069 76.76Z" fill="white"/>
    <path d="M510.832 225.56C511.872 225.56 512.864 225.36 513.808 224.96C514.752 224.544 515.544 223.976 516.184 223.256L517.384 224.504C516.552 225.368 515.56 226.048 514.408 226.544C513.256 227.024 512.048 227.264 510.784 227.264C509.568 227.264 508.424 227.04 507.352 226.592C506.296 226.144 505.376 225.536 504.592 224.768C503.808 223.984 503.192 223.064 502.744 222.008C502.296 220.936 502.072 219.8 502.072 218.6C502.072 217.4 502.296 216.272 502.744 215.216C503.192 214.144 503.808 213.224 504.592 212.456C505.376 211.672 506.296 211.056 507.352 210.608C508.424 210.16 509.568 209.936 510.784 209.936C512.08 209.936 513.304 210.184 514.456 210.68C515.624 211.16 516.616 211.832 517.432 212.696L516.208 213.992C515.552 213.256 514.736 212.68 513.76 212.264C512.8 211.848 511.808 211.64 510.784 211.64C509.824 211.64 508.92 211.824 508.072 212.192C507.24 212.544 506.52 213.032 505.912 213.656C505.304 214.264 504.824 215 504.472 215.864C504.12 216.712 503.944 217.624 503.944 218.6C503.944 219.576 504.12 220.496 504.472 221.36C504.824 222.208 505.304 222.944 505.912 223.568C506.536 224.176 507.264 224.664 508.096 225.032C508.944 225.384 509.856 225.56 510.832 225.56ZM524.38 227V225.704L530.74 219.584C531.844 218.496 532.604 217.624 533.02 216.968C533.436 216.296 533.644 215.584 533.644 214.832C533.644 213.872 533.276 213.08 532.54 212.456C531.82 211.832 530.908 211.52 529.804 211.52C528.988 211.52 528.22 211.68 527.5 212C526.796 212.32 526.012 212.848 525.148 213.584L524.116 212.36C525.028 211.56 525.956 210.968 526.9 210.584C527.844 210.184 528.82 209.984 529.828 209.984C530.628 209.984 531.372 210.104 532.06 210.344C532.748 210.584 533.332 210.912 533.812 211.328C534.308 211.744 534.692 212.248 534.964 212.84C535.236 213.416 535.372 214.048 535.372 214.736C535.372 215.232 535.316 215.696 535.204 216.128C535.108 216.56 534.924 217 534.652 217.448C534.396 217.88 534.044 218.352 533.596 218.864C533.148 219.36 532.58 219.936 531.892 220.592L526.78 225.464H535.684V227H524.38ZM544.42 227.24C543.412 227.24 542.484 227.032 541.636 226.616C540.804 226.184 540.084 225.592 539.476 224.84C538.884 224.072 538.42 223.16 538.084 222.104C537.748 221.032 537.58 219.864 537.58 218.6C537.58 217.336 537.748 216.176 538.084 215.12C538.42 214.048 538.884 213.136 539.476 212.384C540.084 211.616 540.812 211.024 541.66 210.608C542.508 210.176 543.428 209.96 544.42 209.96C545.428 209.96 546.348 210.176 547.18 210.608C548.028 211.024 548.756 211.616 549.364 212.384C549.972 213.136 550.444 214.048 550.78 215.12C551.116 216.176 551.284 217.336 551.284 218.6C551.284 219.864 551.116 221.032 550.78 222.104C550.444 223.16 549.972 224.072 549.364 224.84C548.756 225.592 548.028 226.184 547.18 226.616C546.348 227.032 545.428 227.24 544.42 227.24ZM544.42 225.656C545.972 225.656 547.212 225.016 548.14 223.736C549.068 222.456 549.532 220.744 549.532 218.6C549.532 216.456 549.068 214.744 548.14 213.464C547.212 212.168 545.972 211.52 544.42 211.52C542.884 211.52 541.652 212.168 540.724 213.464C539.796 214.744 539.332 216.456 539.332 218.6C539.332 220.744 539.796 222.456 540.724 223.736C541.652 225.016 542.884 225.656 544.42 225.656ZM552.576 227V225.704L558.936 219.584C560.04 218.496 560.8 217.624 561.216 216.968C561.632 216.296 561.84 215.584 561.84 214.832C561.84 213.872 561.472 213.08 560.736 212.456C560.016 211.832 559.104 211.52 558 211.52C557.184 211.52 556.416 211.68 555.696 212C554.992 212.32 554.208 212.848 553.344 213.584L552.312 212.36C553.224 211.56 554.152 210.968 555.096 210.584C556.04 210.184 557.016 209.984 558.023 209.984C558.824 209.984 559.568 210.104 560.256 210.344C560.944 210.584 561.528 210.912 562.008 211.328C562.504 211.744 562.888 212.248 563.16 212.84C563.432 213.416 563.568 214.048 563.568 214.736C563.568 215.232 563.512 215.696 563.4 216.128C563.304 216.56 563.12 217 562.848 217.448C562.592 217.88 562.24 218.352 561.792 218.864C561.344 219.36 560.776 219.936 560.088 220.592L554.976 225.464H563.88V227H552.576ZM569.951 210.2V227H568.199V212.048L565.367 213.296V211.688L568.823 210.2H569.951ZM583.749 227.096C582.917 227.096 582.133 226.936 581.397 226.616C580.677 226.296 580.045 225.864 579.501 225.32C578.957 224.76 578.525 224.104 578.205 223.352C577.901 222.6 577.749 221.792 577.749 220.928C577.749 220.064 577.901 219.256 578.205 218.504C578.525 217.752 578.957 217.104 579.501 216.56C580.045 216 580.685 215.56 581.421 215.24C582.157 214.92 582.949 214.76 583.797 214.76C584.485 214.76 585.149 214.888 585.789 215.144C586.445 215.384 587.045 215.728 587.589 216.176V214.976H589.341V227.288C589.341 228.824 588.893 230 587.997 230.816C587.101 231.648 585.821 232.064 584.157 232.064C583.325 232.064 582.501 231.952 581.685 231.728C580.869 231.52 580.125 231.216 579.453 230.816L580.221 229.424C580.941 229.808 581.605 230.088 582.213 230.264C582.837 230.44 583.461 230.528 584.085 230.528C585.221 230.528 586.085 230.256 586.677 229.712C587.269 229.168 587.565 228.368 587.565 227.312V225.704C587.021 226.152 586.421 226.496 585.765 226.736C585.125 226.976 584.453 227.096 583.749 227.096ZM579.501 220.928C579.501 221.568 579.613 222.176 579.837 222.752C580.061 223.312 580.365 223.8 580.749 224.216C581.149 224.616 581.621 224.936 582.165 225.176C582.709 225.416 583.285 225.536 583.893 225.536C584.661 225.536 585.365 225.392 586.005 225.104C586.645 224.816 587.165 224.408 587.565 223.88V217.976C587.165 217.464 586.637 217.064 585.981 216.776C585.341 216.488 584.645 216.344 583.893 216.344C583.269 216.344 582.685 216.464 582.141 216.704C581.613 216.928 581.149 217.248 580.749 217.664C580.365 218.08 580.061 218.568 579.837 219.128C579.613 219.688 579.501 220.288 579.501 220.928ZM594.068 214.976V222.224C594.068 223.28 594.372 224.12 594.98 224.744C595.588 225.368 596.404 225.68 597.428 225.68C598.148 225.68 598.788 225.52 599.348 225.2C599.924 224.864 600.388 224.4 600.74 223.808V214.976H602.516V227H600.74V225.608C600.276 226.152 599.724 226.56 599.084 226.832C598.46 227.104 597.756 227.24 596.972 227.24C595.596 227.24 594.476 226.808 593.612 225.944C592.748 225.08 592.316 223.96 592.316 222.584V214.976H594.068ZM609.327 227.216C608.015 227.216 606.943 226.88 606.111 226.208C605.295 225.536 604.887 224.664 604.887 223.592C604.887 222.472 605.319 221.584 606.183 220.928C607.047 220.256 608.215 219.92 609.687 219.92C610.327 219.92 610.943 219.992 611.535 220.136C612.143 220.28 612.703 220.48 613.215 220.736V219.152C613.215 218.192 612.943 217.472 612.399 216.992C611.855 216.496 611.063 216.248 610.023 216.248C609.431 216.248 608.831 216.336 608.223 216.512C607.631 216.672 606.975 216.936 606.255 217.304L605.583 215.936C606.447 215.52 607.247 215.216 607.983 215.024C608.719 214.832 609.455 214.736 610.191 214.736C611.711 214.736 612.879 215.096 613.695 215.816C614.527 216.536 614.943 217.568 614.943 218.912V227H613.215V225.824C612.671 226.288 612.071 226.64 611.415 226.88C610.775 227.104 610.079 227.216 609.327 227.216ZM606.591 223.544C606.591 224.216 606.871 224.768 607.431 225.2C608.007 225.616 608.743 225.824 609.639 225.824C610.359 225.824 611.015 225.712 611.607 225.488C612.199 225.264 612.735 224.912 613.215 224.432V222.176C612.719 221.84 612.183 221.6 611.607 221.456C611.047 221.296 610.423 221.216 609.735 221.216C608.775 221.216 608.007 221.432 607.431 221.864C606.871 222.28 606.591 222.84 606.591 223.544ZM617.91 227V214.976H619.686V216.68C620.038 216.056 620.502 215.576 621.078 215.24C621.654 214.888 622.31 214.712 623.046 214.712C623.27 214.712 623.47 214.728 623.646 214.76C623.822 214.776 623.998 214.816 624.174 214.88V216.512C623.966 216.448 623.758 216.4 623.55 216.368C623.342 216.32 623.134 216.296 622.926 216.296C622.19 216.296 621.542 216.512 620.982 216.944C620.422 217.36 619.99 217.968 619.686 218.768V227H617.91ZM634.724 227V225.728C634.212 226.208 633.62 226.576 632.948 226.832C632.292 227.072 631.588 227.192 630.836 227.192C629.988 227.192 629.196 227.032 628.46 226.712C627.724 226.392 627.084 225.96 626.54 225.416C625.996 224.856 625.564 224.192 625.244 223.424C624.94 222.656 624.788 221.84 624.788 220.976C624.788 220.112 624.94 219.304 625.244 218.552C625.564 217.784 625.996 217.128 626.54 216.584C627.084 216.024 627.724 215.584 628.46 215.264C629.212 214.944 630.012 214.784 630.86 214.784C631.548 214.784 632.22 214.904 632.876 215.144C633.548 215.368 634.156 215.704 634.7 216.152V210.2L636.476 209.792V227H634.724ZM626.54 220.952C626.54 221.608 626.652 222.224 626.876 222.8C627.116 223.376 627.436 223.872 627.836 224.288C628.236 224.704 628.708 225.032 629.252 225.272C629.796 225.512 630.38 225.632 631.004 225.632C631.756 225.632 632.452 225.488 633.092 225.2C633.748 224.896 634.284 224.48 634.7 223.952V218C634.284 217.488 633.748 217.088 633.092 216.8C632.436 216.496 631.74 216.344 631.004 216.344C629.756 216.344 628.7 216.784 627.836 217.664C626.972 218.544 626.54 219.64 626.54 220.952ZM640.384 212.672C640.064 212.672 639.784 212.552 639.544 212.312C639.304 212.072 639.184 211.792 639.184 211.472C639.184 211.136 639.304 210.856 639.544 210.632C639.784 210.392 640.064 210.272 640.384 210.272C640.72 210.272 641 210.392 641.224 210.632C641.464 210.856 641.584 211.136 641.584 211.472C641.584 211.792 641.464 212.072 641.224 212.312C641 212.552 640.72 212.672 640.384 212.672ZM641.272 214.976V227H639.496V214.976H641.272ZM648.093 227.216C646.781 227.216 645.709 226.88 644.877 226.208C644.061 225.536 643.653 224.664 643.653 223.592C643.653 222.472 644.085 221.584 644.949 220.928C645.813 220.256 646.981 219.92 648.453 219.92C649.093 219.92 649.709 219.992 650.301 220.136C650.909 220.28 651.469 220.48 651.981 220.736V219.152C651.981 218.192 651.709 217.472 651.165 216.992C650.621 216.496 649.829 216.248 648.789 216.248C648.197 216.248 647.597 216.336 646.989 216.512C646.397 216.672 645.741 216.936 645.021 217.304L644.349 215.936C645.213 215.52 646.013 215.216 646.749 215.024C647.485 214.832 648.221 214.736 648.957 214.736C650.477 214.736 651.645 215.096 652.461 215.816C653.293 216.536 653.709 217.568 653.709 218.912V227H651.981V225.824C651.437 226.288 650.837 226.64 650.181 226.88C649.541 227.104 648.845 227.216 648.093 227.216ZM645.357 223.544C645.357 224.216 645.637 224.768 646.197 225.2C646.773 225.616 647.509 225.824 648.405 225.824C649.125 225.824 649.781 225.712 650.373 225.488C650.965 225.264 651.501 224.912 651.981 224.432V222.176C651.485 221.84 650.949 221.6 650.373 221.456C649.813 221.296 649.189 221.216 648.501 221.216C647.541 221.216 646.773 221.432 646.197 221.864C645.637 222.28 645.357 222.84 645.357 223.544ZM656.676 227V214.976H658.452V216.392C658.916 215.848 659.468 215.44 660.108 215.168C660.748 214.88 661.46 214.736 662.244 214.736C663.604 214.736 664.716 215.168 665.58 216.032C666.444 216.896 666.876 218.016 666.876 219.392V227H665.124V219.752C665.124 218.696 664.82 217.856 664.212 217.232C663.604 216.608 662.788 216.296 661.764 216.296C661.044 216.296 660.396 216.456 659.82 216.776C659.26 217.096 658.804 217.552 658.452 218.144V227H656.676ZM668.275 214.976H671.107V212.696C671.107 211.528 671.427 210.632 672.067 210.008C672.707 209.368 673.627 209.048 674.827 209.048C675.147 209.048 675.435 209.064 675.691 209.096C675.947 209.128 676.195 209.184 676.435 209.264V210.848C676.163 210.768 675.915 210.712 675.691 210.68C675.467 210.632 675.219 210.608 674.947 210.608C674.243 210.608 673.715 210.784 673.363 211.136C673.027 211.472 672.859 212.008 672.859 212.744V214.976H676.435V216.488H672.859V227H671.107V216.488H668.275V214.976ZM679.244 212.672C678.924 212.672 678.644 212.552 678.404 212.312C678.164 212.072 678.044 211.792 678.044 211.472C678.044 211.136 678.164 210.856 678.404 210.632C678.644 210.392 678.924 210.272 679.244 210.272C679.58 210.272 679.86 210.392 680.084 210.632C680.324 210.856 680.444 211.136 680.444 211.472C680.444 211.792 680.324 212.072 680.084 212.312C679.86 212.552 679.58 212.672 679.244 212.672ZM680.132 214.976V227H678.356V214.976H680.132ZM684.648 224.312V216.488H682.056V214.976H684.648V211.928L686.4 211.472V214.976H690.024V216.488H686.4V223.856C686.4 224.496 686.544 224.96 686.832 225.248C687.12 225.52 687.592 225.656 688.248 225.656C688.584 225.656 688.88 225.632 689.136 225.584C689.408 225.536 689.696 225.456 690 225.344V226.904C689.696 227.016 689.352 227.096 688.968 227.144C688.6 227.192 688.24 227.216 687.888 227.216C686.848 227.216 686.048 226.968 685.488 226.472C684.928 225.976 684.648 225.256 684.648 224.312ZM691.926 227V214.976H693.702V216.392C694.166 215.848 694.718 215.44 695.358 215.168C695.998 214.88 696.71 214.736 697.494 214.736C698.854 214.736 699.966 215.168 700.83 216.032C701.694 216.896 702.126 218.016 702.126 219.392V227H700.374V219.752C700.374 218.696 700.07 217.856 699.462 217.232C698.854 216.608 698.038 216.296 697.014 216.296C696.294 216.296 695.646 216.456 695.07 216.776C694.51 217.096 694.054 217.552 693.702 218.144V227H691.926ZM715.226 225.728C714.554 226.224 713.85 226.6 713.114 226.856C712.394 227.096 711.602 227.216 710.738 227.216C709.874 227.216 709.058 227.056 708.29 226.736C707.538 226.416 706.882 225.976 706.322 225.416C705.778 224.856 705.346 224.2 705.026 223.448C704.706 222.68 704.546 221.856 704.546 220.976C704.546 220.112 704.698 219.304 705.002 218.552C705.322 217.8 705.746 217.144 706.274 216.584C706.802 216.024 707.426 215.584 708.146 215.264C708.882 214.944 709.658 214.784 710.474 214.784C711.274 214.784 712.018 214.944 712.706 215.264C713.41 215.584 714.01 216.024 714.506 216.584C715.018 217.144 715.418 217.8 715.706 218.552C716.01 219.304 716.162 220.112 716.162 220.976V221.528H706.298C706.426 222.712 706.914 223.696 707.762 224.48C708.61 225.264 709.626 225.656 710.81 225.656C711.434 225.656 712.042 225.56 712.634 225.368C713.226 225.176 713.722 224.904 714.122 224.552L715.226 225.728ZM710.426 216.344C709.386 216.344 708.482 216.696 707.714 217.4C706.962 218.104 706.506 219.008 706.346 220.112H714.386C714.226 219.056 713.77 218.168 713.018 217.448C712.282 216.712 711.418 216.344 710.426 216.344ZM717.538 225.344L718.618 224.192C719.162 224.704 719.77 225.104 720.442 225.392C721.13 225.664 721.826 225.8 722.53 225.8C723.49 225.8 724.274 225.6 724.882 225.2C725.49 224.8 725.794 224.28 725.794 223.64C725.794 223.128 725.61 222.728 725.242 222.44C724.89 222.136 724.33 221.928 723.562 221.816L721.474 221.528C720.274 221.352 719.378 221 718.786 220.472C718.21 219.928 717.922 219.2 717.922 218.288C717.922 217.28 718.346 216.448 719.194 215.792C720.042 215.12 721.122 214.784 722.434 214.784C723.298 214.784 724.114 214.912 724.882 215.168C725.666 215.424 726.426 215.824 727.162 216.368L726.226 217.568C725.554 217.12 724.898 216.784 724.258 216.56C723.634 216.336 722.994 216.224 722.338 216.224C721.522 216.224 720.85 216.408 720.322 216.776C719.81 217.144 719.554 217.624 719.554 218.216C719.554 218.728 719.73 219.128 720.082 219.416C720.434 219.688 721.002 219.88 721.786 219.992L723.874 220.28C725.074 220.44 725.97 220.8 726.562 221.36C727.17 221.904 727.474 222.632 727.474 223.544C727.474 224.056 727.346 224.544 727.09 225.008C726.85 225.456 726.506 225.848 726.058 226.184C725.626 226.504 725.114 226.76 724.522 226.952C723.93 227.128 723.29 227.216 722.602 227.216C721.61 227.216 720.674 227.056 719.794 226.736C718.93 226.4 718.178 225.936 717.538 225.344ZM728.436 225.344L729.516 224.192C730.06 224.704 730.668 225.104 731.34 225.392C732.028 225.664 732.724 225.8 733.428 225.8C734.388 225.8 735.172 225.6 735.78 225.2C736.388 224.8 736.692 224.28 736.692 223.64C736.692 223.128 736.508 222.728 736.14 222.44C735.788 222.136 735.228 221.928 734.46 221.816L732.372 221.528C731.172 221.352 730.276 221 729.684 220.472C729.108 219.928 728.82 219.2 728.82 218.288C728.82 217.28 729.244 216.448 730.092 215.792C730.94 215.12 732.02 214.784 733.332 214.784C734.196 214.784 735.012 214.912 735.78 215.168C736.564 215.424 737.324 215.824 738.06 216.368L737.124 217.568C736.452 217.12 735.796 216.784 735.156 216.56C734.532 216.336 733.892 216.224 733.236 216.224C732.42 216.224 731.748 216.408 731.22 216.776C730.708 217.144 730.452 217.624 730.452 218.216C730.452 218.728 730.628 219.128 730.98 219.416C731.332 219.688 731.9 219.88 732.684 219.992L734.772 220.28C735.972 220.44 736.868 220.8 737.46 221.36C738.068 221.904 738.372 222.632 738.372 223.544C738.372 224.056 738.244 224.544 737.988 225.008C737.748 225.456 737.404 225.848 736.956 226.184C736.524 226.504 736.012 226.76 735.42 226.952C734.828 227.128 734.188 227.216 733.5 227.216C732.508 227.216 731.572 227.056 730.692 226.736C729.828 226.4 729.076 225.936 728.436 225.344ZM740.86 224.696C741.196 224.696 741.484 224.816 741.724 225.056C741.964 225.296 742.084 225.584 742.084 225.92C742.084 226.256 741.964 226.544 741.724 226.784C741.484 227.024 741.196 227.144 740.86 227.144C740.524 227.144 740.236 227.024 739.996 226.784C739.756 226.544 739.636 226.256 739.636 225.92C739.636 225.584 739.756 225.296 739.996 225.056C740.236 224.816 740.524 224.696 740.86 224.696ZM748.494 227L755.478 210.2H757.71L764.598 227H762.582L760.47 221.72H752.55L750.414 227H748.494ZM753.198 220.136H759.822L756.534 211.928L753.198 220.136ZM767.976 209.792V227H766.2V210.2L767.976 209.792ZM772.78 209.792V227H771.004V210.2L772.78 209.792ZM780.965 227V214.976H782.741V216.68C783.093 216.056 783.557 215.576 784.133 215.24C784.709 214.888 785.365 214.712 786.101 214.712C786.325 214.712 786.525 214.728 786.701 214.76C786.877 214.776 787.053 214.816 787.229 214.88V216.512C787.021 216.448 786.813 216.4 786.605 216.368C786.397 216.32 786.189 216.296 785.981 216.296C785.245 216.296 784.597 216.512 784.037 216.944C783.477 217.36 783.045 217.968 782.741 218.768V227H780.965ZM790.15 212.672C789.83 212.672 789.55 212.552 789.31 212.312C789.07 212.072 788.95 211.792 788.95 211.472C788.95 211.136 789.07 210.856 789.31 210.632C789.55 210.392 789.83 210.272 790.15 210.272C790.486 210.272 790.766 210.392 790.99 210.632C791.23 210.856 791.35 211.136 791.35 211.472C791.35 211.792 791.23 212.072 790.99 212.312C790.766 212.552 790.486 212.672 790.15 212.672ZM791.038 214.976V227H789.262V214.976H791.038ZM799.515 227.096C798.683 227.096 797.899 226.936 797.163 226.616C796.443 226.296 795.811 225.864 795.267 225.32C794.723 224.76 794.291 224.104 793.971 223.352C793.667 222.6 793.515 221.792 793.515 220.928C793.515 220.064 793.667 219.256 793.971 218.504C794.291 217.752 794.723 217.104 795.267 216.56C795.811 216 796.451 215.56 797.187 215.24C797.923 214.92 798.715 214.76 799.563 214.76C800.251 214.76 800.915 214.888 801.555 215.144C802.211 215.384 802.811 215.728 803.355 216.176V214.976H805.107V227.288C805.107 228.824 804.659 230 803.763 230.816C802.867 231.648 801.587 232.064 799.923 232.064C799.091 232.064 798.267 231.952 797.451 231.728C796.635 231.52 795.891 231.216 795.219 230.816L795.987 229.424C796.707 229.808 797.371 230.088 797.979 230.264C798.603 230.44 799.227 230.528 799.851 230.528C800.987 230.528 801.851 230.256 802.443 229.712C803.035 229.168 803.331 228.368 803.331 227.312V225.704C802.787 226.152 802.187 226.496 801.531 226.736C800.891 226.976 800.219 227.096 799.515 227.096ZM795.267 220.928C795.267 221.568 795.379 222.176 795.603 222.752C795.827 223.312 796.131 223.8 796.515 224.216C796.915 224.616 797.387 224.936 797.931 225.176C798.475 225.416 799.051 225.536 799.659 225.536C800.427 225.536 801.131 225.392 801.771 225.104C802.411 224.816 802.931 224.408 803.331 223.88V217.976C802.931 217.464 802.403 217.064 801.747 216.776C801.107 216.488 800.411 216.344 799.659 216.344C799.035 216.344 798.451 216.464 797.907 216.704C797.379 216.928 796.915 217.248 796.515 217.664C796.131 218.08 795.827 218.568 795.603 219.128C795.379 219.688 795.267 220.288 795.267 220.928ZM808.129 227V210.2L809.905 209.792V216.392C810.369 215.848 810.921 215.44 811.561 215.168C812.201 214.88 812.913 214.736 813.697 214.736C815.057 214.736 816.169 215.168 817.033 216.032C817.897 216.896 818.329 218.016 818.329 219.392V227H816.577V219.752C816.577 218.696 816.273 217.856 815.665 217.232C815.057 216.608 814.241 216.296 813.217 216.296C812.497 216.296 811.849 216.456 811.273 216.776C810.713 217.096 810.257 217.552 809.905 218.144V227H808.129ZM822.32 224.312V216.488H819.728V214.976H822.32V211.928L824.072 211.472V214.976H827.696V216.488H824.072V223.856C824.072 224.496 824.216 224.96 824.504 225.248C824.792 225.52 825.264 225.656 825.92 225.656C826.256 225.656 826.552 225.632 826.808 225.584C827.08 225.536 827.368 225.456 827.672 225.344V226.904C827.368 227.016 827.024 227.096 826.64 227.144C826.272 227.192 825.912 227.216 825.56 227.216C824.52 227.216 823.72 226.968 823.16 226.472C822.6 225.976 822.32 225.256 822.32 224.312ZM828.608 225.344L829.688 224.192C830.232 224.704 830.84 225.104 831.512 225.392C832.2 225.664 832.896 225.8 833.6 225.8C834.56 225.8 835.344 225.6 835.952 225.2C836.56 224.8 836.864 224.28 836.864 223.64C836.864 223.128 836.68 222.728 836.312 222.44C835.96 222.136 835.4 221.928 834.632 221.816L832.544 221.528C831.344 221.352 830.448 221 829.856 220.472C829.28 219.928 828.992 219.2 828.992 218.288C828.992 217.28 829.416 216.448 830.264 215.792C831.112 215.12 832.192 214.784 833.504 214.784C834.368 214.784 835.184 214.912 835.952 215.168C836.736 215.424 837.496 215.824 838.232 216.368L837.296 217.568C836.624 217.12 835.968 216.784 835.328 216.56C834.704 216.336 834.064 216.224 833.408 216.224C832.592 216.224 831.92 216.408 831.392 216.776C830.88 217.144 830.624 217.624 830.624 218.216C830.624 218.728 830.8 219.128 831.152 219.416C831.504 219.688 832.072 219.88 832.856 219.992L834.944 220.28C836.144 220.44 837.04 220.8 837.632 221.36C838.24 221.904 838.544 222.632 838.544 223.544C838.544 224.056 838.416 224.544 838.16 225.008C837.92 225.456 837.576 225.848 837.128 226.184C836.696 226.504 836.184 226.76 835.592 226.952C835 227.128 834.36 227.216 833.672 227.216C832.68 227.216 831.744 227.056 830.864 226.736C830 226.4 829.248 225.936 828.608 225.344ZM845.7 227V214.976H847.476V216.68C847.828 216.056 848.292 215.576 848.868 215.24C849.444 214.888 850.1 214.712 850.836 214.712C851.06 214.712 851.26 214.728 851.436 214.76C851.612 214.776 851.788 214.816 851.964 214.88V216.512C851.756 216.448 851.548 216.4 851.34 216.368C851.132 216.32 850.924 216.296 850.716 216.296C849.98 216.296 849.332 216.512 848.772 216.944C848.212 217.36 847.78 217.968 847.476 218.768V227H845.7ZM863.257 225.728C862.585 226.224 861.881 226.6 861.145 226.856C860.425 227.096 859.633 227.216 858.769 227.216C857.905 227.216 857.089 227.056 856.321 226.736C855.569 226.416 854.913 225.976 854.353 225.416C853.809 224.856 853.377 224.2 853.057 223.448C852.737 222.68 852.577 221.856 852.577 220.976C852.577 220.112 852.729 219.304 853.033 218.552C853.353 217.8 853.777 217.144 854.305 216.584C854.833 216.024 855.457 215.584 856.177 215.264C856.913 214.944 857.689 214.784 858.505 214.784C859.305 214.784 860.049 214.944 860.737 215.264C861.441 215.584 862.041 216.024 862.537 216.584C863.049 217.144 863.449 217.8 863.737 218.552C864.041 219.304 864.193 220.112 864.193 220.976V221.528H854.329C854.457 222.712 854.945 223.696 855.793 224.48C856.641 225.264 857.657 225.656 858.841 225.656C859.465 225.656 860.073 225.56 860.665 225.368C861.257 225.176 861.753 224.904 862.153 224.552L863.257 225.728ZM858.457 216.344C857.417 216.344 856.513 216.696 855.745 217.4C854.993 218.104 854.537 219.008 854.377 220.112H862.417C862.257 219.056 861.801 218.168 861.049 217.448C860.313 216.712 859.449 216.344 858.457 216.344ZM865.569 225.344L866.649 224.192C867.193 224.704 867.801 225.104 868.473 225.392C869.161 225.664 869.857 225.8 870.561 225.8C871.521 225.8 872.305 225.6 872.913 225.2C873.521 224.8 873.825 224.28 873.825 223.64C873.825 223.128 873.641 222.728 873.273 222.44C872.921 222.136 872.361 221.928 871.593 221.816L869.505 221.528C868.305 221.352 867.409 221 866.817 220.472C866.241 219.928 865.953 219.2 865.953 218.288C865.953 217.28 866.377 216.448 867.225 215.792C868.073 215.12 869.153 214.784 870.465 214.784C871.329 214.784 872.145 214.912 872.913 215.168C873.697 215.424 874.457 215.824 875.193 216.368L874.257 217.568C873.585 217.12 872.929 216.784 872.289 216.56C871.665 216.336 871.025 216.224 870.369 216.224C869.553 216.224 868.881 216.408 868.353 216.776C867.841 217.144 867.585 217.624 867.585 218.216C867.585 218.728 867.761 219.128 868.113 219.416C868.465 219.688 869.033 219.88 869.817 219.992L871.905 220.28C873.105 220.44 874.001 220.8 874.593 221.36C875.201 221.904 875.505 222.632 875.505 223.544C875.505 224.056 875.377 224.544 875.121 225.008C874.881 225.456 874.537 225.848 874.089 226.184C873.657 226.504 873.145 226.76 872.553 226.952C871.961 227.128 871.321 227.216 870.633 227.216C869.641 227.216 868.705 227.056 867.825 226.736C866.961 226.4 866.209 225.936 865.569 225.344ZM887.749 225.728C887.077 226.224 886.373 226.6 885.637 226.856C884.917 227.096 884.125 227.216 883.261 227.216C882.397 227.216 881.581 227.056 880.813 226.736C880.061 226.416 879.405 225.976 878.845 225.416C878.301 224.856 877.869 224.2 877.549 223.448C877.229 222.68 877.069 221.856 877.069 220.976C877.069 220.112 877.221 219.304 877.525 218.552C877.845 217.8 878.269 217.144 878.797 216.584C879.325 216.024 879.949 215.584 880.669 215.264C881.405 214.944 882.181 214.784 882.997 214.784C883.797 214.784 884.541 214.944 885.229 215.264C885.933 215.584 886.533 216.024 887.029 216.584C887.541 217.144 887.941 217.8 888.229 218.552C888.533 219.304 888.685 220.112 888.685 220.976V221.528H878.821C878.949 222.712 879.437 223.696 880.285 224.48C881.133 225.264 882.149 225.656 883.333 225.656C883.957 225.656 884.565 225.56 885.157 225.368C885.749 225.176 886.245 224.904 886.645 224.552L887.749 225.728ZM882.949 216.344C881.909 216.344 881.005 216.696 880.237 217.4C879.485 218.104 879.029 219.008 878.869 220.112H886.909C886.749 219.056 886.293 218.168 885.541 217.448C884.805 216.712 883.941 216.344 882.949 216.344ZM891.168 227V214.976H892.944V216.68C893.296 216.056 893.76 215.576 894.336 215.24C894.912 214.888 895.568 214.712 896.304 214.712C896.528 214.712 896.728 214.728 896.904 214.76C897.08 214.776 897.256 214.816 897.432 214.88V216.512C897.224 216.448 897.016 216.4 896.808 216.368C896.6 216.32 896.392 216.296 896.184 216.296C895.448 216.296 894.8 216.512 894.24 216.944C893.68 217.36 893.248 217.968 892.944 218.768V227H891.168ZM903.75 227L898.542 214.976H900.51L904.614 224.696L908.718 214.976H910.614L905.43 227H903.75ZM921.898 225.728C921.226 226.224 920.522 226.6 919.786 226.856C919.066 227.096 918.274 227.216 917.41 227.216C916.546 227.216 915.73 227.056 914.962 226.736C914.21 226.416 913.554 225.976 912.994 225.416C912.45 224.856 912.018 224.2 911.698 223.448C911.378 222.68 911.218 221.856 911.218 220.976C911.218 220.112 911.37 219.304 911.674 218.552C911.994 217.8 912.418 217.144 912.946 216.584C913.474 216.024 914.098 215.584 914.818 215.264C915.554 214.944 916.33 214.784 917.146 214.784C917.946 214.784 918.69 214.944 919.378 215.264C920.082 215.584 920.682 216.024 921.178 216.584C921.69 217.144 922.09 217.8 922.378 218.552C922.682 219.304 922.834 220.112 922.834 220.976V221.528H912.97C913.098 222.712 913.586 223.696 914.434 224.48C915.282 225.264 916.298 225.656 917.482 225.656C918.106 225.656 918.714 225.56 919.306 225.368C919.898 225.176 920.394 224.904 920.794 224.552L921.898 225.728ZM917.098 216.344C916.058 216.344 915.154 216.696 914.386 217.4C913.634 218.104 913.178 219.008 913.018 220.112H921.058C920.898 219.056 920.442 218.168 919.69 217.448C918.954 216.712 918.09 216.344 917.098 216.344ZM934.724 227V225.728C934.212 226.208 933.62 226.576 932.948 226.832C932.292 227.072 931.588 227.192 930.836 227.192C929.988 227.192 929.196 227.032 928.46 226.712C927.724 226.392 927.084 225.96 926.54 225.416C925.996 224.856 925.564 224.192 925.244 223.424C924.94 222.656 924.788 221.84 924.788 220.976C924.788 220.112 924.94 219.304 925.244 218.552C925.564 217.784 925.996 217.128 926.54 216.584C927.084 216.024 927.724 215.584 928.46 215.264C929.212 214.944 930.012 214.784 930.86 214.784C931.548 214.784 932.22 214.904 932.876 215.144C933.548 215.368 934.156 215.704 934.7 216.152V210.2L936.476 209.792V227H934.724ZM926.54 220.952C926.54 221.608 926.652 222.224 926.876 222.8C927.116 223.376 927.436 223.872 927.836 224.288C928.236 224.704 928.708 225.032 929.252 225.272C929.796 225.512 930.38 225.632 931.004 225.632C931.756 225.632 932.452 225.488 933.092 225.2C933.748 224.896 934.284 224.48 934.7 223.952V218C934.284 217.488 933.748 217.088 933.092 216.8C932.436 216.496 931.74 216.344 931.004 216.344C929.756 216.344 928.7 216.784 927.836 217.664C926.972 218.544 926.54 219.64 926.54 220.952Z" fill="white"/>
    <g clip-path="url(#clip1_35_47)">
    <path d="M850.008 152.119C850.038 151.966 850.237 151.275 850.42 150.584L850.771 149.31H862.657C869.188 149.31 874.528 149.326 874.528 149.356C874.528 149.372 874.33 150.047 874.101 150.845L873.689 152.304L861.803 152.35C850.542 152.38 849.932 152.365 850.008 152.119V152.119ZM857.317 143.615C855.501 143.308 854.006 142.157 853.624 140.791C853.395 139.977 853.441 139.716 854.433 136.109C855.821 131.089 857.179 126.162 857.896 123.522C858.308 122.048 858.934 119.761 859.3 118.456L859.956 116.077L864.656 116.031C867.479 116.015 869.34 116.046 869.34 116.138C869.34 116.215 869.096 117.136 868.791 118.18C868.501 119.224 868.12 120.559 867.967 121.142C867.814 121.741 867.097 124.32 866.395 126.899C865.678 129.478 864.763 132.778 864.366 134.236L863.634 136.876L863.969 137.229C864.259 137.506 864.519 137.567 865.541 137.629C867.25 137.705 868.074 137.552 868.364 137.107C868.577 136.769 868.883 135.694 871.339 126.745C871.934 124.596 872.682 121.895 873.002 120.759C873.323 119.623 873.75 118.088 873.948 117.351L874.299 116H878.999C881.577 116 883.683 116.031 883.683 116.077C883.683 116.123 883.332 117.428 882.905 118.963C882.478 120.498 881.761 123.107 881.318 124.75C878.282 135.817 876.954 140.453 876.603 141.128C875.84 142.648 874.513 143.354 871.934 143.631C870.073 143.815 858.476 143.799 857.317 143.615V143.615ZM880.601 143.692C880.555 143.646 880.616 143.293 880.738 142.894C880.845 142.495 881.181 141.313 881.471 140.254C881.745 139.194 882.447 136.677 883.012 134.651C883.561 132.624 884.309 129.938 884.66 128.664L885.3 126.361L895.463 126.315L905.625 126.285L905.35 127.236C905.197 127.774 904.816 129.155 904.511 130.322L903.931 132.425H893.036L892.472 134.466C891.846 136.662 890.382 142.08 890.092 143.139L889.924 143.784H885.3C882.768 143.784 880.647 143.753 880.601 143.692V143.692ZM909.378 143.554C907.135 143.063 905.808 141.758 905.808 140.023C905.808 139.409 906.845 135.311 908.096 131.043C908.249 130.491 908.707 128.879 909.088 127.436C910.461 122.37 911.163 119.899 911.499 119.07C912.155 117.397 913.513 116.507 915.939 116.169C916.656 116.061 920.227 116 925.064 116H932.998L932.907 116.353C932.861 116.537 932.479 117.903 932.083 119.377L931.335 122.063L925.705 122.14C921.722 122.202 919.983 122.278 919.754 122.401C919.388 122.616 919.189 123.245 916.946 131.458C916.077 134.605 915.573 136.708 915.634 136.922C915.802 137.598 916.153 137.644 922.165 137.644C926.91 137.644 927.795 137.675 927.734 137.859C927.688 137.966 927.429 138.887 927.169 139.885C926.91 140.898 926.559 142.172 926.391 142.756L926.086 143.784L918.197 143.769C912.247 143.769 910.08 143.707 909.378 143.554V143.554ZM886.582 121.864C886.582 121.71 886.781 120.897 887.025 120.052C887.269 119.224 887.62 117.965 887.803 117.274L888.139 116H898.27C903.839 116 908.402 116.031 908.402 116.077C908.402 116.2 907.715 118.763 907.211 120.528L906.769 122.063L896.683 122.109C886.979 122.14 886.582 122.125 886.582 121.864V121.864Z" fill="#CF202E"/>
    <path d="M880.448 165.935C880.631 165.904 880.906 165.904 881.058 165.935C881.196 165.981 881.043 166.011 880.707 165.996C880.372 165.996 880.25 165.965 880.448 165.935ZM882.279 165.781C882.462 165.751 882.737 165.751 882.889 165.781C883.027 165.827 882.874 165.858 882.538 165.843C882.203 165.843 882.081 165.812 882.279 165.781ZM877.32 165.351C876.893 165.121 876.45 164.845 876.328 164.691C876.206 164.538 876.328 164.584 876.633 164.799C876.923 164.998 877.473 165.29 877.854 165.443C878.251 165.597 878.464 165.72 878.327 165.735C878.205 165.735 877.747 165.566 877.32 165.351V165.351ZM893.006 165.474C893.006 165.321 893.082 165.06 893.158 164.891C893.265 164.661 893.265 164.707 893.204 165.09L893.112 165.597L894.883 165.551C895.859 165.52 896.652 165.551 896.652 165.628C896.652 165.689 895.829 165.735 894.821 165.735C893.173 165.735 892.99 165.704 893.006 165.474ZM904.556 165.628C905.075 165.597 905.899 165.597 906.387 165.628C906.86 165.658 906.433 165.674 905.426 165.674C904.419 165.674 904.022 165.658 904.556 165.628ZM917.266 165.474C917.266 165.305 917.312 165.275 917.358 165.397C917.404 165.52 917.907 165.582 919.082 165.582C920.623 165.582 920.745 165.566 920.806 165.275C920.867 165.014 920.867 165.029 920.852 165.305C920.837 165.643 920.791 165.658 919.052 165.704C917.404 165.735 917.251 165.72 917.266 165.474ZM884.98 165.275C885.148 165.198 885.392 165.137 885.514 165.137C885.651 165.137 885.636 165.198 885.437 165.275C885.27 165.351 885.025 165.413 884.903 165.413C884.766 165.413 884.781 165.351 884.98 165.275ZM903.778 165.121C903.824 164.906 903.961 164.492 904.083 164.2C904.251 163.74 904.266 163.724 904.205 164.108C904.144 164.354 904.007 164.768 903.9 165.029C903.732 165.382 903.702 165.413 903.778 165.121ZM907.196 165.351C907.181 165.259 907.486 164.292 907.852 163.202C908.234 162.097 908.539 161.284 908.539 161.36C908.554 161.452 908.249 162.419 907.882 163.509C907.501 164.615 907.196 165.428 907.196 165.351ZM917.434 164.891C917.434 164.722 917.495 164.415 917.556 164.2C917.648 163.893 917.678 163.878 917.678 164.123C917.678 164.292 917.617 164.599 917.556 164.814C917.465 165.121 917.434 165.137 917.434 164.891ZM886.521 164.277C886.551 164.031 886.719 163.402 886.887 162.895C887.055 162.389 887.146 162.189 887.101 162.435C887.07 162.696 886.902 163.31 886.734 163.816C886.567 164.323 886.475 164.538 886.521 164.277ZM875.825 163.893C875.703 163.648 875.596 163.325 875.611 163.172C875.611 162.987 875.657 163.034 875.733 163.294C875.809 163.509 875.947 163.832 876.038 164.016C876.13 164.2 876.176 164.354 876.145 164.354C876.099 164.354 875.962 164.154 875.825 163.893ZM912.643 163.479L914.52 163.417L915.191 162.389C916.473 160.47 918.762 157.139 919.021 156.847C919.052 156.817 919.128 156.832 919.189 156.894C919.25 156.955 919.204 157.062 919.082 157.139C918.945 157.216 917.892 158.69 916.717 160.424L914.581 163.571L912.674 163.54L910.766 163.525L912.643 163.479ZM897.202 162.972C897.263 162.68 897.37 162.297 897.431 162.128C897.522 161.913 897.537 161.99 897.476 162.358C897.415 162.65 897.308 163.034 897.248 163.202C897.156 163.417 897.141 163.341 897.202 162.972ZM921.249 163.049C921.249 162.88 921.31 162.573 921.371 162.358C921.462 162.051 921.493 162.036 921.493 162.281C921.493 162.45 921.432 162.757 921.371 162.972C921.279 163.279 921.249 163.294 921.249 163.049ZM910.721 162.665C910.721 162.373 910.751 162.251 910.797 162.404C910.827 162.542 910.827 162.788 910.797 162.941C910.751 163.08 910.721 162.957 910.721 162.665ZM917.892 162.742C917.892 162.573 917.953 162.266 918.014 162.051C918.106 161.744 918.136 161.729 918.136 161.974C918.136 162.143 918.075 162.45 918.014 162.665C917.922 162.972 917.892 162.987 917.892 162.742ZM880.097 162.665C879.716 162.512 879.334 162.082 879.471 161.944C879.517 161.898 879.563 161.928 879.563 162.02C879.563 162.343 880.25 162.588 881.394 162.68L882.538 162.773L881.47 162.788C880.89 162.788 880.265 162.742 880.097 162.665V162.665ZM893.769 162.588C893.769 162.512 893.86 162.097 893.967 161.667C894.089 161.253 894.18 161.038 894.18 161.207C894.18 161.529 893.799 162.849 893.769 162.588ZM883.851 161.898C883.851 161.775 883.912 161.529 883.988 161.36C884.064 161.161 884.125 161.145 884.125 161.284C884.125 161.406 884.064 161.652 883.988 161.821C883.912 162.02 883.851 162.036 883.851 161.898ZM887.207 161.744C887.207 161.621 887.268 161.376 887.345 161.207C887.421 161.007 887.482 160.992 887.482 161.13C887.482 161.253 887.421 161.498 887.345 161.667C887.268 161.867 887.207 161.882 887.207 161.744ZM904.907 161.667C904.892 161.575 905.228 160.501 905.64 159.288C906.051 158.06 906.403 157.139 906.403 157.216C906.418 157.308 906.082 158.382 905.67 159.595C905.258 160.823 904.907 161.744 904.907 161.667ZM910.568 161.284C910.568 160.992 910.598 160.869 910.644 161.023C910.675 161.161 910.675 161.406 910.644 161.56C910.598 161.698 910.568 161.575 910.568 161.284ZM875.84 160.67C875.901 160.378 876.008 159.994 876.069 159.825C876.16 159.61 876.176 159.687 876.115 160.056C876.054 160.347 875.947 160.731 875.886 160.9C875.794 161.115 875.779 161.038 875.84 160.67ZM897.72 161.023C897.72 160.961 898.071 160.424 898.483 159.825C898.911 159.242 899.429 158.505 899.628 158.214C900.192 157.415 900.604 156.832 901.443 155.65C901.855 155.082 903.061 153.409 904.098 151.966C905.136 150.508 906.036 149.31 906.067 149.31C906.112 149.31 906.082 149.402 906.006 149.51C905.914 149.602 904.022 152.273 901.779 155.42C899.551 158.582 897.72 161.099 897.72 161.023ZM884.156 160.823C884.156 160.7 884.217 160.455 884.293 160.286C884.369 160.086 884.43 160.071 884.43 160.209C884.43 160.332 884.369 160.577 884.293 160.746C884.217 160.946 884.156 160.961 884.156 160.823ZM887.589 160.439C887.619 160.194 887.787 159.564 887.955 159.058C888.123 158.551 888.214 158.352 888.169 158.597C888.138 158.858 887.97 159.472 887.802 159.979C887.635 160.485 887.543 160.7 887.589 160.439ZM893.982 160.132C893.936 159.733 893.921 159.38 893.952 159.349C893.997 159.303 894.074 159.595 894.135 159.979C894.18 160.378 894.196 160.731 894.165 160.762C894.119 160.808 894.043 160.516 893.982 160.132ZM910.415 159.902C910.415 159.61 910.446 159.488 910.492 159.641C910.522 159.779 910.522 160.025 910.492 160.178C910.446 160.316 910.415 160.194 910.415 159.902ZM918.502 159.979C918.502 159.81 918.563 159.503 918.624 159.288C918.716 158.981 918.746 158.966 918.746 159.211C918.746 159.38 918.686 159.687 918.624 159.902C918.533 160.209 918.502 160.224 918.502 159.979ZM879.578 159.902C879.578 159.779 879.639 159.534 879.716 159.365C879.792 159.165 879.853 159.15 879.853 159.288C879.853 159.411 879.792 159.656 879.716 159.825C879.639 160.025 879.578 160.04 879.578 159.902ZM882.325 159.411C882.34 159.15 882.371 159.135 882.416 159.319C882.462 159.533 882.691 159.595 883.5 159.641L884.522 159.687L883.423 159.718C882.355 159.749 882.309 159.733 882.325 159.411ZM913.498 159.534C913.452 159.411 913.437 159.089 913.482 158.797C913.528 158.336 913.543 158.352 913.558 158.95C913.574 159.303 913.635 159.595 913.711 159.595C913.772 159.595 914.718 158.198 915.832 156.479C917.709 153.578 918.762 152.058 918.075 153.225C917.266 154.606 913.833 159.749 913.711 159.749C913.635 159.749 913.543 159.656 913.498 159.534ZM876.298 158.981C876.359 158.689 876.466 158.306 876.527 158.137C876.618 157.922 876.633 157.999 876.572 158.367C876.511 158.659 876.405 159.042 876.343 159.211C876.252 159.426 876.237 159.349 876.298 158.981ZM909.179 159.135C909.179 159.012 909.271 158.705 909.393 158.444C909.652 157.845 909.668 158.121 909.393 158.828C909.286 159.119 909.179 159.257 909.179 159.135ZM882.477 158.828C882.477 158.705 882.538 158.459 882.615 158.29C882.691 158.091 882.752 158.075 882.752 158.214C882.752 158.336 882.691 158.582 882.615 158.751C882.538 158.95 882.477 158.966 882.477 158.828ZM910.278 158.444C910.278 158.106 910.309 157.983 910.339 158.183C910.37 158.367 910.37 158.643 910.339 158.797C910.293 158.935 910.263 158.781 910.278 158.444ZM922.164 158.597C922.164 158.428 922.256 157.953 922.363 157.523C922.469 157.108 922.561 156.893 922.561 157.062C922.561 157.231 922.469 157.722 922.363 158.137C922.256 158.567 922.164 158.766 922.164 158.597ZM880.036 158.214C880.036 158.091 880.097 157.845 880.173 157.676C880.25 157.477 880.311 157.461 880.311 157.599C880.311 157.722 880.25 157.968 880.173 158.137C880.097 158.336 880.036 158.352 880.036 158.214ZM888.275 157.983C888.26 157.891 888.321 157.599 888.398 157.323L888.55 156.832H885.819C883.515 156.832 883.088 156.863 883.027 157.062C882.966 157.231 882.966 157.216 882.981 157.032C882.996 156.786 883.24 156.755 885.727 156.709C887.238 156.694 888.52 156.725 888.581 156.786C888.626 156.863 888.596 157.185 888.489 157.523C888.382 157.86 888.291 158.06 888.275 157.983V157.983ZM909.637 157.799C909.607 157.492 909.912 156.832 910.08 156.832C910.156 156.832 910.217 157.062 910.217 157.339L910.186 157.83L910.11 157.369L910.049 156.909L909.851 157.446C909.729 157.738 909.637 157.906 909.637 157.799ZM913.33 157.369C913.33 157.032 913.36 156.909 913.391 157.108C913.421 157.292 913.421 157.569 913.391 157.722C913.345 157.86 913.314 157.707 913.33 157.369ZM876.679 157.599C876.679 157.477 876.74 157.231 876.816 157.062C876.893 156.863 876.954 156.847 876.954 156.985C876.954 157.108 876.893 157.354 876.816 157.523C876.74 157.722 876.679 157.738 876.679 157.599ZM880.341 157.139C880.341 157.016 880.402 156.771 880.478 156.602C880.555 156.402 880.616 156.387 880.616 156.525C880.616 156.648 880.555 156.893 880.478 157.062C880.402 157.262 880.341 157.277 880.341 157.139ZM906.448 156.909C906.448 156.832 906.54 156.51 906.647 156.218C906.753 155.926 906.86 155.788 906.86 155.911C906.86 156.034 906.768 156.356 906.647 156.602C906.54 156.863 906.448 157.001 906.448 156.909ZM896.896 156.725C896.851 156.678 896.82 156.448 896.82 156.233C896.836 155.85 896.851 155.865 896.942 156.295C897.034 156.725 897.156 156.571 899.079 153.654C900.192 151.935 901.138 150.538 901.184 150.538C901.276 150.538 901.276 150.523 899.14 153.793C898.117 155.374 897.202 156.694 897.141 156.74C897.064 156.786 896.957 156.786 896.896 156.725V156.725ZM877.061 156.295C877.091 156.049 877.259 155.42 877.427 154.913C877.595 154.407 877.686 154.207 877.64 154.453C877.61 154.714 877.442 155.328 877.274 155.834C877.106 156.341 877.015 156.556 877.061 156.295ZM913.177 155.834C913.177 155.496 913.208 155.374 913.238 155.573C913.269 155.757 913.269 156.034 913.238 156.187C913.192 156.325 913.162 156.172 913.177 155.834ZM880.646 156.064C880.646 155.942 880.707 155.696 880.784 155.527C880.86 155.328 880.921 155.312 880.921 155.45C880.921 155.573 880.86 155.819 880.784 155.988C880.707 156.187 880.646 156.203 880.646 156.064ZM913.025 154.299C913.025 153.961 913.055 153.839 913.086 154.038C913.116 154.222 913.116 154.499 913.086 154.652C913.04 154.79 913.009 154.637 913.025 154.299ZM881.104 154.376C881.089 153.869 881.791 152.933 882.447 152.58C883.027 152.273 883.317 152.227 884.507 152.258L885.895 152.273L884.369 152.365C882.447 152.488 881.882 152.81 881.333 154.069C881.211 154.361 881.104 154.499 881.104 154.376V154.376ZM907.348 154.146C907.333 153.915 908.874 149.28 908.951 149.356C908.981 149.387 908.63 150.508 908.188 151.858C907.73 153.194 907.348 154.238 907.348 154.146ZM877.732 153.762C877.732 153.209 878.785 151.352 879.471 150.723C880.173 150.078 881.547 149.31 882.004 149.31C882.126 149.31 881.836 149.479 881.333 149.694C880.311 150.109 879.166 151.03 878.739 151.766C878.571 152.043 878.281 152.657 878.098 153.133C877.9 153.608 877.732 153.885 877.732 153.762ZM912.872 153.071C912.872 152.733 912.902 152.611 912.933 152.81C912.963 152.994 912.963 153.271 912.933 153.424C912.887 153.562 912.857 153.409 912.872 153.071ZM923.232 153.378C923.232 153.209 923.293 152.902 923.354 152.687C923.446 152.38 923.476 152.365 923.476 152.611C923.476 152.779 923.416 153.086 923.354 153.301C923.263 153.608 923.232 153.624 923.232 153.378ZM887.955 152.749C887.574 152.657 887.375 152.565 887.497 152.549C887.619 152.534 887.94 152.595 888.214 152.672L888.703 152.81L889.176 151.505C889.588 150.339 890.152 149.111 889.862 150.001C889.481 151.152 888.825 152.856 888.749 152.887C888.687 152.918 888.337 152.856 887.955 152.749Z" fill="#474C52"/>
    <path d="M918.411 152.503C919.037 151.444 920.989 148.635 920.532 149.464C920.165 150.093 918.457 152.687 918.38 152.687C918.334 152.687 918.35 152.595 918.411 152.503V152.503ZM912.704 151.459C912.704 151.168 912.735 151.045 912.78 151.198C912.811 151.336 912.811 151.582 912.78 151.736C912.735 151.874 912.704 151.751 912.704 151.459ZM923.843 150.462C923.843 150.293 923.904 149.986 923.965 149.771C924.056 149.464 924.087 149.448 924.087 149.694C924.087 149.863 924.026 150.17 923.965 150.385C923.873 150.692 923.843 150.707 923.843 150.462ZM901.55 149.863C901.733 149.556 901.901 149.31 901.932 149.31C902.039 149.31 901.55 150.201 901.382 150.308C901.306 150.354 901.367 150.155 901.55 149.863ZM912.552 149.924C912.552 149.633 912.582 149.51 912.628 149.663C912.658 149.801 912.658 150.047 912.628 150.201C912.582 150.339 912.552 150.216 912.552 149.924ZM884.11 149.049C884.553 149.019 885.239 149.019 885.636 149.049C886.033 149.08 885.666 149.095 884.827 149.095C883.988 149.095 883.668 149.08 884.11 149.049Z" fill="#474C52"/>
    <path d="M878.8 165.735C876.74 165.305 875.672 164.154 875.687 162.435C875.702 161.207 877.854 153.47 878.54 152.165C879.12 151.06 880.219 150.109 881.501 149.602C882.294 149.279 882.645 149.249 884.827 149.234C886.704 149.234 887.558 149.295 888.535 149.525C889.572 149.771 889.786 149.863 889.71 150.062C889.649 150.2 889.404 150.876 889.145 151.582C888.901 152.273 888.642 152.81 888.565 152.764C888.306 152.61 885.285 152.227 884.247 152.227C882.92 152.227 881.943 152.641 881.501 153.409C881.089 154.115 879.395 160.332 879.364 161.237C879.334 161.897 879.395 162.112 879.685 162.389C879.99 162.696 880.173 162.742 881.363 162.742C882.096 162.742 882.935 162.696 883.24 162.619C883.774 162.511 883.805 162.465 884.125 161.375C884.629 159.595 884.629 159.595 883.454 159.595C882.904 159.595 882.462 159.549 882.462 159.487C882.462 159.411 882.599 158.797 882.782 158.106L883.118 156.832H888.55L888.199 158.106C888.001 158.797 887.512 160.593 887.1 162.081C886.261 165.167 886.475 164.891 884.369 165.428C882.965 165.796 879.868 165.95 878.8 165.735ZM893.143 165.474C893.143 165.413 893.387 164.415 893.692 163.279C894.333 160.838 894.363 161.406 893.234 154.76C892.761 152.058 892.38 149.725 892.38 149.586C892.38 149.341 892.563 149.31 894.043 149.31C895.508 149.31 895.721 149.341 895.798 149.586C895.828 149.725 896.042 151.091 896.271 152.61C896.5 154.13 896.728 155.681 896.789 156.064C896.835 156.448 896.957 156.755 897.034 156.755C897.186 156.755 898.758 154.437 900.986 150.953L902.038 149.31H905.99L905.41 150.124C903.122 153.301 900.634 156.77 900.36 157.185C900.177 157.461 899.826 157.937 899.597 158.259C897.827 160.669 897.751 160.823 897.14 163.202L896.545 165.505L894.852 165.551C893.906 165.566 893.143 165.535 893.143 165.474V165.474ZM903.991 164.783C904.144 164.338 905.334 160.669 906.646 156.648L909.027 149.31H910.766C912.063 149.31 912.521 149.356 912.521 149.51C912.521 149.602 912.628 150.768 912.765 152.073C912.902 153.378 913.116 155.619 913.269 157.047C913.406 158.551 913.589 159.672 913.68 159.702C913.833 159.748 914.917 158.137 919.235 151.505L920.654 149.31H924.071L923.659 151.275C923.247 153.225 922.576 156.448 921.584 161.36C921.294 162.803 920.974 164.338 920.882 164.783L920.714 165.582H919.051C918.151 165.582 917.403 165.566 917.403 165.535C917.403 165.52 917.678 164.215 918.029 162.665C919.112 157.661 919.311 156.525 919.021 156.847C918.761 157.139 916.457 160.47 915.191 162.404L914.504 163.432H910.888L910.553 160.178C910.354 158.382 910.171 156.878 910.141 156.847C910.11 156.801 910.018 156.847 909.942 156.924C909.805 157.077 907.18 165.136 907.18 165.413C907.18 165.52 906.631 165.582 905.441 165.582H903.702L903.991 164.783Z" fill="white"/>
    </g>
    <defs>
    <clipPath id="clip0_35_47">
    <rect width="68" height="51" fill="white" transform="translate(682 116.721)"/>
    </clipPath>
    <clipPath id="clip1_35_47">
    <rect width="83" height="50" fill="white" transform="translate(850 116)"/>
    </clipPath>
    </defs>
    </svg>
    