<svg width="317" height="79" viewBox="0 0 317 79" fill="none" xmlns="http://www.w3.org/2000/svg">
    <path d="M5.796 26V4.94L1.332 6.848V3.356L7.236 0.799998H9.72V26H5.796ZM20.0447 26.324C19.3487 26.324 18.7487 26.072 18.2447 25.568C17.7647 25.04 17.5247 24.428 17.5247 23.732C17.5247 22.988 17.7647 22.364 18.2447 21.86C18.7487 21.356 19.3487 21.104 20.0447 21.104C20.7407 21.104 21.3287 21.356 21.8087 21.86C22.3127 22.364 22.5647 22.988 22.5647 23.732C22.5647 24.428 22.3127 25.04 21.8087 25.568C21.3287 26.072 20.7407 26.324 20.0447 26.324ZM39.2864 26.36C37.2224 26.36 35.4104 25.844 33.8504 24.812C32.2904 23.78 31.0664 22.34 30.1784 20.492C29.2904 18.644 28.8464 16.496 28.8464 14.048C28.8464 11.312 29.3384 8.924 30.3224 6.884C31.3064 4.844 32.6744 3.26 34.4264 2.132C36.2024 0.979999 38.2544 0.403999 40.5824 0.403999C41.8064 0.403999 43.0184 0.595999 44.2184 0.979998C45.4184 1.364 46.4384 1.892 47.2784 2.564L45.1184 5.48C44.3984 4.952 43.6424 4.568 42.8504 4.328C42.0584 4.064 41.1944 3.932 40.2584 3.932C38.6984 3.932 37.3544 4.328 36.2264 5.12C35.1224 5.912 34.2704 7.064 33.6704 8.576C33.0944 10.064 32.7944 11.876 32.7704 14.012C33.6344 12.836 34.6784 11.924 35.9024 11.276C37.1264 10.628 38.3984 10.304 39.7184 10.304C41.3744 10.304 42.8384 10.64 44.1104 11.312C45.3824 11.96 46.3784 12.872 47.0984 14.048C47.8184 15.2 48.1784 16.532 48.1784 18.044C48.1784 19.628 47.7944 21.056 47.0264 22.328C46.2584 23.576 45.2024 24.56 43.8584 25.28C42.5144 26 40.9904 26.36 39.2864 26.36ZM39.1064 13.4C37.9304 13.4 36.8024 13.676 35.7224 14.228C34.6664 14.756 33.7424 15.488 32.9504 16.424C33.1664 17.744 33.5504 18.896 34.1024 19.88C34.6784 20.864 35.3984 21.632 36.2624 22.184C37.1264 22.712 38.0864 22.976 39.1424 22.976C40.1264 22.976 41.0024 22.772 41.7704 22.364C42.5384 21.932 43.1504 21.356 43.6064 20.636C44.0624 19.892 44.2904 19.052 44.2904 18.116C44.2904 17.204 44.0624 16.4 43.6064 15.704C43.1744 14.984 42.5744 14.42 41.8064 14.012C41.0384 13.604 40.1384 13.4 39.1064 13.4ZM56.0917 26V0.799998H61.7077L69.0877 16.1L76.4317 0.799998H82.0477V26H77.9797V6.272L69.0517 24.2L60.0877 6.164V26H56.0917ZM97.4798 21.14V14.732H91.5398V11.6H97.4798V5.192H100.72V11.6H106.66V14.732H100.72V21.14H97.4798ZM224.301 26V4.94L219.837 6.848V3.356L225.741 0.799998H228.225V26H224.301ZM237.073 26V0.799998H242.689L250.069 16.1L257.413 0.799998H263.029V26H258.961V6.272L250.033 24.2L241.069 6.164V26H237.073ZM278.461 21.14V14.732H272.521V11.6H278.461V5.192H281.701V11.6H287.641V14.732H281.701V21.14H278.461Z" fill="black"/>
    <path d="M151.028 33.524V0.799998H154.7V33.524H151.028ZM5.4 74V61.36H0.56V60H11.78V61.36H6.94V74H5.4ZM17.9716 74.16C17.0649 74.16 16.2516 73.94 15.5316 73.5C14.8116 73.06 14.2449 72.46 13.8316 71.7C13.4182 70.94 13.2116 70.08 13.2116 69.12C13.2116 68.16 13.4182 67.3 13.8316 66.54C14.2449 65.78 14.8116 65.18 15.5316 64.74C16.2516 64.3 17.0649 64.08 17.9716 64.08C18.8649 64.08 19.6649 64.3 20.3716 64.74C21.0916 65.18 21.6582 65.78 22.0716 66.54C22.4849 67.3 22.6916 68.16 22.6916 69.12C22.6916 70.08 22.4849 70.94 22.0716 71.7C21.6582 72.46 21.0916 73.06 20.3716 73.5C19.6649 73.94 18.8649 74.16 17.9716 74.16ZM17.9516 72.88C18.5916 72.88 19.1582 72.72 19.6516 72.4C20.1449 72.0667 20.5316 71.6133 20.8116 71.04C21.1049 70.4667 21.2516 69.8267 21.2516 69.12C21.2516 68.4 21.1049 67.76 20.8116 67.2C20.5316 66.6267 20.1449 66.18 19.6516 65.86C19.1582 65.5267 18.5916 65.36 17.9516 65.36C17.3116 65.36 16.7449 65.5267 16.2516 65.86C15.7582 66.18 15.3649 66.6267 15.0716 67.2C14.7916 67.76 14.6516 68.4 14.6516 69.12C14.6516 69.8267 14.7916 70.4667 15.0716 71.04C15.3649 71.6133 15.7582 72.0667 16.2516 72.4C16.7449 72.72 17.3116 72.88 17.9516 72.88ZM30.1677 74.2C29.3277 74.2 28.6877 74 28.2477 73.6C27.821 73.1867 27.6077 72.5933 27.6077 71.82V65.44H25.5877V64.24H27.6077V61.56L29.0677 61.22V64.24H31.8677V65.44H29.0677V71.44C29.0677 71.96 29.1743 72.3333 29.3877 72.56C29.6143 72.7867 29.981 72.9 30.4877 72.9C30.741 72.9 30.9677 72.88 31.1677 72.84C31.3677 72.8 31.601 72.7333 31.8677 72.64V73.94C31.601 74.0333 31.321 74.1 31.0277 74.14C30.7343 74.18 30.4477 74.2 30.1677 74.2ZM38.8263 74.18C38.1329 74.18 37.5196 74.0533 36.9863 73.8C36.4529 73.5467 36.0329 73.2 35.7263 72.76C35.4329 72.3067 35.2863 71.7867 35.2863 71.2C35.2863 70.6133 35.4396 70.1067 35.7463 69.68C36.0529 69.24 36.4796 68.9 37.0263 68.66C37.5729 68.42 38.2129 68.3 38.9463 68.3C39.5063 68.3 40.0329 68.36 40.5263 68.48C41.0329 68.6 41.4996 68.7933 41.9263 69.06V67.72C41.9263 66.92 41.7129 66.32 41.2863 65.92C40.8596 65.5067 40.2329 65.3 39.4063 65.3C38.9529 65.3 38.4863 65.3667 38.0063 65.5C37.5396 65.6333 37.0196 65.8467 36.4463 66.14L35.9063 65.02C37.2129 64.3933 38.4396 64.08 39.5863 64.08C40.7996 64.08 41.7329 64.38 42.3863 64.98C43.0396 65.5667 43.3663 66.4133 43.3663 67.52V74H41.9263V72.86C41.4996 73.3 41.0263 73.6333 40.5063 73.86C39.9863 74.0733 39.4263 74.18 38.8263 74.18ZM36.6863 71.16C36.6863 71.7333 36.9063 72.1933 37.3463 72.54C37.7996 72.8867 38.3929 73.06 39.1263 73.06C39.6729 73.06 40.1729 72.9667 40.6263 72.78C41.0929 72.5933 41.5263 72.3133 41.9263 71.94V70.06C41.5129 69.82 41.0863 69.6467 40.6463 69.54C40.2063 69.42 39.7129 69.36 39.1663 69.36C38.4196 69.36 37.8196 69.5267 37.3663 69.86C36.9129 70.18 36.6863 70.6133 36.6863 71.16ZM48.1336 74V59.56L49.5936 59.26V74H48.1336ZM66.4747 74.22C65.328 74.22 64.328 73.9733 63.4747 73.48C62.6347 72.9733 61.988 72.26 61.5347 71.34C61.0814 70.42 60.8547 69.3333 60.8547 68.08V60H62.3947V68.08C62.3947 69.04 62.5614 69.8733 62.8947 70.58C63.228 71.2867 63.7014 71.84 64.3147 72.24C64.928 72.6267 65.648 72.82 66.4747 72.82C67.3014 72.82 68.0214 72.6267 68.6347 72.24C69.248 71.84 69.7214 71.2867 70.0547 70.58C70.388 69.8733 70.5547 69.04 70.5547 68.08V60H72.0947V68.08C72.0947 69.3333 71.868 70.42 71.4147 71.34C70.9614 72.26 70.3147 72.9733 69.4747 73.48C68.6347 73.9733 67.6347 74.22 66.4747 74.22ZM80.0106 74.2C79.2106 74.2 78.4706 74.08 77.7906 73.84C77.1106 73.5867 76.5306 73.2267 76.0506 72.76L76.8306 71.8C77.4173 72.2267 77.9573 72.54 78.4506 72.74C78.944 72.9267 79.4506 73.02 79.9706 73.02C80.6773 73.02 81.264 72.8533 81.7306 72.52C82.1973 72.1867 82.4306 71.76 82.4306 71.24C82.4306 70.84 82.2906 70.5267 82.0106 70.3C81.744 70.0733 81.2973 69.9 80.6706 69.78L79.0706 69.5C78.124 69.3267 77.424 69.0333 76.9706 68.62C76.5306 68.2067 76.3106 67.6467 76.3106 66.94C76.3106 66.38 76.4573 65.8867 76.7506 65.46C77.0573 65.0333 77.4773 64.7 78.0106 64.46C78.544 64.2067 79.1506 64.08 79.8306 64.08C80.4973 64.08 81.1306 64.18 81.7306 64.38C82.3306 64.5667 82.9373 64.8733 83.5506 65.3L82.8306 66.32C82.324 65.96 81.8173 65.7 81.3106 65.54C80.804 65.3667 80.2906 65.28 79.7706 65.28C79.1306 65.28 78.6173 65.42 78.2306 65.7C77.844 65.98 77.6506 66.36 77.6506 66.84C77.6506 67.24 77.7706 67.5467 78.0106 67.76C78.264 67.9733 78.704 68.1333 79.3306 68.24L80.9706 68.54C81.9573 68.7133 82.6773 69.0133 83.1306 69.44C83.584 69.8667 83.8106 70.44 83.8106 71.16C83.8106 71.7333 83.644 72.2533 83.3106 72.72C82.9773 73.1733 82.524 73.5333 81.9506 73.8C81.3773 74.0667 80.7306 74.2 80.0106 74.2ZM92.3313 74.2C91.4246 74.2 90.6046 73.98 89.8713 73.54C89.1379 73.0867 88.5579 72.48 88.1313 71.72C87.7046 70.9467 87.4913 70.08 87.4913 69.12C87.4913 68.16 87.6913 67.3 88.0913 66.54C88.5046 65.78 89.0579 65.18 89.7513 64.74C90.4446 64.3 91.2179 64.08 92.0713 64.08C92.9379 64.08 93.7046 64.3 94.3713 64.74C95.0513 65.1667 95.5846 65.7533 95.9713 66.5C96.3713 67.2333 96.5713 68.0667 96.5713 69V69.44H88.9113C88.9646 70.1067 89.1446 70.7067 89.4513 71.24C89.7713 71.76 90.1846 72.1733 90.6913 72.48C91.2113 72.7733 91.7779 72.92 92.3913 72.92C92.8979 72.92 93.3846 72.8333 93.8513 72.66C94.3313 72.4733 94.7379 72.2267 95.0713 71.92L95.9913 72.9C95.4313 73.34 94.8513 73.6667 94.2513 73.88C93.6513 74.0933 93.0113 74.2 92.3313 74.2ZM88.9513 68.4H95.1313C95.0646 67.8133 94.8846 67.2933 94.5913 66.84C94.3113 66.3733 93.9513 66.0067 93.5113 65.74C93.0846 65.4733 92.6046 65.34 92.0713 65.34C91.5379 65.34 91.0513 65.4733 90.6113 65.74C90.1713 65.9933 89.8046 66.3533 89.5113 66.82C89.2313 67.2733 89.0446 67.8 88.9513 68.4ZM100.864 74V64.24H102.324V66.24C102.577 65.56 102.937 65.0333 103.404 64.66C103.884 64.2733 104.431 64.08 105.044 64.08C105.217 64.08 105.377 64.0933 105.524 64.12C105.671 64.1333 105.817 64.1667 105.964 64.22V65.54C105.804 65.4867 105.631 65.4467 105.444 65.42C105.271 65.38 105.104 65.36 104.944 65.36C104.344 65.36 103.817 65.5333 103.364 65.88C102.924 66.2267 102.577 66.7133 102.324 67.34V74H100.864ZM112.618 74.2C111.818 74.2 111.078 74.08 110.398 73.84C109.718 73.5867 109.138 73.2267 108.658 72.76L109.438 71.8C110.024 72.2267 110.564 72.54 111.058 72.74C111.551 72.9267 112.058 73.02 112.578 73.02C113.284 73.02 113.871 72.8533 114.338 72.52C114.804 72.1867 115.038 71.76 115.038 71.24C115.038 70.84 114.898 70.5267 114.618 70.3C114.351 70.0733 113.904 69.9 113.278 69.78L111.678 69.5C110.731 69.3267 110.031 69.0333 109.578 68.62C109.138 68.2067 108.918 67.6467 108.918 66.94C108.918 66.38 109.064 65.8867 109.358 65.46C109.664 65.0333 110.084 64.7 110.618 64.46C111.151 64.2067 111.758 64.08 112.438 64.08C113.104 64.08 113.738 64.18 114.338 64.38C114.938 64.5667 115.544 64.8733 116.158 65.3L115.438 66.32C114.931 65.96 114.424 65.7 113.918 65.54C113.411 65.3667 112.898 65.28 112.378 65.28C111.738 65.28 111.224 65.42 110.838 65.7C110.451 65.98 110.258 66.36 110.258 66.84C110.258 67.24 110.378 67.5467 110.618 67.76C110.871 67.9733 111.311 68.1333 111.938 68.24L113.578 68.54C114.564 68.7133 115.284 69.0133 115.738 69.44C116.191 69.8667 116.418 70.44 116.418 71.16C116.418 71.7333 116.251 72.2533 115.918 72.72C115.584 73.1733 115.131 73.5333 114.558 73.8C113.984 74.0667 113.338 74.2 112.618 74.2ZM193.408 72.62H196.608C197.622 72.62 198.528 72.3733 199.328 71.88C200.128 71.3867 200.762 70.72 201.228 69.88C201.708 69.0267 201.948 68.0667 201.948 67C201.948 65.9333 201.708 64.98 201.228 64.14C200.762 63.2867 200.128 62.6133 199.328 62.12C198.528 61.6267 197.622 61.38 196.608 61.38H193.408V72.62ZM191.868 74V60H196.508C197.535 60 198.475 60.18 199.328 60.54C200.195 60.8867 200.935 61.38 201.548 62.02C202.175 62.6467 202.655 63.3867 202.988 64.24C203.335 65.08 203.508 66 203.508 67C203.508 68 203.335 68.9267 202.988 69.78C202.655 70.62 202.175 71.36 201.548 72C200.935 72.6267 200.195 73.12 199.328 73.48C198.475 73.8267 197.535 74 196.508 74H191.868ZM210.764 74.18C210.07 74.18 209.457 74.0533 208.924 73.8C208.39 73.5467 207.97 73.2 207.664 72.76C207.37 72.3067 207.224 71.7867 207.224 71.2C207.224 70.6133 207.377 70.1067 207.684 69.68C207.99 69.24 208.417 68.9 208.964 68.66C209.51 68.42 210.15 68.3 210.884 68.3C211.444 68.3 211.97 68.36 212.464 68.48C212.97 68.6 213.437 68.7933 213.864 69.06V67.72C213.864 66.92 213.65 66.32 213.224 65.92C212.797 65.5067 212.17 65.3 211.344 65.3C210.89 65.3 210.424 65.3667 209.944 65.5C209.477 65.6333 208.957 65.8467 208.384 66.14L207.844 65.02C209.15 64.3933 210.377 64.08 211.524 64.08C212.737 64.08 213.67 64.38 214.324 64.98C214.977 65.5667 215.304 66.4133 215.304 67.52V74H213.864V72.86C213.437 73.3 212.964 73.6333 212.444 73.86C211.924 74.0733 211.364 74.18 210.764 74.18ZM208.624 71.16C208.624 71.7333 208.844 72.1933 209.284 72.54C209.737 72.8867 210.33 73.06 211.064 73.06C211.61 73.06 212.11 72.9667 212.564 72.78C213.03 72.5933 213.464 72.3133 213.864 71.94V70.06C213.45 69.82 213.024 69.6467 212.584 69.54C212.144 69.42 211.65 69.36 211.104 69.36C210.357 69.36 209.757 69.5267 209.304 69.86C208.85 70.18 208.624 70.6133 208.624 71.16ZM220.051 74V64.24H221.511V74H220.051ZM220.791 61.82C220.498 61.82 220.244 61.72 220.031 61.52C219.831 61.3067 219.731 61.06 219.731 60.78C219.731 60.5 219.831 60.26 220.031 60.06C220.244 59.8467 220.498 59.74 220.791 59.74C221.084 59.74 221.331 59.8467 221.531 60.06C221.744 60.26 221.851 60.5 221.851 60.78C221.851 61.06 221.744 61.3067 221.531 61.52C221.331 61.72 221.084 61.82 220.791 61.82ZM226.305 74V59.56L227.765 59.26V74H226.305ZM232.978 78.38C232.671 78.38 232.358 78.3333 232.038 78.24V76.94C232.171 76.9667 232.311 76.9867 232.458 77C232.604 77.0133 232.731 77.02 232.838 77.02C233.211 77.02 233.518 76.92 233.758 76.72C234.011 76.52 234.224 76.2067 234.398 75.78L235.118 74L231.358 64.24H232.978L235.938 72.26L239.078 64.24H240.698L235.778 76.22C235.564 76.74 235.331 77.16 235.078 77.48C234.824 77.8 234.531 78.0267 234.198 78.16C233.864 78.3067 233.458 78.38 232.978 78.38ZM251.067 74V60H252.607V72.64H260.507V74H251.067ZM268.547 74.16C267.641 74.16 266.827 73.94 266.107 73.5C265.387 73.06 264.821 72.46 264.407 71.7C263.994 70.94 263.787 70.08 263.787 69.12C263.787 68.16 263.994 67.3 264.407 66.54C264.821 65.78 265.387 65.18 266.107 64.74C266.827 64.3 267.641 64.08 268.547 64.08C269.441 64.08 270.241 64.3 270.947 64.74C271.667 65.18 272.234 65.78 272.647 66.54C273.061 67.3 273.267 68.16 273.267 69.12C273.267 70.08 273.061 70.94 272.647 71.7C272.234 72.46 271.667 73.06 270.947 73.5C270.241 73.94 269.441 74.16 268.547 74.16ZM268.527 72.88C269.167 72.88 269.734 72.72 270.227 72.4C270.721 72.0667 271.107 71.6133 271.387 71.04C271.681 70.4667 271.827 69.8267 271.827 69.12C271.827 68.4 271.681 67.76 271.387 67.2C271.107 66.6267 270.721 66.18 270.227 65.86C269.734 65.5267 269.167 65.36 268.527 65.36C267.887 65.36 267.321 65.5267 266.827 65.86C266.334 66.18 265.941 66.6267 265.647 67.2C265.367 67.76 265.227 68.4 265.227 69.12C265.227 69.8267 265.367 70.4667 265.647 71.04C265.941 71.6133 266.334 72.0667 266.827 72.4C267.321 72.72 267.887 72.88 268.527 72.88ZM282.149 78.38C281.496 78.38 280.836 78.2867 280.169 78.1C279.516 77.9267 278.909 77.68 278.349 77.36L278.969 76.24C279.569 76.5467 280.116 76.7733 280.609 76.92C281.102 77.0667 281.596 77.14 282.089 77.14C282.982 77.14 283.656 76.9267 284.109 76.5C284.576 76.0733 284.809 75.4533 284.809 74.64V72.68C284.436 73.1467 283.982 73.5067 283.449 73.76C282.916 74 282.329 74.12 281.689 74.12C280.849 74.12 280.089 73.9 279.409 73.46C278.729 73.0067 278.189 72.4067 277.789 71.66C277.389 70.9 277.189 70.0533 277.189 69.12C277.189 68.1867 277.389 67.3467 277.789 66.6C278.202 65.84 278.756 65.24 279.449 64.8C280.142 64.3467 280.916 64.12 281.769 64.12C282.382 64.12 282.949 64.24 283.469 64.48C283.989 64.7067 284.442 65.0467 284.829 65.5V64.24H286.269V74.62C286.269 75.8333 285.916 76.76 285.209 77.4C284.502 78.0533 283.482 78.38 282.149 78.38ZM282.049 72.86C282.622 72.86 283.149 72.7467 283.629 72.52C284.109 72.28 284.502 71.9533 284.809 71.54V66.72C284.489 66.3067 284.082 65.9867 283.589 65.76C283.109 65.52 282.596 65.4 282.049 65.4C281.396 65.4 280.809 65.56 280.289 65.88C279.782 66.2 279.376 66.64 279.069 67.2C278.776 67.76 278.629 68.4 278.629 69.12C278.629 69.8267 278.776 70.4667 279.069 71.04C279.376 71.6 279.782 72.0467 280.289 72.38C280.809 72.7 281.396 72.86 282.049 72.86ZM291.05 74V64.24H292.51V74H291.05ZM291.79 61.82C291.496 61.82 291.243 61.72 291.03 61.52C290.83 61.3067 290.73 61.06 290.73 60.78C290.73 60.5 290.83 60.26 291.03 60.06C291.243 59.8467 291.496 59.74 291.79 59.74C292.083 59.74 292.33 59.8467 292.53 60.06C292.743 60.26 292.85 60.5 292.85 60.78C292.85 61.06 292.743 61.3067 292.53 61.52C292.33 61.72 292.083 61.82 291.79 61.82ZM297.303 74V64.24H298.763V65.82C299.136 65.2333 299.583 64.8 300.103 64.52C300.623 64.2267 301.21 64.08 301.863 64.08C302.57 64.08 303.183 64.2333 303.703 64.54C304.236 64.8333 304.65 65.2533 304.943 65.8C305.25 66.3333 305.403 66.96 305.403 67.68V74H303.943V68.1C303.943 67.2333 303.703 66.5533 303.223 66.06C302.756 65.5533 302.123 65.3 301.323 65.3C300.79 65.3 300.303 65.4267 299.863 65.68C299.423 65.9333 299.056 66.3067 298.763 66.8V74H297.303ZM313.158 74.2C312.358 74.2 311.618 74.08 310.938 73.84C310.258 73.5867 309.678 73.2267 309.198 72.76L309.978 71.8C310.565 72.2267 311.105 72.54 311.598 72.74C312.092 72.9267 312.598 73.02 313.118 73.02C313.825 73.02 314.412 72.8533 314.878 72.52C315.345 72.1867 315.578 71.76 315.578 71.24C315.578 70.84 315.438 70.5267 315.158 70.3C314.892 70.0733 314.445 69.9 313.818 69.78L312.218 69.5C311.272 69.3267 310.572 69.0333 310.118 68.62C309.678 68.2067 309.458 67.6467 309.458 66.94C309.458 66.38 309.605 65.8867 309.898 65.46C310.205 65.0333 310.625 64.7 311.158 64.46C311.692 64.2067 312.298 64.08 312.978 64.08C313.645 64.08 314.278 64.18 314.878 64.38C315.478 64.5667 316.085 64.8733 316.698 65.3L315.978 66.32C315.472 65.96 314.965 65.7 314.458 65.54C313.952 65.3667 313.438 65.28 312.918 65.28C312.278 65.28 311.765 65.42 311.378 65.7C310.992 65.98 310.798 66.36 310.798 66.84C310.798 67.24 310.918 67.5467 311.158 67.76C311.412 67.9733 311.852 68.1333 312.478 68.24L314.118 68.54C315.105 68.7133 315.825 69.0133 316.278 69.44C316.732 69.8667 316.958 70.44 316.958 71.16C316.958 71.7333 316.792 72.2533 316.458 72.72C316.125 73.1733 315.672 73.5333 315.098 73.8C314.525 74.0667 313.878 74.2 313.158 74.2Z" fill="#676767"/>
    </svg>
    