<svg width="42" height="42" viewBox="0 0 42 42" fill="none" xmlns="http://www.w3.org/2000/svg">
<path d="M19.6875 39.3748H2.62503V2.62492H19.6875C20.412 2.62492 20.9999 2.03688 20.9999 1.31246C20.9999 0.588044 20.4119 0 19.6875 0H1.31246C0.588044 0 0 0.587935 0 1.31246V40.6873C0 41.4118 0.588044 41.9998 1.31246 41.9998H19.6874C20.4119 41.9998 20.9998 41.4117 20.9998 40.6873C20.9999 39.9628 20.4119 39.3748 19.6875 39.3748Z" fill="#607FE8"/>
<path d="M41.6192 20.0828L32.563 10.8967C32.0498 10.3783 31.219 10.3796 30.7071 10.8967C30.1939 11.4138 30.1939 12.2538 30.7071 12.7709L37.5322 19.6943H10.5039C9.7794 19.6943 9.19147 20.2876 9.19147 21.02C9.19147 21.7524 9.77951 22.3457 10.5039 22.3457H37.5322L30.7071 29.2691C30.1939 29.7875 30.1939 30.6262 30.7071 31.1433C31.2203 31.6618 32.0511 31.6618 32.563 31.1433L41.6179 21.9572C42.1246 21.4466 42.1298 20.5921 41.6192 20.0828Z" fill="#607FE8"/>
</svg>
