<svg width="315" height="73" viewBox="0 0 315 73" fill="none" xmlns="http://www.w3.org/2000/svg">
    <path d="M230.375 44.297C229.709 44.297 229.133 44.045 228.647 43.541C228.161 43.037 227.918 42.434 227.918 41.732C227.918 41.03 228.161 40.427 228.647 39.923C229.133 39.419 229.709 39.167 230.375 39.167C231.059 39.167 231.635 39.419 232.103 39.923C232.589 40.427 232.832 41.03 232.832 41.732C232.832 42.434 232.589 43.037 232.103 43.541C231.635 44.045 231.059 44.297 230.375 44.297Z" fill="#E13232"/>
    <path d="M21.398 44.081C20.552 44.081 19.751 43.901 18.995 43.541C18.239 43.181 17.582 42.695 17.024 42.083C16.484 41.471 16.052 40.751 15.728 39.923C15.422 39.077 15.269 38.177 15.269 37.223C15.269 36.269 15.431 35.369 15.755 34.523C16.079 33.677 16.52 32.948 17.078 32.336C17.654 31.724 18.329 31.247 19.103 30.905C19.877 30.545 20.705 30.365 21.587 30.365C22.361 30.365 23.09 30.527 23.774 30.851C24.458 31.157 25.052 31.607 25.556 32.201V30.473H28.58V44.459C28.58 46.187 28.022 47.519 26.906 48.455C25.808 49.391 24.242 49.859 22.208 49.859C21.236 49.859 20.282 49.742 19.346 49.508C18.428 49.292 17.573 48.977 16.781 48.563L17.861 46.295C18.635 46.691 19.364 46.979 20.048 47.159C20.732 47.357 21.407 47.456 22.073 47.456C23.207 47.456 24.062 47.195 24.638 46.673C25.232 46.169 25.529 45.431 25.529 44.459V42.164C25.061 42.758 24.458 43.226 23.72 43.568C23 43.91 22.226 44.081 21.398 44.081ZM18.293 37.223C18.293 38.447 18.68 39.473 19.454 40.301C20.228 41.129 21.182 41.543 22.316 41.543C22.964 41.543 23.558 41.417 24.098 41.165C24.656 40.913 25.133 40.544 25.529 40.058V34.388C25.133 33.938 24.656 33.587 24.098 33.335C23.54 33.065 22.946 32.93 22.316 32.93C21.164 32.93 20.201 33.335 19.427 34.145C18.671 34.955 18.293 35.981 18.293 37.223ZM36.3931 30.473V38.519C36.3931 39.491 36.6631 40.274 37.2031 40.868C37.7431 41.462 38.4631 41.759 39.3631 41.759C39.9751 41.759 40.5331 41.624 41.0371 41.354C41.5411 41.066 41.9731 40.643 42.3331 40.085V30.473H45.3841V44H42.3331V41.759C41.8291 42.551 41.2081 43.163 40.4701 43.595C39.7501 44.009 38.9311 44.216 38.0131 44.216C36.6451 44.216 35.5201 43.766 34.6381 42.866C33.7741 41.966 33.3421 40.805 33.3421 39.383V30.473H36.3931ZM54.322 44.216C52.918 44.216 51.766 43.838 50.866 43.082C49.984 42.308 49.543 41.318 49.543 40.112C49.543 38.906 50.002 37.943 50.92 37.223C51.856 36.503 53.116 36.143 54.7 36.143C55.33 36.143 55.942 36.215 56.536 36.359C57.13 36.485 57.733 36.692 58.345 36.98V35.495C58.345 34.613 58.084 33.947 57.562 33.497C57.04 33.029 56.266 32.795 55.24 32.795C54.682 32.795 54.079 32.885 53.431 33.065C52.783 33.227 52.072 33.488 51.298 33.848L50.218 31.634C51.226 31.166 52.189 30.824 53.107 30.608C54.025 30.374 54.934 30.257 55.834 30.257C57.58 30.257 58.939 30.689 59.911 31.553C60.883 32.399 61.369 33.605 61.369 35.171V44H58.345V42.623C57.733 43.181 57.103 43.586 56.455 43.838C55.807 44.09 55.096 44.216 54.322 44.216ZM52.405 40.058C52.405 40.67 52.657 41.165 53.161 41.543C53.665 41.903 54.331 42.083 55.159 42.083C55.771 42.083 56.338 41.993 56.86 41.813C57.4 41.633 57.895 41.354 58.345 40.976V38.762C57.859 38.528 57.364 38.366 56.86 38.276C56.356 38.168 55.807 38.114 55.213 38.114C54.349 38.114 53.665 38.294 53.161 38.654C52.657 38.996 52.405 39.464 52.405 40.058ZM66.1427 44V30.473H69.1937V33.416C69.5537 32.39 70.0487 31.607 70.6787 31.067C71.3267 30.509 72.0737 30.23 72.9197 30.23C73.1717 30.248 73.3967 30.275 73.5947 30.311C73.7927 30.347 74.0087 30.41 74.2427 30.5V33.173C74.0087 33.065 73.7387 32.984 73.4327 32.93C73.1447 32.876 72.8567 32.849 72.5687 32.849C71.8487 32.849 71.1917 33.047 70.5977 33.443C70.0037 33.839 69.5357 34.388 69.1937 35.09V44H66.1427ZM86.8291 44V42.191C86.3611 42.803 85.7581 43.28 85.0201 43.622C84.3001 43.964 83.5171 44.135 82.6711 44.135C81.8251 44.135 81.0241 43.955 80.2681 43.595C79.5121 43.235 78.8551 42.749 78.2971 42.137C77.7571 41.507 77.3251 40.778 77.0011 39.95C76.6951 39.104 76.5421 38.204 76.5421 37.25C76.5421 36.296 76.7041 35.396 77.0281 34.55C77.3521 33.704 77.7931 32.975 78.3511 32.363C78.9271 31.751 79.6021 31.265 80.3761 30.905C81.1501 30.545 81.9781 30.365 82.8601 30.365C83.6341 30.365 84.3541 30.527 85.0201 30.851C85.7041 31.157 86.2981 31.589 86.8021 32.147V24.695L89.8531 24.182V44H86.8291ZM79.5661 37.25C79.5661 38.474 79.9531 39.5 80.7271 40.328C81.5011 41.156 82.4551 41.57 83.5891 41.57C84.2371 41.57 84.8311 41.444 85.3711 41.192C85.9291 40.94 86.4061 40.571 86.8021 40.085V34.388C86.4061 33.938 85.9291 33.587 85.3711 33.335C84.8131 33.065 84.2191 32.93 83.5891 32.93C82.4371 32.93 81.4741 33.344 80.7001 34.172C79.9441 34.982 79.5661 36.008 79.5661 37.25ZM96.2346 27.719C95.7126 27.719 95.2626 27.539 94.8846 27.179C94.5246 26.819 94.3446 26.378 94.3446 25.856C94.3446 25.352 94.5336 24.911 94.9116 24.533C95.2896 24.155 95.7306 23.966 96.2346 23.966C96.7566 23.966 97.2066 24.155 97.5846 24.533C97.9626 24.911 98.1516 25.352 98.1516 25.856C98.1516 26.378 97.9626 26.819 97.5846 27.179C97.2246 27.539 96.7746 27.719 96.2346 27.719ZM97.7736 30.473V44H94.7226V30.473H97.7736ZM106.709 44.216C105.305 44.216 104.153 43.838 103.253 43.082C102.371 42.308 101.93 41.318 101.93 40.112C101.93 38.906 102.389 37.943 103.307 37.223C104.243 36.503 105.503 36.143 107.087 36.143C107.717 36.143 108.329 36.215 108.923 36.359C109.517 36.485 110.12 36.692 110.732 36.98V35.495C110.732 34.613 110.471 33.947 109.949 33.497C109.427 33.029 108.653 32.795 107.627 32.795C107.069 32.795 106.466 32.885 105.818 33.065C105.17 33.227 104.459 33.488 103.685 33.848L102.605 31.634C103.613 31.166 104.576 30.824 105.494 30.608C106.412 30.374 107.321 30.257 108.221 30.257C109.967 30.257 111.326 30.689 112.298 31.553C113.27 32.399 113.756 33.605 113.756 35.171V44H110.732V42.623C110.12 43.181 109.49 43.586 108.842 43.838C108.194 44.09 107.483 44.216 106.709 44.216ZM104.792 40.058C104.792 40.67 105.044 41.165 105.548 41.543C106.052 41.903 106.718 42.083 107.546 42.083C108.158 42.083 108.725 41.993 109.247 41.813C109.787 41.633 110.282 41.354 110.732 40.976V38.762C110.246 38.528 109.751 38.366 109.247 38.276C108.743 38.168 108.194 38.114 107.6 38.114C106.736 38.114 106.052 38.294 105.548 38.654C105.044 38.996 104.792 39.464 104.792 40.058ZM118.53 44V30.473H121.581V32.687C122.085 31.895 122.697 31.292 123.417 30.878C124.155 30.464 124.974 30.257 125.874 30.257C127.242 30.257 128.358 30.716 129.222 31.634C130.104 32.534 130.545 33.686 130.545 35.09V44H127.494V35.954C127.494 34.982 127.224 34.199 126.684 33.605C126.144 33.011 125.424 32.714 124.524 32.714C123.912 32.714 123.354 32.858 122.85 33.146C122.364 33.416 121.941 33.812 121.581 34.334V44H118.53ZM133.849 30.473H136.765V28.07C136.765 26.612 137.161 25.496 137.953 24.722C138.763 23.93 139.924 23.534 141.436 23.534C141.796 23.534 142.156 23.561 142.516 23.615C142.894 23.669 143.209 23.732 143.461 23.804V26.396C143.119 26.324 142.831 26.27 142.597 26.234C142.363 26.198 142.111 26.18 141.841 26.18C141.139 26.18 140.626 26.342 140.302 26.666C139.978 26.972 139.816 27.458 139.816 28.124V30.473H143.461V32.903H139.816V44H136.765V32.903H133.849V30.473ZM148.622 27.719C148.1 27.719 147.65 27.539 147.272 27.179C146.912 26.819 146.732 26.378 146.732 25.856C146.732 25.352 146.921 24.911 147.299 24.533C147.677 24.155 148.118 23.966 148.622 23.966C149.144 23.966 149.594 24.155 149.972 24.533C150.35 24.911 150.539 25.352 150.539 25.856C150.539 26.378 150.35 26.819 149.972 27.179C149.612 27.539 149.162 27.719 148.622 27.719ZM150.161 30.473V44H147.11V30.473H150.161ZM156.667 40.436V32.903H153.94V30.473H156.667V26.747L159.718 26.099V30.473H163.498V32.903H159.718V39.761C159.718 40.427 159.862 40.904 160.15 41.192C160.438 41.462 160.924 41.597 161.608 41.597C161.914 41.597 162.193 41.579 162.445 41.543C162.715 41.489 163.048 41.399 163.444 41.273V43.838C163.048 43.964 162.607 44.054 162.121 44.108C161.653 44.18 161.221 44.216 160.825 44.216C159.475 44.216 158.44 43.901 157.72 43.271C157.018 42.623 156.667 41.678 156.667 40.436ZM167.252 44V30.473H170.303V32.687C170.807 31.895 171.419 31.292 172.139 30.878C172.877 30.464 173.696 30.257 174.596 30.257C175.964 30.257 177.08 30.716 177.944 31.634C178.826 32.534 179.267 33.686 179.267 35.09V44H176.216V35.954C176.216 34.982 175.946 34.199 175.406 33.605C174.866 33.011 174.146 32.714 173.246 32.714C172.634 32.714 172.076 32.858 171.572 33.146C171.086 33.416 170.663 33.812 170.303 34.334V44H167.252ZM195.684 42.272C194.856 42.956 194.01 43.46 193.146 43.784C192.3 44.108 191.355 44.27 190.311 44.27C189.357 44.27 188.457 44.09 187.611 43.73C186.765 43.37 186.036 42.875 185.424 42.245C184.812 41.615 184.326 40.868 183.966 40.004C183.606 39.14 183.426 38.222 183.426 37.25C183.426 36.26 183.588 35.342 183.912 34.496C184.254 33.632 184.713 32.894 185.289 32.282C185.883 31.652 186.585 31.157 187.395 30.797C188.205 30.437 189.078 30.257 190.014 30.257C190.932 30.257 191.778 30.437 192.552 30.797C193.344 31.139 194.019 31.616 194.577 32.228C195.153 32.84 195.603 33.578 195.927 34.442C196.251 35.288 196.413 36.215 196.413 37.223V37.979H186.423C186.567 39.041 187.017 39.923 187.773 40.625C188.547 41.327 189.447 41.678 190.473 41.678C191.103 41.678 191.697 41.57 192.255 41.354C192.831 41.12 193.308 40.805 193.686 40.409L195.684 42.272ZM189.987 32.741C189.087 32.741 188.322 33.047 187.692 33.659C187.062 34.271 186.657 35.09 186.477 36.116H193.524C193.344 35.126 192.93 34.316 192.282 33.686C191.652 33.056 190.887 32.741 189.987 32.741ZM199.522 42.434L200.953 40.382C201.835 40.94 202.609 41.336 203.275 41.57C203.941 41.804 204.616 41.921 205.3 41.921C206.11 41.921 206.767 41.759 207.271 41.435C207.775 41.093 208.027 40.652 208.027 40.112C208.027 39.698 207.874 39.374 207.568 39.14C207.28 38.888 206.812 38.699 206.164 38.573L203.761 38.168C202.465 37.934 201.484 37.511 200.818 36.899C200.17 36.269 199.846 35.45 199.846 34.442C199.846 33.182 200.323 32.174 201.277 31.418C202.249 30.644 203.518 30.257 205.084 30.257C206.02 30.257 206.92 30.392 207.784 30.662C208.666 30.914 209.539 31.319 210.403 31.877L208.972 33.875C208.27 33.425 207.586 33.101 206.92 32.903C206.254 32.687 205.579 32.579 204.895 32.579C204.193 32.579 203.626 32.723 203.194 33.011C202.78 33.281 202.573 33.668 202.573 34.172C202.573 34.604 202.708 34.928 202.978 35.144C203.266 35.36 203.77 35.531 204.49 35.657L206.866 36.089C208.216 36.341 209.215 36.782 209.863 37.412C210.529 38.042 210.862 38.861 210.862 39.869C210.862 40.481 210.718 41.057 210.43 41.597C210.16 42.137 209.773 42.605 209.269 43.001C208.783 43.397 208.198 43.712 207.514 43.946C206.848 44.162 206.128 44.27 205.354 44.27C204.184 44.27 203.095 44.117 202.087 43.811C201.097 43.487 200.242 43.028 199.522 42.434ZM213.627 42.434L215.058 40.382C215.94 40.94 216.714 41.336 217.38 41.57C218.046 41.804 218.721 41.921 219.405 41.921C220.215 41.921 220.872 41.759 221.376 41.435C221.88 41.093 222.132 40.652 222.132 40.112C222.132 39.698 221.979 39.374 221.673 39.14C221.385 38.888 220.917 38.699 220.269 38.573L217.866 38.168C216.57 37.934 215.589 37.511 214.923 36.899C214.275 36.269 213.951 35.45 213.951 34.442C213.951 33.182 214.428 32.174 215.382 31.418C216.354 30.644 217.623 30.257 219.189 30.257C220.125 30.257 221.025 30.392 221.889 30.662C222.771 30.914 223.644 31.319 224.508 31.877L223.077 33.875C222.375 33.425 221.691 33.101 221.025 32.903C220.359 32.687 219.684 32.579 219 32.579C218.298 32.579 217.731 32.723 217.299 33.011C216.885 33.281 216.678 33.668 216.678 34.172C216.678 34.604 216.813 34.928 217.083 35.144C217.371 35.36 217.875 35.531 218.595 35.657L220.971 36.089C222.321 36.341 223.32 36.782 223.968 37.412C224.634 38.042 224.967 38.861 224.967 39.869C224.967 40.481 224.823 41.057 224.535 41.597C224.265 42.137 223.878 42.605 223.374 43.001C222.888 43.397 222.303 43.712 221.619 43.946C220.953 44.162 220.233 44.27 219.459 44.27C218.289 44.27 217.2 44.117 216.192 43.811C215.202 43.487 214.347 43.028 213.627 42.434Z" fill="#474747"/>
</svg>
    