<svg width="457" height="208" viewBox="0 0 457 208" fill="none" xmlns="http://www.w3.org/2000/svg">
    <g clip-path="url(#clip0_7_105)">
    <g filter="url(#filter0_d_7_105)">
    <path d="M377.665 129.135V137.249C377.665 137.661 377.954 137.995 378.311 137.995C378.667 137.995 378.956 137.661 378.956 137.249V128.595C378.956 128.265 378.769 127.974 378.495 127.88C377.032 127.377 375.717 126.322 374.79 124.908C373.833 123.448 373.327 121.705 373.327 119.868C373.327 115.259 376.572 111.51 380.56 111.51C381.305 111.51 382.034 111.641 382.727 111.891C382.532 112.751 382.226 113.565 381.824 114.309C381.455 114.108 381.042 113.994 380.607 113.994C379.032 113.994 377.751 115.475 377.751 117.295C377.751 119.115 379.032 120.596 380.607 120.596C382.182 120.596 383.464 119.115 383.464 117.295C383.464 116.52 383.231 115.806 382.842 115.242C383.319 114.39 383.686 113.456 383.928 112.469C384.772 112.982 385.53 113.691 386.154 114.569C386.38 114.887 386.787 114.934 387.063 114.672C387.339 114.411 387.379 113.94 387.153 113.622C386.336 112.472 385.324 111.569 384.195 110.954C384.242 110.528 384.267 110.096 384.267 109.658C384.267 103.99 380.276 99.3778 375.37 99.3778C370.464 99.3778 366.473 103.99 366.473 109.659C366.473 111.201 366.776 112.731 367.351 114.113C365.549 117.201 365.389 121.277 367.03 124.555L361.105 131.402C360.852 131.694 360.852 132.166 361.105 132.458C361.357 132.749 361.766 132.749 362.018 132.458L368.306 125.192C368.523 124.941 368.557 124.547 368.387 124.251C366.486 120.953 366.87 116.522 369.298 113.716C371.088 111.648 373.675 110.841 376.078 111.492C375.227 112.103 374.474 112.882 373.857 113.789C372.71 113.934 371.64 114.523 370.819 115.472C368.837 117.763 368.837 121.489 370.819 123.779C371.561 124.636 372.486 125.193 373.509 125.404C373.59 125.541 373.673 125.677 373.76 125.81C374.278 126.6 374.901 127.294 375.595 127.87C373.803 128.212 371.944 127.769 370.41 126.589C370.154 126.392 369.813 126.431 369.595 126.682L363.677 133.522C363.424 133.813 363.424 134.286 363.677 134.577L365.076 136.194C365.429 136.586 365.429 137.292 365.076 137.684C364.736 138.093 364.125 138.093 363.786 137.684L362.387 136.068C362.135 135.776 361.726 135.776 361.474 136.068L359.798 138.004C359.548 138.282 359.548 138.781 359.798 139.059L361.197 140.676C361.553 141.086 361.553 141.755 361.197 142.166C360.842 142.577 360.263 142.577 359.907 142.166L358.509 140.549C358.256 140.258 357.847 140.258 357.595 140.549L355.763 142.667C355.407 143.078 354.829 143.078 354.473 142.667C354.117 142.256 354.117 141.587 354.473 141.176L360.191 134.569C360.444 134.277 360.444 133.805 360.191 133.513C359.939 133.222 359.53 133.222 359.278 133.513L353.56 140.121C352.701 141.114 352.701 142.729 353.56 143.722C354.419 144.715 355.817 144.715 356.676 143.722L358.052 142.132L358.994 143.221C359.853 144.214 361.251 144.214 362.11 143.221C362.97 142.229 362.97 140.613 362.11 139.62L361.168 138.531L361.93 137.651L362.873 138.739C363.693 139.727 365.169 139.727 365.989 138.74C366.844 137.792 366.844 136.086 365.989 135.138L365.047 134.049L370.147 128.156C372.283 129.584 374.871 129.871 377.216 128.928C377.364 129.001 377.513 129.071 377.665 129.135ZM380.607 115.487C380.748 115.487 380.884 115.51 381.014 115.551C380.456 116.265 379.794 116.877 379.045 117.354C379.044 117.334 379.042 117.315 379.042 117.295C379.042 116.298 379.744 115.487 380.607 115.487ZM382.172 117.295C382.172 118.292 381.47 119.104 380.607 119.104C380.232 119.104 379.886 118.95 379.616 118.694C380.531 118.12 381.338 117.376 382.012 116.503C382.113 116.742 382.172 117.011 382.172 117.295ZM368.385 112.66C368.345 112.707 368.306 112.755 368.267 112.802C367.937 111.804 367.765 110.735 367.765 109.659C367.765 104.813 371.177 100.87 375.37 100.87C379.564 100.87 382.975 104.813 382.975 109.659C382.975 109.911 382.965 110.161 382.947 110.409C382.181 110.152 381.379 110.017 380.56 110.017C379.579 110.017 378.637 110.21 377.759 110.564C374.578 108.997 370.843 109.82 368.385 112.66ZM372.868 115.624C372.599 116.272 372.39 116.958 372.249 117.673C371.928 117.506 371.617 117.314 371.318 117.097C371.44 116.897 371.577 116.706 371.732 116.528C372.063 116.145 372.449 115.84 372.868 115.624ZM371.732 122.724C370.733 121.569 370.41 119.924 370.762 118.452C371.175 118.742 371.607 118.992 372.056 119.2C372.043 119.421 372.035 119.643 372.035 119.868C372.035 121.129 372.239 122.353 372.631 123.495C372.304 123.294 372.002 123.035 371.732 122.724Z" fill="#DF921E"/>
    </g>
    <g filter="url(#filter1_d_7_105)">
    <path d="M388.548 116.421C388.423 116.035 388.051 115.839 387.717 115.983C387.383 116.128 387.213 116.558 387.338 116.944C387.64 117.877 387.793 118.861 387.793 119.868C387.793 123.497 385.789 126.69 382.806 127.815C382.54 127.915 382.36 128.202 382.36 128.524V132.668L380.531 134.308C380.201 134.588 380.201 135.207 380.531 135.487L381.952 136.761L380.531 138.035C380.201 138.315 380.201 138.934 380.531 139.214L381.952 140.488L380.531 141.762C380.201 142.042 380.201 142.661 380.531 142.941L382.36 144.581V146.372L380.583 148.406L378.956 146.389V140.234C378.956 139.822 378.667 139.488 378.311 139.488C377.954 139.488 377.665 139.822 377.665 140.234V146.683C377.665 146.872 377.727 147.054 377.838 147.192L380.092 149.987C380.328 150.292 380.772 150.302 381.019 150.008L383.461 147.213C383.583 147.073 383.652 146.882 383.652 146.683V144.215C383.652 143.985 383.56 143.767 383.402 143.625L381.98 142.352L383.402 141.078C383.732 140.798 383.732 140.179 383.402 139.898L381.98 138.625L383.402 137.351C383.732 137.071 383.732 136.451 383.402 136.171L381.98 134.898L383.402 133.624C383.56 133.482 383.652 133.265 383.652 133.034V129.05C386.921 127.585 389.085 123.961 389.085 119.868C389.085 118.682 388.904 117.523 388.548 116.421Z" fill="#DF921E"/>
    </g>
    </g>
    <g filter="url(#filter2_d_7_105)">
    <path d="M41.76 81.396C39.96 81.396 38.292 81.06 36.756 80.388C35.22 79.716 33.864 78.792 32.688 77.616C31.536 76.416 30.636 75.036 29.988 73.476C29.34 71.892 29.016 70.2 29.016 68.4C29.016 66.6 29.34 64.92 29.988 63.36C30.636 61.776 31.536 60.396 32.688 59.22C33.864 58.02 35.22 57.084 36.756 56.412C38.292 55.74 39.96 55.404 41.76 55.404C43.68 55.404 45.492 55.752 47.196 56.448C48.924 57.144 50.388 58.176 51.588 59.544L49.716 61.416C48.78 60.288 47.604 59.424 46.188 58.824C44.772 58.224 43.296 57.924 41.76 57.924C40.344 57.924 39.036 58.2 37.836 58.752C36.636 59.28 35.58 60.024 34.668 60.984C33.78 61.92 33.084 63.024 32.58 64.296C32.076 65.568 31.824 66.936 31.824 68.4C31.824 69.864 32.076 71.232 32.58 72.504C33.084 73.776 33.78 74.892 34.668 75.852C35.58 76.788 36.636 77.532 37.836 78.084C39.036 78.612 40.344 78.876 41.76 78.876C43.44 78.876 44.94 78.504 46.26 77.76C47.604 77.016 48.684 75.996 49.5 74.7C50.34 73.38 50.832 71.904 50.976 70.272H42.48V67.824H53.784V68.94C53.784 70.692 53.484 72.324 52.884 73.836C52.284 75.324 51.432 76.644 50.328 77.796C49.248 78.924 47.976 79.812 46.512 80.46C45.048 81.084 43.464 81.396 41.76 81.396ZM58.9618 81V55.8H76.1698V58.248H61.7338V67.068H71.7418V69.48H61.7338V78.552H76.3138V81H58.9618ZM87.7669 81V58.248H79.0549V55.8H99.2509V58.248H90.5389V81H87.7669ZM108.992 81L118.964 55.8H122.276L132.104 81H129.116L126.128 73.08H114.896L111.908 81H108.992ZM115.76 70.884H125.3L120.512 58.32L115.76 70.884ZM146.176 81.396C144.376 81.396 142.696 81.072 141.136 80.424C139.6 79.752 138.244 78.828 137.068 77.652C135.892 76.452 134.98 75.072 134.332 73.512C133.684 71.928 133.36 70.224 133.36 68.4C133.36 66.576 133.684 64.884 134.332 63.324C134.98 61.74 135.892 60.36 137.068 59.184C138.244 57.984 139.6 57.06 141.136 56.412C142.696 55.74 144.376 55.404 146.176 55.404C147.424 55.404 148.612 55.572 149.74 55.908C150.892 56.22 151.972 56.688 152.98 57.312C153.988 57.912 154.888 58.656 155.68 59.544L153.844 61.452C152.908 60.324 151.756 59.46 150.388 58.86C149.044 58.236 147.64 57.924 146.176 57.924C144.76 57.924 143.44 58.188 142.216 58.716C140.992 59.244 139.924 59.988 139.012 60.948C138.124 61.908 137.428 63.024 136.924 64.296C136.42 65.544 136.168 66.912 136.168 68.4C136.168 69.864 136.42 71.232 136.924 72.504C137.428 73.776 138.124 74.892 139.012 75.852C139.924 76.812 140.992 77.556 142.216 78.084C143.44 78.612 144.76 78.876 146.176 78.876C147.64 78.876 149.044 78.564 150.388 77.94C151.756 77.316 152.908 76.452 153.844 75.348L155.68 77.256C154.888 78.144 153.988 78.9 152.98 79.524C151.972 80.124 150.892 80.592 149.74 80.928C148.612 81.24 147.424 81.396 146.176 81.396ZM171.77 81.396C169.97 81.396 168.29 81.072 166.73 80.424C165.194 79.752 163.838 78.828 162.662 77.652C161.486 76.452 160.574 75.072 159.926 73.512C159.278 71.928 158.954 70.224 158.954 68.4C158.954 66.576 159.278 64.884 159.926 63.324C160.574 61.74 161.486 60.36 162.662 59.184C163.838 57.984 165.194 57.06 166.73 56.412C168.29 55.74 169.97 55.404 171.77 55.404C173.018 55.404 174.206 55.572 175.334 55.908C176.486 56.22 177.566 56.688 178.574 57.312C179.582 57.912 180.482 58.656 181.274 59.544L179.438 61.452C178.502 60.324 177.35 59.46 175.982 58.86C174.638 58.236 173.234 57.924 171.77 57.924C170.354 57.924 169.034 58.188 167.81 58.716C166.586 59.244 165.518 59.988 164.606 60.948C163.718 61.908 163.022 63.024 162.518 64.296C162.014 65.544 161.762 66.912 161.762 68.4C161.762 69.864 162.014 71.232 162.518 72.504C163.022 73.776 163.718 74.892 164.606 75.852C165.518 76.812 166.586 77.556 167.81 78.084C169.034 78.612 170.354 78.876 171.77 78.876C173.234 78.876 174.638 78.564 175.982 77.94C177.35 77.316 178.502 76.452 179.438 75.348L181.274 77.256C180.482 78.144 179.582 78.9 178.574 79.524C177.566 80.124 176.486 80.592 175.334 80.928C174.206 81.24 173.018 81.396 171.77 81.396ZM186.263 81V55.8H203.471V58.248H189.035V67.068H199.043V69.48H189.035V78.552H203.615V81H186.263ZM216.688 81.396C214.72 81.396 212.896 81.048 211.216 80.352C209.536 79.632 207.916 78.552 206.356 77.112L208.048 75.096C209.56 76.512 210.976 77.52 212.296 78.12C213.64 78.72 215.128 79.02 216.76 79.02C218.056 79.02 219.208 78.804 220.216 78.372C221.248 77.916 222.052 77.304 222.628 76.536C223.204 75.768 223.492 74.892 223.492 73.908C223.492 72.636 223.072 71.676 222.232 71.028C221.392 70.356 219.94 69.84 217.876 69.48L213.808 68.796C211.504 68.388 209.812 67.692 208.732 66.708C207.676 65.7 207.148 64.356 207.148 62.676C207.148 61.26 207.508 60.012 208.228 58.932C208.972 57.828 209.992 56.964 211.288 56.34C212.584 55.716 214.084 55.404 215.788 55.404C217.66 55.404 219.4 55.668 221.008 56.196C222.616 56.7 224.2 57.504 225.76 58.608L224.32 60.768C223.024 59.784 221.656 59.04 220.216 58.536C218.776 58.008 217.312 57.744 215.824 57.744C214.648 57.744 213.604 57.948 212.692 58.356C211.804 58.764 211.096 59.316 210.568 60.012C210.064 60.708 209.812 61.5 209.812 62.388C209.812 63.492 210.184 64.356 210.928 64.98C211.672 65.604 212.884 66.048 214.564 66.312L218.596 66.996C221.284 67.476 223.228 68.256 224.428 69.336C225.652 70.392 226.264 71.868 226.264 73.764C226.264 75.228 225.844 76.536 225.004 77.688C224.188 78.84 223.06 79.752 221.62 80.424C220.18 81.072 218.536 81.396 216.688 81.396ZM239.469 81.396C237.501 81.396 235.677 81.048 233.997 80.352C232.317 79.632 230.697 78.552 229.137 77.112L230.829 75.096C232.341 76.512 233.757 77.52 235.077 78.12C236.421 78.72 237.909 79.02 239.541 79.02C240.837 79.02 241.989 78.804 242.997 78.372C244.029 77.916 244.833 77.304 245.409 76.536C245.985 75.768 246.273 74.892 246.273 73.908C246.273 72.636 245.853 71.676 245.013 71.028C244.173 70.356 242.721 69.84 240.657 69.48L236.589 68.796C234.285 68.388 232.593 67.692 231.513 66.708C230.457 65.7 229.929 64.356 229.929 62.676C229.929 61.26 230.289 60.012 231.009 58.932C231.753 57.828 232.773 56.964 234.069 56.34C235.365 55.716 236.865 55.404 238.569 55.404C240.441 55.404 242.181 55.668 243.789 56.196C245.397 56.7 246.981 57.504 248.541 58.608L247.101 60.768C245.805 59.784 244.437 59.04 242.997 58.536C241.557 58.008 240.093 57.744 238.605 57.744C237.429 57.744 236.385 57.948 235.473 58.356C234.585 58.764 233.877 59.316 233.349 60.012C232.845 60.708 232.593 61.5 232.593 62.388C232.593 63.492 232.965 64.356 233.709 64.98C234.453 65.604 235.665 66.048 237.345 66.312L241.377 66.996C244.065 67.476 246.009 68.256 247.209 69.336C248.433 70.392 249.045 71.868 249.045 73.764C249.045 75.228 248.625 76.536 247.785 77.688C246.969 78.84 245.841 79.752 244.401 80.424C242.961 81.072 241.317 81.396 239.469 81.396ZM273.541 81.396C271.789 81.396 270.157 81.072 268.645 80.424C267.133 79.752 265.801 78.828 264.649 77.652C263.521 76.452 262.633 75.072 261.985 73.512C261.337 71.928 261.013 70.224 261.013 68.4C261.013 66.576 261.337 64.884 261.985 63.324C262.633 61.74 263.521 60.36 264.649 59.184C265.801 57.984 267.133 57.06 268.645 56.412C270.157 55.74 271.789 55.404 273.541 55.404C275.293 55.404 276.925 55.74 278.437 56.412C279.949 57.06 281.269 57.984 282.397 59.184C283.549 60.36 284.449 61.74 285.097 63.324C285.745 64.884 286.069 66.576 286.069 68.4C286.069 70.224 285.745 71.928 285.097 73.512C284.449 75.072 283.549 76.452 282.397 77.652C281.269 78.828 279.949 79.752 278.437 80.424C276.925 81.072 275.293 81.396 273.541 81.396ZM273.541 78.876C274.909 78.876 276.181 78.612 277.357 78.084C278.533 77.556 279.565 76.812 280.453 75.852C281.341 74.892 282.025 73.776 282.505 72.504C283.009 71.232 283.261 69.864 283.261 68.4C283.261 66.912 283.009 65.544 282.505 64.296C282.025 63.024 281.341 61.908 280.453 60.948C279.565 59.988 278.533 59.244 277.357 58.716C276.181 58.188 274.909 57.924 273.541 57.924C272.173 57.924 270.901 58.188 269.725 58.716C268.549 59.244 267.517 59.988 266.629 60.948C265.741 61.908 265.045 63.024 264.541 64.296C264.061 65.544 263.821 66.9 263.821 68.364C263.821 69.852 264.061 71.232 264.541 72.504C265.045 73.776 265.741 74.892 266.629 75.852C267.517 76.812 268.549 77.556 269.725 78.084C270.901 78.612 272.173 78.876 273.541 78.876ZM291.309 81V55.8H308.517V58.248H294.081V67.248H303.945V69.66H294.081V81H291.309ZM321.684 81V55.8H331.872C333.408 55.8 334.74 56.064 335.868 56.592C337.02 57.12 337.908 57.864 338.532 58.824C339.156 59.784 339.468 60.912 339.468 62.208C339.468 63.6 339.06 64.8 338.244 65.808C337.452 66.792 336.372 67.488 335.004 67.896C336.684 68.28 338.004 69.012 338.964 70.092C339.948 71.148 340.44 72.456 340.44 74.016C340.44 75.408 340.104 76.632 339.432 77.688C338.76 78.744 337.812 79.56 336.588 80.136C335.364 80.712 333.924 81 332.268 81H321.684ZM324.456 66.816H331.656C333.192 66.816 334.416 66.432 335.328 65.664C336.24 64.872 336.696 63.816 336.696 62.496C336.696 61.176 336.24 60.132 335.328 59.364C334.416 58.572 333.192 58.176 331.656 58.176H324.456V66.816ZM324.456 78.624H331.98C333.684 78.624 335.052 78.192 336.084 77.328C337.116 76.44 337.632 75.276 337.632 73.836C337.632 72.396 337.116 71.244 336.084 70.38C335.076 69.516 333.708 69.084 331.98 69.084H324.456V78.624ZM345.767 81V55.8H362.975V58.248H348.539V67.068H358.547V69.48H348.539V78.552H363.119V81H345.767ZM376.192 81.396C374.224 81.396 372.4 81.048 370.72 80.352C369.04 79.632 367.42 78.552 365.86 77.112L367.552 75.096C369.064 76.512 370.48 77.52 371.8 78.12C373.144 78.72 374.632 79.02 376.264 79.02C377.56 79.02 378.712 78.804 379.72 78.372C380.752 77.916 381.556 77.304 382.132 76.536C382.708 75.768 382.996 74.892 382.996 73.908C382.996 72.636 382.576 71.676 381.736 71.028C380.896 70.356 379.444 69.84 377.38 69.48L373.312 68.796C371.008 68.388 369.316 67.692 368.236 66.708C367.18 65.7 366.652 64.356 366.652 62.676C366.652 61.26 367.012 60.012 367.732 58.932C368.476 57.828 369.496 56.964 370.792 56.34C372.088 55.716 373.588 55.404 375.292 55.404C377.164 55.404 378.904 55.668 380.512 56.196C382.12 56.7 383.704 57.504 385.264 58.608L383.824 60.768C382.528 59.784 381.16 59.04 379.72 58.536C378.28 58.008 376.816 57.744 375.328 57.744C374.152 57.744 373.108 57.948 372.196 58.356C371.308 58.764 370.6 59.316 370.072 60.012C369.568 60.708 369.316 61.5 369.316 62.388C369.316 63.492 369.688 64.356 370.432 64.98C371.176 65.604 372.388 66.048 374.068 66.312L378.1 66.996C380.788 67.476 382.732 68.256 383.932 69.336C385.156 70.392 385.768 71.868 385.768 73.764C385.768 75.228 385.348 76.536 384.508 77.688C383.692 78.84 382.564 79.752 381.124 80.424C379.684 81.072 378.04 81.396 376.192 81.396ZM396.474 81V58.248H387.762V55.8H407.958V58.248H399.246V81H396.474ZM33.948 129L28.512 103.8H31.32L35.604 124.644L41.832 103.8H44.532L50.76 124.572L55.08 103.8H57.78L52.344 129H49.536L43.164 107.616L36.756 129H33.948ZM73.3613 129.396C71.6093 129.396 69.9773 129.072 68.4653 128.424C66.9533 127.752 65.6213 126.828 64.4693 125.652C63.3413 124.452 62.4533 123.072 61.8053 121.512C61.1573 119.928 60.8333 118.224 60.8333 116.4C60.8333 114.576 61.1573 112.884 61.8053 111.324C62.4533 109.74 63.3413 108.36 64.4693 107.184C65.6213 105.984 66.9533 105.06 68.4653 104.412C69.9773 103.74 71.6093 103.404 73.3613 103.404C75.1133 103.404 76.7453 103.74 78.2573 104.412C79.7693 105.06 81.0893 105.984 82.2173 107.184C83.3693 108.36 84.2693 109.74 84.9173 111.324C85.5653 112.884 85.8893 114.576 85.8893 116.4C85.8893 118.224 85.5653 119.928 84.9173 121.512C84.2693 123.072 83.3693 124.452 82.2173 125.652C81.0893 126.828 79.7693 127.752 78.2573 128.424C76.7453 129.072 75.1133 129.396 73.3613 129.396ZM73.3613 126.876C74.7293 126.876 76.0013 126.612 77.1773 126.084C78.3533 125.556 79.3853 124.812 80.2733 123.852C81.1613 122.892 81.8453 121.776 82.3253 120.504C82.8293 119.232 83.0813 117.864 83.0813 116.4C83.0813 114.912 82.8293 113.544 82.3253 112.296C81.8453 111.024 81.1613 109.908 80.2733 108.948C79.3853 107.988 78.3533 107.244 77.1773 106.716C76.0013 106.188 74.7293 105.924 73.3613 105.924C71.9933 105.924 70.7213 106.188 69.5453 106.716C68.3693 107.244 67.3373 107.988 66.4493 108.948C65.5613 109.908 64.8653 111.024 64.3613 112.296C63.8813 113.544 63.6413 114.9 63.6413 116.364C63.6413 117.852 63.8813 119.232 64.3613 120.504C64.8653 121.776 65.5613 122.892 66.4493 123.852C67.3373 124.812 68.3693 125.556 69.5453 126.084C70.7213 126.612 71.9933 126.876 73.3613 126.876ZM91.1298 129V103.8H101.462C103.07 103.8 104.474 104.112 105.674 104.736C106.874 105.336 107.81 106.176 108.482 107.256C109.154 108.336 109.49 109.608 109.49 111.072C109.49 112.752 109.022 114.192 108.086 115.392C107.15 116.568 105.866 117.396 104.234 117.876L109.598 129H106.538L101.426 118.236H93.9018V129H91.1298ZM93.9018 115.932H101.246C102.902 115.932 104.222 115.5 105.206 114.636C106.214 113.748 106.718 112.572 106.718 111.108C106.718 109.62 106.214 108.444 105.206 107.58C104.222 106.692 102.902 106.248 101.246 106.248H93.9018V115.932ZM114.438 129V103.8H117.21V115.752L129.45 103.8H132.978L120.126 116.184L133.266 129H129.486L117.21 116.94V129H114.438ZM145.994 129.396C144.242 129.396 142.61 129.072 141.098 128.424C139.586 127.752 138.254 126.828 137.102 125.652C135.974 124.452 135.086 123.072 134.438 121.512C133.79 119.928 133.466 118.224 133.466 116.4C133.466 114.576 133.79 112.884 134.438 111.324C135.086 109.74 135.974 108.36 137.102 107.184C138.254 105.984 139.586 105.06 141.098 104.412C142.61 103.74 144.242 103.404 145.994 103.404C147.746 103.404 149.378 103.74 150.89 104.412C152.402 105.06 153.722 105.984 154.85 107.184C156.002 108.36 156.902 109.74 157.55 111.324C158.198 112.884 158.522 114.576 158.522 116.4C158.522 118.224 158.198 119.928 157.55 121.512C156.902 123.072 156.002 124.452 154.85 125.652C153.722 126.828 152.402 127.752 150.89 128.424C149.378 129.072 147.746 129.396 145.994 129.396ZM145.994 126.876C147.362 126.876 148.634 126.612 149.81 126.084C150.986 125.556 152.018 124.812 152.906 123.852C153.794 122.892 154.478 121.776 154.958 120.504C155.462 119.232 155.714 117.864 155.714 116.4C155.714 114.912 155.462 113.544 154.958 112.296C154.478 111.024 153.794 109.908 152.906 108.948C152.018 107.988 150.986 107.244 149.81 106.716C148.634 106.188 147.362 105.924 145.994 105.924C144.626 105.924 143.354 106.188 142.178 106.716C141.002 107.244 139.97 107.988 139.082 108.948C138.194 109.908 137.498 111.024 136.994 112.296C136.514 113.544 136.274 114.9 136.274 116.364C136.274 117.852 136.514 119.232 136.994 120.504C137.498 121.776 138.194 122.892 139.082 123.852C139.97 124.812 141.002 125.556 142.178 126.084C143.354 126.612 144.626 126.876 145.994 126.876ZM173.375 129.396C171.311 129.396 169.511 128.952 167.975 128.064C166.463 127.152 165.299 125.868 164.483 124.212C163.667 122.556 163.259 120.6 163.259 118.344V103.8H166.031V118.344C166.031 120.072 166.331 121.572 166.931 122.844C167.531 124.116 168.383 125.112 169.487 125.832C170.591 126.528 171.887 126.876 173.375 126.876C174.863 126.876 176.159 126.528 177.263 125.832C178.367 125.112 179.219 124.116 179.819 122.844C180.419 121.572 180.719 120.072 180.719 118.344V103.8H183.491V118.344C183.491 120.6 183.083 122.556 182.267 124.212C181.451 125.868 180.287 127.152 178.775 128.064C177.263 128.952 175.463 129.396 173.375 129.396ZM195.908 129V106.248H187.196V103.8H207.392V106.248H198.68V129H195.908ZM220.013 129V103.8H230.417C232.049 103.8 233.465 104.112 234.665 104.736C235.865 105.336 236.789 106.2 237.437 107.328C238.109 108.432 238.445 109.74 238.445 111.252C238.445 112.74 238.109 114.048 237.437 115.176C236.789 116.304 235.865 117.18 234.665 117.804C233.465 118.404 232.049 118.704 230.417 118.704H222.785V129H220.013ZM222.785 116.328H230.093C231.845 116.328 233.213 115.872 234.197 114.96C235.181 114.048 235.673 112.812 235.673 111.252C235.673 109.692 235.181 108.468 234.197 107.58C233.213 106.692 231.845 106.248 230.093 106.248H222.785V116.328ZM243.567 129V103.8H246.339V126.552H260.559V129H243.567ZM263.293 129L273.265 103.8H276.577L286.405 129H283.417L280.429 121.08H269.197L266.209 129H263.293ZM270.061 118.884H279.601L274.813 106.32L270.061 118.884ZM289.938 129V103.8H292.818L307.578 124.68L307.506 103.8H310.134V129H307.614L292.494 107.652L292.566 129H289.938ZM324.688 129.396C322.72 129.396 320.896 129.048 319.216 128.352C317.536 127.632 315.916 126.552 314.356 125.112L316.048 123.096C317.56 124.512 318.976 125.52 320.296 126.12C321.64 126.72 323.128 127.02 324.76 127.02C326.056 127.02 327.208 126.804 328.216 126.372C329.248 125.916 330.052 125.304 330.628 124.536C331.204 123.768 331.492 122.892 331.492 121.908C331.492 120.636 331.072 119.676 330.232 119.028C329.392 118.356 327.94 117.84 325.876 117.48L321.808 116.796C319.504 116.388 317.812 115.692 316.732 114.708C315.676 113.7 315.148 112.356 315.148 110.676C315.148 109.26 315.508 108.012 316.228 106.932C316.972 105.828 317.992 104.964 319.288 104.34C320.584 103.716 322.084 103.404 323.788 103.404C325.66 103.404 327.4 103.668 329.008 104.196C330.616 104.7 332.2 105.504 333.76 106.608L332.32 108.768C331.024 107.784 329.656 107.04 328.216 106.536C326.776 106.008 325.312 105.744 323.824 105.744C322.648 105.744 321.604 105.948 320.692 106.356C319.804 106.764 319.096 107.316 318.568 108.012C318.064 108.708 317.812 109.5 317.812 110.388C317.812 111.492 318.184 112.356 318.928 112.98C319.672 113.604 320.884 114.048 322.564 114.312L326.596 114.996C329.284 115.476 331.228 116.256 332.428 117.336C333.652 118.392 334.264 119.868 334.264 121.764C334.264 123.228 333.844 124.536 333.004 125.688C332.188 126.84 331.06 127.752 329.62 128.424C328.18 129.072 326.536 129.396 324.688 129.396ZM339.926 129.288C339.398 129.288 338.942 129.096 338.558 128.712C338.198 128.328 338.018 127.872 338.018 127.344C338.018 126.792 338.198 126.336 338.558 125.976C338.942 125.592 339.398 125.4 339.926 125.4C340.454 125.4 340.898 125.592 341.258 125.976C341.642 126.336 341.834 126.792 341.834 127.344C341.834 127.872 341.642 128.328 341.258 128.712C340.898 129.096 340.454 129.288 339.926 129.288Z" fill="black"/>
    </g>
    <g filter="url(#filter3_d_7_105)">
    <path d="M94.404 179L90.176 159.4H92.36L95.692 175.612L100.536 159.4H102.636L107.48 175.556L110.84 159.4H112.94L108.712 179H106.528L101.572 162.368L96.588 179H94.404ZM116.593 179V159.4H118.749V179H116.593ZM130.031 179.308C128.5 179.308 127.082 179.037 125.775 178.496C124.468 177.936 123.208 177.096 121.995 175.976L123.311 174.408C124.487 175.509 125.588 176.293 126.615 176.76C127.66 177.227 128.818 177.46 130.087 177.46C131.095 177.46 131.991 177.292 132.775 176.956C133.578 176.601 134.203 176.125 134.651 175.528C135.099 174.931 135.323 174.249 135.323 173.484C135.323 172.495 134.996 171.748 134.343 171.244C133.69 170.721 132.56 170.32 130.955 170.04L127.791 169.508C125.999 169.191 124.683 168.649 123.843 167.884C123.022 167.1 122.611 166.055 122.611 164.748C122.611 163.647 122.891 162.676 123.451 161.836C124.03 160.977 124.823 160.305 125.831 159.82C126.839 159.335 128.006 159.092 129.331 159.092C130.787 159.092 132.14 159.297 133.391 159.708C134.642 160.1 135.874 160.725 137.087 161.584L135.967 163.264C134.959 162.499 133.895 161.92 132.775 161.528C131.655 161.117 130.516 160.912 129.359 160.912C128.444 160.912 127.632 161.071 126.923 161.388C126.232 161.705 125.682 162.135 125.271 162.676C124.879 163.217 124.683 163.833 124.683 164.524C124.683 165.383 124.972 166.055 125.551 166.54C126.13 167.025 127.072 167.371 128.379 167.576L131.515 168.108C133.606 168.481 135.118 169.088 136.051 169.928C137.003 170.749 137.479 171.897 137.479 173.372C137.479 174.511 137.152 175.528 136.499 176.424C135.864 177.32 134.987 178.029 133.867 178.552C132.747 179.056 131.468 179.308 130.031 179.308ZM141.12 179V159.4H143.276V168.164H154.532V159.4H156.688V179H154.532V170.096H143.276V179H141.12ZM161.628 179V159.4H163.784V179H161.628ZM168.738 179V159.4H170.978L182.458 175.64L182.402 159.4H184.446V179H182.486L170.726 162.396L170.782 179H168.738ZM198.425 179.308C197.025 179.308 195.728 179.047 194.533 178.524C193.339 178.001 192.284 177.283 191.369 176.368C190.473 175.435 189.773 174.361 189.269 173.148C188.765 171.916 188.513 170.6 188.513 169.2C188.513 167.8 188.765 166.493 189.269 165.28C189.773 164.048 190.473 162.975 191.369 162.06C192.284 161.127 193.339 160.399 194.533 159.876C195.728 159.353 197.025 159.092 198.425 159.092C199.919 159.092 201.328 159.363 202.653 159.904C203.997 160.445 205.136 161.248 206.069 162.312L204.613 163.768C203.885 162.891 202.971 162.219 201.869 161.752C200.768 161.285 199.62 161.052 198.425 161.052C197.324 161.052 196.307 161.267 195.373 161.696C194.44 162.107 193.619 162.685 192.909 163.432C192.219 164.16 191.677 165.019 191.285 166.008C190.893 166.997 190.697 168.061 190.697 169.2C190.697 170.339 190.893 171.403 191.285 172.392C191.677 173.381 192.219 174.249 192.909 174.996C193.619 175.724 194.44 176.303 195.373 176.732C196.307 177.143 197.324 177.348 198.425 177.348C199.732 177.348 200.899 177.059 201.925 176.48C202.971 175.901 203.811 175.108 204.445 174.1C205.099 173.073 205.481 171.925 205.593 170.656H198.985V168.752H207.777V169.62C207.777 170.983 207.544 172.252 207.077 173.428C206.611 174.585 205.948 175.612 205.089 176.508C204.249 177.385 203.26 178.076 202.121 178.58C200.983 179.065 199.751 179.308 198.425 179.308Z" fill="#A81B34" shape-rendering="crispEdges"/>
    <path d="M94.404 179L93.4265 179.211L93.5967 180H94.404V179ZM90.176 159.4V158.4H88.9373L89.1985 159.611L90.176 159.4ZM92.36 159.4L93.3395 159.199L93.1754 158.4H92.36V159.4ZM95.692 175.612L94.7125 175.813L96.6501 175.898L95.692 175.612ZM100.536 159.4V158.4H99.7911L99.5779 159.114L100.536 159.4ZM102.636 159.4L103.594 159.113L103.38 158.4H102.636V159.4ZM107.48 175.556L106.522 175.843L108.459 175.76L107.48 175.556ZM110.84 159.4V158.4H110.027L109.861 159.196L110.84 159.4ZM112.94 159.4L113.918 159.611L114.179 158.4H112.94V159.4ZM108.712 179V180H109.519L109.69 179.211L108.712 179ZM106.528 179L105.57 179.286L105.783 180H106.528V179ZM101.572 162.368L102.53 162.082L101.575 158.875L100.614 162.081L101.572 162.368ZM96.588 179V180H97.3323L97.5459 179.287L96.588 179ZM95.3815 178.789L91.1535 159.189L89.1985 159.611L93.4265 179.211L95.3815 178.789ZM90.176 160.4H92.36V158.4H90.176V160.4ZM91.3805 159.601L94.7125 175.813L96.6715 175.411L93.3395 159.199L91.3805 159.601ZM96.6501 175.898L101.494 159.686L99.5779 159.114L94.7339 175.326L96.6501 175.898ZM100.536 160.4H102.636V158.4H100.536V160.4ZM101.678 159.687L106.522 175.843L108.438 175.269L103.594 159.113L101.678 159.687ZM108.459 175.76L111.819 159.604L109.861 159.196L106.501 175.352L108.459 175.76ZM110.84 160.4H112.94V158.4H110.84V160.4ZM111.962 159.189L107.734 178.789L109.69 179.211L113.918 159.611L111.962 159.189ZM108.712 178H106.528V180H108.712V178ZM107.486 178.714L102.53 162.082L100.614 162.654L105.57 179.286L107.486 178.714ZM100.614 162.081L95.6301 178.713L97.5459 179.287L102.53 162.655L100.614 162.081ZM96.588 178H94.404V180H96.588V178ZM116.593 179H115.593V180H116.593V179ZM116.593 159.4V158.4H115.593V159.4H116.593ZM118.749 159.4H119.749V158.4H118.749V159.4ZM118.749 179V180H119.749V179H118.749ZM117.593 179V159.4H115.593V179H117.593ZM116.593 160.4H118.749V158.4H116.593V160.4ZM117.749 159.4V179H119.749V159.4H117.749ZM118.749 178H116.593V180H118.749V178ZM125.775 178.496L125.381 179.415L125.392 179.42L125.775 178.496ZM121.995 175.976L121.229 175.333L120.616 176.064L121.317 176.711L121.995 175.976ZM123.311 174.408L123.994 173.678L123.224 172.956L122.545 173.765L123.311 174.408ZM126.615 176.76L126.201 177.67L126.207 177.673L126.615 176.76ZM132.775 176.956L133.169 177.875L133.179 177.871L132.775 176.956ZM134.651 175.528L133.851 174.928L134.651 175.528ZM134.343 171.244L133.718 172.025L133.725 172.03L133.732 172.036L134.343 171.244ZM130.955 170.04L131.127 169.055L131.121 169.054L130.955 170.04ZM127.791 169.508L127.617 170.493L127.625 170.494L127.791 169.508ZM123.843 167.884L123.152 168.607L123.161 168.615L123.169 168.623L123.843 167.884ZM123.451 161.836L122.622 161.277L122.619 161.281L123.451 161.836ZM125.831 159.82L125.397 158.919V158.919L125.831 159.82ZM133.391 159.708L133.079 160.658L133.092 160.662L133.391 159.708ZM137.087 161.584L137.919 162.139L138.458 161.33L137.665 160.768L137.087 161.584ZM135.967 163.264L135.362 164.06L136.209 164.703L136.799 163.819L135.967 163.264ZM132.775 161.528L132.431 162.467L132.438 162.469L132.445 162.472L132.775 161.528ZM126.923 161.388L126.515 160.475L126.505 160.479L126.923 161.388ZM125.271 162.676L124.474 162.072L124.468 162.08L124.461 162.089L125.271 162.676ZM125.551 166.54L124.908 167.306L125.551 166.54ZM128.379 167.576L128.546 166.59L128.534 166.588L128.379 167.576ZM131.515 168.108L131.691 167.124L131.682 167.122L131.515 168.108ZM136.051 169.928L135.382 170.671L135.39 170.678L135.398 170.685L136.051 169.928ZM136.499 176.424L135.691 175.835L135.683 175.846L136.499 176.424ZM133.867 178.552L134.277 179.464L134.29 179.458L133.867 178.552ZM130.031 178.308C128.621 178.308 127.333 178.059 126.158 177.572L125.392 179.42C126.83 180.015 128.38 180.308 130.031 180.308V178.308ZM126.169 177.577C124.982 177.068 123.816 176.296 122.673 175.241L121.317 176.711C122.6 177.896 123.954 178.804 125.381 179.415L126.169 177.577ZM122.761 176.619L124.077 175.051L122.545 173.765L121.229 175.333L122.761 176.619ZM122.627 175.138C123.852 176.285 125.043 177.144 126.201 177.67L127.029 175.85C126.134 175.443 125.122 174.734 123.994 173.678L122.627 175.138ZM126.207 177.673C127.394 178.203 128.693 178.46 130.087 178.46V176.46C128.943 176.46 127.926 176.25 127.023 175.847L126.207 177.673ZM130.087 178.46C131.206 178.46 132.24 178.273 133.169 177.875L132.381 176.037C131.742 176.311 130.984 176.46 130.087 176.46V178.46ZM133.179 177.871C134.111 177.459 134.883 176.885 135.451 176.128L133.851 174.928C133.522 175.366 133.044 175.744 132.371 176.041L133.179 177.871ZM135.451 176.128C136.032 175.353 136.323 174.46 136.323 173.484H134.323C134.323 174.039 134.166 174.508 133.851 174.928L135.451 176.128ZM136.323 173.484C136.323 172.254 135.902 171.184 134.954 170.452L133.732 172.036C134.09 172.312 134.323 172.736 134.323 173.484H136.323ZM134.968 170.463C134.109 169.776 132.769 169.341 131.127 169.055L130.783 171.025C132.352 171.299 133.27 171.667 133.718 172.025L134.968 170.463ZM131.121 169.054L127.957 168.522L127.625 170.494L130.789 171.026L131.121 169.054ZM127.965 168.523C126.258 168.221 125.156 167.728 124.516 167.145L123.169 168.623C124.21 169.571 125.74 170.16 127.617 170.493L127.965 168.523ZM124.533 167.161C123.94 166.594 123.611 165.826 123.611 164.748H121.611C121.611 166.283 122.103 167.606 123.152 168.607L124.533 167.161ZM123.611 164.748C123.611 163.825 123.842 163.052 124.283 162.391L122.619 161.281C121.939 162.3 121.611 163.468 121.611 164.748H123.611ZM124.28 162.395C124.752 161.695 125.403 161.136 126.265 160.721L125.397 158.919C124.243 159.475 123.307 160.26 122.622 161.277L124.28 162.395ZM126.265 160.721C127.115 160.312 128.128 160.092 129.331 160.092V158.092C127.883 158.092 126.563 158.358 125.397 158.919L126.265 160.721ZM129.331 160.092C130.692 160.092 131.939 160.284 133.079 160.658L133.703 158.758C132.341 158.311 130.882 158.092 129.331 158.092V160.092ZM133.092 160.662C134.231 161.019 135.37 161.594 136.509 162.4L137.665 160.768C136.377 159.857 135.053 159.181 133.69 158.754L133.092 160.662ZM136.255 161.029L135.135 162.709L136.799 163.819L137.919 162.139L136.255 161.029ZM136.572 162.468C135.486 161.643 134.33 161.013 133.105 160.584L132.445 162.472C133.46 162.827 134.432 163.354 135.362 164.06L136.572 162.468ZM133.119 160.589C131.892 160.139 130.637 159.912 129.359 159.912V161.912C130.395 161.912 131.418 162.095 132.431 162.467L133.119 160.589ZM129.359 159.912C128.328 159.912 127.373 160.091 126.515 160.475L127.331 162.301C127.891 162.05 128.56 161.912 129.359 161.912V159.912ZM126.505 160.479C125.683 160.857 124.996 161.384 124.474 162.072L126.068 163.28C126.368 162.885 126.781 162.554 127.34 162.297L126.505 160.479ZM124.461 162.089C123.941 162.807 123.683 163.63 123.683 164.524H125.683C125.683 164.036 125.817 163.627 126.081 163.263L124.461 162.089ZM123.683 164.524C123.683 165.633 124.071 166.604 124.908 167.306L126.194 165.774C125.874 165.506 125.683 165.132 125.683 164.524H123.683ZM124.908 167.306C125.696 167.966 126.855 168.349 128.224 168.564L128.534 166.588C127.29 166.393 126.564 166.084 126.194 165.774L124.908 167.306ZM128.212 168.562L131.348 169.094L131.682 167.122L128.546 166.59L128.212 168.562ZM131.339 169.092C133.359 169.453 134.653 170.015 135.382 170.671L136.72 169.185C135.582 168.161 133.852 167.51 131.691 167.124L131.339 169.092ZM135.398 170.685C136.091 171.283 136.479 172.133 136.479 173.372H138.479C138.479 171.662 137.915 170.216 136.704 169.171L135.398 170.685ZM136.479 173.372C136.479 174.305 136.216 175.115 135.691 175.835L137.307 177.013C138.089 175.941 138.479 174.716 138.479 173.372H136.479ZM135.683 175.846C135.161 176.583 134.427 177.187 133.444 177.646L134.29 179.458C135.547 178.872 136.568 178.057 137.315 177.002L135.683 175.846ZM133.457 177.64C132.486 178.077 131.351 178.308 130.031 178.308V180.308C131.586 180.308 133.008 180.035 134.277 179.464L133.457 177.64ZM141.12 179H140.12V180H141.12V179ZM141.12 159.4V158.4H140.12V159.4H141.12ZM143.276 159.4H144.276V158.4H143.276V159.4ZM143.276 168.164H142.276V169.164H143.276V168.164ZM154.532 168.164V169.164H155.532V168.164H154.532ZM154.532 159.4V158.4H153.532V159.4H154.532ZM156.688 159.4H157.688V158.4H156.688V159.4ZM156.688 179V180H157.688V179H156.688ZM154.532 179H153.532V180H154.532V179ZM154.532 170.096H155.532V169.096H154.532V170.096ZM143.276 170.096V169.096H142.276V170.096H143.276ZM143.276 179V180H144.276V179H143.276ZM142.12 179V159.4H140.12V179H142.12ZM141.12 160.4H143.276V158.4H141.12V160.4ZM142.276 159.4V168.164H144.276V159.4H142.276ZM143.276 169.164H154.532V167.164H143.276V169.164ZM155.532 168.164V159.4H153.532V168.164H155.532ZM154.532 160.4H156.688V158.4H154.532V160.4ZM155.688 159.4V179H157.688V159.4H155.688ZM156.688 178H154.532V180H156.688V178ZM155.532 179V170.096H153.532V179H155.532ZM154.532 169.096H143.276V171.096H154.532V169.096ZM142.276 170.096V179H144.276V170.096H142.276ZM143.276 178H141.12V180H143.276V178ZM161.628 179H160.628V180H161.628V179ZM161.628 159.4V158.4H160.628V159.4H161.628ZM163.784 159.4H164.784V158.4H163.784V159.4ZM163.784 179V180H164.784V179H163.784ZM162.628 179V159.4H160.628V179H162.628ZM161.628 160.4H163.784V158.4H161.628V160.4ZM162.784 159.4V179H164.784V159.4H162.784ZM163.784 178H161.628V180H163.784V178ZM168.738 179H167.738V180H168.738V179ZM168.738 159.4V158.4H167.738V159.4H168.738ZM170.978 159.4L171.795 158.823L171.496 158.4H170.978V159.4ZM182.458 175.64L181.642 176.217L183.469 178.802L183.458 175.637L182.458 175.64ZM182.402 159.4V158.4H181.399L181.402 159.403L182.402 159.4ZM184.446 159.4H185.446V158.4H184.446V159.4ZM184.446 179V180H185.446V179H184.446ZM182.486 179L181.67 179.578L181.969 180H182.486V179ZM170.726 162.396L171.542 161.818L169.715 159.239L169.726 162.399L170.726 162.396ZM170.782 179V180H171.785L171.782 178.997L170.782 179ZM169.738 179V159.4H167.738V179H169.738ZM168.738 160.4H170.978V158.4H168.738V160.4ZM170.162 159.977L181.642 176.217L183.275 175.063L171.795 158.823L170.162 159.977ZM183.458 175.637L183.402 159.397L181.402 159.403L181.458 175.643L183.458 175.637ZM182.402 160.4H184.446V158.4H182.402V160.4ZM183.446 159.4V179H185.446V159.4H183.446ZM184.446 178H182.486V180H184.446V178ZM183.302 178.422L171.542 161.818L169.91 162.974L181.67 179.578L183.302 178.422ZM169.726 162.399L169.782 179.003L171.782 178.997L171.726 162.393L169.726 162.399ZM170.782 178H168.738V180H170.782V178ZM194.533 178.524L194.934 177.608L194.533 178.524ZM191.369 176.368L190.648 177.061L190.655 177.068L190.662 177.075L191.369 176.368ZM189.269 173.148L188.344 173.527L188.346 173.532L189.269 173.148ZM189.269 165.28L190.193 165.664L190.195 165.659L189.269 165.28ZM191.369 162.06L190.655 161.36L190.655 161.36L191.369 162.06ZM194.533 159.876L194.934 160.792L194.533 159.876ZM202.653 159.904L202.275 160.83L202.28 160.832L202.653 159.904ZM206.069 162.312L206.776 163.019L207.439 162.357L206.821 161.653L206.069 162.312ZM204.613 163.768L203.844 164.407L204.544 165.251L205.32 164.475L204.613 163.768ZM201.869 161.752L202.259 160.831V160.831L201.869 161.752ZM195.373 161.696L195.776 162.611L195.784 162.608L195.791 162.604L195.373 161.696ZM192.909 163.432L192.184 162.743L192.184 162.744L192.909 163.432ZM191.285 166.008L190.356 165.64L191.285 166.008ZM191.285 172.392L190.356 172.76L191.285 172.392ZM192.909 174.996L192.175 175.675L192.184 175.685L192.193 175.694L192.909 174.996ZM195.373 176.732L194.955 177.64L194.963 177.644L194.971 177.647L195.373 176.732ZM201.925 176.48L201.441 175.605L201.434 175.609L201.925 176.48ZM204.445 174.1L203.602 173.563L203.599 173.567L204.445 174.1ZM205.593 170.656L206.589 170.744L206.685 169.656H205.593V170.656ZM198.985 170.656H197.985V171.656H198.985V170.656ZM198.985 168.752V167.752H197.985V168.752H198.985ZM207.777 168.752H208.777V167.752H207.777V168.752ZM207.077 173.428L208.005 173.802L208.007 173.797L207.077 173.428ZM205.089 176.508L204.367 175.816L204.367 175.816L205.089 176.508ZM202.121 178.58L202.513 179.5L202.526 179.494L202.121 178.58ZM198.425 178.308C197.153 178.308 195.993 178.071 194.934 177.608L194.132 179.44C195.463 180.022 196.898 180.308 198.425 180.308V178.308ZM194.934 177.608C193.853 177.135 192.902 176.487 192.076 175.661L190.662 177.075C191.666 178.079 192.825 178.868 194.132 179.44L194.934 177.608ZM192.091 175.675C191.282 174.833 190.65 173.865 190.193 172.764L188.346 173.532C188.897 174.858 189.665 176.036 190.648 177.061L192.091 175.675ZM190.195 172.769C189.743 171.664 189.513 170.477 189.513 169.2H187.513C187.513 170.723 187.788 172.168 188.344 173.527L190.195 172.769ZM189.513 169.2C189.513 167.923 189.743 166.748 190.193 165.664L188.346 164.896C187.788 166.239 187.513 167.677 187.513 169.2H189.513ZM190.195 165.659C190.652 164.542 191.282 163.578 192.084 162.76L190.655 161.36C189.665 162.371 188.895 163.554 188.344 164.901L190.195 165.659ZM192.084 162.76C192.909 161.918 193.857 161.263 194.934 160.792L194.132 158.96C192.82 159.534 191.659 160.335 190.655 161.36L192.084 162.76ZM194.934 160.792C195.993 160.329 197.153 160.092 198.425 160.092V158.092C196.898 158.092 195.463 158.378 194.132 158.96L194.934 160.792ZM198.425 160.092C199.795 160.092 201.075 160.34 202.275 160.83L203.031 158.978C201.581 158.386 200.043 158.092 198.425 158.092V160.092ZM202.28 160.832C203.482 161.316 204.49 162.028 205.318 162.971L206.821 161.653C205.782 160.468 204.513 159.575 203.027 158.976L202.28 160.832ZM205.362 161.605L203.906 163.061L205.32 164.475L206.776 163.019L205.362 161.605ZM205.383 163.129C204.548 162.123 203.501 161.357 202.259 160.831L201.479 162.673C202.441 163.08 203.223 163.658 203.844 164.407L205.383 163.129ZM202.259 160.831C201.035 160.312 199.754 160.052 198.425 160.052V162.052C199.486 162.052 200.501 162.258 201.479 162.673L202.259 160.831ZM198.425 160.052C197.19 160.052 196.029 160.294 194.955 160.788L195.791 162.604C196.584 162.24 197.458 162.052 198.425 162.052V160.052ZM194.971 160.781C193.915 161.245 192.984 161.901 192.184 162.743L193.634 164.121C194.253 163.469 194.965 162.968 195.776 162.611L194.971 160.781ZM192.184 162.744C191.4 163.57 190.792 164.539 190.356 165.64L192.215 166.376C192.563 165.498 193.037 164.75 193.635 164.12L192.184 162.744ZM190.356 165.64C189.914 166.754 189.697 167.944 189.697 169.2H191.697C191.697 168.179 191.873 167.24 192.215 166.376L190.356 165.64ZM189.697 169.2C189.697 170.456 189.914 171.646 190.356 172.76L192.215 172.024C191.873 171.16 191.697 170.221 191.697 169.2H189.697ZM190.356 172.76C190.791 173.859 191.397 174.834 192.175 175.675L193.643 174.317C193.04 173.665 192.564 172.904 192.215 172.024L190.356 172.76ZM192.193 175.694C192.989 176.511 193.912 177.16 194.955 177.64L195.791 175.824C194.968 175.445 194.248 174.937 193.626 174.298L192.193 175.694ZM194.971 177.647C196.041 178.118 197.197 178.348 198.425 178.348V176.348C197.451 176.348 196.573 176.167 195.776 175.817L194.971 177.647ZM198.425 178.348C199.885 178.348 201.224 178.023 202.416 177.351L201.434 175.609C200.573 176.094 199.579 176.348 198.425 176.348V178.348ZM202.41 177.355C203.602 176.695 204.567 175.784 205.292 174.633L203.599 173.567C203.055 174.432 202.339 175.108 201.441 175.605L202.41 177.355ZM205.289 174.637C206.032 173.469 206.464 172.165 206.589 170.744L204.597 170.568C204.499 171.685 204.165 172.678 203.602 173.563L205.289 174.637ZM205.593 169.656H198.985V171.656H205.593V169.656ZM199.985 170.656V168.752H197.985V170.656H199.985ZM198.985 169.752H207.777V167.752H198.985V169.752ZM206.777 168.752V169.62H208.777V168.752H206.777ZM206.777 169.62C206.777 170.866 206.564 172.009 206.148 173.059L208.007 173.797C208.524 172.495 208.777 171.099 208.777 169.62H206.777ZM206.15 173.054C205.731 174.094 205.137 175.013 204.367 175.816L205.811 177.2C206.759 176.211 207.491 175.077 208.005 173.802L206.15 173.054ZM204.367 175.816C203.62 176.597 202.739 177.213 201.717 177.666L202.526 179.494C203.781 178.939 204.879 178.174 205.812 177.2L204.367 175.816ZM201.729 177.66C200.723 178.089 199.626 178.308 198.425 178.308V180.308C199.876 180.308 201.242 180.042 202.513 179.5L201.729 177.66Z" fill="black" fill-opacity="0.2"/>
    </g>
    <path d="M214.56 176.82L215.5 175.7C216.34 176.487 217.127 177.047 217.86 177.38C218.607 177.713 219.433 177.88 220.34 177.88C221.42 177.88 222.313 177.613 223.02 177.08C223.727 176.533 224.08 175.86 224.08 175.06C224.08 174.367 223.84 173.833 223.36 173.46C222.893 173.087 222.093 172.8 220.96 172.6L218.7 172.22C217.42 171.993 216.48 171.607 215.88 171.06C215.293 170.5 215 169.753 215 168.82C215 167.647 215.447 166.687 216.34 165.94C217.233 165.193 218.387 164.82 219.8 164.82C220.84 164.82 221.807 164.967 222.7 165.26C223.593 165.54 224.473 165.987 225.34 166.6L224.54 167.8C223.82 167.267 223.053 166.853 222.24 166.56C221.44 166.267 220.633 166.12 219.82 166.12C218.847 166.12 218.047 166.367 217.42 166.86C216.793 167.34 216.48 167.94 216.48 168.66C216.48 169.273 216.687 169.753 217.1 170.1C217.513 170.447 218.187 170.693 219.12 170.84L221.36 171.22C222.84 171.487 223.92 171.92 224.6 172.52C225.28 173.12 225.62 173.94 225.62 174.98C225.62 175.58 225.487 176.14 225.22 176.66C224.953 177.18 224.58 177.627 224.1 178C223.633 178.373 223.073 178.667 222.42 178.88C221.767 179.093 221.06 179.2 220.3 179.2C219.207 179.2 218.187 179.007 217.24 178.62C216.307 178.22 215.413 177.62 214.56 176.82ZM226.728 166.36V165H237.928V166.36H233.108V179H231.568V166.36H226.728ZM236.524 179L242.064 165H243.904L249.364 179H247.704L246.044 174.6H239.804L238.144 179H236.524ZM240.284 173.38H245.584L242.924 166.38L240.284 173.38ZM251.327 179V165H257.067C258.4 165 259.474 165.373 260.287 166.12C261.114 166.867 261.527 167.84 261.527 169.04C261.527 169.96 261.26 170.76 260.727 171.44C260.207 172.107 259.5 172.567 258.607 172.82L261.587 179H259.887L257.047 173.02H252.867V179H251.327ZM256.947 166.36H252.867V171.74H256.947C257.867 171.74 258.6 171.493 259.147 171C259.707 170.507 259.987 169.86 259.987 169.06C259.987 168.247 259.707 167.593 259.147 167.1C258.6 166.607 257.867 166.36 256.947 166.36ZM262.665 166.36V165H273.865V166.36H269.045V179H267.505V166.36H262.665Z" fill="black"/>
    <g filter="url(#filter4_d_7_105)">
    <path d="M283.648 177.068H288.128C289.547 177.068 290.816 176.723 291.936 176.032C293.056 175.341 293.943 174.408 294.596 173.232C295.268 172.037 295.604 170.693 295.604 169.2C295.604 167.707 295.268 166.372 294.596 165.196C293.943 164.001 293.056 163.059 291.936 162.368C290.816 161.677 289.547 161.332 288.128 161.332H283.648V177.068ZM281.492 179V159.4H287.988C289.425 159.4 290.741 159.652 291.936 160.156C293.149 160.641 294.185 161.332 295.044 162.228C295.921 163.105 296.593 164.141 297.06 165.336C297.545 166.512 297.788 167.8 297.788 169.2C297.788 170.6 297.545 171.897 297.06 173.092C296.593 174.268 295.921 175.304 295.044 176.2C294.185 177.077 293.149 177.768 291.936 178.272C290.741 178.757 289.425 179 287.988 179H281.492ZM310.711 179.308C309.348 179.308 308.079 179.056 306.903 178.552C305.727 178.029 304.691 177.311 303.795 176.396C302.918 175.463 302.227 174.389 301.723 173.176C301.219 171.944 300.967 170.619 300.967 169.2C300.967 167.781 301.219 166.465 301.723 165.252C302.227 164.02 302.918 162.947 303.795 162.032C304.691 161.099 305.727 160.38 306.903 159.876C308.079 159.353 309.348 159.092 310.711 159.092C312.074 159.092 313.343 159.353 314.519 159.876C315.695 160.38 316.722 161.099 317.599 162.032C318.495 162.947 319.195 164.02 319.699 165.252C320.203 166.465 320.455 167.781 320.455 169.2C320.455 170.619 320.203 171.944 319.699 173.176C319.195 174.389 318.495 175.463 317.599 176.396C316.722 177.311 315.695 178.029 314.519 178.552C313.343 179.056 312.074 179.308 310.711 179.308ZM310.711 177.348C311.775 177.348 312.764 177.143 313.679 176.732C314.594 176.321 315.396 175.743 316.087 174.996C316.778 174.249 317.31 173.381 317.683 172.392C318.075 171.403 318.271 170.339 318.271 169.2C318.271 168.043 318.075 166.979 317.683 166.008C317.31 165.019 316.778 164.151 316.087 163.404C315.396 162.657 314.594 162.079 313.679 161.668C312.764 161.257 311.775 161.052 310.711 161.052C309.647 161.052 308.658 161.257 307.743 161.668C306.828 162.079 306.026 162.657 305.335 163.404C304.644 164.151 304.103 165.019 303.711 166.008C303.338 166.979 303.151 168.033 303.151 169.172C303.151 170.329 303.338 171.403 303.711 172.392C304.103 173.381 304.644 174.249 305.335 174.996C306.026 175.743 306.828 176.321 307.743 176.732C308.658 177.143 309.647 177.348 310.711 177.348ZM324.503 179V159.4H326.659V179H324.503ZM331.613 179V159.4H333.853L345.333 175.64L345.277 159.4H347.321V179H345.361L333.601 162.396L333.657 179H331.613ZM361.3 179.308C359.9 179.308 358.603 179.047 357.408 178.524C356.214 178.001 355.159 177.283 354.244 176.368C353.348 175.435 352.648 174.361 352.144 173.148C351.64 171.916 351.388 170.6 351.388 169.2C351.388 167.8 351.64 166.493 352.144 165.28C352.648 164.048 353.348 162.975 354.244 162.06C355.159 161.127 356.214 160.399 357.408 159.876C358.603 159.353 359.9 159.092 361.3 159.092C362.794 159.092 364.203 159.363 365.528 159.904C366.872 160.445 368.011 161.248 368.944 162.312L367.488 163.768C366.76 162.891 365.846 162.219 364.744 161.752C363.643 161.285 362.495 161.052 361.3 161.052C360.199 161.052 359.182 161.267 358.248 161.696C357.315 162.107 356.494 162.685 355.784 163.432C355.094 164.16 354.552 165.019 354.16 166.008C353.768 166.997 353.572 168.061 353.572 169.2C353.572 170.339 353.768 171.403 354.16 172.392C354.552 173.381 355.094 174.249 355.784 174.996C356.494 175.724 357.315 176.303 358.248 176.732C359.182 177.143 360.199 177.348 361.3 177.348C362.607 177.348 363.774 177.059 364.8 176.48C365.846 175.901 366.686 175.108 367.32 174.1C367.974 173.073 368.356 171.925 368.468 170.656H361.86V168.752H370.652V169.62C370.652 170.983 370.419 172.252 369.952 173.428C369.486 174.585 368.823 175.612 367.964 176.508C367.124 177.385 366.135 178.076 364.996 178.58C363.858 179.065 362.626 179.308 361.3 179.308Z" fill="#607FE8" shape-rendering="crispEdges"/>
    <path d="M283.648 177.068H282.648V178.068H283.648V177.068ZM291.936 176.032L292.461 176.883L291.936 176.032ZM294.596 173.232L293.724 172.742L293.722 172.746L294.596 173.232ZM294.596 165.196L293.719 165.676L293.723 165.684L293.728 165.692L294.596 165.196ZM291.936 162.368L292.461 161.517L291.936 162.368ZM283.648 161.332V160.332H282.648V161.332H283.648ZM281.492 179H280.492V180H281.492V179ZM281.492 159.4V158.4H280.492V159.4H281.492ZM291.936 160.156L291.547 161.077L291.556 161.081L291.565 161.084L291.936 160.156ZM295.044 162.228L294.322 162.92L294.329 162.928L294.337 162.935L295.044 162.228ZM297.06 165.336L296.129 165.7L296.132 165.709L296.136 165.717L297.06 165.336ZM297.06 173.092L296.134 172.716L296.131 172.723L297.06 173.092ZM295.044 176.2L294.329 175.5L294.329 175.501L295.044 176.2ZM291.936 178.272L292.312 179.198L292.32 179.195L291.936 178.272ZM283.648 178.068H288.128V176.068H283.648V178.068ZM288.128 178.068C289.717 178.068 291.171 177.679 292.461 176.883L291.411 175.181C290.461 175.767 289.376 176.068 288.128 176.068V178.068ZM292.461 176.883C293.73 176.101 294.736 175.04 295.47 173.718L293.722 172.746C293.15 173.776 292.382 174.582 291.411 175.181L292.461 176.883ZM295.468 173.722C296.231 172.365 296.604 170.849 296.604 169.2H294.604C294.604 170.537 294.305 171.71 293.724 172.742L295.468 173.722ZM296.604 169.2C296.604 167.551 296.231 166.042 295.464 164.7L293.728 165.692C294.305 166.702 294.604 167.862 294.604 169.2H296.604ZM295.473 164.716C294.74 163.375 293.734 162.302 292.461 161.517L291.411 163.219C292.378 163.815 293.146 164.628 293.719 165.676L295.473 164.716ZM292.461 161.517C291.171 160.721 289.717 160.332 288.128 160.332V162.332C289.376 162.332 290.461 162.633 291.411 163.219L292.461 161.517ZM288.128 160.332H283.648V162.332H288.128V160.332ZM282.648 161.332V177.068H284.648V161.332H282.648ZM282.492 179V159.4H280.492V179H282.492ZM281.492 160.4H287.988V158.4H281.492V160.4ZM287.988 160.4C289.306 160.4 290.488 160.631 291.547 161.077L292.325 159.235C290.994 158.673 289.544 158.4 287.988 158.4V160.4ZM291.565 161.084C292.653 161.52 293.567 162.132 294.322 162.92L295.766 161.536C294.803 160.532 293.646 159.763 292.307 159.228L291.565 161.084ZM294.337 162.935C295.113 163.711 295.71 164.629 296.129 165.7L297.991 164.972C297.476 163.653 296.729 162.499 295.751 161.521L294.337 162.935ZM296.136 165.717C296.566 166.761 296.788 167.918 296.788 169.2H298.788C298.788 167.682 298.524 166.263 297.984 164.955L296.136 165.717ZM296.788 169.2C296.788 170.482 296.566 171.65 296.134 172.716L297.986 173.468C298.524 172.144 298.788 170.718 298.788 169.2H296.788ZM296.131 172.723C295.712 173.777 295.113 174.7 294.329 175.5L295.759 176.9C296.73 175.908 297.474 174.759 297.989 173.461L296.131 172.723ZM294.329 175.501C293.571 176.275 292.65 176.892 291.552 177.349L292.32 179.195C293.648 178.644 294.799 177.88 295.759 176.899L294.329 175.501ZM291.56 177.346C290.497 177.777 289.311 178 287.988 178V180C289.54 180 290.985 179.738 292.312 179.198L291.56 177.346ZM287.988 178H281.492V180H287.988V178ZM306.903 178.552L306.497 179.466L306.509 179.471L306.903 178.552ZM303.795 176.396L303.066 177.081L303.074 177.088L303.081 177.096L303.795 176.396ZM301.723 173.176L300.798 173.555L300.8 173.56L301.723 173.176ZM301.723 165.252L302.647 165.636L302.649 165.631L301.723 165.252ZM303.795 162.032L303.074 161.339L303.073 161.34L303.795 162.032ZM306.903 159.876L307.297 160.795L307.309 160.79L306.903 159.876ZM314.519 159.876L314.113 160.79L314.125 160.795L314.519 159.876ZM317.599 162.032L316.87 162.717L316.878 162.724L316.885 162.732L317.599 162.032ZM319.699 165.252L318.774 165.631L318.776 165.636L319.699 165.252ZM319.699 173.176L320.623 173.56L320.625 173.555L319.699 173.176ZM317.599 176.396L316.878 175.703L316.877 175.704L317.599 176.396ZM314.519 178.552L314.913 179.471L314.925 179.466L314.519 178.552ZM313.679 176.732L314.089 177.644L313.679 176.732ZM316.087 174.996L316.821 175.675L316.087 174.996ZM317.683 172.392L316.753 172.024L316.75 172.031L316.747 172.039L317.683 172.392ZM317.683 166.008L316.747 166.361L316.752 166.372L316.756 166.382L317.683 166.008ZM316.087 163.404L316.821 162.725V162.725L316.087 163.404ZM313.679 161.668L314.089 160.756V160.756L313.679 161.668ZM307.743 161.668L308.153 162.58L307.743 161.668ZM305.335 163.404L304.601 162.725V162.725L305.335 163.404ZM303.711 166.008L302.781 165.64L302.778 165.649L303.711 166.008ZM303.711 172.392L302.775 172.745L302.778 172.753L302.781 172.76L303.711 172.392ZM305.335 174.996L306.069 174.317L305.335 174.996ZM307.743 176.732L308.153 175.82L307.743 176.732ZM310.711 178.308C309.475 178.308 308.341 178.08 307.297 177.633L306.509 179.471C307.818 180.032 309.222 180.308 310.711 180.308V178.308ZM307.309 177.638C306.248 177.167 305.317 176.52 304.509 175.696L303.081 177.096C304.066 178.101 305.206 178.892 306.497 179.466L307.309 177.638ZM304.524 175.711C303.731 174.868 303.106 173.897 302.647 172.792L300.8 173.56C301.349 174.881 302.104 176.057 303.066 177.081L304.524 175.711ZM302.649 172.797C302.197 171.693 301.967 170.497 301.967 169.2H299.967C299.967 170.74 300.241 172.195 300.798 173.555L302.649 172.797ZM301.967 169.2C301.967 167.902 302.197 166.718 302.647 165.636L300.8 164.868C300.241 166.213 299.967 167.66 299.967 169.2H301.967ZM302.649 165.631C303.107 164.509 303.731 163.544 304.517 162.724L303.073 161.34C302.105 162.35 301.347 163.531 300.798 164.873L302.649 165.631ZM304.516 162.725C305.321 161.887 306.246 161.246 307.297 160.795L306.509 158.957C305.209 159.514 304.061 160.311 303.074 161.339L304.516 162.725ZM307.309 160.79C308.35 160.327 309.48 160.092 310.711 160.092V158.092C309.217 158.092 307.808 158.379 306.497 158.962L307.309 160.79ZM310.711 160.092C311.942 160.092 313.072 160.327 314.113 160.79L314.925 158.962C313.614 158.379 312.205 158.092 310.711 158.092V160.092ZM314.125 160.795C315.175 161.245 316.087 161.884 316.87 162.717L318.328 161.347C317.356 160.314 316.216 159.515 314.913 158.957L314.125 160.795ZM316.885 162.732C317.687 163.55 318.317 164.514 318.774 165.631L320.625 164.873C320.074 163.526 319.304 162.343 318.313 161.332L316.885 162.732ZM318.776 165.636C319.225 166.718 319.455 167.902 319.455 169.2H321.455C321.455 167.66 321.181 166.213 320.623 164.868L318.776 165.636ZM319.455 169.2C319.455 170.497 319.225 171.693 318.774 172.797L320.625 173.555C321.181 172.195 321.455 170.74 321.455 169.2H319.455ZM318.776 172.792C318.318 173.893 317.686 174.861 316.878 175.703L318.32 177.089C319.304 176.064 320.072 174.886 320.623 173.56L318.776 172.792ZM316.877 175.704C316.091 176.523 315.172 177.167 314.113 177.638L314.925 179.466C316.218 178.891 317.352 178.098 318.321 177.088L316.877 175.704ZM314.125 177.633C313.082 178.08 311.947 178.308 310.711 178.308V180.308C312.2 180.308 313.605 180.032 314.913 179.471L314.125 177.633ZM310.711 178.348C311.907 178.348 313.037 178.116 314.089 177.644L313.27 175.82C312.491 176.169 311.643 176.348 310.711 176.348V178.348ZM314.089 177.644C315.128 177.178 316.041 176.519 316.821 175.675L315.353 174.317C314.752 174.966 314.06 175.465 313.27 175.82L314.089 177.644ZM316.821 175.675C317.603 174.83 318.202 173.85 318.619 172.745L316.747 172.039C316.418 172.913 315.953 173.669 315.353 174.317L316.821 175.675ZM318.613 172.76C319.054 171.646 319.271 170.456 319.271 169.2H317.271C317.271 170.221 317.096 171.16 316.753 172.024L318.613 172.76ZM319.271 169.2C319.271 167.928 319.055 166.735 318.61 165.634L316.756 166.382C317.095 167.222 317.271 168.157 317.271 169.2H319.271ZM318.619 165.655C318.202 164.55 317.603 163.57 316.821 162.725L315.353 164.083C315.953 164.731 316.418 165.487 316.747 166.361L318.619 165.655ZM316.821 162.725C316.041 161.881 315.128 161.222 314.089 160.756L313.27 162.58C314.06 162.935 314.752 163.434 315.353 164.083L316.821 162.725ZM314.089 160.756C313.037 160.284 311.907 160.052 310.711 160.052V162.052C311.643 162.052 312.491 162.231 313.27 162.58L314.089 160.756ZM310.711 160.052C309.515 160.052 308.385 160.284 307.334 160.756L308.153 162.58C308.931 162.231 309.779 162.052 310.711 162.052V160.052ZM307.334 160.756C306.294 161.222 305.382 161.881 304.601 162.725L306.069 164.083C306.67 163.434 307.363 162.935 308.153 162.58L307.334 160.756ZM304.601 162.725C303.823 163.566 303.217 164.541 302.781 165.64L304.641 166.376C304.989 165.496 305.466 164.735 306.069 164.083L304.601 162.725ZM302.778 165.649C302.356 166.745 302.151 167.922 302.151 169.172H304.151C304.151 168.144 304.319 167.213 304.644 166.367L302.778 165.649ZM302.151 169.172C302.151 170.439 302.356 171.633 302.775 172.745L304.647 172.039C304.32 171.173 304.151 170.22 304.151 169.172H302.151ZM302.781 172.76C303.217 173.859 303.823 174.834 304.601 175.675L306.069 174.317C305.466 173.665 304.989 172.904 304.641 172.024L302.781 172.76ZM304.601 175.675C305.382 176.519 306.294 177.178 307.334 177.644L308.153 175.82C307.363 175.465 306.67 174.966 306.069 174.317L304.601 175.675ZM307.334 177.644C308.385 178.116 309.515 178.348 310.711 178.348V176.348C309.779 176.348 308.931 176.169 308.153 175.82L307.334 177.644ZM324.503 179H323.503V180H324.503V179ZM324.503 159.4V158.4H323.503V159.4H324.503ZM326.659 159.4H327.659V158.4H326.659V159.4ZM326.659 179V180H327.659V179H326.659ZM325.503 179V159.4H323.503V179H325.503ZM324.503 160.4H326.659V158.4H324.503V160.4ZM325.659 159.4V179H327.659V159.4H325.659ZM326.659 178H324.503V180H326.659V178ZM331.613 179H330.613V180H331.613V179ZM331.613 159.4V158.4H330.613V159.4H331.613ZM333.853 159.4L334.67 158.823L334.371 158.4H333.853V159.4ZM345.333 175.64L344.517 176.217L346.344 178.802L346.333 175.637L345.333 175.64ZM345.277 159.4V158.4H344.274L344.277 159.403L345.277 159.4ZM347.321 159.4H348.321V158.4H347.321V159.4ZM347.321 179V180H348.321V179H347.321ZM345.361 179L344.545 179.578L344.844 180H345.361V179ZM333.601 162.396L334.417 161.818L332.59 159.239L332.601 162.399L333.601 162.396ZM333.657 179V180H334.66L334.657 178.997L333.657 179ZM332.613 179V159.4H330.613V179H332.613ZM331.613 160.4H333.853V158.4H331.613V160.4ZM333.037 159.977L344.517 176.217L346.15 175.063L334.67 158.823L333.037 159.977ZM346.333 175.637L346.277 159.397L344.277 159.403L344.333 175.643L346.333 175.637ZM345.277 160.4H347.321V158.4H345.277V160.4ZM346.321 159.4V179H348.321V159.4H346.321ZM347.321 178H345.361V180H347.321V178ZM346.177 178.422L334.417 161.818L332.785 162.974L344.545 179.578L346.177 178.422ZM332.601 162.399L332.657 179.003L334.657 178.997L334.601 162.393L332.601 162.399ZM333.657 178H331.613V180H333.657V178ZM357.408 178.524L357.809 177.608L357.408 178.524ZM354.244 176.368L353.523 177.061L353.53 177.068L353.537 177.075L354.244 176.368ZM352.144 173.148L351.219 173.527L351.221 173.532L352.144 173.148ZM352.144 165.28L353.068 165.664L353.07 165.659L352.144 165.28ZM354.244 162.06L353.53 161.36L353.53 161.36L354.244 162.06ZM357.408 159.876L357.809 160.792L357.408 159.876ZM365.528 159.904L365.15 160.83L365.155 160.832L365.528 159.904ZM368.944 162.312L369.651 163.019L370.314 162.357L369.696 161.653L368.944 162.312ZM367.488 163.768L366.719 164.407L367.419 165.251L368.195 164.475L367.488 163.768ZM364.744 161.752L365.134 160.831V160.831L364.744 161.752ZM358.248 161.696L358.651 162.611L358.659 162.608L358.666 162.604L358.248 161.696ZM355.784 163.432L355.059 162.743L355.059 162.744L355.784 163.432ZM354.16 166.008L353.231 165.64L354.16 166.008ZM354.16 172.392L353.231 172.76L354.16 172.392ZM355.784 174.996L355.05 175.675L355.059 175.685L355.068 175.694L355.784 174.996ZM358.248 176.732L357.83 177.64L357.838 177.644L357.846 177.647L358.248 176.732ZM364.8 176.48L364.316 175.605L364.309 175.609L364.8 176.48ZM367.32 174.1L366.477 173.563L366.474 173.567L367.32 174.1ZM368.468 170.656L369.464 170.744L369.56 169.656H368.468V170.656ZM361.86 170.656H360.86V171.656H361.86V170.656ZM361.86 168.752V167.752H360.86V168.752H361.86ZM370.652 168.752H371.652V167.752H370.652V168.752ZM369.952 173.428L370.88 173.802L370.882 173.797L369.952 173.428ZM367.964 176.508L367.242 175.816L367.242 175.816L367.964 176.508ZM364.996 178.58L365.388 179.5L365.401 179.494L364.996 178.58ZM361.3 178.308C360.028 178.308 358.868 178.071 357.809 177.608L357.007 179.44C358.338 180.022 359.773 180.308 361.3 180.308V178.308ZM357.809 177.608C356.728 177.135 355.777 176.487 354.951 175.661L353.537 177.075C354.541 178.079 355.7 178.868 357.007 179.44L357.809 177.608ZM354.966 175.675C354.157 174.833 353.525 173.865 353.068 172.764L351.221 173.532C351.772 174.858 352.54 176.036 353.523 177.061L354.966 175.675ZM353.07 172.769C352.618 171.664 352.388 170.477 352.388 169.2H350.388C350.388 170.723 350.663 172.168 351.219 173.527L353.07 172.769ZM352.388 169.2C352.388 167.923 352.618 166.748 353.068 165.664L351.221 164.896C350.663 166.239 350.388 167.677 350.388 169.2H352.388ZM353.07 165.659C353.527 164.542 354.157 163.578 354.959 162.76L353.53 161.36C352.54 162.371 351.77 163.554 351.219 164.901L353.07 165.659ZM354.959 162.76C355.784 161.918 356.732 161.263 357.809 160.792L357.007 158.96C355.695 159.534 354.534 160.335 353.53 161.36L354.959 162.76ZM357.809 160.792C358.868 160.329 360.028 160.092 361.3 160.092V158.092C359.773 158.092 358.338 158.378 357.007 158.96L357.809 160.792ZM361.3 160.092C362.67 160.092 363.95 160.34 365.15 160.83L365.906 158.978C364.456 158.386 362.918 158.092 361.3 158.092V160.092ZM365.155 160.832C366.357 161.316 367.365 162.028 368.193 162.971L369.696 161.653C368.657 160.468 367.388 159.575 365.902 158.976L365.155 160.832ZM368.237 161.605L366.781 163.061L368.195 164.475L369.651 163.019L368.237 161.605ZM368.258 163.129C367.423 162.123 366.376 161.357 365.134 160.831L364.354 162.673C365.316 163.08 366.098 163.658 366.719 164.407L368.258 163.129ZM365.134 160.831C363.91 160.312 362.629 160.052 361.3 160.052V162.052C362.361 162.052 363.376 162.258 364.354 162.673L365.134 160.831ZM361.3 160.052C360.065 160.052 358.904 160.294 357.83 160.788L358.666 162.604C359.459 162.24 360.333 162.052 361.3 162.052V160.052ZM357.846 160.781C356.79 161.245 355.859 161.901 355.059 162.743L356.509 164.121C357.128 163.469 357.84 162.968 358.651 162.611L357.846 160.781ZM355.059 162.744C354.275 163.57 353.667 164.539 353.231 165.64L355.09 166.376C355.438 165.498 355.912 164.75 356.51 164.12L355.059 162.744ZM353.231 165.64C352.789 166.754 352.572 167.944 352.572 169.2H354.572C354.572 168.179 354.748 167.24 355.09 166.376L353.231 165.64ZM352.572 169.2C352.572 170.456 352.789 171.646 353.231 172.76L355.09 172.024C354.748 171.16 354.572 170.221 354.572 169.2H352.572ZM353.231 172.76C353.666 173.859 354.272 174.834 355.05 175.675L356.518 174.317C355.915 173.665 355.439 172.904 355.09 172.024L353.231 172.76ZM355.068 175.694C355.864 176.511 356.787 177.16 357.83 177.64L358.666 175.824C357.843 175.445 357.123 174.937 356.501 174.298L355.068 175.694ZM357.846 177.647C358.916 178.118 360.072 178.348 361.3 178.348V176.348C360.326 176.348 359.448 176.167 358.651 175.817L357.846 177.647ZM361.3 178.348C362.76 178.348 364.099 178.023 365.291 177.351L364.309 175.609C363.448 176.094 362.454 176.348 361.3 176.348V178.348ZM365.285 177.355C366.477 176.695 367.442 175.784 368.167 174.633L366.474 173.567C365.93 174.432 365.214 175.108 364.316 175.605L365.285 177.355ZM368.164 174.637C368.907 173.469 369.339 172.165 369.464 170.744L367.472 170.568C367.374 171.685 367.04 172.678 366.477 173.563L368.164 174.637ZM368.468 169.656H361.86V171.656H368.468V169.656ZM362.86 170.656V168.752H360.86V170.656H362.86ZM361.86 169.752H370.652V167.752H361.86V169.752ZM369.652 168.752V169.62H371.652V168.752H369.652ZM369.652 169.62C369.652 170.866 369.439 172.009 369.023 173.059L370.882 173.797C371.399 172.495 371.652 171.099 371.652 169.62H369.652ZM369.025 173.054C368.606 174.094 368.012 175.013 367.242 175.816L368.686 177.2C369.634 176.211 370.366 175.077 370.88 173.802L369.025 173.054ZM367.242 175.816C366.495 176.597 365.614 177.213 364.592 177.666L365.401 179.494C366.656 178.939 367.754 178.174 368.687 177.2L367.242 175.816ZM364.604 177.66C363.598 178.089 362.501 178.308 361.3 178.308V180.308C362.751 180.308 364.117 180.042 365.388 179.5L364.604 177.66Z" fill="black" fill-opacity="0.2"/>
    </g>
    <path d="M32.56 176.82L33.5 175.7C34.34 176.487 35.1267 177.047 35.86 177.38C36.6067 177.713 37.4333 177.88 38.34 177.88C39.42 177.88 40.3133 177.613 41.02 177.08C41.7267 176.533 42.08 175.86 42.08 175.06C42.08 174.367 41.84 173.833 41.36 173.46C40.8933 173.087 40.0933 172.8 38.96 172.6L36.7 172.22C35.42 171.993 34.48 171.607 33.88 171.06C33.2933 170.5 33 169.753 33 168.82C33 167.647 33.4467 166.687 34.34 165.94C35.2333 165.193 36.3867 164.82 37.8 164.82C38.84 164.82 39.8067 164.967 40.7 165.26C41.5933 165.54 42.4733 165.987 43.34 166.6L42.54 167.8C41.82 167.267 41.0533 166.853 40.24 166.56C39.44 166.267 38.6333 166.12 37.82 166.12C36.8467 166.12 36.0467 166.367 35.42 166.86C34.7933 167.34 34.48 167.94 34.48 168.66C34.48 169.273 34.6867 169.753 35.1 170.1C35.5133 170.447 36.1867 170.693 37.12 170.84L39.36 171.22C40.84 171.487 41.92 171.92 42.6 172.52C43.28 173.12 43.62 173.94 43.62 174.98C43.62 175.58 43.4867 176.14 43.22 176.66C42.9533 177.18 42.58 177.627 42.1 178C41.6333 178.373 41.0733 178.667 40.42 178.88C39.7667 179.093 39.06 179.2 38.3 179.2C37.2067 179.2 36.1867 179.007 35.24 178.62C34.3067 178.22 33.4133 177.62 32.56 176.82ZM44.728 166.36V165H55.928V166.36H51.108V179H49.568V166.36H44.728ZM70.7123 172C70.7123 173 70.5323 173.947 70.1723 174.84C69.8123 175.72 69.319 176.487 68.6923 177.14C68.0657 177.78 67.3257 178.287 66.4723 178.66C65.6323 179.033 64.7257 179.22 63.7523 179.22C62.7923 179.22 61.8857 179.033 61.0323 178.66C60.179 178.287 59.439 177.78 58.8123 177.14C58.1857 176.487 57.6923 175.72 57.3323 174.84C56.9723 173.947 56.7923 173 56.7923 172C56.7923 171 56.9723 170.06 57.3323 169.18C57.6923 168.287 58.1857 167.52 58.8123 166.88C59.439 166.227 60.179 165.713 61.0323 165.34C61.8857 164.967 62.7923 164.78 63.7523 164.78C64.7257 164.78 65.6323 164.967 66.4723 165.34C67.3257 165.713 68.0657 166.227 68.6923 166.88C69.319 167.52 69.8123 168.287 70.1723 169.18C70.5323 170.06 70.7123 171 70.7123 172ZM69.1523 172C69.1523 171.187 69.0123 170.427 68.7323 169.72C68.4523 169 68.0723 168.38 67.5923 167.86C67.1123 167.34 66.539 166.933 65.8723 166.64C65.219 166.333 64.5123 166.18 63.7523 166.18C62.9923 166.18 62.279 166.333 61.6123 166.64C60.959 166.933 60.3923 167.34 59.9123 167.86C59.4323 168.38 59.0523 169 58.7723 169.72C58.4923 170.427 58.3523 171.187 58.3523 172C58.3523 172.813 58.4923 173.58 58.7723 174.3C59.0523 175.007 59.4323 175.62 59.9123 176.14C60.3923 176.66 60.959 177.073 61.6123 177.38C62.279 177.673 62.9923 177.82 63.7523 177.82C64.5123 177.82 65.219 177.673 65.8723 177.38C66.539 177.073 67.1123 176.66 67.5923 176.14C68.0723 175.62 68.4523 175.007 68.7323 174.3C69.0123 173.58 69.1523 172.813 69.1523 172ZM73.6238 179V165H79.4038C80.7504 165 81.8304 165.38 82.6438 166.14C83.4571 166.9 83.8638 167.9 83.8638 169.14C83.8638 170.38 83.4571 171.38 82.6438 172.14C81.8304 172.9 80.7504 173.28 79.4038 173.28H75.1638V179H73.6238ZM79.2238 166.36H75.1638V171.96H79.2238C80.1838 171.96 80.9371 171.707 81.4838 171.2C82.0438 170.693 82.3238 170.007 82.3238 169.14C82.3238 168.287 82.0438 167.613 81.4838 167.12C80.9371 166.613 80.1838 166.36 79.2238 166.36Z" fill="black"/>
    <defs>
    <filter id="filter0_d_7_105" x="348.915" y="99.3778" width="42.3838" height="53.0889" filterUnits="userSpaceOnUse" color-interpolation-filters="sRGB">
    <feFlood flood-opacity="0" result="BackgroundImageFix"/>
    <feColorMatrix in="SourceAlpha" type="matrix" values="0 0 0 0 0 0 0 0 0 0 0 0 0 0 0 0 0 0 127 0" result="hardAlpha"/>
    <feOffset dy="4"/>
    <feGaussianBlur stdDeviation="2"/>
    <feComposite in2="hardAlpha" operator="out"/>
    <feColorMatrix type="matrix" values="0 0 0 0 0 0 0 0 0 0 0 0 0 0 0 0 0 0 0.25 0"/>
    <feBlend mode="normal" in2="BackgroundImageFix" result="effect1_dropShadow_7_105"/>
    <feBlend mode="normal" in="SourceGraphic" in2="effect1_dropShadow_7_105" result="shape"/>
    </filter>
    <filter id="filter1_d_7_105" x="373.665" y="115.936" width="19.4202" height="42.2862" filterUnits="userSpaceOnUse" color-interpolation-filters="sRGB">
    <feFlood flood-opacity="0" result="BackgroundImageFix"/>
    <feColorMatrix in="SourceAlpha" type="matrix" values="0 0 0 0 0 0 0 0 0 0 0 0 0 0 0 0 0 0 127 0" result="hardAlpha"/>
    <feOffset dy="4"/>
    <feGaussianBlur stdDeviation="2"/>
    <feComposite in2="hardAlpha" operator="out"/>
    <feColorMatrix type="matrix" values="0 0 0 0 0 0 0 0 0 0 0 0 0 0 0 0 0 0 0.25 0"/>
    <feBlend mode="normal" in2="BackgroundImageFix" result="effect1_dropShadow_7_105"/>
    <feBlend mode="normal" in="SourceGraphic" in2="effect1_dropShadow_7_105" result="shape"/>
    </filter>
    <filter id="filter2_d_7_105" x="26.512" y="55.404" width="383.446" height="79.992" filterUnits="userSpaceOnUse" color-interpolation-filters="sRGB">
    <feFlood flood-opacity="0" result="BackgroundImageFix"/>
    <feColorMatrix in="SourceAlpha" type="matrix" values="0 0 0 0 0 0 0 0 0 0 0 0 0 0 0 0 0 0 127 0" result="hardAlpha"/>
    <feOffset dy="4"/>
    <feGaussianBlur stdDeviation="1"/>
    <feComposite in2="hardAlpha" operator="out"/>
    <feColorMatrix type="matrix" values="0 0 0 0 0 0 0 0 0 0 0 0 0 0 0 0 0 0 0.25 0"/>
    <feBlend mode="normal" in2="BackgroundImageFix" result="effect1_dropShadow_7_105"/>
    <feBlend mode="normal" in="SourceGraphic" in2="effect1_dropShadow_7_105" result="shape"/>
    </filter>
    <filter id="filter3_d_7_105" x="86.176" y="159.092" width="125.601" height="28.216" filterUnits="userSpaceOnUse" color-interpolation-filters="sRGB">
    <feFlood flood-opacity="0" result="BackgroundImageFix"/>
    <feColorMatrix in="SourceAlpha" type="matrix" values="0 0 0 0 0 0 0 0 0 0 0 0 0 0 0 0 0 0 127 0" result="hardAlpha"/>
    <feOffset dy="4"/>
    <feGaussianBlur stdDeviation="2"/>
    <feComposite in2="hardAlpha" operator="out"/>
    <feColorMatrix type="matrix" values="0 0 0 0 0 0 0 0 0 0 0 0 0 0 0 0 0 0 0.25 0"/>
    <feBlend mode="normal" in2="BackgroundImageFix" result="effect1_dropShadow_7_105"/>
    <feBlend mode="normal" in="SourceGraphic" in2="effect1_dropShadow_7_105" result="shape"/>
    </filter>
    <filter id="filter4_d_7_105" x="277.492" y="159.092" width="97.1604" height="28.216" filterUnits="userSpaceOnUse" color-interpolation-filters="sRGB">
    <feFlood flood-opacity="0" result="BackgroundImageFix"/>
    <feColorMatrix in="SourceAlpha" type="matrix" values="0 0 0 0 0 0 0 0 0 0 0 0 0 0 0 0 0 0 127 0" result="hardAlpha"/>
    <feOffset dy="4"/>
    <feGaussianBlur stdDeviation="2"/>
    <feComposite in2="hardAlpha" operator="out"/>
    <feColorMatrix type="matrix" values="0 0 0 0 0 0 0 0 0 0 0 0 0 0 0 0 0 0 0.25 0"/>
    <feBlend mode="normal" in2="BackgroundImageFix" result="effect1_dropShadow_7_105"/>
    <feBlend mode="normal" in="SourceGraphic" in2="effect1_dropShadow_7_105" result="shape"/>
    </filter>
    <clipPath id="clip0_7_105">
    <rect width="44" height="50.8444" fill="white" transform="translate(349 99.3778)"/>
    </clipPath>
    </defs>
    </svg>
    