<svg width="411" height="229" viewBox="0 0 411 229" fill="none" xmlns="http://www.w3.org/2000/svg">
    <g clip-path="url(#clip0_1_110)" filter="url(#filter0_d_1_110)">
    <g filter="url(#filter1_d_1_110)">
    <path d="M289.84 87.9589L289.374 88.6249C289.186 88.8939 289.042 89.1808 288.939 89.4766C287.452 88.8097 285.649 89.2687 284.68 90.6524L284.214 91.3184C283.116 92.8853 283.499 95.0527 285.065 96.1498L289.652 99.3614L280.377 112.608L275.228 109.003C273.661 107.906 271.494 108.288 270.397 109.855L269.931 110.521C268.962 111.905 269.147 113.756 270.283 114.926C270.04 115.123 269.819 115.357 269.631 115.625L269.165 116.291C268.067 117.858 268.449 120.026 270.016 121.123L281.831 129.396C283.398 130.493 285.565 130.111 286.662 128.544L287.129 127.878C287.317 127.609 287.461 127.322 287.563 127.026C289.051 127.693 290.854 127.234 291.823 125.85L292.289 125.184C293.386 123.617 293.004 121.45 291.437 120.353L287.311 117.464L296.586 104.217L301.275 107.5C302.841 108.597 305.009 108.215 306.106 106.648L306.572 105.982C307.541 104.598 307.356 102.747 306.22 101.577C306.463 101.379 306.684 101.146 306.872 100.877L307.338 100.211C308.435 98.6445 308.053 96.477 306.486 95.3799L294.672 87.1071C293.105 86.0099 290.937 86.3921 289.84 87.9589ZM284.794 125.164C285.194 125.443 285.291 125.996 285.012 126.395L284.545 127.061C284.266 127.461 283.713 127.558 283.314 127.278L271.499 119.006C271.099 118.726 271.002 118.173 271.282 117.774L271.748 117.108C272.028 116.709 272.58 116.611 272.98 116.891L284.794 125.164ZM289.955 122.47C290.354 122.75 290.452 123.302 290.172 123.702L289.706 124.368C289.426 124.767 288.874 124.865 288.474 124.585L272.265 113.235C271.865 112.955 271.768 112.403 272.048 112.003L272.514 111.337C272.794 110.938 273.346 110.841 273.746 111.12L289.955 122.47ZM294.469 102.734L285.194 115.981L282.494 114.091L291.769 100.844L294.469 102.734L294.469 102.734ZM304.238 103.268C304.637 103.547 304.735 104.1 304.455 104.499L303.989 105.165C303.709 105.565 303.157 105.662 302.757 105.383L286.548 94.0326C286.148 93.7529 286.051 93.2004 286.331 92.8009L286.797 92.135C287.077 91.7355 287.629 91.638 288.029 91.9177L304.238 103.268ZM305.004 97.497C305.403 97.7767 305.501 98.3292 305.221 98.7287L304.755 99.3947C304.475 99.7941 303.923 99.8916 303.523 99.6118L291.708 91.3391C291.309 91.0594 291.212 90.5069 291.491 90.1075L291.958 89.4414C292.237 89.042 292.79 88.9446 293.189 89.2243L305.004 97.497Z" fill="#DF921E"/>
    </g>
    </g>
    <path d="M254.96 122.364C255.464 122.364 255.896 122.556 256.256 122.94C256.64 123.324 256.832 123.78 256.832 124.308C256.832 124.86 256.64 125.328 256.256 125.712C255.896 126.096 255.464 126.288 254.96 126.288C254.432 126.288 253.976 126.096 253.592 125.712C253.232 125.328 253.052 124.86 253.052 124.308C253.052 123.78 253.232 123.324 253.592 122.94C253.976 122.556 254.432 122.364 254.96 122.364Z" fill="black"/>
    <g filter="url(#filter2_d_1_110)">
    <path d="M28.008 52.248V49.8H48.168V52.248H39.492V75H36.72V52.248H28.008ZM52.3868 75V49.8H55.1588V61.068H69.6308V49.8H72.4028V75H69.6308V63.552H55.1588V75H52.3868ZM78.7548 75V49.8H95.9628V52.212H81.5268V61.068H91.5348V63.48H81.5268V72.588H96.1068V75H78.7548ZM133.35 62.4C133.35 64.2 133.026 65.904 132.378 67.512C131.73 69.096 130.842 70.476 129.714 71.652C128.586 72.804 127.254 73.716 125.718 74.388C124.206 75.06 122.574 75.396 120.822 75.396C119.094 75.396 117.462 75.06 115.926 74.388C114.39 73.716 113.058 72.804 111.93 71.652C110.802 70.476 109.914 69.096 109.266 67.512C108.618 65.904 108.294 64.2 108.294 62.4C108.294 60.6 108.618 58.908 109.266 57.324C109.914 55.716 110.802 54.336 111.93 53.184C113.058 52.008 114.39 51.084 115.926 50.412C117.462 49.74 119.094 49.404 120.822 49.404C122.574 49.404 124.206 49.74 125.718 50.412C127.254 51.084 128.586 52.008 129.714 53.184C130.842 54.336 131.73 55.716 132.378 57.324C133.026 58.908 133.35 60.6 133.35 62.4ZM130.542 62.4C130.542 60.936 130.29 59.568 129.786 58.296C129.282 57 128.598 55.884 127.734 54.948C126.87 54.012 125.838 53.28 124.638 52.752C123.462 52.2 122.19 51.924 120.822 51.924C119.454 51.924 118.17 52.2 116.97 52.752C115.794 53.28 114.774 54.012 113.91 54.948C113.046 55.884 112.362 57 111.858 58.296C111.354 59.568 111.102 60.936 111.102 62.4C111.102 63.864 111.354 65.244 111.858 66.54C112.362 67.812 113.046 68.916 113.91 69.852C114.774 70.788 115.794 71.532 116.97 72.084C118.17 72.612 119.454 72.876 120.822 72.876C122.19 72.876 123.462 72.612 124.638 72.084C125.838 71.532 126.87 70.788 127.734 69.852C128.598 68.916 129.282 67.812 129.786 66.54C130.29 65.244 130.542 63.864 130.542 62.4ZM138.591 49.8H141.471L156.231 70.68L156.159 49.8H158.787V75H156.267L141.147 53.652L141.219 75H138.591V49.8ZM165.204 75V49.8H167.976V72.552H182.196V75H165.204ZM189.134 75V64.704L179.342 49.8H182.582L190.61 62.292L198.674 49.8H201.734L191.906 64.776V75H189.134ZM220.342 75H217.534L212.098 49.8H214.906L219.19 70.644L225.418 49.8H228.118L234.346 70.572L238.666 49.8H241.366L235.93 75H233.122L226.75 53.616L220.342 75ZM241.777 75L251.749 49.8H255.061L264.889 75H261.901L258.913 67.08H247.681L244.693 75H241.777ZM248.545 64.884H258.085L253.297 52.284L248.545 64.884ZM271.435 75V64.704L261.643 49.8H264.883L272.911 62.292L280.975 49.8H284.035L274.207 64.776V75H271.435ZM30.132 123V97.8H32.904V123H30.132ZM37.0783 119.076L38.7703 117.06C40.2823 118.476 41.6983 119.484 43.0183 120.084C44.3623 120.684 45.8503 120.984 47.4823 120.984C49.4263 120.984 51.0343 120.504 52.3063 119.544C53.5783 118.56 54.2143 117.348 54.2143 115.908C54.2143 114.66 53.7823 113.7 52.9183 113.028C52.0783 112.356 50.6383 111.84 48.5983 111.48L44.5303 110.796C42.2263 110.388 40.5343 109.692 39.4543 108.708C38.3983 107.7 37.8703 106.356 37.8703 104.676C37.8703 102.564 38.6743 100.836 40.2823 99.492C41.8903 98.148 43.9663 97.476 46.5103 97.476C48.3823 97.476 50.1223 97.74 51.7303 98.268C53.3383 98.772 54.9223 99.576 56.4823 100.68L55.0423 102.84C53.7463 101.88 52.3663 101.136 50.9023 100.608C49.4623 100.08 48.0103 99.816 46.5463 99.816C44.7943 99.816 43.3543 100.26 42.2263 101.148C41.0983 102.012 40.5343 103.092 40.5343 104.388C40.5343 105.492 40.9063 106.356 41.6503 106.98C42.3943 107.604 43.6063 108.048 45.2863 108.312L49.3183 108.996C51.9823 109.476 53.9263 110.256 55.1503 111.336C56.3743 112.416 56.9863 113.892 56.9863 115.764C56.9863 116.844 56.7463 117.852 56.2663 118.788C55.7863 119.724 55.1143 120.528 54.2503 121.2C53.4103 121.872 52.4023 122.4 51.2263 122.784C50.0503 123.168 48.7783 123.36 47.4103 123.36C45.4423 123.36 43.6063 123.012 41.9023 122.316C40.2223 121.596 38.6143 120.516 37.0783 119.076Z" fill="black"/>
    </g>
    <g filter="url(#filter3_d_1_110)">
    <path d="M70.008 100.248V97.8H90.168V100.248H81.492V123H78.72V100.248H70.008ZM94.3868 123V97.8H97.1588V109.068H111.631V97.8H114.403V123H111.631V111.552H97.1588V123H94.3868ZM120.755 123V97.8H131.087C133.487 97.8 135.419 98.472 136.883 99.816C138.371 101.16 139.115 102.912 139.115 105.072C139.115 106.728 138.635 108.168 137.675 109.392C136.739 110.592 135.467 111.42 133.859 111.876L139.223 123H136.163L131.051 112.236H123.527V123H120.755ZM130.871 100.248H123.527V109.932H130.871C132.527 109.932 133.847 109.488 134.831 108.6C135.839 107.712 136.343 106.548 136.343 105.108C136.343 103.644 135.839 102.468 134.831 101.58C133.847 100.692 132.527 100.248 130.871 100.248ZM167.967 110.4C167.967 112.2 167.643 113.904 166.995 115.512C166.347 117.096 165.459 118.476 164.331 119.652C163.203 120.804 161.871 121.716 160.335 122.388C158.823 123.06 157.191 123.396 155.439 123.396C153.711 123.396 152.079 123.06 150.543 122.388C149.007 121.716 147.675 120.804 146.547 119.652C145.419 118.476 144.531 117.096 143.883 115.512C143.235 113.904 142.911 112.2 142.911 110.4C142.911 108.6 143.235 106.908 143.883 105.324C144.531 103.716 145.419 102.336 146.547 101.184C147.675 100.008 149.007 99.084 150.543 98.412C152.079 97.74 153.711 97.404 155.439 97.404C157.191 97.404 158.823 97.74 160.335 98.412C161.871 99.084 163.203 100.008 164.331 101.184C165.459 102.336 166.347 103.716 166.995 105.324C167.643 106.908 167.967 108.6 167.967 110.4ZM165.159 110.4C165.159 108.936 164.907 107.568 164.403 106.296C163.899 105 163.215 103.884 162.351 102.948C161.487 102.012 160.455 101.28 159.255 100.752C158.079 100.2 156.807 99.924 155.439 99.924C154.071 99.924 152.787 100.2 151.587 100.752C150.411 101.28 149.391 102.012 148.527 102.948C147.663 103.884 146.979 105 146.475 106.296C145.971 107.568 145.719 108.936 145.719 110.4C145.719 111.864 145.971 113.244 146.475 114.54C146.979 115.812 147.663 116.916 148.527 117.852C149.391 118.788 150.411 119.532 151.587 120.084C152.787 120.612 154.071 120.876 155.439 120.876C156.807 120.876 158.079 120.612 159.255 120.084C160.455 119.532 161.487 118.788 162.351 117.852C163.215 116.916 163.899 115.812 164.403 114.54C164.907 113.244 165.159 111.864 165.159 110.4ZM192.936 112.344C192.936 115.704 192.012 118.392 190.164 120.408C188.34 122.4 185.892 123.396 182.82 123.396C179.724 123.396 177.264 122.4 175.44 120.408C173.616 118.416 172.704 115.728 172.704 112.344V97.8H175.476V112.344C175.476 114.912 176.136 116.976 177.456 118.536C178.8 120.096 180.588 120.876 182.82 120.876C185.052 120.876 186.828 120.096 188.148 118.536C189.492 116.976 190.164 114.912 190.164 112.344V97.8H192.936V112.344ZM222.417 110.94C222.417 112.668 222.105 114.3 221.481 115.836C220.881 117.348 220.041 118.668 218.961 119.796C217.905 120.9 216.645 121.776 215.181 122.424C213.717 123.072 212.133 123.396 210.429 123.396C208.653 123.396 206.985 123.06 205.425 122.388C203.865 121.692 202.509 120.768 201.357 119.616C200.205 118.44 199.293 117.06 198.621 115.476C197.973 113.892 197.649 112.2 197.649 110.4C197.649 108.6 197.973 106.908 198.621 105.324C199.293 103.74 200.193 102.372 201.321 101.22C202.473 100.044 203.829 99.12 205.389 98.448C206.949 97.752 208.617 97.404 210.393 97.404C212.289 97.404 214.101 97.752 215.829 98.448C217.557 99.144 219.021 100.176 220.221 101.544L218.349 103.416C217.413 102.312 216.225 101.46 214.785 100.86C213.369 100.236 211.905 99.924 210.393 99.924C208.977 99.924 207.657 100.2 206.433 100.752C205.233 101.28 204.189 102.012 203.301 102.948C202.413 103.884 201.717 105 201.213 106.296C200.709 107.568 200.457 108.936 200.457 110.4C200.457 111.864 200.709 113.244 201.213 114.54C201.741 115.812 202.437 116.928 203.301 117.888C204.189 118.824 205.245 119.568 206.469 120.12C207.693 120.648 209.001 120.912 210.393 120.912C211.641 120.912 212.805 120.696 213.885 120.264C214.965 119.808 215.901 119.196 216.693 118.428C217.509 117.66 218.169 116.748 218.673 115.692C219.201 114.636 219.513 113.496 219.609 112.272H211.113V109.824H222.417V110.94ZM227.559 123V97.8H230.331V109.068H244.803V97.8H247.575V123H244.803V111.552H230.331V123H227.559Z" fill="black"/>
    </g>
    <path d="M34.68 171V165.28L29.24 157H31.04L35.5 163.94L39.98 157H41.68L36.22 165.32V171H34.68ZM55.8764 164C55.8764 165 55.6964 165.947 55.3364 166.84C54.9764 167.72 54.4831 168.487 53.8564 169.14C53.2297 169.78 52.4897 170.287 51.6364 170.66C50.7964 171.033 49.8897 171.22 48.9164 171.22C47.9564 171.22 47.0497 171.033 46.1964 170.66C45.3431 170.287 44.6031 169.78 43.9764 169.14C43.3497 168.487 42.8564 167.72 42.4964 166.84C42.1364 165.947 41.9564 165 41.9564 164C41.9564 163 42.1364 162.06 42.4964 161.18C42.8564 160.287 43.3497 159.52 43.9764 158.88C44.6031 158.227 45.3431 157.713 46.1964 157.34C47.0497 156.967 47.9564 156.78 48.9164 156.78C49.8897 156.78 50.7964 156.967 51.6364 157.34C52.4897 157.713 53.2297 158.227 53.8564 158.88C54.4831 159.52 54.9764 160.287 55.3364 161.18C55.6964 162.06 55.8764 163 55.8764 164ZM54.3164 164C54.3164 163.187 54.1764 162.427 53.8964 161.72C53.6164 161 53.2364 160.38 52.7564 159.86C52.2764 159.34 51.7031 158.933 51.0364 158.64C50.3831 158.333 49.6764 158.18 48.9164 158.18C48.1564 158.18 47.4431 158.333 46.7764 158.64C46.1231 158.933 45.5564 159.34 45.0764 159.86C44.5964 160.38 44.2164 161 43.9364 161.72C43.6564 162.427 43.5164 163.187 43.5164 164C43.5164 164.813 43.6564 165.58 43.9364 166.3C44.2164 167.007 44.5964 167.62 45.0764 168.14C45.5564 168.66 46.1231 169.073 46.7764 169.38C47.4431 169.673 48.1564 169.82 48.9164 169.82C49.6764 169.82 50.3831 169.673 51.0364 169.38C51.7031 169.073 52.2764 168.66 52.7564 168.14C53.2364 167.62 53.6164 167.007 53.8964 166.3C54.1764 165.58 54.3164 164.813 54.3164 164ZM69.7478 165.08C69.7478 166.947 69.2345 168.44 68.2078 169.56C67.1945 170.667 65.8345 171.22 64.1278 171.22C62.4078 171.22 61.0411 170.667 60.0278 169.56C59.0145 168.453 58.5078 166.96 58.5078 165.08V157H60.0478V165.08C60.0478 166.507 60.4145 167.653 61.1478 168.52C61.8945 169.387 62.8878 169.82 64.1278 169.82C65.3678 169.82 66.3545 169.387 67.0878 168.52C67.8345 167.653 68.2078 166.507 68.2078 165.08V157H69.7478V165.08ZM84.5141 170L79.1341 158.78V171H77.6941V157H79.8341L84.5141 166.96L89.1941 157H91.3341V171H89.8741V158.82L84.5141 170ZM93.3206 171L98.8606 157H100.701L106.161 171H104.501L102.841 166.6H96.6006L94.9406 171H93.3206ZM97.0806 165.38H102.381L99.7206 158.38L97.0806 165.38ZM104.736 158.36V157H115.936V158.36H111.116V171H109.576V158.36H104.736ZM122.968 157H124.568L132.768 168.6L132.728 157H134.188V171H132.788L124.388 159.14L124.428 171H122.968V157ZM151.033 164C151.033 165 150.853 165.947 150.493 166.84C150.133 167.72 149.639 168.487 149.013 169.14C148.386 169.78 147.646 170.287 146.793 170.66C145.953 171.033 145.046 171.22 144.073 171.22C143.113 171.22 142.206 171.033 141.353 170.66C140.499 170.287 139.759 169.78 139.133 169.14C138.506 168.487 138.013 167.72 137.653 166.84C137.293 165.947 137.113 165 137.113 164C137.113 163 137.293 162.06 137.653 161.18C138.013 160.287 138.506 159.52 139.133 158.88C139.759 158.227 140.499 157.713 141.353 157.34C142.206 156.967 143.113 156.78 144.073 156.78C145.046 156.78 145.953 156.967 146.793 157.34C147.646 157.713 148.386 158.227 149.013 158.88C149.639 159.52 150.133 160.287 150.493 161.18C150.853 162.06 151.033 163 151.033 164ZM149.473 164C149.473 163.187 149.333 162.427 149.053 161.72C148.773 161 148.393 160.38 147.913 159.86C147.433 159.34 146.859 158.933 146.193 158.64C145.539 158.333 144.833 158.18 144.073 158.18C143.313 158.18 142.599 158.333 141.933 158.64C141.279 158.933 140.713 159.34 140.233 159.86C139.753 160.38 139.373 161 139.093 161.72C138.813 162.427 138.673 163.187 138.673 164C138.673 164.813 138.813 165.58 139.093 166.3C139.373 167.007 139.753 167.62 140.233 168.14C140.713 168.66 141.279 169.073 141.933 169.38C142.599 169.673 143.313 169.82 144.073 169.82C144.833 169.82 145.539 169.673 146.193 169.38C146.859 169.073 147.433 168.66 147.913 168.14C148.393 167.62 148.773 167.007 149.053 166.3C149.333 165.58 149.473 164.813 149.473 164ZM151.865 158.36V157H163.065V158.36H158.245V171H156.705V158.36H151.865ZM170.096 157H175.756C177.036 157 178.056 157.327 178.816 157.98C179.59 158.62 179.976 159.48 179.976 160.56C179.976 161.32 179.75 161.98 179.296 162.54C178.856 163.1 178.256 163.493 177.496 163.72C178.416 163.933 179.15 164.34 179.696 164.94C180.243 165.54 180.516 166.267 180.516 167.12C180.516 168.28 180.096 169.22 179.256 169.94C178.43 170.647 177.336 171 175.976 171H170.096V157ZM175.636 158.32H171.636V163.12H175.636C176.476 163.12 177.15 162.9 177.656 162.46C178.176 162.02 178.436 161.44 178.436 160.72C178.436 160 178.176 159.42 177.656 158.98C177.15 158.54 176.476 158.32 175.636 158.32ZM175.816 169.68C176.763 169.68 177.523 169.44 178.096 168.96C178.67 168.467 178.956 167.82 178.956 167.02C178.956 166.22 178.67 165.58 178.096 165.1C177.536 164.62 176.776 164.38 175.816 164.38H171.636V169.68H175.816ZM183.475 171V157H193.035V158.34H185.015V163.26H190.575V164.6H185.015V169.66H193.115V171H183.475ZM199.306 158.36V157H210.506V158.36H205.686V171H204.146V158.36H199.306ZM212.85 171V157H214.39V163.26H222.43V157H223.97V171H222.43V164.64H214.39V171H212.85ZM227.499 171V157H237.059V158.34H229.039V163.26H234.599V164.6H229.039V169.66H237.139V171H227.499ZM239.882 171V157H245.622C246.955 157 248.028 157.373 248.842 158.12C249.668 158.867 250.082 159.84 250.082 161.04C250.082 161.96 249.815 162.76 249.282 163.44C248.762 164.107 248.055 164.567 247.162 164.82L250.142 171H248.442L245.602 165.02H241.422V171H239.882ZM245.502 158.36H241.422V163.74H245.502C246.422 163.74 247.155 163.493 247.702 163C248.262 162.507 248.542 161.86 248.542 161.06C248.542 160.247 248.262 159.593 247.702 159.1C247.155 158.607 246.422 158.36 245.502 158.36ZM252.831 171V157H262.391V158.34H254.371V163.26H259.931V164.6H254.371V169.66H262.471V171H252.831ZM273.782 171V165.28L268.342 157H270.142L274.602 163.94L279.082 157H280.782L275.322 165.32V171H273.782ZM282.811 171V157H292.371V158.34H284.351V163.26H289.911V164.6H284.351V169.66H292.451V171H282.811ZM293.974 158.36V157H305.174V158.36H300.354V171H298.814V158.36H293.974ZM306.415 168.98C306.695 168.98 306.935 169.087 307.135 169.3C307.348 169.513 307.455 169.767 307.455 170.06C307.455 170.367 307.348 170.627 307.135 170.84C306.935 171.053 306.695 171.16 306.415 171.16C306.122 171.16 305.868 171.053 305.655 170.84C305.455 170.627 305.355 170.367 305.355 170.06C305.355 169.767 305.455 169.513 305.655 169.3C305.868 169.087 306.122 168.98 306.415 168.98ZM30.78 183H36.44C37.72 183 38.74 183.327 39.5 183.98C40.2733 184.62 40.66 185.48 40.66 186.56C40.66 187.32 40.4333 187.98 39.98 188.54C39.54 189.1 38.94 189.493 38.18 189.72C39.1 189.933 39.8333 190.34 40.38 190.94C40.9267 191.54 41.2 192.267 41.2 193.12C41.2 194.28 40.78 195.22 39.94 195.94C39.1133 196.647 38.02 197 36.66 197H30.78V183ZM36.32 184.32H32.32V189.12H36.32C37.16 189.12 37.8333 188.9 38.34 188.46C38.86 188.02 39.12 187.44 39.12 186.72C39.12 186 38.86 185.42 38.34 184.98C37.8333 184.54 37.16 184.32 36.32 184.32ZM36.5 195.68C37.4467 195.68 38.2067 195.44 38.78 194.96C39.3533 194.467 39.64 193.82 39.64 193.02C39.64 192.22 39.3533 191.58 38.78 191.1C38.22 190.62 37.46 190.38 36.5 190.38H32.32V195.68H36.5ZM55.1189 191.08C55.1189 192.947 54.6056 194.44 53.5789 195.56C52.5656 196.667 51.2056 197.22 49.4989 197.22C47.7789 197.22 46.4122 196.667 45.3989 195.56C44.3856 194.453 43.8789 192.96 43.8789 191.08V183H45.4189V191.08C45.4189 192.507 45.7856 193.653 46.5189 194.52C47.2656 195.387 48.2589 195.82 49.4989 195.82C50.7389 195.82 51.7256 195.387 52.4589 194.52C53.2056 193.653 53.5789 192.507 53.5789 191.08V183H55.1189V191.08ZM57.1772 184.36V183H68.3772V184.36H63.5572V197H62.0172V184.36H57.1772ZM79.3089 197V191.28L73.8689 183H75.6689L80.1289 189.94L84.6089 183H86.3089L80.8489 191.32V197H79.3089ZM100.505 190C100.505 191 100.325 191.947 99.9653 192.84C99.6053 193.72 99.112 194.487 98.4853 195.14C97.8586 195.78 97.1186 196.287 96.2653 196.66C95.4253 197.033 94.5186 197.22 93.5453 197.22C92.5853 197.22 91.6786 197.033 90.8253 196.66C89.972 196.287 89.232 195.78 88.6053 195.14C87.9786 194.487 87.4853 193.72 87.1253 192.84C86.7653 191.947 86.5853 191 86.5853 190C86.5853 189 86.7653 188.06 87.1253 187.18C87.4853 186.287 87.9786 185.52 88.6053 184.88C89.232 184.227 89.972 183.713 90.8253 183.34C91.6786 182.967 92.5853 182.78 93.5453 182.78C94.5186 182.78 95.4253 182.967 96.2653 183.34C97.1186 183.713 97.8586 184.227 98.4853 184.88C99.112 185.52 99.6053 186.287 99.9653 187.18C100.325 188.06 100.505 189 100.505 190ZM98.9453 190C98.9453 189.187 98.8053 188.427 98.5253 187.72C98.2453 187 97.8653 186.38 97.3853 185.86C96.9053 185.34 96.332 184.933 95.6653 184.64C95.012 184.333 94.3053 184.18 93.5453 184.18C92.7853 184.18 92.072 184.333 91.4053 184.64C90.752 184.933 90.1853 185.34 89.7053 185.86C89.2253 186.38 88.8453 187 88.5653 187.72C88.2853 188.427 88.1453 189.187 88.1453 190C88.1453 190.813 88.2853 191.58 88.5653 192.3C88.8453 193.007 89.2253 193.62 89.7053 194.14C90.1853 194.66 90.752 195.073 91.4053 195.38C92.072 195.673 92.7853 195.82 93.5453 195.82C94.3053 195.82 95.012 195.673 95.6653 195.38C96.332 195.073 96.9053 194.66 97.3853 194.14C97.8653 193.62 98.2453 193.007 98.5253 192.3C98.8053 191.58 98.9453 190.813 98.9453 190ZM114.377 191.08C114.377 192.947 113.863 194.44 112.837 195.56C111.823 196.667 110.463 197.22 108.757 197.22C107.037 197.22 105.67 196.667 104.657 195.56C103.643 194.453 103.137 192.96 103.137 191.08V183H104.677V191.08C104.677 192.507 105.043 193.653 105.777 194.52C106.523 195.387 107.517 195.82 108.757 195.82C109.997 195.82 110.983 195.387 111.717 194.52C112.463 193.653 112.837 192.507 112.837 191.08V183H114.377V191.08ZM120.723 197L126.263 183H128.103L133.563 197H131.903L130.243 192.6H124.003L122.343 197H120.723ZM124.483 191.38H129.783L127.123 184.38L124.483 191.38ZM135.526 197V183H141.266C142.599 183 143.673 183.373 144.486 184.12C145.313 184.867 145.726 185.84 145.726 187.04C145.726 187.96 145.459 188.76 144.926 189.44C144.406 190.107 143.699 190.567 142.806 190.82L145.786 197H144.086L141.246 191.02H137.066V197H135.526ZM141.146 184.36H137.066V189.74H141.146C142.066 189.74 142.799 189.493 143.346 189C143.906 188.507 144.186 187.86 144.186 187.06C144.186 186.247 143.906 185.593 143.346 185.1C142.799 184.607 142.066 184.36 141.146 184.36ZM148.475 197V183H158.035V184.34H150.015V189.26H155.575V190.6H150.015V195.66H158.115V197H148.475ZM172.026 195.82C172.826 195.82 173.599 195.653 174.346 195.32C175.093 194.987 175.719 194.513 176.226 193.9L177.226 194.92C176.546 195.653 175.753 196.22 174.846 196.62C173.939 197.02 172.986 197.22 171.986 197.22C170.986 197.22 170.046 197.033 169.166 196.66C168.299 196.273 167.546 195.76 166.906 195.12C166.279 194.467 165.779 193.7 165.406 192.82C165.046 191.94 164.866 191 164.866 190C164.866 189 165.046 188.06 165.406 187.18C165.779 186.287 166.286 185.52 166.926 184.88C167.566 184.227 168.319 183.713 169.186 183.34C170.053 182.967 170.986 182.78 171.986 182.78C173.013 182.78 173.986 182.98 174.906 183.38C175.826 183.78 176.613 184.347 177.266 185.08L176.246 186.14C175.726 185.527 175.086 185.047 174.326 184.7C173.566 184.353 172.786 184.18 171.986 184.18C171.199 184.18 170.466 184.333 169.786 184.64C169.106 184.933 168.519 185.34 168.026 185.86C167.533 186.38 167.139 187 166.846 187.72C166.566 188.427 166.426 189.187 166.426 190C166.426 190.813 166.566 191.58 166.846 192.3C167.139 193.007 167.533 193.62 168.026 194.14C168.519 194.66 169.106 195.073 169.786 195.38C170.479 195.673 171.226 195.82 172.026 195.82ZM180.038 197V183H181.578V195.64H189.478V197H180.038ZM204.353 190C204.353 191 204.173 191.947 203.813 192.84C203.453 193.72 202.96 194.487 202.333 195.14C201.706 195.78 200.966 196.287 200.113 196.66C199.273 197.033 198.366 197.22 197.393 197.22C196.433 197.22 195.526 197.033 194.673 196.66C193.82 196.287 193.08 195.78 192.453 195.14C191.826 194.487 191.333 193.72 190.973 192.84C190.613 191.947 190.433 191 190.433 190C190.433 189 190.613 188.06 190.973 187.18C191.333 186.287 191.826 185.52 192.453 184.88C193.08 184.227 193.82 183.713 194.673 183.34C195.526 182.967 196.433 182.78 197.393 182.78C198.366 182.78 199.273 182.967 200.113 183.34C200.966 183.713 201.706 184.227 202.333 184.88C202.96 185.52 203.453 186.287 203.813 187.18C204.173 188.06 204.353 189 204.353 190ZM202.793 190C202.793 189.187 202.653 188.427 202.373 187.72C202.093 187 201.713 186.38 201.233 185.86C200.753 185.34 200.18 184.933 199.513 184.64C198.86 184.333 198.153 184.18 197.393 184.18C196.633 184.18 195.92 184.333 195.253 184.64C194.6 184.933 194.033 185.34 193.553 185.86C193.073 186.38 192.693 187 192.413 187.72C192.133 188.427 191.993 189.187 191.993 190C191.993 190.813 192.133 191.58 192.413 192.3C192.693 193.007 193.073 193.62 193.553 194.14C194.033 194.66 194.6 195.073 195.253 195.38C195.92 195.673 196.633 195.82 197.393 195.82C198.153 195.82 198.86 195.673 199.513 195.38C200.18 195.073 200.753 194.66 201.233 194.14C201.713 193.62 202.093 193.007 202.373 192.3C202.653 191.58 202.793 190.813 202.793 190ZM206.044 194.82L206.984 193.7C207.824 194.487 208.611 195.047 209.344 195.38C210.091 195.713 210.918 195.88 211.824 195.88C212.904 195.88 213.798 195.613 214.504 195.08C215.211 194.533 215.564 193.86 215.564 193.06C215.564 192.367 215.324 191.833 214.844 191.46C214.378 191.087 213.578 190.8 212.444 190.6L210.184 190.22C208.904 189.993 207.964 189.607 207.364 189.06C206.778 188.5 206.484 187.753 206.484 186.82C206.484 185.647 206.931 184.687 207.824 183.94C208.718 183.193 209.871 182.82 211.284 182.82C212.324 182.82 213.291 182.967 214.184 183.26C215.078 183.54 215.958 183.987 216.824 184.6L216.024 185.8C215.304 185.267 214.538 184.853 213.724 184.56C212.924 184.267 212.118 184.12 211.304 184.12C210.331 184.12 209.531 184.367 208.904 184.86C208.278 185.34 207.964 185.94 207.964 186.66C207.964 187.273 208.171 187.753 208.584 188.1C208.998 188.447 209.671 188.693 210.604 188.84L212.844 189.22C214.324 189.487 215.404 189.92 216.084 190.52C216.764 191.12 217.104 191.94 217.104 192.98C217.104 193.58 216.971 194.14 216.704 194.66C216.438 195.18 216.064 195.627 215.584 196C215.118 196.373 214.558 196.667 213.904 196.88C213.251 197.093 212.544 197.2 211.784 197.2C210.691 197.2 209.671 197.007 208.724 196.62C207.791 196.22 206.898 195.62 206.044 194.82ZM219.725 197V183H229.285V184.34H221.265V189.26H226.825V190.6H221.265V195.66H229.365V197H219.725ZM232.108 197V183H237.848C239.181 183 240.255 183.373 241.068 184.12C241.895 184.867 242.308 185.84 242.308 187.04C242.308 187.96 242.041 188.76 241.508 189.44C240.988 190.107 240.281 190.567 239.388 190.82L242.368 197H240.668L237.828 191.02H233.648V197H232.108ZM237.728 184.36H233.648V189.74H237.728C238.648 189.74 239.381 189.493 239.928 189C240.488 188.507 240.768 187.86 240.768 187.06C240.768 186.247 240.488 185.593 239.928 185.1C239.381 184.607 238.648 184.36 237.728 184.36ZM248.505 184.36V183H259.705V184.36H254.885V197H253.345V184.36H248.505ZM262.049 197V183H263.589V189.26H271.629V183H273.169V197H271.629V190.64H263.589V197H262.049ZM275.098 197L280.638 183H282.478L287.938 197H286.278L284.618 192.6H278.378L276.718 197H275.098ZM278.858 191.38H284.158L281.498 184.38L278.858 191.38ZM289.901 183H291.501L299.701 194.6L299.661 183H301.121V197H299.721L291.321 185.14L291.361 197H289.901V183ZM34.68 223V217.28L29.24 209H31.04L35.5 215.94L39.98 209H41.68L36.22 217.32V223H34.68ZM43.7097 223V209H53.2697V210.34H45.2497V215.26H50.8097V216.6H45.2497V221.66H53.3497V223H43.7097ZM54.8725 220.82L55.8125 219.7C56.6525 220.487 57.4392 221.047 58.1725 221.38C58.9192 221.713 59.7458 221.88 60.6525 221.88C61.7325 221.88 62.6258 221.613 63.3325 221.08C64.0392 220.533 64.3925 219.86 64.3925 219.06C64.3925 218.367 64.1525 217.833 63.6725 217.46C63.2058 217.087 62.4058 216.8 61.2725 216.6L59.0125 216.22C57.7325 215.993 56.7925 215.607 56.1925 215.06C55.6058 214.5 55.3125 213.753 55.3125 212.82C55.3125 211.647 55.7592 210.687 56.6525 209.94C57.5458 209.193 58.6992 208.82 60.1125 208.82C61.1525 208.82 62.1192 208.967 63.0125 209.26C63.9058 209.54 64.7858 209.987 65.6525 210.6L64.8525 211.8C64.1325 211.267 63.3658 210.853 62.5525 210.56C61.7525 210.267 60.9458 210.12 60.1325 210.12C59.1592 210.12 58.3592 210.367 57.7325 210.86C57.1058 211.34 56.7925 211.94 56.7925 212.66C56.7925 213.273 56.9992 213.753 57.4125 214.1C57.8258 214.447 58.4992 214.693 59.4325 214.84L61.6725 215.22C63.1525 215.487 64.2325 215.92 64.9125 216.52C65.5925 217.12 65.9325 217.94 65.9325 218.98C65.9325 219.58 65.7992 220.14 65.5325 220.66C65.2658 221.18 64.8925 221.627 64.4125 222C63.9458 222.373 63.3858 222.667 62.7325 222.88C62.0792 223.093 61.3725 223.2 60.6125 223.2C59.5192 223.2 58.4992 223.007 57.5525 222.62C56.6192 222.22 55.7258 221.62 54.8725 220.82ZM67.0405 210.36V209H78.2405V210.36H73.4205V223H71.8805V210.36H67.0405ZM80.6042 223V209H90.1642V210.34H82.1442V215.26H87.7042V216.6H82.1442V221.66H90.2442V223H80.6042ZM92.987 223V209H98.727C100.06 209 101.134 209.373 101.947 210.12C102.774 210.867 103.187 211.84 103.187 213.04C103.187 213.96 102.92 214.76 102.387 215.44C101.867 216.107 101.16 216.567 100.267 216.82L103.247 223H101.547L98.707 217.02H94.527V223H92.987ZM98.607 210.36H94.527V215.74H98.607C99.527 215.74 100.26 215.493 100.807 215C101.367 214.507 101.647 213.86 101.647 213.06C101.647 212.247 101.367 211.593 100.807 211.1C100.26 210.607 99.527 210.36 98.607 210.36ZM105.936 223V209H110.576C111.603 209 112.543 209.18 113.396 209.54C114.263 209.9 115.003 210.393 115.616 211.02C116.23 211.633 116.71 212.373 117.056 213.24C117.403 214.093 117.576 215.013 117.576 216C117.576 216.987 117.403 217.913 117.056 218.78C116.723 219.633 116.25 220.373 115.636 221C115.023 221.613 114.283 222.1 113.416 222.46C112.55 222.82 111.603 223 110.576 223H105.936ZM110.676 210.38H107.476V221.62H110.676C111.423 221.62 112.123 221.48 112.776 221.2C113.43 220.907 113.996 220.513 114.476 220.02C114.956 219.513 115.33 218.92 115.596 218.24C115.876 217.547 116.016 216.8 116.016 216C116.016 215.2 115.876 214.46 115.596 213.78C115.33 213.087 114.956 212.493 114.476 212C113.996 211.493 113.43 211.1 112.776 210.82C112.123 210.527 111.423 210.38 110.676 210.38ZM118.262 223L123.802 209H125.642L131.102 223H129.442L127.782 218.6H121.542L119.882 223H118.262ZM122.022 217.38H127.322L124.662 210.38L122.022 217.38ZM134.739 223V217.28L129.299 209H131.099L135.559 215.94L140.039 209H141.739L136.279 217.32V223H134.739ZM142.723 220.98C143.003 220.98 143.243 221.087 143.443 221.3C143.657 221.513 143.763 221.767 143.763 222.06C143.763 222.367 143.657 222.627 143.443 222.84C143.243 223.053 143.003 223.16 142.723 223.16C142.43 223.16 142.177 223.053 141.963 222.84C141.763 222.627 141.663 222.367 141.663 222.06C141.663 221.767 141.763 221.513 141.963 221.3C142.177 221.087 142.43 220.98 142.723 220.98Z" fill="black"/>
    <defs>
    <filter id="filter0_d_1_110" x="256" y="77" width="66.5027" height="66.5027" filterUnits="userSpaceOnUse" color-interpolation-filters="sRGB">
    <feFlood flood-opacity="0" result="BackgroundImageFix"/>
    <feColorMatrix in="SourceAlpha" type="matrix" values="0 0 0 0 0 0 0 0 0 0 0 0 0 0 0 0 0 0 127 0" result="hardAlpha"/>
    <feOffset dx="1" dy="2"/>
    <feGaussianBlur stdDeviation="2"/>
    <feComposite in2="hardAlpha" operator="out"/>
    <feColorMatrix type="matrix" values="0 0 0 0 0 0 0 0 0 0 0 0 0 0 0 0 0 0 0.25 0"/>
    <feBlend mode="normal" in2="BackgroundImageFix" result="effect1_dropShadow_1_110"/>
    <feBlend mode="normal" in="SourceGraphic" in2="effect1_dropShadow_1_110" result="shape"/>
    </filter>
    <filter id="filter1_d_1_110" x="264.538" y="86.4808" width="47.4263" height="51.5409" filterUnits="userSpaceOnUse" color-interpolation-filters="sRGB">
    <feFlood flood-opacity="0" result="BackgroundImageFix"/>
    <feColorMatrix in="SourceAlpha" type="matrix" values="0 0 0 0 0 0 0 0 0 0 0 0 0 0 0 0 0 0 127 0" result="hardAlpha"/>
    <feOffset dy="4"/>
    <feGaussianBlur stdDeviation="2"/>
    <feComposite in2="hardAlpha" operator="out"/>
    <feColorMatrix type="matrix" values="0 0 0 0 0.9375 0 0 0 0 0.73125 0 0 0 0 0 0 0 0 0.25 0"/>
    <feBlend mode="normal" in2="BackgroundImageFix" result="effect1_dropShadow_1_110"/>
    <feBlend mode="normal" in="SourceGraphic" in2="effect1_dropShadow_1_110" result="shape"/>
    </filter>
    <filter id="filter2_d_1_110" x="26.0081" y="49.4041" width="260.027" height="79.9559" filterUnits="userSpaceOnUse" color-interpolation-filters="sRGB">
    <feFlood flood-opacity="0" result="BackgroundImageFix"/>
    <feColorMatrix in="SourceAlpha" type="matrix" values="0 0 0 0 0 0 0 0 0 0 0 0 0 0 0 0 0 0 127 0" result="hardAlpha"/>
    <feOffset dy="4"/>
    <feGaussianBlur stdDeviation="1"/>
    <feComposite in2="hardAlpha" operator="out"/>
    <feColorMatrix type="matrix" values="0 0 0 0 0 0 0 0 0 0 0 0 0 0 0 0 0 0 0.25 0"/>
    <feBlend mode="normal" in2="BackgroundImageFix" result="effect1_dropShadow_1_110"/>
    <feBlend mode="normal" in="SourceGraphic" in2="effect1_dropShadow_1_110" result="shape"/>
    </filter>
    <filter id="filter3_d_1_110" x="66.0081" y="97.4041" width="185.567" height="33.9919" filterUnits="userSpaceOnUse" color-interpolation-filters="sRGB">
    <feFlood flood-opacity="0" result="BackgroundImageFix"/>
    <feColorMatrix in="SourceAlpha" type="matrix" values="0 0 0 0 0 0 0 0 0 0 0 0 0 0 0 0 0 0 127 0" result="hardAlpha"/>
    <feOffset dy="4"/>
    <feGaussianBlur stdDeviation="2"/>
    <feComposite in2="hardAlpha" operator="out"/>
    <feColorMatrix type="matrix" values="0 0 0 0 0 0 0 0 0 0 0 0 0 0 0 0 0 0 0.25 0"/>
    <feBlend mode="normal" in2="BackgroundImageFix" result="effect1_dropShadow_1_110"/>
    <feBlend mode="normal" in="SourceGraphic" in2="effect1_dropShadow_1_110" result="shape"/>
    </filter>
    <clipPath id="clip0_1_110">
    <rect width="42.0058" height="42.0058" fill="white" transform="translate(259 113.409) rotate(-55)"/>
    </clipPath>
    </defs>
    </svg>
    