<svg width="411" height="208" viewBox="0 0 411 208" fill="none" xmlns="http://www.w3.org/2000/svg">
    <g clip-path="url(#clip0_7_105)">
    <g filter="url(#filter0_d_7_105)">
    <path d="M377.665 129.135V137.249C377.665 137.661 377.954 137.995 378.311 137.995C378.667 137.995 378.956 137.661 378.956 137.249V128.595C378.956 128.265 378.769 127.974 378.495 127.88C377.032 127.377 375.717 126.322 374.79 124.908C373.833 123.448 373.327 121.705 373.327 119.868C373.327 115.259 376.572 111.51 380.56 111.51C381.305 111.51 382.034 111.641 382.727 111.891C382.532 112.751 382.226 113.565 381.824 114.309C381.455 114.108 381.042 113.994 380.607 113.994C379.032 113.994 377.751 115.475 377.751 117.295C377.751 119.115 379.032 120.596 380.607 120.596C382.182 120.596 383.464 119.115 383.464 117.295C383.464 116.52 383.231 115.806 382.842 115.242C383.319 114.39 383.686 113.456 383.928 112.469C384.772 112.982 385.53 113.691 386.154 114.569C386.38 114.887 386.787 114.934 387.063 114.672C387.339 114.411 387.379 113.94 387.152 113.622C386.336 112.472 385.324 111.569 384.195 110.954C384.242 110.528 384.267 110.096 384.267 109.658C384.267 103.99 380.276 99.3778 375.37 99.3778C370.464 99.3778 366.473 103.99 366.473 109.659C366.473 111.201 366.776 112.731 367.351 114.113C365.549 117.201 365.389 121.277 367.03 124.555L361.105 131.402C360.852 131.694 360.852 132.166 361.105 132.458C361.357 132.749 361.766 132.749 362.018 132.458L368.306 125.192C368.523 124.941 368.557 124.547 368.387 124.251C366.486 120.953 366.87 116.522 369.298 113.716C371.088 111.648 373.675 110.841 376.078 111.492C375.227 112.103 374.474 112.882 373.857 113.789C372.71 113.934 371.64 114.523 370.819 115.472C368.837 117.763 368.837 121.489 370.819 123.779C371.561 124.636 372.486 125.193 373.509 125.404C373.59 125.541 373.673 125.677 373.76 125.81C374.278 126.6 374.901 127.294 375.595 127.87C373.803 128.212 371.944 127.769 370.41 126.589C370.154 126.392 369.813 126.431 369.595 126.682L363.677 133.522C363.424 133.813 363.424 134.286 363.677 134.577L365.076 136.194C365.429 136.586 365.429 137.292 365.076 137.684C364.736 138.093 364.125 138.093 363.786 137.684L362.387 136.068C362.135 135.776 361.726 135.776 361.474 136.068L359.798 138.004C359.548 138.282 359.548 138.781 359.798 139.059L361.197 140.676C361.553 141.086 361.553 141.755 361.197 142.166C360.842 142.577 360.263 142.577 359.907 142.166L358.509 140.549C358.256 140.258 357.847 140.258 357.595 140.549L355.763 142.667C355.407 143.078 354.829 143.078 354.473 142.667C354.117 142.256 354.117 141.587 354.473 141.176L360.191 134.569C360.444 134.277 360.444 133.805 360.191 133.513C359.939 133.222 359.53 133.222 359.278 133.513L353.56 140.121C352.701 141.114 352.701 142.729 353.56 143.722C354.419 144.715 355.817 144.715 356.676 143.722L358.052 142.132L358.994 143.221C359.853 144.214 361.251 144.214 362.11 143.221C362.97 142.229 362.97 140.613 362.11 139.62L361.168 138.531L361.93 137.651L362.873 138.739C363.693 139.727 365.169 139.727 365.989 138.74C366.844 137.792 366.844 136.086 365.989 135.138L365.047 134.049L370.147 128.156C372.283 129.584 374.871 129.871 377.216 128.928C377.364 129.001 377.513 129.071 377.665 129.135V129.135ZM380.607 115.487C380.748 115.487 380.884 115.51 381.014 115.551C380.456 116.265 379.794 116.877 379.045 117.354C379.044 117.334 379.042 117.315 379.042 117.295C379.042 116.298 379.744 115.487 380.607 115.487V115.487ZM382.172 117.295C382.172 118.292 381.47 119.104 380.607 119.104C380.232 119.104 379.886 118.95 379.616 118.694C380.531 118.12 381.338 117.376 382.012 116.503C382.113 116.742 382.172 117.011 382.172 117.295V117.295ZM368.385 112.66C368.345 112.707 368.306 112.755 368.267 112.802C367.937 111.804 367.765 110.735 367.765 109.659C367.765 104.813 371.177 100.87 375.37 100.87C379.564 100.87 382.975 104.813 382.975 109.659C382.975 109.911 382.965 110.161 382.947 110.409C382.181 110.152 381.379 110.017 380.56 110.017C379.579 110.017 378.637 110.21 377.759 110.564C374.578 108.997 370.843 109.82 368.385 112.66V112.66ZM372.868 115.624C372.599 116.272 372.39 116.958 372.249 117.673C371.928 117.506 371.617 117.314 371.318 117.097C371.44 116.897 371.577 116.706 371.732 116.528C372.063 116.145 372.449 115.84 372.868 115.624ZM371.732 122.724C370.733 121.569 370.41 119.924 370.762 118.452C371.175 118.742 371.607 118.992 372.056 119.2C372.043 119.421 372.035 119.643 372.035 119.868C372.035 121.129 372.239 122.353 372.631 123.495C372.304 123.294 372.002 123.035 371.732 122.724Z" fill="#DF921E"/>
    </g>
    <g filter="url(#filter1_d_7_105)">
    <path d="M388.548 116.421C388.423 116.035 388.051 115.839 387.717 115.983C387.383 116.128 387.213 116.558 387.338 116.944C387.64 117.877 387.793 118.861 387.793 119.868C387.793 123.497 385.789 126.69 382.806 127.815C382.54 127.915 382.36 128.202 382.36 128.524V132.668L380.531 134.308C380.201 134.588 380.201 135.207 380.531 135.487L381.952 136.761L380.531 138.035C380.201 138.315 380.201 138.934 380.531 139.214L381.952 140.488L380.531 141.762C380.201 142.042 380.201 142.661 380.531 142.941L382.36 144.581V146.372L380.583 148.406L378.956 146.389V140.234C378.956 139.822 378.667 139.488 378.311 139.488C377.954 139.488 377.665 139.822 377.665 140.234V146.683C377.665 146.872 377.727 147.054 377.838 147.192L380.092 149.987C380.328 150.292 380.772 150.302 381.019 150.008L383.461 147.213C383.583 147.073 383.652 146.882 383.652 146.683V144.215C383.652 143.985 383.56 143.767 383.402 143.625L381.98 142.352L383.402 141.078C383.732 140.798 383.732 140.179 383.402 139.898L381.98 138.625L383.402 137.351C383.732 137.071 383.732 136.451 383.402 136.171L381.98 134.898L383.402 133.624C383.56 133.482 383.652 133.265 383.652 133.034V129.05C386.921 127.585 389.085 123.961 389.085 119.868C389.085 118.682 388.904 117.523 388.548 116.421V116.421Z" fill="#DF921E"/>
    </g>
    </g>
    <g filter="url(#filter2_d_7_105)">
    <path d="M53.784 68.8511C53.784 70.5791 53.472 72.2111 52.848 73.7471C52.248 75.2591 51.408 76.5791 50.328 77.7071C49.272 78.8111 48.012 79.6871 46.548 80.3351C45.084 80.9831 43.5 81.3071 41.796 81.3071C40.02 81.3071 38.352 80.9711 36.792 80.2991C35.232 79.6031 33.876 78.6791 32.724 77.5271C31.572 76.3511 30.66 74.9711 29.988 73.3871C29.34 71.8031 29.016 70.1111 29.016 68.3111C29.016 66.5111 29.34 64.8191 29.988 63.2351C30.66 61.6511 31.56 60.2831 32.688 59.1311C33.84 57.9551 35.196 57.0311 36.756 56.3591C38.316 55.6631 39.984 55.3151 41.76 55.3151C43.656 55.3151 45.468 55.6631 47.196 56.3591C48.924 57.0551 50.388 58.0871 51.588 59.4551L49.716 61.3271C48.78 60.2231 47.592 59.3711 46.152 58.7711C44.736 58.1471 43.272 57.8351 41.76 57.8351C40.344 57.8351 39.024 58.1111 37.8 58.6631C36.6 59.1911 35.556 59.9231 34.668 60.8591C33.78 61.7951 33.084 62.9111 32.58 64.2071C32.076 65.4791 31.824 66.8471 31.824 68.3111C31.824 69.7751 32.076 71.1551 32.58 72.4511C33.108 73.7231 33.804 74.8391 34.668 75.7991C35.556 76.7351 36.612 77.4791 37.836 78.0311C39.06 78.5591 40.368 78.8231 41.76 78.8231C43.008 78.8231 44.172 78.6071 45.252 78.1751C46.332 77.7191 47.268 77.1071 48.06 76.3391C48.876 75.5711 49.536 74.6591 50.04 73.6031C50.568 72.5471 50.88 71.4071 50.976 70.1831H42.48V67.7351H53.784V68.8511ZM58.9618 80.9111V55.7111H76.1698V58.1231H61.7338V66.9791H71.7418V69.3911H61.7338V78.4991H76.3138V80.9111H58.9618ZM79.0549 58.1591V55.7111H99.2149V58.1591H90.5389V80.9111H87.7669V58.1591H79.0549ZM108.992 80.9111L118.964 55.7111H122.276L132.104 80.9111H129.116L126.128 72.9911H114.896L111.908 80.9111H108.992ZM115.76 70.7951H125.3L120.512 58.1951L115.76 70.7951ZM146.213 78.7871C147.653 78.7871 149.045 78.4871 150.389 77.8871C151.733 77.2871 152.861 76.4351 153.773 75.3311L155.573 77.1671C154.349 78.4871 152.921 79.5071 151.289 80.2271C149.657 80.9471 147.941 81.3071 146.141 81.3071C144.341 81.3071 142.649 80.9711 141.065 80.2991C139.505 79.6031 138.149 78.6791 136.997 77.5271C135.869 76.3511 134.969 74.9711 134.297 73.3871C133.649 71.8031 133.325 70.1111 133.325 68.3111C133.325 66.5111 133.649 64.8191 134.297 63.2351C134.969 61.6271 135.881 60.2471 137.033 59.0951C138.185 57.9191 139.541 56.9951 141.101 56.3231C142.661 55.6511 144.341 55.3151 146.141 55.3151C147.989 55.3151 149.741 55.6751 151.397 56.3951C153.053 57.1151 154.469 58.1351 155.645 59.4551L153.809 61.3631C152.873 60.2591 151.721 59.3951 150.353 58.7711C148.985 58.1471 147.581 57.8351 146.141 57.8351C144.725 57.8351 143.405 58.1111 142.181 58.6631C140.957 59.1911 139.901 59.9231 139.013 60.8591C138.125 61.7951 137.417 62.9111 136.889 64.2071C136.385 65.4791 136.133 66.8471 136.133 68.3111C136.133 69.7751 136.385 71.1551 136.889 72.4511C137.417 73.7231 138.125 74.8271 139.013 75.7631C139.901 76.6991 140.957 77.4431 142.181 77.9951C143.429 78.5231 144.773 78.7871 146.213 78.7871ZM160.634 80.9111V55.7111H177.842V58.1231H163.406V66.9791H173.414V69.3911H163.406V78.4991H177.986V80.9111H160.634ZM180.727 76.9871L182.419 74.9711C183.931 76.3871 185.347 77.3951 186.667 77.9951C188.011 78.5951 189.499 78.8951 191.131 78.8951C193.075 78.8951 194.683 78.4151 195.955 77.4551C197.227 76.4711 197.863 75.2591 197.863 73.8191C197.863 72.5711 197.431 71.6111 196.567 70.9391C195.727 70.2671 194.287 69.7511 192.247 69.3911L188.179 68.7071C185.875 68.2991 184.183 67.6031 183.103 66.6191C182.047 65.6111 181.519 64.2671 181.519 62.5871C181.519 60.4751 182.323 58.7471 183.931 57.4031C185.539 56.0591 187.615 55.3871 190.159 55.3871C192.031 55.3871 193.771 55.6511 195.379 56.1791C196.987 56.6831 198.571 57.4871 200.131 58.5911L198.691 60.7511C197.395 59.7911 196.015 59.0471 194.551 58.5191C193.111 57.9911 191.659 57.7271 190.195 57.7271C188.443 57.7271 187.003 58.1711 185.875 59.0591C184.747 59.9231 184.183 61.0031 184.183 62.2991C184.183 63.4031 184.555 64.2671 185.299 64.8911C186.043 65.5151 187.255 65.9591 188.935 66.2231L192.967 66.9071C195.631 67.3871 197.575 68.1671 198.799 69.2471C200.023 70.3271 200.635 71.8031 200.635 73.6751C200.635 74.7551 200.395 75.7631 199.915 76.6991C199.435 77.6351 198.763 78.4391 197.899 79.1111C197.059 79.7831 196.051 80.3111 194.875 80.6951C193.699 81.0791 192.427 81.2711 191.059 81.2711C189.091 81.2711 187.255 80.9231 185.551 80.2271C183.871 79.5071 182.263 78.4271 180.727 76.9871ZM203.508 76.9871L205.2 74.9711C206.712 76.3871 208.128 77.3951 209.448 77.9951C210.792 78.5951 212.28 78.8951 213.912 78.8951C215.856 78.8951 217.464 78.4151 218.736 77.4551C220.008 76.4711 220.644 75.2591 220.644 73.8191C220.644 72.5711 220.212 71.6111 219.348 70.9391C218.508 70.2671 217.068 69.7511 215.028 69.3911L210.96 68.7071C208.656 68.2991 206.964 67.6031 205.884 66.6191C204.828 65.6111 204.3 64.2671 204.3 62.5871C204.3 60.4751 205.104 58.7471 206.712 57.4031C208.32 56.0591 210.396 55.3871 212.94 55.3871C214.812 55.3871 216.552 55.6511 218.16 56.1791C219.768 56.6831 221.352 57.4871 222.912 58.5911L221.472 60.7511C220.176 59.7911 218.796 59.0471 217.332 58.5191C215.892 57.9911 214.44 57.7271 212.976 57.7271C211.224 57.7271 209.784 58.1711 208.656 59.0591C207.528 59.9231 206.964 61.0031 206.964 62.2991C206.964 63.4031 207.336 64.2671 208.08 64.8911C208.824 65.5151 210.036 65.9591 211.716 66.2231L215.748 66.9071C218.412 67.3871 220.356 68.1671 221.58 69.2471C222.804 70.3271 223.416 71.8031 223.416 73.6751C223.416 74.7551 223.176 75.7631 222.696 76.6991C222.216 77.6351 221.544 78.4391 220.68 79.1111C219.84 79.7831 218.832 80.3111 217.656 80.6951C216.48 81.0791 215.208 81.2711 213.84 81.2711C211.872 81.2711 210.036 80.9231 208.332 80.2271C206.652 79.5071 205.044 78.4271 203.508 76.9871ZM260.44 68.3111C260.44 70.1111 260.116 71.8151 259.468 73.4231C258.82 75.0071 257.932 76.3871 256.804 77.5631C255.676 78.7151 254.344 79.6271 252.808 80.2991C251.296 80.9711 249.664 81.3071 247.912 81.3071C246.184 81.3071 244.552 80.9711 243.016 80.2991C241.48 79.6271 240.148 78.7151 239.02 77.5631C237.892 76.3871 237.004 75.0071 236.356 73.4231C235.708 71.8151 235.384 70.1111 235.384 68.3111C235.384 66.5111 235.708 64.8191 236.356 63.2351C237.004 61.6271 237.892 60.2471 239.02 59.0951C240.148 57.9191 241.48 56.9951 243.016 56.3231C244.552 55.6511 246.184 55.3151 247.912 55.3151C249.664 55.3151 251.296 55.6511 252.808 56.3231C254.344 56.9951 255.676 57.9191 256.804 59.0951C257.932 60.2471 258.82 61.6271 259.468 63.2351C260.116 64.8191 260.44 66.5111 260.44 68.3111ZM257.632 68.3111C257.632 66.8471 257.38 65.4791 256.876 64.2071C256.372 62.9111 255.688 61.7951 254.824 60.8591C253.96 59.9231 252.928 59.1911 251.728 58.6631C250.552 58.1111 249.28 57.8351 247.912 57.8351C246.544 57.8351 245.26 58.1111 244.06 58.6631C242.884 59.1911 241.864 59.9231 241 60.8591C240.136 61.7951 239.452 62.9111 238.948 64.2071C238.444 65.4791 238.192 66.8471 238.192 68.3111C238.192 69.7751 238.444 71.1551 238.948 72.4511C239.452 73.7231 240.136 74.8271 241 75.7631C241.864 76.6991 242.884 77.4431 244.06 77.9951C245.26 78.5231 246.544 78.7871 247.912 78.7871C249.28 78.7871 250.552 78.5231 251.728 77.9951C252.928 77.4431 253.96 76.6991 254.824 75.7631C255.688 74.8271 256.372 73.7231 256.876 72.4511C257.38 71.1551 257.632 69.7751 257.632 68.3111ZM265.681 80.9111V55.7111H282.889V58.1231H268.453V67.1591H278.317V69.5711H268.453V80.9111H265.681ZM296.056 55.7111H306.244C308.548 55.7111 310.384 56.2991 311.752 57.4751C313.144 58.6271 313.84 60.1751 313.84 62.1191C313.84 63.4871 313.432 64.6751 312.616 65.6831C311.824 66.6911 310.744 67.3991 309.376 67.8071C311.032 68.1911 312.352 68.9231 313.336 70.0031C314.32 71.0831 314.812 72.3911 314.812 73.9271C314.812 76.0151 314.056 77.7071 312.544 79.0031C311.056 80.2751 309.088 80.9111 306.64 80.9111H296.056V55.7111ZM306.028 58.0871H298.828V66.7271H306.028C307.54 66.7271 308.752 66.3311 309.664 65.5391C310.6 64.7471 311.068 63.7031 311.068 62.4071C311.068 61.1111 310.6 60.0671 309.664 59.2751C308.752 58.4831 307.54 58.0871 306.028 58.0871ZM306.352 78.5351C308.056 78.5351 309.424 78.1031 310.456 77.2391C311.488 76.3511 312.004 75.1871 312.004 73.7471C312.004 72.3071 311.488 71.1551 310.456 70.2911C309.448 69.4271 308.08 68.9951 306.352 68.9951H298.828V78.5351H306.352ZM320.138 80.9111V55.7111H337.346V58.1231H322.91V66.9791H332.918V69.3911H322.91V78.4991H337.49V80.9111H320.138ZM340.231 76.9871L341.923 74.9711C343.435 76.3871 344.851 77.3951 346.171 77.9951C347.515 78.5951 349.003 78.8951 350.635 78.8951C352.579 78.8951 354.187 78.4151 355.459 77.4551C356.731 76.4711 357.367 75.2591 357.367 73.8191C357.367 72.5711 356.935 71.6111 356.071 70.9391C355.231 70.2671 353.791 69.7511 351.751 69.3911L347.683 68.7071C345.379 68.2991 343.687 67.6031 342.607 66.6191C341.551 65.6111 341.023 64.2671 341.023 62.5871C341.023 60.4751 341.827 58.7471 343.435 57.4031C345.043 56.0591 347.119 55.3871 349.663 55.3871C351.535 55.3871 353.275 55.6511 354.883 56.1791C356.491 56.6831 358.075 57.4871 359.635 58.5911L358.195 60.7511C356.899 59.7911 355.519 59.0471 354.055 58.5191C352.615 57.9911 351.163 57.7271 349.699 57.7271C347.947 57.7271 346.507 58.1711 345.379 59.0591C344.251 59.9231 343.687 61.0031 343.687 62.2991C343.687 63.4031 344.059 64.2671 344.803 64.8911C345.547 65.5151 346.759 65.9591 348.439 66.2231L352.471 66.9071C355.135 67.3871 357.079 68.1671 358.303 69.2471C359.527 70.3271 360.139 71.8031 360.139 73.6751C360.139 74.7551 359.899 75.7631 359.419 76.6991C358.939 77.6351 358.267 78.4391 357.403 79.1111C356.563 79.7831 355.555 80.3111 354.379 80.6951C353.203 81.0791 351.931 81.2711 350.563 81.2711C348.595 81.2711 346.759 80.9231 345.055 80.2271C343.375 79.5071 341.767 78.4271 340.231 76.9871ZM362.133 58.1591V55.7111H382.293V58.1591H373.617V80.9111H370.845V58.1591H362.133ZM36.756 128.911H33.948L28.512 103.711H31.32L35.604 124.555L41.832 103.711H44.532L50.76 124.483L55.08 103.711H57.78L52.344 128.911H49.536L43.164 107.527L36.756 128.911ZM85.8893 116.311C85.8893 118.111 85.5653 119.815 84.9173 121.423C84.2693 123.007 83.3813 124.387 82.2533 125.563C81.1253 126.715 79.7933 127.627 78.2573 128.299C76.7453 128.971 75.1133 129.307 73.3613 129.307C71.6333 129.307 70.0013 128.971 68.4653 128.299C66.9293 127.627 65.5973 126.715 64.4693 125.563C63.3413 124.387 62.4533 123.007 61.8053 121.423C61.1573 119.815 60.8333 118.111 60.8333 116.311C60.8333 114.511 61.1573 112.819 61.8053 111.235C62.4533 109.627 63.3413 108.247 64.4693 107.095C65.5973 105.919 66.9293 104.995 68.4653 104.323C70.0013 103.651 71.6333 103.315 73.3613 103.315C75.1133 103.315 76.7453 103.651 78.2573 104.323C79.7933 104.995 81.1253 105.919 82.2533 107.095C83.3813 108.247 84.2693 109.627 84.9173 111.235C85.5653 112.819 85.8893 114.511 85.8893 116.311ZM83.0813 116.311C83.0813 114.847 82.8293 113.479 82.3253 112.207C81.8213 110.911 81.1373 109.795 80.2733 108.859C79.4093 107.923 78.3773 107.191 77.1773 106.663C76.0013 106.111 74.7293 105.835 73.3613 105.835C71.9933 105.835 70.7093 106.111 69.5093 106.663C68.3333 107.191 67.3133 107.923 66.4493 108.859C65.5853 109.795 64.9013 110.911 64.3973 112.207C63.8933 113.479 63.6413 114.847 63.6413 116.311C63.6413 117.775 63.8933 119.155 64.3973 120.451C64.9013 121.723 65.5853 122.827 66.4493 123.763C67.3133 124.699 68.3333 125.443 69.5093 125.995C70.7093 126.523 71.9933 126.787 73.3613 126.787C74.7293 126.787 76.0013 126.523 77.1773 125.995C78.3773 125.443 79.4093 124.699 80.2733 123.763C81.1373 122.827 81.8213 121.723 82.3253 120.451C82.8293 119.155 83.0813 117.775 83.0813 116.311ZM91.1298 128.911V103.711H101.462C103.862 103.711 105.794 104.383 107.258 105.727C108.746 107.071 109.49 108.823 109.49 110.983C109.49 112.639 109.01 114.079 108.05 115.303C107.114 116.503 105.842 117.331 104.234 117.787L109.598 128.911H106.538L101.426 118.147H93.9018V128.911H91.1298ZM101.246 106.159H93.9018V115.843H101.246C102.902 115.843 104.222 115.399 105.206 114.511C106.214 113.623 106.718 112.459 106.718 111.019C106.718 109.555 106.214 108.379 105.206 107.491C104.222 106.603 102.902 106.159 101.246 106.159ZM114.438 128.911V103.711H117.21V115.663L129.45 103.711H132.978L120.126 116.095L133.266 128.911H129.486L117.21 116.851V128.911H114.438ZM158.487 116.311C158.487 118.111 158.163 119.815 157.515 121.423C156.867 123.007 155.979 124.387 154.851 125.563C153.723 126.715 152.391 127.627 150.855 128.299C149.343 128.971 147.711 129.307 145.959 129.307C144.231 129.307 142.599 128.971 141.063 128.299C139.527 127.627 138.195 126.715 137.067 125.563C135.939 124.387 135.051 123.007 134.403 121.423C133.755 119.815 133.431 118.111 133.431 116.311C133.431 114.511 133.755 112.819 134.403 111.235C135.051 109.627 135.939 108.247 137.067 107.095C138.195 105.919 139.527 104.995 141.063 104.323C142.599 103.651 144.231 103.315 145.959 103.315C147.711 103.315 149.343 103.651 150.855 104.323C152.391 104.995 153.723 105.919 154.851 107.095C155.979 108.247 156.867 109.627 157.515 111.235C158.163 112.819 158.487 114.511 158.487 116.311ZM155.679 116.311C155.679 114.847 155.427 113.479 154.923 112.207C154.419 110.911 153.735 109.795 152.871 108.859C152.007 107.923 150.975 107.191 149.775 106.663C148.599 106.111 147.327 105.835 145.959 105.835C144.591 105.835 143.307 106.111 142.107 106.663C140.931 107.191 139.911 107.923 139.047 108.859C138.183 109.795 137.499 110.911 136.995 112.207C136.491 113.479 136.239 114.847 136.239 116.311C136.239 117.775 136.491 119.155 136.995 120.451C137.499 121.723 138.183 122.827 139.047 123.763C139.911 124.699 140.931 125.443 142.107 125.995C143.307 126.523 144.591 126.787 145.959 126.787C147.327 126.787 148.599 126.523 149.775 125.995C150.975 125.443 152.007 124.699 152.871 123.763C153.735 122.827 154.419 121.723 154.923 120.451C155.427 119.155 155.679 117.775 155.679 116.311ZM183.455 118.255C183.455 121.615 182.531 124.303 180.683 126.319C178.859 128.311 176.411 129.307 173.339 129.307C170.243 129.307 167.783 128.311 165.959 126.319C164.135 124.327 163.223 121.639 163.223 118.255V103.711H165.995V118.255C165.995 120.823 166.655 122.887 167.975 124.447C169.319 126.007 171.107 126.787 173.339 126.787C175.571 126.787 177.347 126.007 178.667 124.447C180.011 122.887 180.683 120.823 180.683 118.255V103.711H183.455V118.255ZM187.16 106.159V103.711H207.32V106.159H198.644V128.911H195.872V106.159H187.16ZM219.977 128.911V103.711H230.381C232.805 103.711 234.749 104.395 236.213 105.763C237.677 107.131 238.409 108.931 238.409 111.163C238.409 113.395 237.677 115.195 236.213 116.563C234.749 117.931 232.805 118.615 230.381 118.615H222.749V128.911H219.977ZM230.057 106.159H222.749V116.239H230.057C231.785 116.239 233.141 115.783 234.125 114.871C235.133 113.959 235.637 112.723 235.637 111.163C235.637 109.627 235.133 108.415 234.125 107.527C233.141 106.615 231.785 106.159 230.057 106.159ZM243.532 128.911V103.711H246.304V126.463H260.524V128.911H243.532ZM263.328 128.911L273.3 103.711H276.612L286.44 128.911H283.452L280.464 120.991H269.232L266.244 128.911H263.328ZM270.096 118.795H279.636L274.848 106.195L270.096 118.795ZM289.974 103.711H292.854L307.614 124.591L307.542 103.711H310.17V128.911H307.65L292.53 107.563L292.602 128.911H289.974V103.711ZM314.391 124.987L316.083 122.971C317.595 124.387 319.011 125.395 320.331 125.995C321.675 126.595 323.163 126.895 324.795 126.895C326.739 126.895 328.347 126.415 329.619 125.455C330.891 124.471 331.527 123.259 331.527 121.819C331.527 120.571 331.095 119.611 330.231 118.939C329.391 118.267 327.951 117.751 325.911 117.391L321.843 116.707C319.539 116.299 317.847 115.603 316.767 114.619C315.711 113.611 315.183 112.267 315.183 110.587C315.183 108.475 315.987 106.747 317.595 105.403C319.203 104.059 321.279 103.387 323.823 103.387C325.695 103.387 327.435 103.651 329.043 104.179C330.651 104.683 332.235 105.487 333.795 106.591L332.355 108.751C331.059 107.791 329.679 107.047 328.215 106.519C326.775 105.991 325.323 105.727 323.859 105.727C322.107 105.727 320.667 106.171 319.539 107.059C318.411 107.923 317.847 109.003 317.847 110.299C317.847 111.403 318.219 112.267 318.963 112.891C319.707 113.515 320.919 113.959 322.599 114.223L326.631 114.907C329.295 115.387 331.239 116.167 332.463 117.247C333.687 118.327 334.299 119.803 334.299 121.675C334.299 122.755 334.059 123.763 333.579 124.699C333.099 125.635 332.427 126.439 331.563 127.111C330.723 127.783 329.715 128.311 328.539 128.695C327.363 129.079 326.091 129.271 324.723 129.271C322.755 129.271 320.919 128.923 319.215 128.227C317.535 127.507 315.927 126.427 314.391 124.987ZM339.491 125.275C339.995 125.275 340.427 125.467 340.787 125.851C341.171 126.235 341.363 126.691 341.363 127.219C341.363 127.771 341.171 128.239 340.787 128.623C340.427 129.007 339.995 129.199 339.491 129.199C338.963 129.199 338.507 129.007 338.123 128.623C337.763 128.239 337.583 127.771 337.583 127.219C337.583 126.691 337.763 126.235 338.123 125.851C338.507 125.467 338.963 125.275 339.491 125.275Z" fill="black"/>
    </g>
    <g filter="url(#filter3_d_7_105)">
    <path d="M94.404 179L90.176 159.4H92.36L95.692 175.612L100.536 159.4H102.636L107.48 175.556L110.84 159.4H112.94L108.712 179H106.528L101.572 162.368L96.588 179H94.404ZM116.593 179V159.4H118.749V179H116.593ZM130.031 179.308C128.5 179.308 127.082 179.037 125.775 178.496C124.468 177.936 123.208 177.096 121.995 175.976L123.311 174.408C124.487 175.509 125.588 176.293 126.615 176.76C127.66 177.227 128.818 177.46 130.087 177.46C131.095 177.46 131.991 177.292 132.775 176.956C133.578 176.601 134.203 176.125 134.651 175.528C135.099 174.931 135.323 174.249 135.323 173.484C135.323 172.495 134.996 171.748 134.343 171.244C133.69 170.721 132.56 170.32 130.955 170.04L127.791 169.508C125.999 169.191 124.683 168.649 123.843 167.884C123.022 167.1 122.611 166.055 122.611 164.748C122.611 163.647 122.891 162.676 123.451 161.836C124.03 160.977 124.823 160.305 125.831 159.82C126.839 159.335 128.006 159.092 129.331 159.092C130.787 159.092 132.14 159.297 133.391 159.708C134.642 160.1 135.874 160.725 137.087 161.584L135.967 163.264C134.959 162.499 133.895 161.92 132.775 161.528C131.655 161.117 130.516 160.912 129.359 160.912C128.444 160.912 127.632 161.071 126.923 161.388C126.232 161.705 125.682 162.135 125.271 162.676C124.879 163.217 124.683 163.833 124.683 164.524C124.683 165.383 124.972 166.055 125.551 166.54C126.13 167.025 127.072 167.371 128.379 167.576L131.515 168.108C133.606 168.481 135.118 169.088 136.051 169.928C137.003 170.749 137.479 171.897 137.479 173.372C137.479 174.511 137.152 175.528 136.499 176.424C135.864 177.32 134.987 178.029 133.867 178.552C132.747 179.056 131.468 179.308 130.031 179.308ZM141.12 179V159.4H143.276V168.164H154.532V159.4H156.688V179H154.532V170.096H143.276V179H141.12ZM161.628 179V159.4H163.784V179H161.628ZM168.738 179V159.4H170.978L182.458 175.64L182.402 159.4H184.446V179H182.486L170.726 162.396L170.782 179H168.738ZM198.425 179.308C197.025 179.308 195.728 179.047 194.533 178.524C193.339 178.001 192.284 177.283 191.369 176.368C190.473 175.435 189.773 174.361 189.269 173.148C188.765 171.916 188.513 170.6 188.513 169.2C188.513 167.8 188.765 166.493 189.269 165.28C189.773 164.048 190.473 162.975 191.369 162.06C192.284 161.127 193.339 160.399 194.533 159.876C195.728 159.353 197.025 159.092 198.425 159.092C199.919 159.092 201.328 159.363 202.653 159.904C203.997 160.445 205.136 161.248 206.069 162.312L204.613 163.768C203.885 162.891 202.971 162.219 201.869 161.752C200.768 161.285 199.62 161.052 198.425 161.052C197.324 161.052 196.307 161.267 195.373 161.696C194.44 162.107 193.619 162.685 192.909 163.432C192.219 164.16 191.677 165.019 191.285 166.008C190.893 166.997 190.697 168.061 190.697 169.2C190.697 170.339 190.893 171.403 191.285 172.392C191.677 173.381 192.219 174.249 192.909 174.996C193.619 175.724 194.44 176.303 195.373 176.732C196.307 177.143 197.324 177.348 198.425 177.348C199.732 177.348 200.899 177.059 201.925 176.48C202.971 175.901 203.811 175.108 204.445 174.1C205.099 173.073 205.481 171.925 205.593 170.656H198.985V168.752H207.777V169.62C207.777 170.983 207.544 172.252 207.077 173.428C206.611 174.585 205.948 175.612 205.089 176.508C204.249 177.385 203.26 178.076 202.121 178.58C200.983 179.065 199.751 179.308 198.425 179.308Z" fill="#A81B34" shape-rendering="crispEdges"/>
    <path d="M94.404 179L93.4265 179.211L93.5967 180H94.404V179ZM90.176 159.4V158.4H88.9373L89.1985 159.611L90.176 159.4ZM92.36 159.4L93.3395 159.199L93.1754 158.4H92.36V159.4ZM95.692 175.612L94.7125 175.813L96.6501 175.898L95.692 175.612ZM100.536 159.4V158.4H99.7911L99.5779 159.114L100.536 159.4ZM102.636 159.4L103.594 159.113L103.38 158.4H102.636V159.4ZM107.48 175.556L106.522 175.843L108.459 175.76L107.48 175.556ZM110.84 159.4V158.4H110.027L109.861 159.196L110.84 159.4ZM112.94 159.4L113.918 159.611L114.179 158.4H112.94V159.4ZM108.712 179V180H109.519L109.69 179.211L108.712 179ZM106.528 179L105.57 179.286L105.783 180H106.528V179ZM101.572 162.368L102.53 162.082L101.575 158.875L100.614 162.081L101.572 162.368ZM96.588 179V180H97.3323L97.5459 179.287L96.588 179ZM95.3815 178.789L91.1535 159.189L89.1985 159.611L93.4265 179.211L95.3815 178.789ZM90.176 160.4H92.36V158.4H90.176V160.4ZM91.3805 159.601L94.7125 175.813L96.6715 175.411L93.3395 159.199L91.3805 159.601ZM96.6501 175.898L101.494 159.686L99.5779 159.114L94.7339 175.326L96.6501 175.898ZM100.536 160.4H102.636V158.4H100.536V160.4ZM101.678 159.687L106.522 175.843L108.438 175.269L103.594 159.113L101.678 159.687ZM108.459 175.76L111.819 159.604L109.861 159.196L106.501 175.352L108.459 175.76ZM110.84 160.4H112.94V158.4H110.84V160.4ZM111.962 159.189L107.734 178.789L109.69 179.211L113.918 159.611L111.962 159.189ZM108.712 178H106.528V180H108.712V178ZM107.486 178.714L102.53 162.082L100.614 162.654L105.57 179.286L107.486 178.714ZM100.614 162.081L95.6301 178.713L97.5459 179.287L102.53 162.655L100.614 162.081ZM96.588 178H94.404V180H96.588V178ZM116.593 179H115.593V180H116.593V179ZM116.593 159.4V158.4H115.593V159.4H116.593ZM118.749 159.4H119.749V158.4H118.749V159.4ZM118.749 179V180H119.749V179H118.749ZM117.593 179V159.4H115.593V179H117.593ZM116.593 160.4H118.749V158.4H116.593V160.4ZM117.749 159.4V179H119.749V159.4H117.749ZM118.749 178H116.593V180H118.749V178ZM125.775 178.496L125.381 179.415L125.392 179.42L125.775 178.496ZM121.995 175.976L121.229 175.333L120.616 176.064L121.317 176.711L121.995 175.976ZM123.311 174.408L123.994 173.678L123.224 172.956L122.545 173.765L123.311 174.408ZM126.615 176.76L126.201 177.67L126.207 177.673L126.615 176.76ZM132.775 176.956L133.169 177.875L133.179 177.871L132.775 176.956ZM134.651 175.528L133.851 174.928L134.651 175.528ZM134.343 171.244L133.718 172.025L133.725 172.03L133.732 172.036L134.343 171.244ZM130.955 170.04L131.127 169.055L131.121 169.054L130.955 170.04ZM127.791 169.508L127.617 170.493L127.625 170.494L127.791 169.508ZM123.843 167.884L123.152 168.607L123.161 168.615L123.169 168.623L123.843 167.884ZM123.451 161.836L122.622 161.277L122.619 161.281L123.451 161.836ZM125.831 159.82L125.397 158.919L125.397 158.919L125.831 159.82ZM133.391 159.708L133.079 160.658L133.092 160.662L133.391 159.708ZM137.087 161.584L137.919 162.139L138.458 161.33L137.665 160.768L137.087 161.584ZM135.967 163.264L135.362 164.06L136.209 164.703L136.799 163.819L135.967 163.264ZM132.775 161.528L132.431 162.467L132.438 162.469L132.445 162.472L132.775 161.528ZM126.923 161.388L126.515 160.475L126.505 160.479L126.923 161.388ZM125.271 162.676L124.474 162.072L124.468 162.08L124.461 162.089L125.271 162.676ZM125.551 166.54L124.908 167.306L124.908 167.306L125.551 166.54ZM128.379 167.576L128.546 166.59L128.534 166.588L128.379 167.576ZM131.515 168.108L131.691 167.124L131.682 167.122L131.515 168.108ZM136.051 169.928L135.382 170.671L135.39 170.678L135.398 170.685L136.051 169.928ZM136.499 176.424L135.691 175.835L135.683 175.846L136.499 176.424ZM133.867 178.552L134.277 179.464L134.29 179.458L133.867 178.552ZM130.031 178.308C128.621 178.308 127.333 178.059 126.158 177.572L125.392 179.42C126.83 180.015 128.38 180.308 130.031 180.308V178.308ZM126.169 177.577C124.982 177.068 123.816 176.296 122.673 175.241L121.317 176.711C122.6 177.896 123.954 178.804 125.381 179.415L126.169 177.577ZM122.761 176.619L124.077 175.051L122.545 173.765L121.229 175.333L122.761 176.619ZM122.627 175.138C123.852 176.285 125.043 177.144 126.201 177.67L127.029 175.85C126.134 175.443 125.122 174.734 123.994 173.678L122.627 175.138ZM126.207 177.673C127.394 178.203 128.693 178.46 130.087 178.46V176.46C128.943 176.46 127.926 176.25 127.023 175.847L126.207 177.673ZM130.087 178.46C131.206 178.46 132.24 178.273 133.169 177.875L132.381 176.037C131.742 176.311 130.984 176.46 130.087 176.46V178.46ZM133.179 177.871C134.111 177.459 134.883 176.885 135.451 176.128L133.851 174.928C133.522 175.366 133.044 175.744 132.371 176.041L133.179 177.871ZM135.451 176.128C136.032 175.353 136.323 174.46 136.323 173.484H134.323C134.323 174.039 134.166 174.508 133.851 174.928L135.451 176.128ZM136.323 173.484C136.323 172.254 135.902 171.184 134.954 170.452L133.732 172.036C134.09 172.312 134.323 172.736 134.323 173.484H136.323ZM134.968 170.463C134.109 169.776 132.769 169.341 131.127 169.055L130.783 171.025C132.352 171.299 133.27 171.667 133.718 172.025L134.968 170.463ZM131.121 169.054L127.957 168.522L127.625 170.494L130.789 171.026L131.121 169.054ZM127.965 168.523C126.258 168.221 125.156 167.728 124.516 167.145L123.169 168.623C124.21 169.571 125.74 170.16 127.617 170.493L127.965 168.523ZM124.533 167.161C123.94 166.594 123.611 165.826 123.611 164.748H121.611C121.611 166.283 122.103 167.606 123.152 168.607L124.533 167.161ZM123.611 164.748C123.611 163.825 123.842 163.052 124.283 162.391L122.619 161.281C121.939 162.3 121.611 163.468 121.611 164.748H123.611ZM124.28 162.395C124.752 161.695 125.403 161.136 126.265 160.721L125.397 158.919C124.243 159.475 123.307 160.26 122.622 161.277L124.28 162.395ZM126.265 160.721C127.115 160.312 128.128 160.092 129.331 160.092V158.092C127.883 158.092 126.563 158.358 125.397 158.919L126.265 160.721ZM129.331 160.092C130.692 160.092 131.939 160.284 133.079 160.658L133.703 158.758C132.341 158.311 130.882 158.092 129.331 158.092V160.092ZM133.092 160.662C134.231 161.019 135.37 161.594 136.509 162.4L137.665 160.768C136.377 159.857 135.053 159.181 133.69 158.754L133.092 160.662ZM136.255 161.029L135.135 162.709L136.799 163.819L137.919 162.139L136.255 161.029ZM136.572 162.468C135.486 161.643 134.33 161.013 133.105 160.584L132.445 162.472C133.46 162.827 134.432 163.354 135.362 164.06L136.572 162.468ZM133.119 160.589C131.892 160.139 130.637 159.912 129.359 159.912V161.912C130.395 161.912 131.418 162.095 132.431 162.467L133.119 160.589ZM129.359 159.912C128.328 159.912 127.373 160.091 126.515 160.475L127.331 162.301C127.891 162.05 128.56 161.912 129.359 161.912V159.912ZM126.505 160.479C125.683 160.857 124.996 161.384 124.474 162.072L126.068 163.28C126.368 162.885 126.781 162.554 127.34 162.297L126.505 160.479ZM124.461 162.089C123.941 162.807 123.683 163.63 123.683 164.524H125.683C125.683 164.036 125.817 163.627 126.081 163.263L124.461 162.089ZM123.683 164.524C123.683 165.633 124.071 166.604 124.908 167.306L126.194 165.774C125.874 165.506 125.683 165.132 125.683 164.524H123.683ZM124.908 167.306C125.696 167.966 126.855 168.349 128.224 168.564L128.534 166.588C127.29 166.393 126.564 166.084 126.194 165.774L124.908 167.306ZM128.212 168.562L131.348 169.094L131.682 167.122L128.546 166.59L128.212 168.562ZM131.339 169.092C133.359 169.453 134.653 170.015 135.382 170.671L136.72 169.185C135.582 168.161 133.852 167.51 131.691 167.124L131.339 169.092ZM135.398 170.685C136.091 171.283 136.479 172.133 136.479 173.372H138.479C138.479 171.662 137.915 170.216 136.704 169.171L135.398 170.685ZM136.479 173.372C136.479 174.305 136.216 175.115 135.691 175.835L137.307 177.013C138.089 175.941 138.479 174.716 138.479 173.372H136.479ZM135.683 175.846C135.161 176.583 134.427 177.187 133.444 177.646L134.29 179.458C135.547 178.872 136.568 178.057 137.315 177.002L135.683 175.846ZM133.457 177.64C132.486 178.077 131.351 178.308 130.031 178.308V180.308C131.586 180.308 133.008 180.035 134.277 179.464L133.457 177.64ZM141.12 179H140.12V180H141.12V179ZM141.12 159.4V158.4H140.12V159.4H141.12ZM143.276 159.4H144.276V158.4H143.276V159.4ZM143.276 168.164H142.276V169.164H143.276V168.164ZM154.532 168.164V169.164H155.532V168.164H154.532ZM154.532 159.4V158.4H153.532V159.4H154.532ZM156.688 159.4H157.688V158.4H156.688V159.4ZM156.688 179V180H157.688V179H156.688ZM154.532 179H153.532V180H154.532V179ZM154.532 170.096H155.532V169.096H154.532V170.096ZM143.276 170.096V169.096H142.276V170.096H143.276ZM143.276 179V180H144.276V179H143.276ZM142.12 179V159.4H140.12V179H142.12ZM141.12 160.4H143.276V158.4H141.12V160.4ZM142.276 159.4V168.164H144.276V159.4H142.276ZM143.276 169.164H154.532V167.164H143.276V169.164ZM155.532 168.164V159.4H153.532V168.164H155.532ZM154.532 160.4H156.688V158.4H154.532V160.4ZM155.688 159.4V179H157.688V159.4H155.688ZM156.688 178H154.532V180H156.688V178ZM155.532 179V170.096H153.532V179H155.532ZM154.532 169.096H143.276V171.096H154.532V169.096ZM142.276 170.096V179H144.276V170.096H142.276ZM143.276 178H141.12V180H143.276V178ZM161.628 179H160.628V180H161.628V179ZM161.628 159.4V158.4H160.628V159.4H161.628ZM163.784 159.4H164.784V158.4H163.784V159.4ZM163.784 179V180H164.784V179H163.784ZM162.628 179V159.4H160.628V179H162.628ZM161.628 160.4H163.784V158.4H161.628V160.4ZM162.784 159.4V179H164.784V159.4H162.784ZM163.784 178H161.628V180H163.784V178ZM168.738 179H167.738V180H168.738V179ZM168.738 159.4V158.4H167.738V159.4H168.738ZM170.978 159.4L171.795 158.823L171.496 158.4H170.978V159.4ZM182.458 175.64L181.642 176.217L183.469 178.802L183.458 175.637L182.458 175.64ZM182.402 159.4V158.4H181.399L181.402 159.403L182.402 159.4ZM184.446 159.4H185.446V158.4H184.446V159.4ZM184.446 179V180H185.446V179H184.446ZM182.486 179L181.67 179.578L181.969 180H182.486V179ZM170.726 162.396L171.542 161.818L169.715 159.239L169.726 162.399L170.726 162.396ZM170.782 179V180H171.785L171.782 178.997L170.782 179ZM169.738 179V159.4H167.738V179H169.738ZM168.738 160.4H170.978V158.4H168.738V160.4ZM170.162 159.977L181.642 176.217L183.275 175.063L171.795 158.823L170.162 159.977ZM183.458 175.637L183.402 159.397L181.402 159.403L181.458 175.643L183.458 175.637ZM182.402 160.4H184.446V158.4H182.402V160.4ZM183.446 159.4V179H185.446V159.4H183.446ZM184.446 178H182.486V180H184.446V178ZM183.302 178.422L171.542 161.818L169.91 162.974L181.67 179.578L183.302 178.422ZM169.726 162.399L169.782 179.003L171.782 178.997L171.726 162.393L169.726 162.399ZM170.782 178H168.738V180H170.782V178ZM194.533 178.524L194.934 177.608L194.934 177.608L194.533 178.524ZM191.369 176.368L190.648 177.061L190.655 177.068L190.662 177.075L191.369 176.368ZM189.269 173.148L188.344 173.527L188.346 173.532L189.269 173.148ZM189.269 165.28L190.193 165.664L190.195 165.659L189.269 165.28ZM191.369 162.06L190.655 161.36L190.655 161.36L191.369 162.06ZM194.533 159.876L194.934 160.792L194.934 160.792L194.533 159.876ZM202.653 159.904L202.275 160.83L202.28 160.832L202.653 159.904ZM206.069 162.312L206.776 163.019L207.439 162.357L206.821 161.653L206.069 162.312ZM204.613 163.768L203.844 164.407L204.544 165.251L205.32 164.475L204.613 163.768ZM201.869 161.752L202.259 160.831L202.259 160.831L201.869 161.752ZM195.373 161.696L195.776 162.611L195.784 162.608L195.791 162.604L195.373 161.696ZM192.909 163.432L192.184 162.743L192.184 162.744L192.909 163.432ZM191.285 166.008L190.356 165.64L190.356 165.64L191.285 166.008ZM191.285 172.392L190.356 172.76L190.356 172.76L191.285 172.392ZM192.909 174.996L192.175 175.675L192.184 175.685L192.193 175.694L192.909 174.996ZM195.373 176.732L194.955 177.64L194.963 177.644L194.971 177.647L195.373 176.732ZM201.925 176.48L201.441 175.605L201.434 175.609L201.925 176.48ZM204.445 174.1L203.602 173.563L203.599 173.567L204.445 174.1ZM205.593 170.656L206.589 170.744L206.685 169.656H205.593V170.656ZM198.985 170.656H197.985V171.656H198.985V170.656ZM198.985 168.752V167.752H197.985V168.752H198.985ZM207.777 168.752H208.777V167.752H207.777V168.752ZM207.077 173.428L208.005 173.802L208.007 173.797L207.077 173.428ZM205.089 176.508L204.367 175.816L204.367 175.816L205.089 176.508ZM202.121 178.58L202.513 179.5L202.526 179.494L202.121 178.58ZM198.425 178.308C197.153 178.308 195.993 178.071 194.934 177.608L194.132 179.44C195.463 180.022 196.898 180.308 198.425 180.308V178.308ZM194.934 177.608C193.853 177.135 192.902 176.487 192.076 175.661L190.662 177.075C191.666 178.079 192.825 178.868 194.132 179.44L194.934 177.608ZM192.091 175.675C191.282 174.833 190.65 173.865 190.193 172.764L188.346 173.532C188.897 174.858 189.665 176.036 190.648 177.061L192.091 175.675ZM190.195 172.769C189.743 171.664 189.513 170.477 189.513 169.2H187.513C187.513 170.723 187.788 172.168 188.344 173.527L190.195 172.769ZM189.513 169.2C189.513 167.923 189.743 166.748 190.193 165.664L188.346 164.896C187.788 166.239 187.513 167.677 187.513 169.2H189.513ZM190.195 165.659C190.652 164.542 191.282 163.578 192.084 162.76L190.655 161.36C189.665 162.371 188.895 163.554 188.344 164.901L190.195 165.659ZM192.084 162.76C192.909 161.918 193.857 161.263 194.934 160.792L194.132 158.96C192.82 159.534 191.659 160.335 190.655 161.36L192.084 162.76ZM194.934 160.792C195.993 160.329 197.153 160.092 198.425 160.092V158.092C196.898 158.092 195.463 158.378 194.132 158.96L194.934 160.792ZM198.425 160.092C199.795 160.092 201.075 160.34 202.275 160.83L203.031 158.978C201.581 158.386 200.043 158.092 198.425 158.092V160.092ZM202.28 160.832C203.482 161.316 204.49 162.028 205.318 162.971L206.821 161.653C205.782 160.468 204.513 159.575 203.027 158.976L202.28 160.832ZM205.362 161.605L203.906 163.061L205.32 164.475L206.776 163.019L205.362 161.605ZM205.383 163.129C204.548 162.123 203.501 161.357 202.259 160.831L201.479 162.673C202.441 163.08 203.223 163.658 203.844 164.407L205.383 163.129ZM202.259 160.831C201.035 160.312 199.754 160.052 198.425 160.052V162.052C199.486 162.052 200.501 162.258 201.479 162.673L202.259 160.831ZM198.425 160.052C197.19 160.052 196.029 160.294 194.955 160.788L195.791 162.604C196.584 162.24 197.458 162.052 198.425 162.052V160.052ZM194.971 160.781C193.915 161.245 192.984 161.901 192.184 162.743L193.634 164.121C194.253 163.469 194.965 162.968 195.776 162.611L194.971 160.781ZM192.184 162.744C191.4 163.57 190.792 164.539 190.356 165.64L192.215 166.376C192.563 165.498 193.037 164.75 193.635 164.12L192.184 162.744ZM190.356 165.64C189.914 166.754 189.697 167.944 189.697 169.2H191.697C191.697 168.179 191.873 167.24 192.215 166.376L190.356 165.64ZM189.697 169.2C189.697 170.456 189.914 171.646 190.356 172.76L192.215 172.024C191.873 171.16 191.697 170.221 191.697 169.2H189.697ZM190.356 172.76C190.791 173.859 191.397 174.834 192.175 175.675L193.643 174.317C193.04 173.665 192.564 172.904 192.215 172.024L190.356 172.76ZM192.193 175.694C192.989 176.511 193.912 177.16 194.955 177.64L195.791 175.824C194.968 175.445 194.248 174.937 193.626 174.298L192.193 175.694ZM194.971 177.647C196.041 178.118 197.197 178.348 198.425 178.348V176.348C197.451 176.348 196.573 176.167 195.776 175.817L194.971 177.647ZM198.425 178.348C199.885 178.348 201.224 178.023 202.416 177.351L201.434 175.609C200.573 176.094 199.579 176.348 198.425 176.348V178.348ZM202.41 177.355C203.602 176.695 204.567 175.784 205.292 174.633L203.599 173.567C203.055 174.432 202.339 175.108 201.441 175.605L202.41 177.355ZM205.289 174.637C206.032 173.469 206.464 172.165 206.589 170.744L204.597 170.568C204.499 171.685 204.165 172.678 203.602 173.563L205.289 174.637ZM205.593 169.656H198.985V171.656H205.593V169.656ZM199.985 170.656V168.752H197.985V170.656H199.985ZM198.985 169.752H207.777V167.752H198.985V169.752ZM206.777 168.752V169.62H208.777V168.752H206.777ZM206.777 169.62C206.777 170.866 206.564 172.009 206.148 173.059L208.007 173.797C208.524 172.495 208.777 171.099 208.777 169.62H206.777ZM206.15 173.054C205.731 174.094 205.137 175.013 204.367 175.816L205.811 177.2C206.759 176.211 207.491 175.077 208.005 173.802L206.15 173.054ZM204.367 175.816C203.62 176.597 202.739 177.213 201.717 177.666L202.526 179.494C203.781 178.939 204.879 178.174 205.812 177.2L204.367 175.816ZM201.729 177.66C200.723 178.089 199.626 178.308 198.425 178.308V180.308C199.876 180.308 201.242 180.042 202.513 179.5L201.729 177.66Z" fill="black" fill-opacity="0.2"/>
    </g>
    <path d="M214.56 176.82L215.5 175.7C216.34 176.487 217.127 177.047 217.86 177.38C218.607 177.713 219.433 177.88 220.34 177.88C221.42 177.88 222.313 177.613 223.02 177.08C223.727 176.533 224.08 175.86 224.08 175.06C224.08 174.367 223.84 173.833 223.36 173.46C222.893 173.087 222.093 172.8 220.96 172.6L218.7 172.22C217.42 171.993 216.48 171.607 215.88 171.06C215.293 170.5 215 169.753 215 168.82C215 167.647 215.447 166.687 216.34 165.94C217.233 165.193 218.387 164.82 219.8 164.82C220.84 164.82 221.807 164.967 222.7 165.26C223.593 165.54 224.473 165.987 225.34 166.6L224.54 167.8C223.82 167.267 223.053 166.853 222.24 166.56C221.44 166.267 220.633 166.12 219.82 166.12C218.847 166.12 218.047 166.367 217.42 166.86C216.793 167.34 216.48 167.94 216.48 168.66C216.48 169.273 216.687 169.753 217.1 170.1C217.513 170.447 218.187 170.693 219.12 170.84L221.36 171.22C222.84 171.487 223.92 171.92 224.6 172.52C225.28 173.12 225.62 173.94 225.62 174.98C225.62 175.58 225.487 176.14 225.22 176.66C224.953 177.18 224.58 177.627 224.1 178C223.633 178.373 223.073 178.667 222.42 178.88C221.767 179.093 221.06 179.2 220.3 179.2C219.207 179.2 218.187 179.007 217.24 178.62C216.307 178.22 215.413 177.62 214.56 176.82ZM226.728 166.36V165H237.928V166.36H233.108V179H231.568V166.36H226.728ZM236.524 179L242.064 165H243.904L249.364 179H247.704L246.044 174.6H239.804L238.144 179H236.524ZM240.284 173.38H245.584L242.924 166.38L240.284 173.38ZM251.327 179V165H257.067C258.4 165 259.474 165.373 260.287 166.12C261.114 166.867 261.527 167.84 261.527 169.04C261.527 169.96 261.26 170.76 260.727 171.44C260.207 172.107 259.5 172.567 258.607 172.82L261.587 179H259.887L257.047 173.02H252.867V179H251.327ZM256.947 166.36H252.867V171.74H256.947C257.867 171.74 258.6 171.493 259.147 171C259.707 170.507 259.987 169.86 259.987 169.06C259.987 168.247 259.707 167.593 259.147 167.1C258.6 166.607 257.867 166.36 256.947 166.36ZM262.665 166.36V165H273.865V166.36H269.045V179H267.505V166.36H262.665Z" fill="black"/>
    <g filter="url(#filter4_d_7_105)">
    <path d="M283.648 177.068H288.128C289.547 177.068 290.816 176.723 291.936 176.032C293.056 175.341 293.943 174.408 294.596 173.232C295.268 172.037 295.604 170.693 295.604 169.2C295.604 167.707 295.268 166.372 294.596 165.196C293.943 164.001 293.056 163.059 291.936 162.368C290.816 161.677 289.547 161.332 288.128 161.332H283.648V177.068ZM281.492 179V159.4H287.988C289.425 159.4 290.741 159.652 291.936 160.156C293.149 160.641 294.185 161.332 295.044 162.228C295.921 163.105 296.593 164.141 297.06 165.336C297.545 166.512 297.788 167.8 297.788 169.2C297.788 170.6 297.545 171.897 297.06 173.092C296.593 174.268 295.921 175.304 295.044 176.2C294.185 177.077 293.149 177.768 291.936 178.272C290.741 178.757 289.425 179 287.988 179H281.492ZM310.711 179.308C309.348 179.308 308.079 179.056 306.903 178.552C305.727 178.029 304.691 177.311 303.795 176.396C302.918 175.463 302.227 174.389 301.723 173.176C301.219 171.944 300.967 170.619 300.967 169.2C300.967 167.781 301.219 166.465 301.723 165.252C302.227 164.02 302.918 162.947 303.795 162.032C304.691 161.099 305.727 160.38 306.903 159.876C308.079 159.353 309.348 159.092 310.711 159.092C312.074 159.092 313.343 159.353 314.519 159.876C315.695 160.38 316.722 161.099 317.599 162.032C318.495 162.947 319.195 164.02 319.699 165.252C320.203 166.465 320.455 167.781 320.455 169.2C320.455 170.619 320.203 171.944 319.699 173.176C319.195 174.389 318.495 175.463 317.599 176.396C316.722 177.311 315.695 178.029 314.519 178.552C313.343 179.056 312.074 179.308 310.711 179.308ZM310.711 177.348C311.775 177.348 312.764 177.143 313.679 176.732C314.594 176.321 315.396 175.743 316.087 174.996C316.778 174.249 317.31 173.381 317.683 172.392C318.075 171.403 318.271 170.339 318.271 169.2C318.271 168.043 318.075 166.979 317.683 166.008C317.31 165.019 316.778 164.151 316.087 163.404C315.396 162.657 314.594 162.079 313.679 161.668C312.764 161.257 311.775 161.052 310.711 161.052C309.647 161.052 308.658 161.257 307.743 161.668C306.828 162.079 306.026 162.657 305.335 163.404C304.644 164.151 304.103 165.019 303.711 166.008C303.338 166.979 303.151 168.033 303.151 169.172C303.151 170.329 303.338 171.403 303.711 172.392C304.103 173.381 304.644 174.249 305.335 174.996C306.026 175.743 306.828 176.321 307.743 176.732C308.658 177.143 309.647 177.348 310.711 177.348ZM324.503 179V159.4H326.659V179H324.503ZM331.613 179V159.4H333.853L345.333 175.64L345.277 159.4H347.321V179H345.361L333.601 162.396L333.657 179H331.613ZM361.3 179.308C359.9 179.308 358.603 179.047 357.408 178.524C356.214 178.001 355.159 177.283 354.244 176.368C353.348 175.435 352.648 174.361 352.144 173.148C351.64 171.916 351.388 170.6 351.388 169.2C351.388 167.8 351.64 166.493 352.144 165.28C352.648 164.048 353.348 162.975 354.244 162.06C355.159 161.127 356.214 160.399 357.408 159.876C358.603 159.353 359.9 159.092 361.3 159.092C362.794 159.092 364.203 159.363 365.528 159.904C366.872 160.445 368.011 161.248 368.944 162.312L367.488 163.768C366.76 162.891 365.846 162.219 364.744 161.752C363.643 161.285 362.495 161.052 361.3 161.052C360.199 161.052 359.182 161.267 358.248 161.696C357.315 162.107 356.494 162.685 355.784 163.432C355.094 164.16 354.552 165.019 354.16 166.008C353.768 166.997 353.572 168.061 353.572 169.2C353.572 170.339 353.768 171.403 354.16 172.392C354.552 173.381 355.094 174.249 355.784 174.996C356.494 175.724 357.315 176.303 358.248 176.732C359.182 177.143 360.199 177.348 361.3 177.348C362.607 177.348 363.774 177.059 364.8 176.48C365.846 175.901 366.686 175.108 367.32 174.1C367.974 173.073 368.356 171.925 368.468 170.656H361.86V168.752H370.652V169.62C370.652 170.983 370.419 172.252 369.952 173.428C369.486 174.585 368.823 175.612 367.964 176.508C367.124 177.385 366.135 178.076 364.996 178.58C363.858 179.065 362.626 179.308 361.3 179.308Z" fill="#607FE8" shape-rendering="crispEdges"/>
    <path d="M283.648 177.068H282.648V178.068H283.648V177.068ZM291.936 176.032L292.461 176.883L291.936 176.032ZM294.596 173.232L293.724 172.742L293.722 172.746L294.596 173.232ZM294.596 165.196L293.719 165.676L293.723 165.684L293.728 165.692L294.596 165.196ZM291.936 162.368L292.461 161.517L291.936 162.368ZM283.648 161.332V160.332H282.648V161.332H283.648ZM281.492 179H280.492V180H281.492V179ZM281.492 159.4V158.4H280.492V159.4H281.492ZM291.936 160.156L291.547 161.077L291.556 161.081L291.565 161.084L291.936 160.156ZM295.044 162.228L294.322 162.92L294.329 162.928L294.337 162.935L295.044 162.228ZM297.06 165.336L296.129 165.7L296.132 165.709L296.136 165.717L297.06 165.336ZM297.06 173.092L296.134 172.716L296.131 172.723L297.06 173.092ZM295.044 176.2L294.329 175.5L294.329 175.501L295.044 176.2ZM291.936 178.272L292.312 179.198L292.32 179.195L291.936 178.272ZM283.648 178.068H288.128V176.068H283.648V178.068ZM288.128 178.068C289.717 178.068 291.171 177.679 292.461 176.883L291.411 175.181C290.461 175.767 289.376 176.068 288.128 176.068V178.068ZM292.461 176.883C293.73 176.101 294.736 175.04 295.47 173.718L293.722 172.746C293.15 173.776 292.382 174.582 291.411 175.181L292.461 176.883ZM295.468 173.722C296.231 172.365 296.604 170.849 296.604 169.2H294.604C294.604 170.537 294.305 171.71 293.724 172.742L295.468 173.722ZM296.604 169.2C296.604 167.551 296.231 166.042 295.464 164.7L293.728 165.692C294.305 166.702 294.604 167.862 294.604 169.2H296.604ZM295.473 164.716C294.74 163.375 293.734 162.302 292.461 161.517L291.411 163.219C292.378 163.815 293.146 164.628 293.719 165.676L295.473 164.716ZM292.461 161.517C291.171 160.721 289.717 160.332 288.128 160.332V162.332C289.376 162.332 290.461 162.633 291.411 163.219L292.461 161.517ZM288.128 160.332H283.648V162.332H288.128V160.332ZM282.648 161.332V177.068H284.648V161.332H282.648ZM282.492 179V159.4H280.492V179H282.492ZM281.492 160.4H287.988V158.4H281.492V160.4ZM287.988 160.4C289.306 160.4 290.488 160.631 291.547 161.077L292.325 159.235C290.994 158.673 289.544 158.4 287.988 158.4V160.4ZM291.565 161.084C292.653 161.52 293.567 162.132 294.322 162.92L295.766 161.536C294.803 160.532 293.646 159.763 292.307 159.228L291.565 161.084ZM294.337 162.935C295.113 163.711 295.71 164.629 296.129 165.7L297.991 164.972C297.476 163.653 296.729 162.499 295.751 161.521L294.337 162.935ZM296.136 165.717C296.566 166.761 296.788 167.918 296.788 169.2H298.788C298.788 167.682 298.524 166.263 297.984 164.955L296.136 165.717ZM296.788 169.2C296.788 170.482 296.566 171.65 296.134 172.716L297.986 173.468C298.524 172.144 298.788 170.718 298.788 169.2H296.788ZM296.131 172.723C295.712 173.777 295.113 174.7 294.329 175.5L295.759 176.9C296.73 175.908 297.474 174.759 297.989 173.461L296.131 172.723ZM294.329 175.501C293.571 176.275 292.65 176.892 291.552 177.349L292.32 179.195C293.648 178.644 294.799 177.88 295.759 176.899L294.329 175.501ZM291.56 177.346C290.497 177.777 289.311 178 287.988 178V180C289.54 180 290.985 179.738 292.312 179.198L291.56 177.346ZM287.988 178H281.492V180H287.988V178ZM306.903 178.552L306.497 179.466L306.509 179.471L306.903 178.552ZM303.795 176.396L303.066 177.081L303.074 177.088L303.081 177.096L303.795 176.396ZM301.723 173.176L300.798 173.555L300.8 173.56L301.723 173.176ZM301.723 165.252L302.647 165.636L302.649 165.631L301.723 165.252ZM303.795 162.032L303.074 161.339L303.073 161.34L303.795 162.032ZM306.903 159.876L307.297 160.795L307.309 160.79L306.903 159.876ZM314.519 159.876L314.113 160.79L314.125 160.795L314.519 159.876ZM317.599 162.032L316.87 162.717L316.878 162.724L316.885 162.732L317.599 162.032ZM319.699 165.252L318.774 165.631L318.776 165.636L319.699 165.252ZM319.699 173.176L320.623 173.56L320.625 173.555L319.699 173.176ZM317.599 176.396L316.878 175.703L316.877 175.704L317.599 176.396ZM314.519 178.552L314.913 179.471L314.925 179.466L314.519 178.552ZM313.679 176.732L314.089 177.644L314.089 177.644L313.679 176.732ZM316.087 174.996L316.821 175.675L316.821 175.675L316.087 174.996ZM317.683 172.392L316.753 172.024L316.75 172.031L316.747 172.039L317.683 172.392ZM317.683 166.008L316.747 166.361L316.752 166.372L316.756 166.382L317.683 166.008ZM316.087 163.404L316.821 162.725L316.821 162.725L316.087 163.404ZM313.679 161.668L314.089 160.756L314.089 160.756L313.679 161.668ZM307.743 161.668L308.153 162.58L308.153 162.58L307.743 161.668ZM305.335 163.404L304.601 162.725L304.601 162.725L305.335 163.404ZM303.711 166.008L302.781 165.64L302.778 165.649L303.711 166.008ZM303.711 172.392L302.775 172.745L302.778 172.753L302.781 172.76L303.711 172.392ZM305.335 174.996L306.069 174.317L306.069 174.317L305.335 174.996ZM307.743 176.732L308.153 175.82L308.153 175.82L307.743 176.732ZM310.711 178.308C309.475 178.308 308.341 178.08 307.297 177.633L306.509 179.471C307.818 180.032 309.222 180.308 310.711 180.308V178.308ZM307.309 177.638C306.248 177.167 305.317 176.52 304.509 175.696L303.081 177.096C304.066 178.101 305.206 178.892 306.497 179.466L307.309 177.638ZM304.524 175.711C303.731 174.868 303.106 173.897 302.647 172.792L300.8 173.56C301.349 174.881 302.104 176.057 303.066 177.081L304.524 175.711ZM302.649 172.797C302.197 171.693 301.967 170.497 301.967 169.2H299.967C299.967 170.74 300.241 172.195 300.798 173.555L302.649 172.797ZM301.967 169.2C301.967 167.902 302.197 166.718 302.647 165.636L300.8 164.868C300.241 166.213 299.967 167.66 299.967 169.2H301.967ZM302.649 165.631C303.107 164.509 303.731 163.544 304.517 162.724L303.073 161.34C302.105 162.35 301.347 163.531 300.798 164.873L302.649 165.631ZM304.516 162.725C305.321 161.887 306.246 161.246 307.297 160.795L306.509 158.957C305.209 159.514 304.061 160.311 303.074 161.339L304.516 162.725ZM307.309 160.79C308.35 160.327 309.48 160.092 310.711 160.092V158.092C309.217 158.092 307.808 158.379 306.497 158.962L307.309 160.79ZM310.711 160.092C311.942 160.092 313.072 160.327 314.113 160.79L314.925 158.962C313.614 158.379 312.205 158.092 310.711 158.092V160.092ZM314.125 160.795C315.175 161.245 316.087 161.884 316.87 162.717L318.328 161.347C317.356 160.314 316.216 159.515 314.913 158.957L314.125 160.795ZM316.885 162.732C317.687 163.55 318.317 164.514 318.774 165.631L320.625 164.873C320.074 163.526 319.304 162.343 318.313 161.332L316.885 162.732ZM318.776 165.636C319.225 166.718 319.455 167.902 319.455 169.2H321.455C321.455 167.66 321.181 166.213 320.623 164.868L318.776 165.636ZM319.455 169.2C319.455 170.497 319.225 171.693 318.774 172.797L320.625 173.555C321.181 172.195 321.455 170.74 321.455 169.2H319.455ZM318.776 172.792C318.318 173.893 317.686 174.861 316.878 175.703L318.32 177.089C319.304 176.064 320.072 174.886 320.623 173.56L318.776 172.792ZM316.877 175.704C316.091 176.523 315.172 177.167 314.113 177.638L314.925 179.466C316.218 178.891 317.352 178.098 318.321 177.088L316.877 175.704ZM314.125 177.633C313.082 178.08 311.947 178.308 310.711 178.308V180.308C312.2 180.308 313.605 180.032 314.913 179.471L314.125 177.633ZM310.711 178.348C311.907 178.348 313.037 178.116 314.089 177.644L313.27 175.82C312.491 176.169 311.643 176.348 310.711 176.348V178.348ZM314.089 177.644C315.128 177.178 316.041 176.519 316.821 175.675L315.353 174.317C314.752 174.966 314.06 175.465 313.27 175.82L314.089 177.644ZM316.821 175.675C317.603 174.83 318.202 173.85 318.619 172.745L316.747 172.039C316.418 172.913 315.953 173.669 315.353 174.317L316.821 175.675ZM318.613 172.76C319.054 171.646 319.271 170.456 319.271 169.2H317.271C317.271 170.221 317.096 171.16 316.753 172.024L318.613 172.76ZM319.271 169.2C319.271 167.928 319.055 166.735 318.61 165.634L316.756 166.382C317.095 167.222 317.271 168.157 317.271 169.2H319.271ZM318.619 165.655C318.202 164.55 317.603 163.57 316.821 162.725L315.353 164.083C315.953 164.731 316.418 165.487 316.747 166.361L318.619 165.655ZM316.821 162.725C316.041 161.881 315.128 161.222 314.089 160.756L313.27 162.58C314.06 162.935 314.752 163.434 315.353 164.083L316.821 162.725ZM314.089 160.756C313.037 160.284 311.907 160.052 310.711 160.052V162.052C311.643 162.052 312.491 162.231 313.27 162.58L314.089 160.756ZM310.711 160.052C309.515 160.052 308.385 160.284 307.334 160.756L308.153 162.58C308.931 162.231 309.779 162.052 310.711 162.052V160.052ZM307.334 160.756C306.294 161.222 305.382 161.881 304.601 162.725L306.069 164.083C306.67 163.434 307.363 162.935 308.153 162.58L307.334 160.756ZM304.601 162.725C303.823 163.566 303.217 164.541 302.781 165.64L304.641 166.376C304.989 165.496 305.466 164.735 306.069 164.083L304.601 162.725ZM302.778 165.649C302.356 166.745 302.151 167.922 302.151 169.172H304.151C304.151 168.144 304.319 167.213 304.644 166.367L302.778 165.649ZM302.151 169.172C302.151 170.439 302.356 171.633 302.775 172.745L304.647 172.039C304.32 171.173 304.151 170.22 304.151 169.172H302.151ZM302.781 172.76C303.217 173.859 303.823 174.834 304.601 175.675L306.069 174.317C305.466 173.665 304.989 172.904 304.641 172.024L302.781 172.76ZM304.601 175.675C305.382 176.519 306.294 177.178 307.334 177.644L308.153 175.82C307.363 175.465 306.67 174.966 306.069 174.317L304.601 175.675ZM307.334 177.644C308.385 178.116 309.515 178.348 310.711 178.348V176.348C309.779 176.348 308.931 176.169 308.153 175.82L307.334 177.644ZM324.503 179H323.503V180H324.503V179ZM324.503 159.4V158.4H323.503V159.4H324.503ZM326.659 159.4H327.659V158.4H326.659V159.4ZM326.659 179V180H327.659V179H326.659ZM325.503 179V159.4H323.503V179H325.503ZM324.503 160.4H326.659V158.4H324.503V160.4ZM325.659 159.4V179H327.659V159.4H325.659ZM326.659 178H324.503V180H326.659V178ZM331.613 179H330.613V180H331.613V179ZM331.613 159.4V158.4H330.613V159.4H331.613ZM333.853 159.4L334.67 158.823L334.371 158.4H333.853V159.4ZM345.333 175.64L344.517 176.217L346.344 178.802L346.333 175.637L345.333 175.64ZM345.277 159.4V158.4H344.274L344.277 159.403L345.277 159.4ZM347.321 159.4H348.321V158.4H347.321V159.4ZM347.321 179V180H348.321V179H347.321ZM345.361 179L344.545 179.578L344.844 180H345.361V179ZM333.601 162.396L334.417 161.818L332.59 159.239L332.601 162.399L333.601 162.396ZM333.657 179V180H334.66L334.657 178.997L333.657 179ZM332.613 179V159.4H330.613V179H332.613ZM331.613 160.4H333.853V158.4H331.613V160.4ZM333.037 159.977L344.517 176.217L346.15 175.063L334.67 158.823L333.037 159.977ZM346.333 175.637L346.277 159.397L344.277 159.403L344.333 175.643L346.333 175.637ZM345.277 160.4H347.321V158.4H345.277V160.4ZM346.321 159.4V179H348.321V159.4H346.321ZM347.321 178H345.361V180H347.321V178ZM346.177 178.422L334.417 161.818L332.785 162.974L344.545 179.578L346.177 178.422ZM332.601 162.399L332.657 179.003L334.657 178.997L334.601 162.393L332.601 162.399ZM333.657 178H331.613V180H333.657V178ZM357.408 178.524L357.809 177.608L357.809 177.608L357.408 178.524ZM354.244 176.368L353.523 177.061L353.53 177.068L353.537 177.075L354.244 176.368ZM352.144 173.148L351.219 173.527L351.221 173.532L352.144 173.148ZM352.144 165.28L353.068 165.664L353.07 165.659L352.144 165.28ZM354.244 162.06L353.53 161.36L353.53 161.36L354.244 162.06ZM357.408 159.876L357.809 160.792L357.809 160.792L357.408 159.876ZM365.528 159.904L365.15 160.83L365.155 160.832L365.528 159.904ZM368.944 162.312L369.651 163.019L370.314 162.357L369.696 161.653L368.944 162.312ZM367.488 163.768L366.719 164.407L367.419 165.251L368.195 164.475L367.488 163.768ZM364.744 161.752L365.134 160.831L365.134 160.831L364.744 161.752ZM358.248 161.696L358.651 162.611L358.659 162.608L358.666 162.604L358.248 161.696ZM355.784 163.432L355.059 162.743L355.059 162.744L355.784 163.432ZM354.16 166.008L353.231 165.64L353.231 165.64L354.16 166.008ZM354.16 172.392L353.231 172.76L353.231 172.76L354.16 172.392ZM355.784 174.996L355.05 175.675L355.059 175.685L355.068 175.694L355.784 174.996ZM358.248 176.732L357.83 177.64L357.838 177.644L357.846 177.647L358.248 176.732ZM364.8 176.48L364.316 175.605L364.309 175.609L364.8 176.48ZM367.32 174.1L366.477 173.563L366.474 173.567L367.32 174.1ZM368.468 170.656L369.464 170.744L369.56 169.656H368.468V170.656ZM361.86 170.656H360.86V171.656H361.86V170.656ZM361.86 168.752V167.752H360.86V168.752H361.86ZM370.652 168.752H371.652V167.752H370.652V168.752ZM369.952 173.428L370.88 173.802L370.882 173.797L369.952 173.428ZM367.964 176.508L367.242 175.816L367.242 175.816L367.964 176.508ZM364.996 178.58L365.388 179.5L365.401 179.494L364.996 178.58ZM361.3 178.308C360.028 178.308 358.868 178.071 357.809 177.608L357.007 179.44C358.338 180.022 359.773 180.308 361.3 180.308V178.308ZM357.809 177.608C356.728 177.135 355.777 176.487 354.951 175.661L353.537 177.075C354.541 178.079 355.7 178.868 357.007 179.44L357.809 177.608ZM354.966 175.675C354.157 174.833 353.525 173.865 353.068 172.764L351.221 173.532C351.772 174.858 352.54 176.036 353.523 177.061L354.966 175.675ZM353.07 172.769C352.618 171.664 352.388 170.477 352.388 169.2H350.388C350.388 170.723 350.663 172.168 351.219 173.527L353.07 172.769ZM352.388 169.2C352.388 167.923 352.618 166.748 353.068 165.664L351.221 164.896C350.663 166.239 350.388 167.677 350.388 169.2H352.388ZM353.07 165.659C353.527 164.542 354.157 163.578 354.959 162.76L353.53 161.36C352.54 162.371 351.77 163.554 351.219 164.901L353.07 165.659ZM354.959 162.76C355.784 161.918 356.732 161.263 357.809 160.792L357.007 158.96C355.695 159.534 354.534 160.335 353.53 161.36L354.959 162.76ZM357.809 160.792C358.868 160.329 360.028 160.092 361.3 160.092V158.092C359.773 158.092 358.338 158.378 357.007 158.96L357.809 160.792ZM361.3 160.092C362.67 160.092 363.95 160.34 365.15 160.83L365.906 158.978C364.456 158.386 362.918 158.092 361.3 158.092V160.092ZM365.155 160.832C366.357 161.316 367.365 162.028 368.193 162.971L369.696 161.653C368.657 160.468 367.388 159.575 365.902 158.976L365.155 160.832ZM368.237 161.605L366.781 163.061L368.195 164.475L369.651 163.019L368.237 161.605ZM368.258 163.129C367.423 162.123 366.376 161.357 365.134 160.831L364.354 162.673C365.316 163.08 366.098 163.658 366.719 164.407L368.258 163.129ZM365.134 160.831C363.91 160.312 362.629 160.052 361.3 160.052V162.052C362.361 162.052 363.376 162.258 364.354 162.673L365.134 160.831ZM361.3 160.052C360.065 160.052 358.904 160.294 357.83 160.788L358.666 162.604C359.459 162.24 360.333 162.052 361.3 162.052V160.052ZM357.846 160.781C356.79 161.245 355.859 161.901 355.059 162.743L356.509 164.121C357.128 163.469 357.84 162.968 358.651 162.611L357.846 160.781ZM355.059 162.744C354.275 163.57 353.667 164.539 353.231 165.64L355.09 166.376C355.438 165.498 355.912 164.75 356.51 164.12L355.059 162.744ZM353.231 165.64C352.789 166.754 352.572 167.944 352.572 169.2H354.572C354.572 168.179 354.748 167.24 355.09 166.376L353.231 165.64ZM352.572 169.2C352.572 170.456 352.789 171.646 353.231 172.76L355.09 172.024C354.748 171.16 354.572 170.221 354.572 169.2H352.572ZM353.231 172.76C353.666 173.859 354.272 174.834 355.05 175.675L356.518 174.317C355.915 173.665 355.439 172.904 355.09 172.024L353.231 172.76ZM355.068 175.694C355.864 176.511 356.787 177.16 357.83 177.64L358.666 175.824C357.843 175.445 357.123 174.937 356.501 174.298L355.068 175.694ZM357.846 177.647C358.916 178.118 360.072 178.348 361.3 178.348V176.348C360.326 176.348 359.448 176.167 358.651 175.817L357.846 177.647ZM361.3 178.348C362.76 178.348 364.099 178.023 365.291 177.351L364.309 175.609C363.448 176.094 362.454 176.348 361.3 176.348V178.348ZM365.285 177.355C366.477 176.695 367.442 175.784 368.167 174.633L366.474 173.567C365.93 174.432 365.214 175.108 364.316 175.605L365.285 177.355ZM368.164 174.637C368.907 173.469 369.339 172.165 369.464 170.744L367.472 170.568C367.374 171.685 367.04 172.678 366.477 173.563L368.164 174.637ZM368.468 169.656H361.86V171.656H368.468V169.656ZM362.86 170.656V168.752H360.86V170.656H362.86ZM361.86 169.752H370.652V167.752H361.86V169.752ZM369.652 168.752V169.62H371.652V168.752H369.652ZM369.652 169.62C369.652 170.866 369.439 172.009 369.023 173.059L370.882 173.797C371.399 172.495 371.652 171.099 371.652 169.62H369.652ZM369.025 173.054C368.606 174.094 368.012 175.013 367.242 175.816L368.686 177.2C369.634 176.211 370.366 175.077 370.88 173.802L369.025 173.054ZM367.242 175.816C366.495 176.597 365.614 177.213 364.592 177.666L365.401 179.494C366.656 178.939 367.754 178.174 368.687 177.2L367.242 175.816ZM364.604 177.66C363.598 178.089 362.501 178.308 361.3 178.308V180.308C362.751 180.308 364.117 180.042 365.388 179.5L364.604 177.66Z" fill="black" fill-opacity="0.2"/>
    </g>
    <path d="M32.56 176.82L33.5 175.7C34.34 176.487 35.1267 177.047 35.86 177.38C36.6067 177.713 37.4333 177.88 38.34 177.88C39.42 177.88 40.3133 177.613 41.02 177.08C41.7267 176.533 42.08 175.86 42.08 175.06C42.08 174.367 41.84 173.833 41.36 173.46C40.8933 173.087 40.0933 172.8 38.96 172.6L36.7 172.22C35.42 171.993 34.48 171.607 33.88 171.06C33.2933 170.5 33 169.753 33 168.82C33 167.647 33.4467 166.687 34.34 165.94C35.2333 165.193 36.3867 164.82 37.8 164.82C38.84 164.82 39.8067 164.967 40.7 165.26C41.5933 165.54 42.4733 165.987 43.34 166.6L42.54 167.8C41.82 167.267 41.0533 166.853 40.24 166.56C39.44 166.267 38.6333 166.12 37.82 166.12C36.8467 166.12 36.0467 166.367 35.42 166.86C34.7933 167.34 34.48 167.94 34.48 168.66C34.48 169.273 34.6867 169.753 35.1 170.1C35.5133 170.447 36.1867 170.693 37.12 170.84L39.36 171.22C40.84 171.487 41.92 171.92 42.6 172.52C43.28 173.12 43.62 173.94 43.62 174.98C43.62 175.58 43.4867 176.14 43.22 176.66C42.9533 177.18 42.58 177.627 42.1 178C41.6333 178.373 41.0733 178.667 40.42 178.88C39.7667 179.093 39.06 179.2 38.3 179.2C37.2067 179.2 36.1867 179.007 35.24 178.62C34.3067 178.22 33.4133 177.62 32.56 176.82ZM44.728 166.36V165H55.928V166.36H51.108V179H49.568V166.36H44.728ZM70.7123 172C70.7123 173 70.5323 173.947 70.1723 174.84C69.8123 175.72 69.319 176.487 68.6923 177.14C68.0657 177.78 67.3257 178.287 66.4723 178.66C65.6323 179.033 64.7257 179.22 63.7523 179.22C62.7923 179.22 61.8857 179.033 61.0323 178.66C60.179 178.287 59.439 177.78 58.8123 177.14C58.1857 176.487 57.6923 175.72 57.3323 174.84C56.9723 173.947 56.7923 173 56.7923 172C56.7923 171 56.9723 170.06 57.3323 169.18C57.6923 168.287 58.1857 167.52 58.8123 166.88C59.439 166.227 60.179 165.713 61.0323 165.34C61.8857 164.967 62.7923 164.78 63.7523 164.78C64.7257 164.78 65.6323 164.967 66.4723 165.34C67.3257 165.713 68.0657 166.227 68.6923 166.88C69.319 167.52 69.8123 168.287 70.1723 169.18C70.5323 170.06 70.7123 171 70.7123 172ZM69.1523 172C69.1523 171.187 69.0123 170.427 68.7323 169.72C68.4523 169 68.0723 168.38 67.5923 167.86C67.1123 167.34 66.539 166.933 65.8723 166.64C65.219 166.333 64.5123 166.18 63.7523 166.18C62.9923 166.18 62.279 166.333 61.6123 166.64C60.959 166.933 60.3923 167.34 59.9123 167.86C59.4323 168.38 59.0523 169 58.7723 169.72C58.4923 170.427 58.3523 171.187 58.3523 172C58.3523 172.813 58.4923 173.58 58.7723 174.3C59.0523 175.007 59.4323 175.62 59.9123 176.14C60.3923 176.66 60.959 177.073 61.6123 177.38C62.279 177.673 62.9923 177.82 63.7523 177.82C64.5123 177.82 65.219 177.673 65.8723 177.38C66.539 177.073 67.1123 176.66 67.5923 176.14C68.0723 175.62 68.4523 175.007 68.7323 174.3C69.0123 173.58 69.1523 172.813 69.1523 172ZM73.6238 179V165H79.4038C80.7504 165 81.8304 165.38 82.6438 166.14C83.4571 166.9 83.8638 167.9 83.8638 169.14C83.8638 170.38 83.4571 171.38 82.6438 172.14C81.8304 172.9 80.7504 173.28 79.4038 173.28H75.1638V179H73.6238ZM79.2238 166.36H75.1638V171.96H79.2238C80.1838 171.96 80.9371 171.707 81.4838 171.2C82.0438 170.693 82.3238 170.007 82.3238 169.14C82.3238 168.287 82.0438 167.613 81.4838 167.12C80.9371 166.613 80.1838 166.36 79.2238 166.36Z" fill="black"/>
    <defs>
    <filter id="filter0_d_7_105" x="348.915" y="99.3778" width="42.3838" height="53.0889" filterUnits="userSpaceOnUse" color-interpolation-filters="sRGB">
    <feFlood flood-opacity="0" result="BackgroundImageFix"/>
    <feColorMatrix in="SourceAlpha" type="matrix" values="0 0 0 0 0 0 0 0 0 0 0 0 0 0 0 0 0 0 127 0" result="hardAlpha"/>
    <feOffset dy="4"/>
    <feGaussianBlur stdDeviation="2"/>
    <feComposite in2="hardAlpha" operator="out"/>
    <feColorMatrix type="matrix" values="0 0 0 0 0 0 0 0 0 0 0 0 0 0 0 0 0 0 0.25 0"/>
    <feBlend mode="normal" in2="BackgroundImageFix" result="effect1_dropShadow_7_105"/>
    <feBlend mode="normal" in="SourceGraphic" in2="effect1_dropShadow_7_105" result="shape"/>
    </filter>
    <filter id="filter1_d_7_105" x="373.665" y="115.936" width="19.4202" height="42.2862" filterUnits="userSpaceOnUse" color-interpolation-filters="sRGB">
    <feFlood flood-opacity="0" result="BackgroundImageFix"/>
    <feColorMatrix in="SourceAlpha" type="matrix" values="0 0 0 0 0 0 0 0 0 0 0 0 0 0 0 0 0 0 127 0" result="hardAlpha"/>
    <feOffset dy="4"/>
    <feGaussianBlur stdDeviation="2"/>
    <feComposite in2="hardAlpha" operator="out"/>
    <feColorMatrix type="matrix" values="0 0 0 0 0 0 0 0 0 0 0 0 0 0 0 0 0 0 0.25 0"/>
    <feBlend mode="normal" in2="BackgroundImageFix" result="effect1_dropShadow_7_105"/>
    <feBlend mode="normal" in="SourceGraphic" in2="effect1_dropShadow_7_105" result="shape"/>
    </filter>
    <filter id="filter2_d_7_105" x="26.512" y="55.3151" width="357.781" height="79.992" filterUnits="userSpaceOnUse" color-interpolation-filters="sRGB">
    <feFlood flood-opacity="0" result="BackgroundImageFix"/>
    <feColorMatrix in="SourceAlpha" type="matrix" values="0 0 0 0 0 0 0 0 0 0 0 0 0 0 0 0 0 0 127 0" result="hardAlpha"/>
    <feOffset dy="4"/>
    <feGaussianBlur stdDeviation="1"/>
    <feComposite in2="hardAlpha" operator="out"/>
    <feColorMatrix type="matrix" values="0 0 0 0 0 0 0 0 0 0 0 0 0 0 0 0 0 0 0.25 0"/>
    <feBlend mode="normal" in2="BackgroundImageFix" result="effect1_dropShadow_7_105"/>
    <feBlend mode="normal" in="SourceGraphic" in2="effect1_dropShadow_7_105" result="shape"/>
    </filter>
    <filter id="filter3_d_7_105" x="86.176" y="159.092" width="125.601" height="28.216" filterUnits="userSpaceOnUse" color-interpolation-filters="sRGB">
    <feFlood flood-opacity="0" result="BackgroundImageFix"/>
    <feColorMatrix in="SourceAlpha" type="matrix" values="0 0 0 0 0 0 0 0 0 0 0 0 0 0 0 0 0 0 127 0" result="hardAlpha"/>
    <feOffset dy="4"/>
    <feGaussianBlur stdDeviation="2"/>
    <feComposite in2="hardAlpha" operator="out"/>
    <feColorMatrix type="matrix" values="0 0 0 0 0 0 0 0 0 0 0 0 0 0 0 0 0 0 0.25 0"/>
    <feBlend mode="normal" in2="BackgroundImageFix" result="effect1_dropShadow_7_105"/>
    <feBlend mode="normal" in="SourceGraphic" in2="effect1_dropShadow_7_105" result="shape"/>
    </filter>
    <filter id="filter4_d_7_105" x="277.492" y="159.092" width="97.1604" height="28.216" filterUnits="userSpaceOnUse" color-interpolation-filters="sRGB">
    <feFlood flood-opacity="0" result="BackgroundImageFix"/>
    <feColorMatrix in="SourceAlpha" type="matrix" values="0 0 0 0 0 0 0 0 0 0 0 0 0 0 0 0 0 0 127 0" result="hardAlpha"/>
    <feOffset dy="4"/>
    <feGaussianBlur stdDeviation="2"/>
    <feComposite in2="hardAlpha" operator="out"/>
    <feColorMatrix type="matrix" values="0 0 0 0 0 0 0 0 0 0 0 0 0 0 0 0 0 0 0.25 0"/>
    <feBlend mode="normal" in2="BackgroundImageFix" result="effect1_dropShadow_7_105"/>
    <feBlend mode="normal" in="SourceGraphic" in2="effect1_dropShadow_7_105" result="shape"/>
    </filter>
    <clipPath id="clip0_7_105">
    <rect width="44" height="50.8444" fill="white" transform="translate(349 99.3778)"/>
    </clipPath>
    </defs>
    </svg>
    