<svg width="411" height="229" viewBox="0 0 411 229" fill="none" xmlns="http://www.w3.org/2000/svg">
    <g clip-path="url(#clip0_1_110)" filter="url(#filter0_d_1_110)">
    <g filter="url(#filter1_d_1_110)">
    <path d="M289.84 87.9589L289.374 88.6249C289.186 88.8939 289.042 89.1808 288.939 89.4766C287.452 88.8097 285.649 89.2687 284.68 90.6524L284.214 91.3184C283.116 92.8853 283.499 95.0527 285.065 96.1498L289.652 99.3614L280.377 112.608L275.228 109.003C273.661 107.906 271.494 108.288 270.397 109.855L269.931 110.521C268.962 111.905 269.147 113.756 270.283 114.926C270.04 115.123 269.819 115.357 269.631 115.625L269.165 116.291C268.067 117.858 268.449 120.026 270.016 121.123L281.831 129.396C283.398 130.493 285.565 130.111 286.662 128.544L287.129 127.878C287.317 127.609 287.461 127.322 287.563 127.026C289.051 127.693 290.854 127.234 291.823 125.85L292.289 125.184C293.386 123.617 293.004 121.45 291.437 120.353L287.311 117.464L296.586 104.217L301.275 107.5C302.841 108.597 305.009 108.215 306.106 106.648L306.572 105.982C307.541 104.598 307.356 102.747 306.22 101.577C306.463 101.379 306.684 101.146 306.872 100.877L307.338 100.211C308.435 98.6445 308.053 96.477 306.486 95.3799L294.672 87.1071C293.105 86.0099 290.937 86.3921 289.84 87.9589ZM284.794 125.164C285.194 125.443 285.291 125.996 285.012 126.395L284.545 127.061C284.266 127.461 283.713 127.558 283.314 127.278L271.499 119.006C271.099 118.726 271.002 118.173 271.282 117.774L271.748 117.108C272.028 116.709 272.58 116.611 272.98 116.891L284.794 125.164V125.164ZM289.955 122.47C290.354 122.75 290.452 123.302 290.172 123.702L289.706 124.368C289.426 124.767 288.874 124.865 288.474 124.585L272.265 113.235C271.865 112.955 271.768 112.403 272.048 112.003L272.514 111.337C272.794 110.938 273.346 110.841 273.746 111.12L289.955 122.47ZM294.469 102.734L285.194 115.981L282.494 114.091L291.769 100.844L294.469 102.734L294.469 102.734ZM304.238 103.268C304.637 103.547 304.735 104.1 304.455 104.499L303.989 105.165C303.709 105.565 303.157 105.662 302.757 105.383L286.548 94.0326C286.148 93.7529 286.051 93.2004 286.331 92.8009L286.797 92.135C287.077 91.7355 287.629 91.638 288.029 91.9177L304.238 103.268ZM305.004 97.497C305.403 97.7767 305.501 98.3292 305.221 98.7287L304.755 99.3947C304.475 99.7941 303.923 99.8916 303.523 99.6118L291.708 91.3391C291.309 91.0594 291.212 90.5069 291.491 90.1075L291.958 89.4414C292.237 89.042 292.79 88.9446 293.189 89.2243L305.004 97.497Z" fill="#DF921E"/>
    </g>
    </g>
    <path d="M254.96 122.364C255.464 122.364 255.896 122.556 256.256 122.94C256.64 123.324 256.832 123.78 256.832 124.308C256.832 124.86 256.64 125.328 256.256 125.712C255.896 126.096 255.464 126.288 254.96 126.288C254.432 126.288 253.976 126.096 253.592 125.712C253.232 125.328 253.052 124.86 253.052 124.308C253.052 123.78 253.232 123.324 253.592 122.94C253.976 122.556 254.432 122.364 254.96 122.364Z" fill="black"/>
    <g filter="url(#filter2_d_1_110)">
    <path d="M28.008 52.248V49.8H48.168V52.248H39.492V75H36.72V52.248H28.008ZM52.3868 75V49.8H55.1588V61.068H69.6308V49.8H72.4028V75H69.6308V63.552H55.1588V75H52.3868ZM78.7548 75V49.8H95.9628V52.212H81.5268V61.068H91.5348V63.48H81.5268V72.588H96.1068V75H78.7548ZM133.35 62.4C133.35 64.2 133.026 65.904 132.378 67.512C131.73 69.096 130.842 70.476 129.714 71.652C128.586 72.804 127.254 73.716 125.718 74.388C124.206 75.06 122.574 75.396 120.822 75.396C119.094 75.396 117.462 75.06 115.926 74.388C114.39 73.716 113.058 72.804 111.93 71.652C110.802 70.476 109.914 69.096 109.266 67.512C108.618 65.904 108.294 64.2 108.294 62.4C108.294 60.6 108.618 58.908 109.266 57.324C109.914 55.716 110.802 54.336 111.93 53.184C113.058 52.008 114.39 51.084 115.926 50.412C117.462 49.74 119.094 49.404 120.822 49.404C122.574 49.404 124.206 49.74 125.718 50.412C127.254 51.084 128.586 52.008 129.714 53.184C130.842 54.336 131.73 55.716 132.378 57.324C133.026 58.908 133.35 60.6 133.35 62.4ZM130.542 62.4C130.542 60.936 130.29 59.568 129.786 58.296C129.282 57 128.598 55.884 127.734 54.948C126.87 54.012 125.838 53.28 124.638 52.752C123.462 52.2 122.19 51.924 120.822 51.924C119.454 51.924 118.17 52.2 116.97 52.752C115.794 53.28 114.774 54.012 113.91 54.948C113.046 55.884 112.362 57 111.858 58.296C111.354 59.568 111.102 60.936 111.102 62.4C111.102 63.864 111.354 65.244 111.858 66.54C112.362 67.812 113.046 68.916 113.91 69.852C114.774 70.788 115.794 71.532 116.97 72.084C118.17 72.612 119.454 72.876 120.822 72.876C122.19 72.876 123.462 72.612 124.638 72.084C125.838 71.532 126.87 70.788 127.734 69.852C128.598 68.916 129.282 67.812 129.786 66.54C130.29 65.244 130.542 63.864 130.542 62.4ZM138.591 49.8H141.471L156.231 70.68L156.159 49.8H158.787V75H156.267L141.147 53.652L141.219 75H138.591V49.8ZM165.204 75V49.8H167.976V72.552H182.196V75H165.204ZM189.134 75V64.704L179.342 49.8H182.582L190.61 62.292L198.674 49.8H201.734L191.906 64.776V75H189.134ZM220.342 75H217.534L212.098 49.8H214.906L219.19 70.644L225.418 49.8H228.118L234.346 70.572L238.666 49.8H241.366L235.93 75H233.122L226.75 53.616L220.342 75ZM241.777 75L251.749 49.8H255.061L264.889 75H261.901L258.913 67.08H247.681L244.693 75H241.777ZM248.545 64.884H258.085L253.297 52.284L248.545 64.884ZM271.435 75V64.704L261.643 49.8H264.883L272.911 62.292L280.975 49.8H284.035L274.207 64.776V75H271.435ZM30.132 123V97.8H32.904V123H30.132ZM37.0783 119.076L38.7703 117.06C40.2823 118.476 41.6983 119.484 43.0183 120.084C44.3623 120.684 45.8503 120.984 47.4823 120.984C49.4263 120.984 51.0343 120.504 52.3063 119.544C53.5783 118.56 54.2143 117.348 54.2143 115.908C54.2143 114.66 53.7823 113.7 52.9183 113.028C52.0783 112.356 50.6383 111.84 48.5983 111.48L44.5303 110.796C42.2263 110.388 40.5343 109.692 39.4543 108.708C38.3983 107.7 37.8703 106.356 37.8703 104.676C37.8703 102.564 38.6743 100.836 40.2823 99.492C41.8903 98.148 43.9663 97.476 46.5103 97.476C48.3823 97.476 50.1223 97.74 51.7303 98.268C53.3383 98.772 54.9223 99.576 56.4823 100.68L55.0423 102.84C53.7463 101.88 52.3663 101.136 50.9023 100.608C49.4623 100.08 48.0103 99.816 46.5463 99.816C44.7943 99.816 43.3543 100.26 42.2263 101.148C41.0983 102.012 40.5343 103.092 40.5343 104.388C40.5343 105.492 40.9063 106.356 41.6503 106.98C42.3943 107.604 43.6063 108.048 45.2863 108.312L49.3183 108.996C51.9823 109.476 53.9263 110.256 55.1503 111.336C56.3743 112.416 56.9863 113.892 56.9863 115.764C56.9863 116.844 56.7463 117.852 56.2663 118.788C55.7863 119.724 55.1143 120.528 54.2503 121.2C53.4103 121.872 52.4023 122.4 51.2263 122.784C50.0503 123.168 48.7783 123.36 47.4103 123.36C45.4423 123.36 43.6063 123.012 41.9023 122.316C40.2223 121.596 38.6143 120.516 37.0783 119.076Z" fill="black"/>
    </g>
    <g filter="url(#filter3_d_1_110)">
    <path d="M70.008 100.248V97.8H90.168V100.248H81.492V123H78.72V100.248H70.008ZM94.3868 123V97.8H97.1588V109.068H111.631V97.8H114.403V123H111.631V111.552H97.1588V123H94.3868ZM120.755 123V97.8H131.087C133.487 97.8 135.419 98.472 136.883 99.816C138.371 101.16 139.115 102.912 139.115 105.072C139.115 106.728 138.635 108.168 137.675 109.392C136.739 110.592 135.467 111.42 133.859 111.876L139.223 123H136.163L131.051 112.236H123.527V123H120.755ZM130.871 100.248H123.527V109.932H130.871C132.527 109.932 133.847 109.488 134.831 108.6C135.839 107.712 136.343 106.548 136.343 105.108C136.343 103.644 135.839 102.468 134.831 101.58C133.847 100.692 132.527 100.248 130.871 100.248ZM167.967 110.4C167.967 112.2 167.643 113.904 166.995 115.512C166.347 117.096 165.459 118.476 164.331 119.652C163.203 120.804 161.871 121.716 160.335 122.388C158.823 123.06 157.191 123.396 155.439 123.396C153.711 123.396 152.079 123.06 150.543 122.388C149.007 121.716 147.675 120.804 146.547 119.652C145.419 118.476 144.531 117.096 143.883 115.512C143.235 113.904 142.911 112.2 142.911 110.4C142.911 108.6 143.235 106.908 143.883 105.324C144.531 103.716 145.419 102.336 146.547 101.184C147.675 100.008 149.007 99.084 150.543 98.412C152.079 97.74 153.711 97.404 155.439 97.404C157.191 97.404 158.823 97.74 160.335 98.412C161.871 99.084 163.203 100.008 164.331 101.184C165.459 102.336 166.347 103.716 166.995 105.324C167.643 106.908 167.967 108.6 167.967 110.4ZM165.159 110.4C165.159 108.936 164.907 107.568 164.403 106.296C163.899 105 163.215 103.884 162.351 102.948C161.487 102.012 160.455 101.28 159.255 100.752C158.079 100.2 156.807 99.924 155.439 99.924C154.071 99.924 152.787 100.2 151.587 100.752C150.411 101.28 149.391 102.012 148.527 102.948C147.663 103.884 146.979 105 146.475 106.296C145.971 107.568 145.719 108.936 145.719 110.4C145.719 111.864 145.971 113.244 146.475 114.54C146.979 115.812 147.663 116.916 148.527 117.852C149.391 118.788 150.411 119.532 151.587 120.084C152.787 120.612 154.071 120.876 155.439 120.876C156.807 120.876 158.079 120.612 159.255 120.084C160.455 119.532 161.487 118.788 162.351 117.852C163.215 116.916 163.899 115.812 164.403 114.54C164.907 113.244 165.159 111.864 165.159 110.4ZM192.936 112.344C192.936 115.704 192.012 118.392 190.164 120.408C188.34 122.4 185.892 123.396 182.82 123.396C179.724 123.396 177.264 122.4 175.44 120.408C173.616 118.416 172.704 115.728 172.704 112.344V97.8H175.476V112.344C175.476 114.912 176.136 116.976 177.456 118.536C178.8 120.096 180.588 120.876 182.82 120.876C185.052 120.876 186.828 120.096 188.148 118.536C189.492 116.976 190.164 114.912 190.164 112.344V97.8H192.936V112.344ZM222.417 110.94C222.417 112.668 222.105 114.3 221.481 115.836C220.881 117.348 220.041 118.668 218.961 119.796C217.905 120.9 216.645 121.776 215.181 122.424C213.717 123.072 212.133 123.396 210.429 123.396C208.653 123.396 206.985 123.06 205.425 122.388C203.865 121.692 202.509 120.768 201.357 119.616C200.205 118.44 199.293 117.06 198.621 115.476C197.973 113.892 197.649 112.2 197.649 110.4C197.649 108.6 197.973 106.908 198.621 105.324C199.293 103.74 200.193 102.372 201.321 101.22C202.473 100.044 203.829 99.12 205.389 98.448C206.949 97.752 208.617 97.404 210.393 97.404C212.289 97.404 214.101 97.752 215.829 98.448C217.557 99.144 219.021 100.176 220.221 101.544L218.349 103.416C217.413 102.312 216.225 101.46 214.785 100.86C213.369 100.236 211.905 99.924 210.393 99.924C208.977 99.924 207.657 100.2 206.433 100.752C205.233 101.28 204.189 102.012 203.301 102.948C202.413 103.884 201.717 105 201.213 106.296C200.709 107.568 200.457 108.936 200.457 110.4C200.457 111.864 200.709 113.244 201.213 114.54C201.741 115.812 202.437 116.928 203.301 117.888C204.189 118.824 205.245 119.568 206.469 120.12C207.693 120.648 209.001 120.912 210.393 120.912C211.641 120.912 212.805 120.696 213.885 120.264C214.965 119.808 215.901 119.196 216.693 118.428C217.509 117.66 218.169 116.748 218.673 115.692C219.201 114.636 219.513 113.496 219.609 112.272H211.113V109.824H222.417V110.94ZM227.559 123V97.8H230.331V109.068H244.803V97.8H247.575V123H244.803V111.552H230.331V123H227.559Z" fill="black"/>
    </g>
    <path d="M34.68 171V165.28L29.24 157H31.04L35.5 163.94L39.98 157H41.68L36.22 165.32V171H34.68ZM48.9359 171.22C47.9626 171.22 47.0559 171.04 46.2159 170.68C45.3759 170.307 44.6359 169.793 43.9959 169.14C43.3693 168.473 42.8759 167.707 42.5159 166.84C42.1559 165.96 41.9759 165.013 41.9759 164C41.9759 162.987 42.1559 162.047 42.5159 161.18C42.8759 160.3 43.3693 159.533 43.9959 158.88C44.6359 158.213 45.3759 157.7 46.2159 157.34C47.0559 156.967 47.9626 156.78 48.9359 156.78C49.9093 156.78 50.8159 156.967 51.6559 157.34C52.4959 157.7 53.2293 158.213 53.8559 158.88C54.4959 159.533 54.9959 160.3 55.3559 161.18C55.7159 162.047 55.8959 162.987 55.8959 164C55.8959 165.013 55.7159 165.96 55.3559 166.84C54.9959 167.707 54.4959 168.473 53.8559 169.14C53.2293 169.793 52.4959 170.307 51.6559 170.68C50.8159 171.04 49.9093 171.22 48.9359 171.22ZM48.9359 169.82C49.6959 169.82 50.4026 169.673 51.0559 169.38C51.7093 169.087 52.2826 168.673 52.7759 168.14C53.2693 167.607 53.6493 166.987 53.9159 166.28C54.1959 165.573 54.3359 164.813 54.3359 164C54.3359 163.173 54.1959 162.413 53.9159 161.72C53.6493 161.013 53.2693 160.393 52.7759 159.86C52.2826 159.327 51.7093 158.913 51.0559 158.62C50.4026 158.327 49.6959 158.18 48.9359 158.18C48.1759 158.18 47.4693 158.327 46.8159 158.62C46.1626 158.913 45.5893 159.327 45.0959 159.86C44.6026 160.393 44.2159 161.013 43.9359 161.72C43.6693 162.413 43.5359 163.167 43.5359 163.98C43.5359 164.807 43.6693 165.573 43.9359 166.28C44.2159 166.987 44.6026 167.607 45.0959 168.14C45.5893 168.673 46.1626 169.087 46.8159 169.38C47.4693 169.673 48.1759 169.82 48.9359 169.82ZM64.1473 171.22C63.0007 171.22 62.0007 170.973 61.1473 170.48C60.3073 169.973 59.6607 169.26 59.2073 168.34C58.754 167.42 58.5273 166.333 58.5273 165.08V157H60.0673V165.08C60.0673 166.04 60.234 166.873 60.5673 167.58C60.9007 168.287 61.374 168.84 61.9873 169.24C62.6007 169.627 63.3207 169.82 64.1473 169.82C64.974 169.82 65.694 169.627 66.3073 169.24C66.9207 168.84 67.394 168.287 67.7273 167.58C68.0607 166.873 68.2273 166.04 68.2273 165.08V157H69.7673V165.08C69.7673 166.333 69.5407 167.42 69.0873 168.34C68.634 169.26 67.9873 169.973 67.1473 170.48C66.3073 170.973 65.3073 171.22 64.1473 171.22ZM77.7136 171V157H79.8536L84.5336 166.96L89.2136 157H91.3536V171H89.8936V158.82L84.5336 170L79.1536 158.78V171H77.7136ZM93.3206 171L98.8606 157H100.701L106.161 171H104.501L102.841 166.6H96.6006L94.9406 171H93.3206ZM97.0806 165.38H102.381L99.7206 158.4L97.0806 165.38ZM109.836 171V165.28L104.396 157H106.196L110.656 163.94L115.136 157H116.836L111.376 165.32V171H109.836ZM123.534 171V157H125.134L133.334 168.6L133.294 157H134.754V171H133.354L124.954 159.14L124.994 171H123.534ZM144.639 171.22C143.666 171.22 142.759 171.04 141.919 170.68C141.079 170.307 140.339 169.793 139.699 169.14C139.072 168.473 138.579 167.707 138.219 166.84C137.859 165.96 137.679 165.013 137.679 164C137.679 162.987 137.859 162.047 138.219 161.18C138.579 160.3 139.072 159.533 139.699 158.88C140.339 158.213 141.079 157.7 141.919 157.34C142.759 156.967 143.666 156.78 144.639 156.78C145.612 156.78 146.519 156.967 147.359 157.34C148.199 157.7 148.932 158.213 149.559 158.88C150.199 159.533 150.699 160.3 151.059 161.18C151.419 162.047 151.599 162.987 151.599 164C151.599 165.013 151.419 165.96 151.059 166.84C150.699 167.707 150.199 168.473 149.559 169.14C148.932 169.793 148.199 170.307 147.359 170.68C146.519 171.04 145.612 171.22 144.639 171.22ZM144.639 169.82C145.399 169.82 146.106 169.673 146.759 169.38C147.412 169.087 147.986 168.673 148.479 168.14C148.972 167.607 149.352 166.987 149.619 166.28C149.899 165.573 150.039 164.813 150.039 164C150.039 163.173 149.899 162.413 149.619 161.72C149.352 161.013 148.972 160.393 148.479 159.86C147.986 159.327 147.412 158.913 146.759 158.62C146.106 158.327 145.399 158.18 144.639 158.18C143.879 158.18 143.172 158.327 142.519 158.62C141.866 158.913 141.292 159.327 140.799 159.86C140.306 160.393 139.919 161.013 139.639 161.72C139.372 162.413 139.239 163.167 139.239 163.98C139.239 164.807 139.372 165.573 139.639 166.28C139.919 166.987 140.306 167.607 140.799 168.14C141.292 168.673 141.866 169.087 142.519 169.38C143.172 169.673 143.879 169.82 144.639 169.82ZM157.232 171V158.36H152.392V157H163.612V158.36H158.772V171H157.232ZM170.624 171V157H176.284C177.137 157 177.877 157.147 178.504 157.44C179.144 157.733 179.637 158.147 179.984 158.68C180.33 159.213 180.504 159.84 180.504 160.56C180.504 161.333 180.277 162 179.824 162.56C179.384 163.107 178.784 163.493 178.024 163.72C178.957 163.933 179.69 164.34 180.224 164.94C180.77 165.527 181.044 166.253 181.044 167.12C181.044 167.893 180.857 168.573 180.484 169.16C180.11 169.747 179.584 170.2 178.904 170.52C178.224 170.84 177.424 171 176.504 171H170.624ZM172.164 163.12H176.164C177.017 163.12 177.697 162.907 178.204 162.48C178.71 162.04 178.964 161.453 178.964 160.72C178.964 159.987 178.71 159.407 178.204 158.98C177.697 158.54 177.017 158.32 176.164 158.32H172.164V163.12ZM172.164 169.68H176.344C177.29 169.68 178.05 169.44 178.624 168.96C179.197 168.467 179.484 167.82 179.484 167.02C179.484 166.22 179.197 165.58 178.624 165.1C178.064 164.62 177.304 164.38 176.344 164.38H172.164V169.68ZM184.003 171V157H193.563V158.36H185.543V163.26H191.103V164.6H185.543V169.64H193.643V171H184.003ZM204.673 171V158.36H199.833V157H211.053V158.36H206.213V171H204.673ZM213.377 171V157H214.917V163.26H222.957V157H224.497V171H222.957V164.64H214.917V171H213.377ZM228.046 171V157H237.606V158.36H229.586V163.26H235.146V164.6H229.586V169.64H237.686V171H228.046ZM240.428 171V157H246.168C247.062 157 247.842 157.173 248.508 157.52C249.175 157.853 249.695 158.32 250.068 158.92C250.442 159.52 250.628 160.227 250.628 161.04C250.628 161.973 250.368 162.773 249.848 163.44C249.328 164.093 248.615 164.553 247.708 164.82L250.688 171H248.988L246.148 165.02H241.968V171H240.428ZM241.968 163.74H246.048C246.968 163.74 247.702 163.5 248.248 163.02C248.808 162.527 249.088 161.873 249.088 161.06C249.088 160.233 248.808 159.58 248.248 159.1C247.702 158.607 246.968 158.36 246.048 158.36H241.968V163.74ZM253.378 171V157H262.938V158.36H254.918V163.26H260.478V164.6H254.918V169.64H263.018V171H253.378ZM274.328 171V165.28L268.888 157H270.688L275.148 163.94L279.628 157H281.328L275.868 165.32V171H274.328ZM283.358 171V157H292.918V158.36H284.898V163.26H290.458V164.6H284.898V169.64H292.998V171H283.358ZM299.361 171V158.36H294.521V157H305.741V158.36H300.901V171H299.361ZM306.598 171.16C306.304 171.16 306.051 171.053 305.838 170.84C305.638 170.627 305.538 170.373 305.538 170.08C305.538 169.773 305.638 169.52 305.838 169.32C306.051 169.107 306.304 169 306.598 169C306.891 169 307.138 169.107 307.338 169.32C307.551 169.52 307.658 169.773 307.658 170.08C307.658 170.373 307.551 170.627 307.338 170.84C307.138 171.053 306.891 171.16 306.598 171.16ZM30.78 197V183H36.44C37.2933 183 38.0333 183.147 38.66 183.44C39.3 183.733 39.7933 184.147 40.14 184.68C40.4867 185.213 40.66 185.84 40.66 186.56C40.66 187.333 40.4333 188 39.98 188.56C39.54 189.107 38.94 189.493 38.18 189.72C39.1133 189.933 39.8467 190.34 40.38 190.94C40.9267 191.527 41.2 192.253 41.2 193.12C41.2 193.893 41.0133 194.573 40.64 195.16C40.2667 195.747 39.74 196.2 39.06 196.52C38.38 196.84 37.58 197 36.66 197H30.78ZM32.32 189.12H36.32C37.1733 189.12 37.8533 188.907 38.36 188.48C38.8667 188.04 39.12 187.453 39.12 186.72C39.12 185.987 38.8667 185.407 38.36 184.98C37.8533 184.54 37.1733 184.32 36.32 184.32H32.32V189.12ZM32.32 195.68H36.5C37.4467 195.68 38.2067 195.44 38.78 194.96C39.3533 194.467 39.64 193.82 39.64 193.02C39.64 192.22 39.3533 191.58 38.78 191.1C38.22 190.62 37.46 190.38 36.5 190.38H32.32V195.68ZM49.4989 197.22C48.3522 197.22 47.3522 196.973 46.4989 196.48C45.6589 195.973 45.0122 195.26 44.5589 194.34C44.1056 193.42 43.8789 192.333 43.8789 191.08V183H45.4189V191.08C45.4189 192.04 45.5856 192.873 45.9189 193.58C46.2522 194.287 46.7256 194.84 47.3389 195.24C47.9522 195.627 48.6722 195.82 49.4989 195.82C50.3256 195.82 51.0456 195.627 51.6589 195.24C52.2722 194.84 52.7456 194.287 53.0789 193.58C53.4122 192.873 53.5789 192.04 53.5789 191.08V183H55.1189V191.08C55.1189 192.333 54.8922 193.42 54.4389 194.34C53.9856 195.26 53.3389 195.973 52.4989 196.48C51.6589 196.973 50.6589 197.22 49.4989 197.22ZM62.0172 197V184.36H57.1772V183H68.3972V184.36H63.5572V197H62.0172ZM79.3089 197V191.28L73.8689 183H75.6689L80.1289 189.94L84.6089 183H86.3089L80.8489 191.32V197H79.3089ZM93.5648 197.22C92.5915 197.22 91.6848 197.04 90.8448 196.68C90.0048 196.307 89.2648 195.793 88.6248 195.14C87.9982 194.473 87.5048 193.707 87.1448 192.84C86.7848 191.96 86.6048 191.013 86.6048 190C86.6048 188.987 86.7848 188.047 87.1448 187.18C87.5048 186.3 87.9982 185.533 88.6248 184.88C89.2648 184.213 90.0048 183.7 90.8448 183.34C91.6848 182.967 92.5915 182.78 93.5648 182.78C94.5382 182.78 95.4448 182.967 96.2848 183.34C97.1248 183.7 97.8582 184.213 98.4848 184.88C99.1248 185.533 99.6248 186.3 99.9848 187.18C100.345 188.047 100.525 188.987 100.525 190C100.525 191.013 100.345 191.96 99.9848 192.84C99.6248 193.707 99.1248 194.473 98.4848 195.14C97.8582 195.793 97.1248 196.307 96.2848 196.68C95.4448 197.04 94.5382 197.22 93.5648 197.22ZM93.5648 195.82C94.3248 195.82 95.0315 195.673 95.6848 195.38C96.3382 195.087 96.9115 194.673 97.4048 194.14C97.8982 193.607 98.2782 192.987 98.5448 192.28C98.8248 191.573 98.9648 190.813 98.9648 190C98.9648 189.173 98.8248 188.413 98.5448 187.72C98.2782 187.013 97.8982 186.393 97.4048 185.86C96.9115 185.327 96.3382 184.913 95.6848 184.62C95.0315 184.327 94.3248 184.18 93.5648 184.18C92.8048 184.18 92.0982 184.327 91.4448 184.62C90.7915 184.913 90.2182 185.327 89.7248 185.86C89.2315 186.393 88.8448 187.013 88.5648 187.72C88.2982 188.413 88.1648 189.167 88.1648 189.98C88.1648 190.807 88.2982 191.573 88.5648 192.28C88.8448 192.987 89.2315 193.607 89.7248 194.14C90.2182 194.673 90.7915 195.087 91.4448 195.38C92.0982 195.673 92.8048 195.82 93.5648 195.82ZM108.776 197.22C107.63 197.22 106.63 196.973 105.776 196.48C104.936 195.973 104.29 195.26 103.836 194.34C103.383 193.42 103.156 192.333 103.156 191.08V183H104.696V191.08C104.696 192.04 104.863 192.873 105.196 193.58C105.53 194.287 106.003 194.84 106.616 195.24C107.23 195.627 107.95 195.82 108.776 195.82C109.603 195.82 110.323 195.627 110.936 195.24C111.55 194.84 112.023 194.287 112.356 193.58C112.69 192.873 112.856 192.04 112.856 191.08V183H114.396V191.08C114.396 192.333 114.17 193.42 113.716 194.34C113.263 195.26 112.616 195.973 111.776 196.48C110.936 196.973 109.936 197.22 108.776 197.22ZM120.743 197L126.283 183H128.123L133.583 197H131.923L130.263 192.6H124.023L122.363 197H120.743ZM124.503 191.38H129.803L127.143 184.4L124.503 191.38ZM135.546 197V183H141.286C142.179 183 142.959 183.173 143.626 183.52C144.292 183.853 144.812 184.32 145.186 184.92C145.559 185.52 145.746 186.227 145.746 187.04C145.746 187.973 145.486 188.773 144.966 189.44C144.446 190.093 143.732 190.553 142.826 190.82L145.806 197H144.106L141.266 191.02H137.086V197H135.546ZM137.086 189.74H141.166C142.086 189.74 142.819 189.5 143.366 189.02C143.926 188.527 144.206 187.873 144.206 187.06C144.206 186.233 143.926 185.58 143.366 185.1C142.819 184.607 142.086 184.36 141.166 184.36H137.086V189.74ZM148.495 197V183H158.055V184.36H150.035V189.26H155.595V190.6H150.035V195.64H158.135V197H148.495ZM172.006 197.22C171.006 197.22 170.072 197.04 169.206 196.68C168.352 196.307 167.599 195.793 166.946 195.14C166.292 194.473 165.786 193.707 165.426 192.84C165.066 191.96 164.886 191.013 164.886 190C164.886 188.987 165.066 188.047 165.426 187.18C165.786 186.3 166.292 185.533 166.946 184.88C167.599 184.213 168.352 183.7 169.206 183.34C170.072 182.967 171.006 182.78 172.006 182.78C172.699 182.78 173.359 182.873 173.986 183.06C174.626 183.233 175.226 183.493 175.786 183.84C176.346 184.173 176.846 184.587 177.286 185.08L176.266 186.14C175.746 185.513 175.106 185.033 174.346 184.7C173.599 184.353 172.819 184.18 172.006 184.18C171.219 184.18 170.486 184.327 169.806 184.62C169.126 184.913 168.532 185.327 168.026 185.86C167.532 186.393 167.146 187.013 166.866 187.72C166.586 188.413 166.446 189.173 166.446 190C166.446 190.813 166.586 191.573 166.866 192.28C167.146 192.987 167.532 193.607 168.026 194.14C168.532 194.673 169.126 195.087 169.806 195.38C170.486 195.673 171.219 195.82 172.006 195.82C172.819 195.82 173.599 195.647 174.346 195.3C175.106 194.953 175.746 194.473 176.266 193.86L177.286 194.92C176.846 195.413 176.346 195.833 175.786 196.18C175.226 196.513 174.626 196.773 173.986 196.96C173.359 197.133 172.699 197.22 172.006 197.22ZM180.057 197V183H181.597V195.64H189.497V197H180.057ZM197.432 197.22C196.459 197.22 195.552 197.04 194.712 196.68C193.872 196.307 193.132 195.793 192.492 195.14C191.865 194.473 191.372 193.707 191.012 192.84C190.652 191.96 190.472 191.013 190.472 190C190.472 188.987 190.652 188.047 191.012 187.18C191.372 186.3 191.865 185.533 192.492 184.88C193.132 184.213 193.872 183.7 194.712 183.34C195.552 182.967 196.459 182.78 197.432 182.78C198.405 182.78 199.312 182.967 200.152 183.34C200.992 183.7 201.725 184.213 202.352 184.88C202.992 185.533 203.492 186.3 203.852 187.18C204.212 188.047 204.392 188.987 204.392 190C204.392 191.013 204.212 191.96 203.852 192.84C203.492 193.707 202.992 194.473 202.352 195.14C201.725 195.793 200.992 196.307 200.152 196.68C199.312 197.04 198.405 197.22 197.432 197.22ZM197.432 195.82C198.192 195.82 198.899 195.673 199.552 195.38C200.205 195.087 200.779 194.673 201.272 194.14C201.765 193.607 202.145 192.987 202.412 192.28C202.692 191.573 202.832 190.813 202.832 190C202.832 189.173 202.692 188.413 202.412 187.72C202.145 187.013 201.765 186.393 201.272 185.86C200.779 185.327 200.205 184.913 199.552 184.62C198.899 184.327 198.192 184.18 197.432 184.18C196.672 184.18 195.965 184.327 195.312 184.62C194.659 184.913 194.085 185.327 193.592 185.86C193.099 186.393 192.712 187.013 192.432 187.72C192.165 188.413 192.032 189.167 192.032 189.98C192.032 190.807 192.165 191.573 192.432 192.28C192.712 192.987 193.099 193.607 193.592 194.14C194.085 194.673 194.659 195.087 195.312 195.38C195.965 195.673 196.672 195.82 197.432 195.82ZM211.823 197.22C210.73 197.22 209.717 197.027 208.783 196.64C207.85 196.24 206.95 195.64 206.083 194.84L207.023 193.72C207.863 194.507 208.65 195.067 209.383 195.4C210.13 195.733 210.957 195.9 211.863 195.9C212.583 195.9 213.223 195.78 213.783 195.54C214.357 195.287 214.803 194.947 215.123 194.52C215.443 194.093 215.603 193.607 215.603 193.06C215.603 192.353 215.37 191.82 214.903 191.46C214.437 191.087 213.63 190.8 212.483 190.6L210.223 190.22C208.943 189.993 208.003 189.607 207.403 189.06C206.817 188.5 206.523 187.753 206.523 186.82C206.523 186.033 206.723 185.34 207.123 184.74C207.537 184.127 208.103 183.647 208.823 183.3C209.543 182.953 210.377 182.78 211.323 182.78C212.363 182.78 213.33 182.927 214.223 183.22C215.117 183.5 215.997 183.947 216.863 184.56L216.063 185.76C215.343 185.213 214.583 184.8 213.783 184.52C212.983 184.227 212.17 184.08 211.343 184.08C210.69 184.08 210.11 184.193 209.603 184.42C209.11 184.647 208.717 184.953 208.423 185.34C208.143 185.727 208.003 186.167 208.003 186.66C208.003 187.273 208.21 187.753 208.623 188.1C209.037 188.447 209.71 188.693 210.643 188.84L212.883 189.22C214.377 189.487 215.457 189.92 216.123 190.52C216.803 191.107 217.143 191.927 217.143 192.98C217.143 193.793 216.91 194.52 216.443 195.16C215.99 195.8 215.363 196.307 214.563 196.68C213.763 197.04 212.85 197.22 211.823 197.22ZM219.764 197V183H229.324V184.36H221.304V189.26H226.864V190.6H221.304V195.64H229.404V197H219.764ZM232.147 197V183H237.887C238.781 183 239.561 183.173 240.227 183.52C240.894 183.853 241.414 184.32 241.787 184.92C242.161 185.52 242.347 186.227 242.347 187.04C242.347 187.973 242.087 188.773 241.567 189.44C241.047 190.093 240.334 190.553 239.427 190.82L242.407 197H240.707L237.867 191.02H233.687V197H232.147ZM233.687 189.74H237.767C238.687 189.74 239.421 189.5 239.967 189.02C240.527 188.527 240.807 187.873 240.807 187.06C240.807 186.233 240.527 185.58 239.967 185.1C239.421 184.607 238.687 184.36 237.767 184.36H233.687V189.74ZM253.384 197V184.36H248.544V183H259.764V184.36H254.924V197H253.384ZM262.088 197V183H263.628V189.26H271.668V183H273.208V197H271.668V190.64H263.628V197H262.088ZM275.157 197L280.697 183H282.537L287.997 197H286.337L284.677 192.6H278.437L276.777 197H275.157ZM278.917 191.38H284.217L281.557 184.4L278.917 191.38ZM289.96 197V183H291.56L299.76 194.6L299.72 183H301.18V197H299.78L291.38 185.14L291.42 197H289.96ZM34.68 223V217.28L29.24 209H31.04L35.5 215.94L39.98 209H41.68L36.22 217.32V223H34.68ZM43.7097 223V209H53.2697V210.36H45.2497V215.26H50.8097V216.6H45.2497V221.64H53.3497V223H43.7097ZM60.6125 223.22C59.5192 223.22 58.5058 223.027 57.5725 222.64C56.6392 222.24 55.7392 221.64 54.8725 220.84L55.8125 219.72C56.6525 220.507 57.4392 221.067 58.1725 221.4C58.9192 221.733 59.7458 221.9 60.6525 221.9C61.3725 221.9 62.0125 221.78 62.5725 221.54C63.1458 221.287 63.5925 220.947 63.9125 220.52C64.2325 220.093 64.3925 219.607 64.3925 219.06C64.3925 218.353 64.1592 217.82 63.6925 217.46C63.2258 217.087 62.4192 216.8 61.2725 216.6L59.0125 216.22C57.7325 215.993 56.7925 215.607 56.1925 215.06C55.6058 214.5 55.3125 213.753 55.3125 212.82C55.3125 212.033 55.5125 211.34 55.9125 210.74C56.3258 210.127 56.8925 209.647 57.6125 209.3C58.3325 208.953 59.1658 208.78 60.1125 208.78C61.1525 208.78 62.1192 208.927 63.0125 209.22C63.9058 209.5 64.7858 209.947 65.6525 210.56L64.8525 211.76C64.1325 211.213 63.3725 210.8 62.5725 210.52C61.7725 210.227 60.9592 210.08 60.1325 210.08C59.4792 210.08 58.8992 210.193 58.3925 210.42C57.8992 210.647 57.5058 210.953 57.2125 211.34C56.9325 211.727 56.7925 212.167 56.7925 212.66C56.7925 213.273 56.9992 213.753 57.4125 214.1C57.8258 214.447 58.4992 214.693 59.4325 214.84L61.6725 215.22C63.1658 215.487 64.2458 215.92 64.9125 216.52C65.5925 217.107 65.9325 217.927 65.9325 218.98C65.9325 219.793 65.6992 220.52 65.2325 221.16C64.7792 221.8 64.1525 222.307 63.3525 222.68C62.5525 223.04 61.6392 223.22 60.6125 223.22ZM71.8805 223V210.36H67.0405V209H78.2605V210.36H73.4205V223H71.8805ZM80.6042 223V209H90.1642V210.36H82.1442V215.26H87.7042V216.6H82.1442V221.64H90.2442V223H80.6042ZM92.987 223V209H98.727C99.6204 209 100.4 209.173 101.067 209.52C101.734 209.853 102.254 210.32 102.627 210.92C103 211.52 103.187 212.227 103.187 213.04C103.187 213.973 102.927 214.773 102.407 215.44C101.887 216.093 101.174 216.553 100.267 216.82L103.247 223H101.547L98.707 217.02H94.527V223H92.987ZM94.527 215.74H98.607C99.527 215.74 100.26 215.5 100.807 215.02C101.367 214.527 101.647 213.873 101.647 213.06C101.647 212.233 101.367 211.58 100.807 211.1C100.26 210.607 99.527 210.36 98.607 210.36H94.527V215.74ZM107.476 221.62H110.676C111.69 221.62 112.596 221.373 113.396 220.88C114.196 220.387 114.83 219.72 115.296 218.88C115.776 218.027 116.016 217.067 116.016 216C116.016 214.933 115.776 213.98 115.296 213.14C114.83 212.287 114.196 211.613 113.396 211.12C112.596 210.627 111.69 210.38 110.676 210.38H107.476V221.62ZM105.936 223V209H110.576C111.603 209 112.543 209.18 113.396 209.54C114.263 209.887 115.003 210.38 115.616 211.02C116.243 211.647 116.723 212.387 117.056 213.24C117.403 214.08 117.576 215 117.576 216C117.576 217 117.403 217.927 117.056 218.78C116.723 219.62 116.243 220.36 115.616 221C115.003 221.627 114.263 222.12 113.396 222.48C112.543 222.827 111.603 223 110.576 223H105.936ZM118.282 223L123.822 209H125.662L131.122 223H129.462L127.802 218.6H121.562L119.902 223H118.282ZM122.042 217.38H127.342L124.682 210.4L122.042 217.38ZM134.797 223V217.28L129.357 209H131.157L135.617 215.94L140.097 209H141.797L136.337 217.32V223H134.797ZM142.34 223.16C142.047 223.16 141.793 223.053 141.58 222.84C141.38 222.627 141.28 222.373 141.28 222.08C141.28 221.773 141.38 221.52 141.58 221.32C141.793 221.107 142.047 221 142.34 221C142.633 221 142.88 221.107 143.08 221.32C143.293 221.52 143.4 221.773 143.4 222.08C143.4 222.373 143.293 222.627 143.08 222.84C142.88 223.053 142.633 223.16 142.34 223.16Z" fill="black"/>
    <defs>
    <filter id="filter0_d_1_110" x="256" y="77" width="66.5027" height="66.5027" filterUnits="userSpaceOnUse" color-interpolation-filters="sRGB">
    <feFlood flood-opacity="0" result="BackgroundImageFix"/>
    <feColorMatrix in="SourceAlpha" type="matrix" values="0 0 0 0 0 0 0 0 0 0 0 0 0 0 0 0 0 0 127 0" result="hardAlpha"/>
    <feOffset dx="1" dy="2"/>
    <feGaussianBlur stdDeviation="2"/>
    <feComposite in2="hardAlpha" operator="out"/>
    <feColorMatrix type="matrix" values="0 0 0 0 0 0 0 0 0 0 0 0 0 0 0 0 0 0 0.25 0"/>
    <feBlend mode="normal" in2="BackgroundImageFix" result="effect1_dropShadow_1_110"/>
    <feBlend mode="normal" in="SourceGraphic" in2="effect1_dropShadow_1_110" result="shape"/>
    </filter>
    <filter id="filter1_d_1_110" x="264.538" y="86.4808" width="47.4263" height="51.5409" filterUnits="userSpaceOnUse" color-interpolation-filters="sRGB">
    <feFlood flood-opacity="0" result="BackgroundImageFix"/>
    <feColorMatrix in="SourceAlpha" type="matrix" values="0 0 0 0 0 0 0 0 0 0 0 0 0 0 0 0 0 0 127 0" result="hardAlpha"/>
    <feOffset dy="4"/>
    <feGaussianBlur stdDeviation="2"/>
    <feComposite in2="hardAlpha" operator="out"/>
    <feColorMatrix type="matrix" values="0 0 0 0 0.9375 0 0 0 0 0.73125 0 0 0 0 0 0 0 0 0.25 0"/>
    <feBlend mode="normal" in2="BackgroundImageFix" result="effect1_dropShadow_1_110"/>
    <feBlend mode="normal" in="SourceGraphic" in2="effect1_dropShadow_1_110" result="shape"/>
    </filter>
    <filter id="filter2_d_1_110" x="26.0081" y="49.4041" width="260.027" height="79.9559" filterUnits="userSpaceOnUse" color-interpolation-filters="sRGB">
    <feFlood flood-opacity="0" result="BackgroundImageFix"/>
    <feColorMatrix in="SourceAlpha" type="matrix" values="0 0 0 0 0 0 0 0 0 0 0 0 0 0 0 0 0 0 127 0" result="hardAlpha"/>
    <feOffset dy="4"/>
    <feGaussianBlur stdDeviation="1"/>
    <feComposite in2="hardAlpha" operator="out"/>
    <feColorMatrix type="matrix" values="0 0 0 0 0 0 0 0 0 0 0 0 0 0 0 0 0 0 0.25 0"/>
    <feBlend mode="normal" in2="BackgroundImageFix" result="effect1_dropShadow_1_110"/>
    <feBlend mode="normal" in="SourceGraphic" in2="effect1_dropShadow_1_110" result="shape"/>
    </filter>
    <filter id="filter3_d_1_110" x="66.0081" y="97.4041" width="185.567" height="33.9919" filterUnits="userSpaceOnUse" color-interpolation-filters="sRGB">
    <feFlood flood-opacity="0" result="BackgroundImageFix"/>
    <feColorMatrix in="SourceAlpha" type="matrix" values="0 0 0 0 0 0 0 0 0 0 0 0 0 0 0 0 0 0 127 0" result="hardAlpha"/>
    <feOffset dy="4"/>
    <feGaussianBlur stdDeviation="2"/>
    <feComposite in2="hardAlpha" operator="out"/>
    <feColorMatrix type="matrix" values="0 0 0 0 0 0 0 0 0 0 0 0 0 0 0 0 0 0 0.25 0"/>
    <feBlend mode="normal" in2="BackgroundImageFix" result="effect1_dropShadow_1_110"/>
    <feBlend mode="normal" in="SourceGraphic" in2="effect1_dropShadow_1_110" result="shape"/>
    </filter>
    <clipPath id="clip0_1_110">
    <rect width="42.0058" height="42.0058" fill="white" transform="translate(259 113.409) rotate(-55)"/>
    </clipPath>
    </defs>
    </svg>
    