<svg width="629" height="421" viewBox="0 0 629 421" fill="none" xmlns="http://www.w3.org/2000/svg">
    <g clip-path="url(#clip0_1_28)">
    <path opacity="0.1" d="M365.454 69.4098C325.13 68.0012 286.728 54.9961 250.078 40.7516C213.429 26.5072 177.079 10.7231 137.722 3.17775C112.379 -1.67595 83.427 -2.35841 63.0303 11.2199C43.4034 24.2796 37.0594 46.8283 33.6527 67.7446C31.0867 83.485 29.5799 100.055 36.6063 114.786C41.4871 125.017 50.1513 133.616 56.1459 143.416C77.0121 177.507 62.2714 219.552 39.6636 252.846C29.0613 268.461 16.7665 283.36 8.58814 299.985C0.409809 316.61 -3.37362 335.659 3.78378 352.617C10.8811 369.422 27.7783 382.05 46.0895 390.928C83.2796 408.945 127.103 414.126 169.834 417.053C264.431 423.523 359.53 420.722 454.378 417.915C489.477 416.878 524.735 415.824 559.261 410.397C578.44 407.384 598.236 402.601 612.158 391.048C629.83 376.389 634.209 351.563 622.367 333.175C602.505 302.338 547.572 294.684 533.699 261.587C526.056 243.373 533.907 223.079 545.011 206.187C568.837 169.945 608.767 138.153 610.875 96.7248C612.316 68.2741 593.12 39.7853 563.437 26.2943C532.318 12.1863 489.188 13.9607 466.231 37.3175C442.597 61.3949 401.061 70.6491 365.454 69.4098Z" fill="#A4B5FD"/>
    <g opacity="0.5">
    <path opacity="0.5" d="M273.39 219.797L255.123 220.174L252.136 224.274V238.442L255.865 241.052H273.39L277.119 236.952V223.526L273.39 219.797Z" fill="#A4B5FD"/>
    <path opacity="0.2" d="M273.008 222.036C273.008 222.036 256.231 224.646 254.74 222.036L255.117 220.175L273.008 219.781V222.036Z" fill="white"/>
    <path opacity="0.5" d="M274.881 260.811L277.861 263.798V277.993L274.881 280.93C274.881 280.93 264.071 284.659 256.984 281.673L253.627 278.321V264.125L256.613 260.768L274.881 260.811Z" fill="#A4B5FD"/>
    <path opacity="0.2" d="M274.133 264.169C274.133 264.169 261.084 267.15 256.613 264.169V260.811H274.881L274.133 264.169Z" fill="white"/>
    <path opacity="0.5" d="M267.794 240.954V261.123C267.752 261.921 267.395 262.671 266.801 263.207C266.208 263.743 265.426 264.022 264.627 263.984C263.829 264.022 263.047 263.743 262.454 263.207C261.86 262.671 261.503 261.921 261.461 261.123V240.954C261.461 239.24 263.099 237.913 264.999 238.11C265.734 238.155 266.426 238.471 266.942 238.996C267.458 239.521 267.762 240.219 267.794 240.954Z" fill="#A4B5FD"/>
    <path opacity="0.5" d="M302.648 220.377L284.38 220.748L281.394 224.848V239.016L285.123 241.626H302.648L306.376 237.526V224.1L302.648 220.377Z" fill="#A4B5FD"/>
    <path opacity="0.2" d="M302.271 222.61C302.271 222.61 285.494 225.219 284.003 222.61L284.375 220.748L302.271 220.377V222.61Z" fill="white"/>
    <path opacity="0.5" d="M304.127 261.385L307.108 264.371V278.566L304.127 281.52C304.127 281.52 293.312 285.249 286.231 282.263L282.873 278.91V264.742L285.86 261.385H304.127Z" fill="#A4B5FD"/>
    <path opacity="0.2" d="M303.39 264.742C303.39 264.742 290.342 267.723 285.871 264.742V261.385H304.127L303.39 264.742Z" fill="white"/>
    <path opacity="0.5" d="M297.03 241.528V261.696C296.986 262.494 296.628 263.242 296.035 263.778C295.442 264.314 294.662 264.594 293.863 264.557C293.064 264.595 292.282 264.316 291.687 263.78C291.093 263.244 290.735 262.495 290.691 261.696V241.528C290.691 239.813 292.329 238.486 294.234 238.683C294.969 238.728 295.662 239.044 296.178 239.569C296.694 240.094 296.997 240.792 297.03 241.528Z" fill="#A4B5FD"/>
    <path opacity="0.5" d="M339.892 231.16L324.851 231.471L322.395 234.845V246.507L325.463 248.658H339.892L342.96 245.278V234.228L339.892 231.16Z" fill="#A4B5FD"/>
    <path opacity="0.2" d="M339.581 233.005C339.581 233.005 325.774 235.151 324.546 233.005L324.851 231.471L339.592 231.16L339.581 233.005Z" fill="white"/>
    <path opacity="0.5" d="M341.115 264.923L343.572 267.379V279.041L341.115 281.498C341.115 281.498 332.216 284.567 326.375 282.11L323.612 279.347V267.685L326.069 264.923H341.115Z" fill="#A4B5FD"/>
    <path opacity="0.2" d="M340.504 267.685C340.504 267.685 329.76 270.142 326.08 267.685V264.923H341.115L340.504 267.685Z" fill="white"/>
    <path opacity="0.5" d="M335.285 248.576V265.179C335.249 265.837 334.955 266.454 334.466 266.895C333.977 267.336 333.333 267.565 332.675 267.532C332.018 267.565 331.374 267.336 330.886 266.894C330.398 266.453 330.105 265.836 330.071 265.179V248.576C330.092 248.225 330.186 247.882 330.347 247.569C330.508 247.257 330.733 246.981 331.007 246.761C331.281 246.54 331.598 246.379 331.938 246.289C332.278 246.198 332.633 246.179 332.981 246.234C333.586 246.271 334.156 246.531 334.582 246.963C335.007 247.396 335.257 247.97 335.285 248.576Z" fill="#A4B5FD"/>
    <path opacity="0.5" d="M363.974 231.635L348.933 231.94L346.482 235.314V246.982L349.55 249.127H363.974L367.042 245.753V234.703L363.974 231.635Z" fill="#A4B5FD"/>
    <path opacity="0.2" d="M363.668 233.474C363.668 233.474 349.856 235.626 348.627 233.474L348.933 231.94L363.674 231.635L363.668 233.474Z" fill="white"/>
    <path opacity="0.5" d="M365.203 265.398L367.654 267.849V279.511L365.203 281.968C365.203 281.968 356.298 285.036 350.462 282.585L347.705 279.839V268.16L350.162 265.398H365.203Z" fill="#A4B5FD"/>
    <path opacity="0.2" d="M364.586 268.16C364.586 268.16 353.847 270.612 350.162 268.16V265.398H365.203L364.586 268.16Z" fill="white"/>
    <path opacity="0.5" d="M359.372 249.046V265.643C359.336 266.301 359.042 266.918 358.553 267.359C358.064 267.8 357.42 268.029 356.762 267.996C356.104 268.029 355.46 267.8 354.971 267.359C354.482 266.918 354.188 266.301 354.152 265.643V249.046C354.152 247.637 355.517 246.545 357.068 246.709C357.673 246.745 358.243 247.003 358.668 247.435C359.094 247.866 359.344 248.44 359.372 249.046Z" fill="#A4B5FD"/>
    </g>
    <path d="M572.734 291.888C571.561 289.764 569.366 288.367 567.056 287.722C564.72 287.161 562.304 287.009 559.915 287.275C556.057 287.549 552.231 288.18 548.489 289.158C546.168 289.77 543.761 290.589 542.194 292.434C542.15 292.489 542.101 292.554 542.052 292.609C539.655 293.237 537.275 294.203 534.955 294.989C532.626 295.762 530.257 296.405 527.857 296.917C530.996 295.131 534.054 293.242 536.642 290.72C537.865 289.533 538.962 288.223 539.917 286.811C541.691 287.319 543.552 287.443 545.377 287.176C549.073 286.543 552.059 283.901 554.838 281.324L563.775 273.101C565.2 271.791 566.647 270.448 567.597 268.734C568.88 266.348 568.995 263.509 569.027 260.784C569.071 257.039 569.027 253.293 568.918 249.553L571.746 251.737C571.316 247.124 572.174 242.483 574.225 238.328C575.208 236.346 576.496 234.375 576.523 232.153C576.567 228.725 573.619 226.027 570.6 224.51C567.581 222.992 564.185 222.02 561.712 219.689C558.032 216.222 557.344 210.691 555.526 205.941C554.448 203.34 553.17 200.827 551.704 198.423L548.167 192.254C546.387 189.002 544.403 185.868 542.227 182.868C538.547 178.015 533.912 174.013 529.31 170.054L505.375 149.433C499.555 144.415 493.714 139.392 487.419 135.003C474.649 126.098 460.241 119.983 445.927 113.928C442.323 112.4 438.573 110.849 434.674 111.035C431.738 111.225 428.956 112.416 426.791 114.409C424.74 113.786 422.733 113.023 420.786 112.127L420.633 112.056C420.676 111.733 420.725 111.417 420.758 111.095C420.807 110.669 420.835 110.243 420.867 109.812C421.946 109.645 422.989 109.304 423.957 108.802C424.449 108.569 424.883 108.232 425.23 107.813C425.669 107.084 425.894 106.246 425.879 105.395C426.316 99.6893 426.753 93.9292 426.283 88.2511C425.814 82.573 424.389 76.8239 421.37 71.9975C420.436 70.5015 419.268 69.0438 417.646 68.3941C415.463 67.5205 412.935 68.334 410.604 67.9409C406.569 67.2585 404.052 63.3111 401.131 60.401C393.745 53.0358 381.111 51.9275 372.584 57.8895C369.352 60.1553 366.764 63.2292 363.881 65.9372C360.999 68.6452 357.619 71.0966 353.726 71.6262C353.009 71.6566 352.307 71.8429 351.668 72.1722C350.871 72.6745 350.511 73.6409 350.205 74.5363C349.113 77.6265 348.065 80.7986 347.732 84.0308C347.694 83.8342 347.661 83.6376 347.628 83.4411C347.48 84.6382 347.449 85.8469 347.535 87.05C347.645 88.5833 348.088 90.0741 348.835 91.4178C349.456 92.6951 350.516 93.7066 351.821 94.2678C352.744 94.5944 353.719 94.7516 354.698 94.7318H355.13C354.971 95.1522 354.818 95.5726 354.676 95.9985C353.461 99.6066 352.843 103.389 352.848 107.196C352.848 126.305 368.096 141.789 386.92 141.789C389.186 141.778 391.445 141.54 393.663 141.08C394.4 141.314 395.137 141.555 395.847 141.811C397.3 142.291 398.725 142.853 400.116 143.493C400.706 143.771 403.091 145.163 405.974 146.96L405.777 147.369C402.965 149.996 400.902 153.323 399.8 157.01C398.697 160.698 398.595 164.611 399.504 168.351C401.59 176.469 408.431 183.431 407.743 191.79C407.645 192.98 407.393 194.186 407.595 195.366C407.874 197.004 408.982 198.336 410.09 199.548C411.051 200.607 412.05 201.633 413.066 202.638C412.984 207.972 412.52 213.301 412.018 218.619C411.974 219.083 411.963 219.552 411.958 220.027C411.987 222.326 412.822 224.542 414.316 226.29C415.899 228.217 416.533 231.105 416.232 233.682C415.801 237.373 413.983 240.72 412.766 244.219C407.273 259.96 414.021 277.709 410.221 293.963C409.288 297.965 407.715 301.858 407.492 305.974C407.366 308.546 407.77 311.243 406.782 313.618C405.925 315.682 404.139 317.172 402.453 318.619C400.069 320.661 397.746 322.772 395.486 324.952C392.07 323.085 388.544 321.426 384.928 319.984C384.338 319.747 383.737 319.539 383.126 319.362C378.857 315.365 373.474 312.81 368.418 309.873C364.225 307.443 360.229 304.713 356.211 301.983C352.389 299.363 348.485 296.72 345.253 293.351C343.616 291.648 342.158 289.77 340.394 288.214C338.845 286.924 337.202 285.748 335.481 284.698C327.735 279.68 320.35 274.124 313.381 268.073C308.069 263.465 303.723 257.53 298.045 253.397C294.567 250.864 290.522 248.554 286.263 249.029C284.908 249.189 283.592 249.594 282.382 250.225C281.253 249.747 280.047 249.476 278.822 249.428C275.361 249.319 272.183 251.197 269.213 253.004C251.743 263.621 234 273.766 215.983 283.437C212.347 285.391 208.689 287.329 205.217 289.568C198.442 293.95 192.439 299.424 187.452 305.767C186.535 306.93 185.377 308.251 183.92 308.076C183.521 308.015 183.137 307.878 182.79 307.672C180.546 306.455 179.17 304.102 177.876 301.869C176.937 300.231 175.921 298.522 174.546 297.277C174.251 296.502 173.859 295.768 173.377 295.093C175.315 290.31 176.986 285.413 178.537 280.483C179.345 277.895 180.125 275.291 181.157 272.779C183.701 266.566 187.758 260.937 189.194 254.364C189.537 252.775 189.739 251.142 190.007 249.537C205.703 246.447 217.55 232.426 217.55 215.588C217.55 196.479 202.296 180.996 183.477 180.996C164.659 180.996 149.41 196.479 149.41 215.588C149.393 221.405 150.84 227.132 153.616 232.243C156.392 237.354 160.409 241.685 165.297 244.836C165.297 244.902 165.297 244.967 165.297 245.027C165.265 246.125 165.157 247.22 164.975 248.303C164.347 251.961 162.791 255.401 161.225 258.737C160.187 260.97 159.15 263.214 158.074 265.441C157.558 265.338 157.057 265.169 156.584 264.939C155.661 264.426 155.257 263.301 154.908 262.307C153.362 257.754 151.469 253.326 149.246 249.062C148.379 247.25 147.278 245.559 145.971 244.034C143.667 241.511 140.511 240.015 137.459 238.503C136.913 238.241 136.406 237.957 135.881 237.706C135.428 237.369 134.954 237.061 134.462 236.783C131.923 235.347 129.106 234.315 126.988 232.306C125.399 230.799 124.307 228.839 122.822 227.24C120.349 224.581 116.937 223.063 113.623 221.616C111.898 220.863 110.085 220.093 108.202 220.197C107.936 220.209 107.672 220.239 107.41 220.284C106.957 220.361 106.509 220.463 106.067 220.59C105.637 220.361 105.231 220.091 104.855 219.782C102.83 218.22 102.044 215.539 101.383 213.044C100.291 208.873 99.1391 204.554 99.816 200.285C99.9339 199.548 100.094 198.819 100.296 198.101C100.466 197.823 100.63 197.555 100.777 197.255C105.124 195.948 109.095 193.622 112.36 190.469C115.626 187.317 118.09 183.43 119.549 179.132C121.008 174.834 121.419 170.249 120.747 165.76C120.075 161.272 118.34 157.008 115.687 153.326C115.408 152.944 115.141 152.572 114.83 152.201L115.157 152.021C118.176 150.175 118.864 145.764 117.467 142.477C116.069 139.19 113.099 136.87 110.091 135.046C109.654 134.779 109.212 134.528 108.764 134.277L108.382 134.069C108.044 133.884 107.71 133.703 107.372 133.523L106.973 133.321C106.575 133.119 106.176 132.928 105.778 132.742L105.598 132.655C105.101 132.431 104.604 132.213 104.102 132.005C103.616 131.803 103.13 131.618 102.639 131.459L102.437 131.383C101.973 131.214 101.503 131.055 101.034 130.903L100.93 130.87C97.4957 129.754 93.9158 129.15 90.3056 129.079C86.7715 129.1 83.2493 129.49 79.7961 130.242C76.434 130.851 73.1417 131.796 69.969 133.065C64.7253 135.287 60.1024 138.754 56.5004 143.165C55.7412 143.223 54.9885 143.347 54.251 143.536C51.2975 144.284 48.6387 145.933 46.2092 147.8C44.1743 149.296 42.3715 151.085 40.8589 153.107C39.0775 155.699 37.8491 158.63 37.2502 161.717C35.181 171.397 37.7251 181.372 39.5978 191.102C41.4704 200.831 42.5513 211.434 37.9599 220.164C36.2292 223.44 33.7725 226.284 31.9545 229.5C30.1364 232.716 28.8753 236.598 29.9235 240.163C31.1956 244.492 35.383 247.217 37.5668 251.148C40.1219 255.728 39.4176 261.882 36.0764 265.889C35.929 266.064 35.7816 266.238 35.6232 266.435C35.4649 266.632 35.2411 266.839 35.0336 267.025C38.4786 268.237 42.3166 266.932 45.4067 264.988C47.8779 263.528 49.9737 261.511 51.5268 259.097C55.4303 252.687 53.6778 244.399 55.0536 236.991C56.8607 227.289 64.1546 218.635 63.15 208.813C62.4731 202.223 58.171 196.714 54.7915 191.047C52.5452 187.243 50.6624 183.236 49.1683 179.079C49.1082 178.905 49.0481 178.724 48.9826 178.533C47.9945 175.722 47.2356 172.741 47.7433 169.798C47.9165 168.845 48.2024 167.915 48.595 167.03C48.595 167.133 48.595 167.243 48.595 167.346C48.6614 170.193 49.2943 172.997 50.4567 175.596C53.8689 182.694 62.08 185.969 67.2938 191.724C67.5122 191.964 67.7196 192.21 67.9271 192.461C67.9872 192.527 68.0417 192.598 68.0963 192.669L68.5386 193.214L68.7242 193.471C68.8607 193.662 68.9972 193.853 69.1227 194.05L69.292 194.296C69.4667 194.574 69.6414 194.841 69.8052 195.142C71.1318 193.673 72.5022 192.128 73.0372 190.228C73.0863 190.064 73.1191 189.895 73.1518 189.726C73.1955 189.769 73.2337 189.819 73.2774 189.868C73.3811 190.452 73.463 191.036 73.5395 191.626C73.5394 192.468 73.6291 193.308 73.807 194.132C74.2219 199.373 73.8889 204.756 73.5395 210.014C73.3538 212.826 74.0854 217.003 72.2947 219.099L72.2401 219.159C72.1351 219.281 72.0201 219.395 71.8962 219.498C71.5904 219.814 71.2792 220.126 70.9899 220.453C64.9844 227.223 62.2547 236.832 62.3966 246.037C62.5386 256.515 65.8853 266.664 69.6796 276.41C71.0047 279.968 72.566 283.433 74.3529 286.783C75.2754 288.592 76.4953 290.233 77.9617 291.637C79.4958 292.997 81.3629 293.892 83.2028 294.766C83.6614 294.984 84.1254 295.197 84.584 295.421L85.7578 295.967L94.695 300.214C96.3329 302.622 97.9161 305.095 99.5158 307.574C99.7451 307.923 99.9689 308.284 100.204 308.633C101.951 311.363 103.709 314.093 105.499 316.746L120.562 339.055C121.654 340.693 122.795 342.331 124.329 343.543C124.766 343.886 125.238 344.18 125.738 344.422C125.992 344.544 126.252 344.652 126.518 344.744C126.188 345.24 126.046 345.839 126.12 346.431C126.321 347.011 126.704 347.511 127.212 347.856C130.619 350.673 134.402 353.643 135.472 357.973C136.231 361.058 135.472 364.361 136.154 367.462C137.405 373.053 142.935 376.443 148.165 378.594C159.887 383.41 172.908 385.261 185.361 383.022C197.814 380.784 209.645 374.325 217.708 364.459C220.187 361.412 222.3 358.088 224.653 354.943C226.291 352.726 228.092 350.613 229.954 348.577C231.963 347.658 233.899 346.588 235.747 345.377C239.683 342.762 243.073 339.404 246.666 336.292C249.346 333.956 252.152 331.75 254.615 329.195C256.825 326.771 258.891 324.219 260.8 321.551C265.168 315.764 269.679 310.091 274.334 304.533C276.824 301.557 279.461 298.527 282.939 296.889L283.097 296.824C283.512 299.27 285.45 301.345 286.809 303.457C292.433 312.193 298.318 321.185 307.01 326.754C311.77 329.801 317.153 331.668 322.525 333.371C336.174 337.684 350.041 341.07 363.919 344.46C364.378 343.586 364.826 342.778 365.328 341.992C365.543 342.22 365.744 342.46 365.928 342.713C365.989 342.8 366.038 342.893 366.098 342.98C365.997 343 365.899 343.027 365.803 343.062C364.912 343.477 364.211 344.215 363.843 345.126C362.347 348.124 362.205 351.601 362.134 354.954C362.085 358.229 362.134 361.505 362.134 364.781C362.054 366.004 362.241 367.23 362.68 368.374C363.739 370.558 366.431 371.371 368.838 371.649C373.02 372.114 377.235 371.72 381.395 371.158C381.635 372.139 382.028 373.077 382.558 373.937C384.895 377.759 388.929 380.281 393.128 381.761C397.326 383.241 401.776 383.83 406.138 384.698C413.885 386.238 421.812 388.7 429.515 386.964C432.589 386.271 435.521 384.928 438.594 384.338C445.632 383.006 452.926 385.703 460.012 384.622C463.435 384.076 466.673 382.711 469.774 381.144C471.337 380.458 472.754 379.48 473.95 378.261C475.086 376.984 475.768 375.171 475.299 373.517C475.031 372.567 474.42 371.759 474.01 370.863C473.461 369.431 473.15 367.919 473.088 366.386C472.518 360.588 471.536 354.837 470.15 349.177C470.112 349.019 470.068 348.855 470.025 348.691C475.381 346.567 480.179 343.232 484.918 339.912L495.111 332.782C498.387 330.472 501.744 328.152 505.424 326.536C511.069 324.057 517.32 323.347 523.473 323.353C525.99 323.353 528.512 323.478 531.018 323.708C530.699 324.056 530.459 324.47 530.314 324.92C529.812 326.481 530.609 328.195 531.794 329.337C532.978 330.478 534.523 331.122 535.915 331.914C539.762 334.08 542.965 337.228 545.197 341.037C546.594 343.434 547.61 346.344 546.725 348.981C545.633 352.289 541.741 354.571 541.965 358.055C542.096 360.108 543.75 361.806 545.633 362.565C547.517 363.323 549.608 363.312 551.639 363.252C554.964 363.149 558.387 362.892 561.362 361.38C563.366 360.359 565.064 358.819 566.729 357.296C568.247 355.904 569.797 354.457 570.66 352.579C571.468 350.81 571.593 348.806 571.632 346.862C571.795 337.712 570.218 328.436 572.036 319.471C572.581 316.741 573.455 314.071 573.919 311.319C574.651 306.952 574.372 302.54 574.094 298.151C573.957 295.988 573.794 293.761 572.734 291.888Z" fill="url(#paint0_linear_1_28)"/>
    <path opacity="0.06" d="M457.386 165.337C455.24 166.784 454.493 169.579 454.22 172.156C453.057 183.114 457.577 193.962 457.277 204.975C457.037 213.738 453.772 222.096 450.551 230.248C445.059 244.154 442.198 259.255 441.089 274.166C439.981 289.076 438.36 304.604 430.356 317.216C428.538 320.071 426.42 322.725 424.64 325.597C422.773 328.599 421.293 331.821 419.645 334.944C414.787 344.167 408.525 352.579 401.082 359.878C398.898 362.008 396.584 364.071 393.799 365.3C392.005 366.078 390.073 366.49 388.117 366.511C386.161 366.531 384.221 366.16 382.411 365.42C378.676 363.875 375.532 360.392 375.379 356.351C375.242 352.737 377.399 349.478 379.561 346.584C386.889 336.78 395.315 327.848 404.675 319.962C406.373 318.532 408.163 317.052 409.042 315.01C410.03 312.657 409.626 309.987 409.752 307.438C409.954 303.37 411.537 299.51 412.482 295.546C416.303 279.446 409.512 261.865 415.037 246.267C416.265 242.8 418.089 239.486 418.52 235.833C418.826 233.278 418.192 230.423 416.593 228.506C415.095 226.784 414.257 224.586 414.229 222.304C414.229 221.834 414.229 221.37 414.283 220.912C414.949 213.765 415.61 206.585 415.25 199.417C414.889 192.248 413.464 185.041 410.156 178.67C408.442 175.367 406.225 172.276 405.166 168.711C403.463 162.94 405.035 156.7 407.574 151.24C409.555 146.971 412.198 142.903 415.888 139.977C422.746 134.544 433.009 133.916 440.516 138.41C446.052 141.718 449.841 147.282 452.915 152.954C455.12 157.098 457.419 160.609 457.386 165.337Z" fill="black"/>
    <path d="M439.189 121.823C438.141 124.651 437.098 127.479 436.061 130.307C435.373 132.164 434.691 134.036 433.981 135.893C430.705 144.448 427.042 152.867 421.31 159.948C422.167 158.889 414.103 153.56 408.158 149.924C405.259 148.139 402.856 146.763 402.267 146.49C400.865 145.857 399.431 145.299 397.97 144.819C395.705 144.055 393.412 143.394 391.146 142.57C385.905 140.676 389.568 137.831 391.812 134.774C399.155 124.76 400.547 111.078 408.884 101.879C411.941 107.688 416.778 112.366 422.685 115.228C422.8 115.288 422.92 115.342 423.04 115.391C427.992 117.706 433.462 118.706 438.583 120.644C438.862 120.748 439.184 120.895 439.277 121.19C439.312 121.405 439.281 121.625 439.189 121.823Z" fill="#A1616A"/>
    <path d="M424.935 324.062C422.563 327.46 421.087 331.402 420.643 335.522C420.199 339.642 420.802 343.807 422.396 347.632C422.799 348.701 423.426 349.671 424.236 350.477C425.266 351.282 426.467 351.842 427.746 352.115C438.589 355.199 450.163 354.593 461.268 352.661C465.029 352.082 468.726 351.14 472.307 349.849C477.804 347.747 482.713 344.389 487.561 341.037L497.814 333.972C501.133 331.684 504.48 329.386 508.187 327.781C513.864 325.329 520.154 324.625 526.339 324.63C531.653 324.637 536.954 325.143 542.172 326.143C545.65 326.814 549.815 327.508 552.261 324.969C553.659 323.533 554.074 321.431 554.347 319.449C555.427 311.738 555.407 303.912 554.287 296.207C554.259 295.559 554.024 294.936 553.615 294.432C553.23 294.105 552.761 293.892 552.261 293.816C547.429 292.724 542.581 294.989 537.886 296.545C528.13 299.788 517.653 300.176 507.728 302.846C497.311 305.647 487.528 310.948 476.762 312.024C471.63 312.537 466.476 312.089 461.333 312.204C456.562 312.308 452.112 313.956 447.439 314.153C438.431 314.552 430.596 316.124 424.935 324.062Z" fill="#A1616A"/>
    <path opacity="0.06" d="M424.935 324.062C422.563 327.46 421.087 331.402 420.643 335.522C420.199 339.642 420.802 343.807 422.396 347.632C422.799 348.701 423.426 349.671 424.236 350.477C425.266 351.282 426.467 351.842 427.746 352.115C438.589 355.199 450.163 354.593 461.268 352.661C465.029 352.082 468.726 351.14 472.307 349.849C477.804 347.747 482.713 344.389 487.561 341.037L497.814 333.972C501.133 331.684 504.48 329.386 508.187 327.781C513.864 325.329 520.154 324.625 526.339 324.63C531.653 324.637 536.954 325.143 542.172 326.143C545.65 326.814 549.815 327.508 552.261 324.969C553.659 323.533 554.074 321.431 554.347 319.449C555.427 311.738 555.407 303.912 554.287 296.207C554.259 295.559 554.024 294.936 553.615 294.432C553.23 294.105 552.761 293.892 552.261 293.816C547.429 292.724 542.581 294.989 537.886 296.545C528.13 299.788 517.653 300.176 507.728 302.846C497.311 305.647 487.528 310.948 476.762 312.024C471.63 312.537 466.476 312.089 461.333 312.204C456.562 312.308 452.112 313.956 447.439 314.153C438.431 314.552 430.596 316.124 424.935 324.062Z" fill="black"/>
    <path d="M433.746 312.521C433.49 313.727 433.261 315.005 433.621 316.184C434.068 317.344 434.823 318.359 435.805 319.121C445.086 327.431 458.347 329.151 470.745 330.499C474.103 330.865 477.521 331.231 480.846 330.625C483.876 330.079 486.704 328.741 489.493 327.42C495.499 324.576 501.537 321.698 506.685 317.516C511.735 313.421 515.786 308.18 521.017 304.32C526.962 299.952 534.272 297.452 539.579 292.309C543.415 288.607 545.966 283.774 546.856 278.517C547.457 274.93 547.26 271.267 546.856 267.652C546.425 263.498 545.732 259.272 543.755 255.592C541.468 251.333 537.624 248.117 533.568 245.475C524.986 239.895 514.88 236.434 504.633 236.521C490.438 236.647 477.335 244.907 467.148 254.183C456.372 264.008 447.651 275.871 441.488 289.087C438.009 296.572 435.411 304.436 433.746 312.521Z" fill="#464353"/>
    <path opacity="0.06" d="M433.746 312.521C433.49 313.727 433.261 315.005 433.621 316.184C434.068 317.344 434.823 318.359 435.805 319.121C445.086 327.431 458.347 329.151 470.745 330.499C474.103 330.865 477.521 331.231 480.846 330.625C483.876 330.079 486.704 328.741 489.493 327.42C495.499 324.576 501.537 321.698 506.685 317.516C511.735 313.421 515.786 308.18 521.017 304.32C526.962 299.952 534.272 297.452 539.579 292.309C543.415 288.607 545.966 283.774 546.856 278.517C547.457 274.93 547.26 271.267 546.856 267.652C546.425 263.498 545.732 259.272 543.755 255.592C541.468 251.333 537.624 248.117 533.568 245.475C524.986 239.895 514.88 236.434 504.633 236.521C490.438 236.647 477.335 244.907 467.148 254.183C456.372 264.008 447.651 275.871 441.488 289.087C438.009 296.572 435.411 304.436 433.746 312.521Z" fill="black"/>
    <path d="M457.386 165.337C455.24 166.784 454.493 169.579 454.22 172.156C453.057 183.114 457.577 193.962 457.277 204.975C457.037 213.738 453.772 222.096 450.551 230.248C445.059 244.154 442.198 259.255 441.089 274.166C439.981 289.076 438.36 304.604 430.356 317.216C428.538 320.071 426.42 322.725 424.64 325.597C422.773 328.599 421.293 331.821 419.645 334.944C414.787 344.167 408.525 352.579 401.082 359.878C398.898 362.008 396.584 364.071 393.799 365.3C392.005 366.078 390.073 366.49 388.117 366.511C386.161 366.531 384.221 366.16 382.411 365.42C378.676 363.875 375.532 360.392 375.379 356.351C375.242 352.737 377.399 349.478 379.561 346.584C386.889 336.78 395.315 327.848 404.675 319.962C406.373 318.532 408.163 317.052 409.042 315.01C410.03 312.657 409.626 309.987 409.752 307.438C409.954 303.37 411.537 299.51 412.482 295.546C416.303 279.446 409.512 261.865 415.037 246.267C416.265 242.8 418.089 239.486 418.52 235.833C418.826 233.278 418.192 230.423 416.593 228.506C415.095 226.784 414.257 224.586 414.229 222.304C414.229 221.834 414.229 221.37 414.283 220.912C414.949 213.765 415.61 206.585 415.25 199.417C414.889 192.248 413.464 185.041 410.156 178.67C408.442 175.367 406.225 172.276 405.166 168.711C403.463 162.94 405.035 156.7 407.574 151.24C409.555 146.971 412.198 142.903 415.888 139.977C422.746 134.544 433.009 133.916 440.516 138.41C446.052 141.718 449.841 147.282 452.915 152.954C455.12 157.098 457.419 160.609 457.386 165.337Z" fill="#A1616A"/>
    <path d="M427.222 202.016C438.635 202.016 447.887 187.498 447.887 169.59C447.887 151.682 438.635 137.165 427.222 137.165C415.81 137.165 406.558 151.682 406.558 169.59C406.558 187.498 415.81 202.016 427.222 202.016Z" fill="#A1616A"/>
    <path d="M374.522 339.033C375.132 339.893 375.546 340.877 375.735 341.915C375.924 342.952 375.882 344.019 375.614 345.039C377.561 346.437 379.929 347.127 382.323 346.993C384.7 346.864 387.036 346.326 389.23 345.405C391.138 344.709 392.944 343.761 394.602 342.587C397.452 340.48 399.515 337.466 401.153 334.343C402.076 332.618 402.862 330.385 401.699 328.834C401.242 328.308 400.685 327.878 400.061 327.568C395.855 325.168 391.475 323.086 386.958 321.338C385.718 320.766 384.371 320.465 383.006 320.454C381.33 320.546 379.807 321.464 378.474 322.49C375.48 324.818 373.066 327.808 371.421 331.226C370.908 332.318 369.357 334.911 370.127 336.036C370.476 336.554 371.765 336.735 372.311 337.062C373.179 337.555 373.932 338.227 374.522 339.033Z" fill="#FBBEBE"/>
    <path opacity="0.03" d="M374.522 339.033C375.132 339.893 375.546 340.877 375.735 341.915C375.924 342.952 375.882 344.019 375.614 345.039C377.561 346.437 379.929 347.127 382.323 346.993C384.7 346.864 387.036 346.326 389.23 345.405C391.138 344.709 392.944 343.761 394.602 342.587C397.452 340.48 399.515 337.466 401.153 334.343C402.076 332.618 402.862 330.385 401.699 328.834C401.242 328.308 400.685 327.878 400.061 327.568C395.855 325.168 391.475 323.086 386.958 321.338C385.718 320.766 384.371 320.465 383.006 320.454C381.33 320.546 379.807 321.464 378.474 322.49C375.48 324.818 373.066 327.808 371.421 331.226C370.908 332.318 369.357 334.911 370.127 336.036C370.476 336.554 371.765 336.735 372.311 337.062C373.179 337.555 373.932 338.227 374.522 339.033Z" fill="black"/>
    <path d="M397.13 326.383C406.367 328.097 414.862 332.563 423.941 334.971C427.615 335.943 431.399 336.609 434.909 338.039C438.42 339.47 441.728 341.916 443.24 345.399C443.88 347.071 444.304 348.818 444.502 350.597C444.895 353.114 445.217 355.925 443.721 357.989C442.143 360.173 439.162 360.654 436.493 360.976C426.895 362.117 417.297 363.263 407.666 364.071C405.716 364.19 403.775 364.421 401.852 364.765C400.269 365.081 398.724 365.562 397.151 365.933C395.115 366.408 393.046 366.708 390.982 367.025C385.703 367.784 380.363 368.543 375.062 367.964C372.644 367.697 369.936 366.916 368.871 364.732C368.429 363.6 368.243 362.385 368.325 361.172C368.298 357.929 368.271 354.692 368.325 351.454C368.374 348.129 368.538 344.678 370.045 341.714C370.419 340.806 371.123 340.074 372.016 339.666C372.565 339.509 373.14 339.457 373.708 339.514C376.547 339.612 379.484 339.732 382.023 340.999C384.038 341.998 385.676 343.663 387.728 344.569C391.615 346.294 396.305 345.055 400.241 346.677C401.159 343.849 400.951 340.988 400.269 338.089C399.586 335.189 398.631 332.345 398.342 329.386C398.33 328.736 398.204 328.092 397.97 327.486C397.675 326.88 397.774 326.29 397.13 326.383Z" fill="#464353"/>
    <path opacity="0.06" d="M397.13 326.383C406.367 328.097 414.862 332.563 423.941 334.971C427.615 335.943 431.399 336.609 434.909 338.039C438.42 339.47 441.728 341.916 443.24 345.399C443.88 347.071 444.304 348.818 444.502 350.597C444.895 353.114 445.217 355.925 443.721 357.989C442.143 360.173 439.162 360.654 436.493 360.976C426.895 362.117 417.297 363.263 407.666 364.071C405.716 364.19 403.775 364.421 401.852 364.765C400.269 365.081 398.724 365.562 397.151 365.933C395.115 366.408 393.046 366.708 390.982 367.025C385.703 367.784 380.363 368.543 375.062 367.964C372.644 367.697 369.936 366.916 368.871 364.732C368.429 363.6 368.243 362.385 368.325 361.172C368.298 357.929 368.271 354.692 368.325 351.454C368.374 348.129 368.538 344.678 370.045 341.714C370.419 340.806 371.123 340.074 372.016 339.666C372.565 339.509 373.14 339.457 373.708 339.514C376.547 339.612 379.484 339.732 382.023 340.999C384.038 341.998 385.676 343.663 387.728 344.569C391.615 346.294 396.305 345.055 400.241 346.677C401.159 343.849 400.951 340.988 400.269 338.089C399.586 335.189 398.631 332.345 398.342 329.386C398.33 328.736 398.204 328.092 397.97 327.486C397.675 326.88 397.774 326.29 397.13 326.383Z" fill="black"/>
    <path d="M88.5531 233.289C86.6914 232.699 84.8952 234.348 83.8524 236.019C79.5176 242.833 79.8725 251.928 83.3392 259.223C84.1641 261.072 85.3018 262.766 86.7023 264.229C88.5804 266.08 90.9989 267.265 93.2537 268.597C99.51 272.293 104.872 277.327 108.955 283.338C111.625 287.275 113.727 291.604 116.757 295.268C124.215 304.287 136.471 308.371 143.705 317.544C145.436 319.727 146.899 322.261 149.208 323.85C150.581 324.793 152.181 325.354 153.843 325.473C155.504 325.591 157.168 325.264 158.661 324.525C160.154 323.786 161.423 322.662 162.336 321.268C163.249 319.875 163.774 318.263 163.856 316.599C166.668 312.466 168.966 307.902 171.155 303.403C174.394 296.536 177.131 289.443 179.345 282.181C180.158 279.615 180.944 277.032 181.981 274.537C184.542 268.379 188.62 262.804 190.062 256.296C190.64 253.686 190.782 250.973 191.623 248.44C192.376 246.166 193.664 244.106 195.379 242.434C201.057 236.914 204.114 228.872 208.629 222.375C210.464 219.749 212.369 217.128 213.581 214.158C214.793 211.188 215.257 207.787 214.127 204.784C212.997 201.781 210.043 199.357 206.844 199.526C205.412 199.674 204.023 200.101 202.755 200.782C198.346 202.874 194.302 205.661 190.777 209.037C189.235 210.52 187.777 212.088 186.409 213.732C179.738 221.703 174.518 231.378 174.06 241.762C173.907 245.322 174.191 249.27 171.931 252.027C165.696 259.643 163.692 270.115 158.375 278.403C155.912 282.225 153.09 286.183 148.881 287.924C148.259 288.224 147.571 288.359 146.882 288.318C145.201 288.127 144.235 286.358 143.525 284.818C140.751 278.813 137.542 273.019 133.922 267.483C132.491 265.299 130.913 263.061 128.626 261.778C127.064 260.91 125.252 260.522 123.783 259.507C121.736 258.092 120.666 255.685 119.601 253.43C116.151 246.147 111.782 239.336 106.602 233.163C104.233 230.341 101.11 227.425 97.4521 227.846C93.9689 228.255 91.8397 231.919 88.5531 233.289Z" fill="#FBBEBE"/>
    <path opacity="0.03" d="M88.5531 233.289C86.6914 232.699 84.8952 234.348 83.8524 236.019C79.5176 242.833 79.8725 251.928 83.3392 259.223C84.1641 261.072 85.3018 262.766 86.7023 264.229C88.5804 266.08 90.9989 267.265 93.2537 268.597C99.51 272.293 104.872 277.327 108.955 283.338C111.625 287.275 113.727 291.604 116.757 295.268C124.215 304.287 136.471 308.371 143.705 317.544C145.436 319.727 146.899 322.261 149.208 323.85C150.581 324.793 152.181 325.354 153.843 325.473C155.504 325.591 157.168 325.264 158.661 324.525C160.154 323.786 161.423 322.662 162.336 321.268C163.249 319.875 163.774 318.263 163.856 316.599C166.668 312.466 168.966 307.902 171.155 303.403C174.394 296.536 177.131 289.443 179.345 282.181C180.158 279.615 180.944 277.032 181.981 274.537C184.542 268.379 188.62 262.804 190.062 256.296C190.64 253.686 190.782 250.973 191.623 248.44C192.376 246.166 193.664 244.106 195.379 242.434C201.057 236.914 204.114 228.872 208.629 222.375C210.464 219.749 212.369 217.128 213.581 214.158C214.793 211.188 215.257 207.787 214.127 204.784C212.997 201.781 210.043 199.357 206.844 199.526C205.412 199.674 204.023 200.101 202.755 200.782C198.346 202.874 194.302 205.661 190.777 209.037C189.235 210.52 187.777 212.088 186.409 213.732C179.738 221.703 174.518 231.378 174.06 241.762C173.907 245.322 174.191 249.27 171.931 252.027C165.696 259.643 163.692 270.115 158.375 278.403C155.912 282.225 153.09 286.183 148.881 287.924C148.259 288.224 147.571 288.359 146.882 288.318C145.201 288.127 144.235 286.358 143.525 284.818C140.751 278.813 137.542 273.019 133.922 267.483C132.491 265.299 130.913 263.061 128.626 261.778C127.064 260.91 125.252 260.522 123.783 259.507C121.736 258.092 120.666 255.685 119.601 253.43C116.151 246.147 111.782 239.336 106.602 233.163C104.233 230.341 101.11 227.425 97.4521 227.846C93.9689 228.255 91.8397 231.919 88.5531 233.289Z" fill="black"/>
    <path d="M88.171 207.202C96.1191 207.202 102.562 201.387 102.562 194.214C102.562 187.04 96.1191 181.225 88.171 181.225C80.223 181.225 73.7798 187.04 73.7798 194.214C73.7798 201.387 80.223 207.202 88.171 207.202Z" fill="#FBBEBE"/>
    <path d="M101.667 196.725C104.528 196.725 106.848 194.405 106.848 191.544C106.848 188.682 104.528 186.363 101.667 186.363C98.8055 186.363 96.4858 188.682 96.4858 191.544C96.4858 194.405 98.8055 196.725 101.667 196.725Z" fill="#FBBEBE"/>
    <path d="M90.06 194.214C101.008 194.214 109.883 191.84 109.883 188.912C109.883 185.984 101.008 183.611 90.06 183.611C79.1118 183.611 70.2366 185.984 70.2366 188.912C70.2366 191.84 79.1118 194.214 90.06 194.214Z" fill="#FBBEBE"/>
    <path d="M72.3821 187.782C72.8644 189.311 73.2438 190.871 73.5177 192.45C71.8532 190.76 70.4112 188.865 69.2265 186.81C68.9071 186.456 68.6505 186.05 68.4676 185.609C66.6987 181.492 65.4922 177.327 65.4922 172.817C65.4918 167.588 66.9533 162.463 69.7118 158.021C72.4703 153.579 76.4158 149.997 81.1027 147.679C85.7896 145.361 91.0312 144.4 96.2355 144.904C101.44 145.408 106.4 147.358 110.555 150.532C114.709 153.706 117.894 157.979 119.749 162.868C121.604 167.757 122.054 173.067 121.051 178.199C120.047 183.33 117.628 188.079 114.068 191.908C110.507 195.738 105.947 198.495 100.903 199.87C101.76 197.107 102.933 194.41 103.086 191.544C103.178 190.588 103.04 189.624 102.682 188.732C102.203 187.784 101.496 186.97 100.624 186.363C97.5013 183.977 93.4831 182.934 89.5522 182.999C85.6168 183.163 81.7507 184.09 78.1692 185.729C77.039 186.215 75.6851 186.87 74.3475 187.318C73.7098 187.539 73.0513 187.694 72.3821 187.782Z" fill="#FBBEBE"/>
    <path d="M143.492 249.139C141.696 252.016 137.858 252.895 134.484 252.638C128.195 252.174 122.473 248.816 117.614 244.776C112.755 240.736 108.508 236.041 103.539 232.153C94.2965 224.908 83.8853 221.998 72.1255 221.829C74.4239 219.923 73.5777 215.403 73.7633 212.433C74.1673 206.427 74.5495 200.263 73.7633 194.345C73.6814 193.706 73.5886 193.078 73.4794 192.45C73.6651 192.647 73.8616 192.838 74.0636 193.034C77.5607 196.39 81.8672 198.784 86.5637 199.982C91.2603 201.18 96.1871 201.141 100.864 199.87C100.563 200.821 100.328 201.791 100.16 202.774C99.483 206.995 100.619 211.275 101.738 215.408C102.404 217.882 103.196 220.535 105.232 222.08C106.553 223.085 108.218 223.478 109.785 224.007C112.908 225.072 115.791 226.742 118.269 228.921C119.994 230.433 121.545 232.197 123.396 233.513C125.156 234.626 127.01 235.584 128.937 236.374C133.667 238.556 138.135 241.265 142.258 244.449C143.036 244.934 143.642 245.652 143.989 246.501C144.091 246.952 144.099 247.418 144.014 247.871C143.928 248.325 143.751 248.756 143.492 249.139Z" fill="#FBBEBE"/>
    <path d="M175.741 302.038C175.365 304.528 173.083 306.471 171.472 308.404C167.093 313.689 162.655 318.99 157.758 323.828C152.517 328.998 146.762 333.606 141.013 338.214L133.556 344.182C132.636 345.023 131.557 345.672 130.384 346.093C129.009 346.435 127.556 346.263 126.3 345.607C125.8 345.367 125.326 345.076 124.886 344.739C123.341 343.537 122.205 341.899 121.097 340.289C116.053 332.925 111.003 325.56 105.947 318.193C104.145 315.562 102.377 312.859 100.619 310.157C100.384 309.807 100.16 309.452 99.9252 309.103C98.3201 306.646 96.7205 304.189 95.0772 301.814L86.0908 297.605L84.9116 297.059L83.5194 296.409C81.6686 295.541 79.7906 294.656 78.251 293.313C76.7768 291.927 75.549 290.301 74.6204 288.503C72.8222 285.179 71.25 281.737 69.9143 278.201C66.0927 268.553 62.7296 258.497 62.5877 248.112C62.4621 238.978 65.1591 229.478 71.2301 222.774C72.0599 221.851 72.9519 220.986 73.8998 220.186C75.0681 219.208 76.2746 218.635 77.776 218.848C79.2774 219.061 80.7023 219.279 82.1436 219.525C86.1181 220.209 90.0617 221.046 93.9744 222.036C97.5012 222.937 101.154 223.964 104.719 223.249C105.292 223.134 105.86 222.97 106.427 222.823C106.892 222.703 107.35 222.588 107.825 222.511C108.089 222.466 108.355 222.437 108.622 222.424C110.517 222.326 112.335 223.085 114.082 223.833C117.417 225.263 120.851 226.77 123.363 229.402C124.859 230.985 125.956 232.929 127.55 234.419C129.68 236.412 132.518 237.433 135.073 238.858C135.567 239.132 136.043 239.436 136.498 239.77C137.506 240.525 138.422 241.395 139.228 242.363C142.537 246.267 144.502 251.535 148.154 255.417C151.077 258.518 153.618 261.959 155.721 265.665C156.065 266.282 156.398 266.905 156.726 267.538C157.272 268.592 157.78 269.662 158.249 270.743C158.369 271.021 158.489 271.289 158.598 271.578C159.285 273.214 159.885 274.885 160.395 276.585C161.634 280.707 162.458 285.156 165.21 288.465C167.132 290.764 169.796 292.287 172.04 294.269C173.485 295.493 174.622 297.04 175.359 298.784C175.764 299.818 175.896 300.938 175.741 302.038Z" fill="#FBBEBE"/>
    <path opacity="0.06" d="M160.542 269.247C159.916 270.037 159.274 270.816 158.615 271.584C158.506 271.726 158.386 271.862 158.265 271.999C152.519 278.721 145.94 284.686 138.688 289.748C134.2 292.882 129.467 295.661 124.744 298.435L116.009 303.55C112.357 305.696 108.655 307.858 104.604 309.092C103.305 309.48 101.945 309.791 100.619 310.157C100.384 309.807 100.16 309.452 99.9253 309.103C98.3202 306.646 96.7205 304.189 95.0772 301.814L86.0909 297.605C91.0537 294.468 95.4566 290.522 99.1172 285.932C104.577 279.2 108.775 271.523 112.913 263.896C113.647 262.665 114.218 261.344 114.611 259.965C115.157 257.678 114.699 255.275 114.027 253.026C111.569 244.961 106.4 237.992 99.3957 233.3C94.4821 230.024 88.8916 228.031 83.3338 226.109C79.4521 224.766 75.1992 223.467 71.252 224.018C72.0804 223.096 72.9725 222.233 73.9216 221.436C75.09 220.453 76.2965 219.88 77.7979 220.093C79.2993 220.306 80.7242 220.524 82.1655 220.775C85.0863 221.671 87.958 222.741 90.8133 223.844C92.6917 224.532 94.5165 225.359 96.2728 226.317C98.021 227.384 99.7004 228.56 101.301 229.838C106.035 233.447 111.019 236.715 116.216 239.617C122.222 242.931 128.528 245.623 134.828 248.352C135.496 248.696 136.233 248.882 136.984 248.898C137.36 248.898 137.726 248.772 138.022 248.54C138.319 248.309 138.53 247.985 138.622 247.621C138.647 247.223 138.556 246.827 138.36 246.48C137.268 244.247 134.79 243.122 132.546 242.035C123.232 237.526 115.043 231.034 106.941 224.592C106.744 224.436 106.571 224.252 106.428 224.046L107.825 223.734C116.892 230.247 126.468 236.02 136.46 240.998C136.988 241.267 137.518 241.53 138.049 241.784C138.431 241.975 138.808 242.161 139.195 242.33C141.887 243.652 144.579 245.06 146.604 247.244C147.91 248.75 149.012 250.423 149.88 252.218C152.111 256.434 154.017 260.814 155.579 265.321C155.609 265.418 155.644 265.512 155.683 265.605C155.881 266.294 156.224 266.932 156.688 267.478C156.851 267.661 157.045 267.814 157.261 267.931C158.287 268.537 159.696 268.471 160.542 269.247Z" fill="black"/>
    <path d="M107.847 222.511C116.913 229.024 126.489 234.796 136.482 239.77L138.071 240.561C141.128 242.057 144.311 243.542 146.631 246.021C147.936 247.53 149.038 249.204 149.907 251C152.14 255.215 154.044 259.596 155.601 264.104C155.951 265.103 156.36 266.2 157.288 266.713C158.216 267.227 159.69 267.188 160.515 267.964C159.772 268.892 159.019 269.809 158.238 270.694C152.493 277.42 145.914 283.386 138.66 288.449C134.173 291.583 129.439 294.362 124.717 297.135L115.982 302.251C112.329 304.391 108.628 306.553 104.577 307.787C103.054 308.251 101.443 308.601 99.898 309.048C98.2929 306.591 96.6932 304.134 95.0499 301.759L84.8843 296.999C90.3438 293.908 95.1045 289.513 99.079 284.627C104.539 277.9 108.737 270.224 112.875 262.597C113.608 261.365 114.179 260.044 114.573 258.666C115.119 256.378 114.66 253.97 113.989 251.721C111.529 243.682 106.376 236.735 99.3957 232.05C94.4821 228.774 88.8916 226.786 83.3338 224.859C79.4521 223.521 75.1992 222.217 71.252 222.774C72.0818 221.851 72.9738 220.986 73.9216 220.186C75.09 219.208 76.2965 218.635 77.7979 218.848C79.2993 219.061 80.7242 219.279 82.1655 219.525C85.0863 220.426 87.958 221.496 90.8133 222.599C92.6927 223.285 94.5177 224.112 96.2728 225.072C98.021 226.139 99.7004 227.316 101.301 228.594C106.043 232.194 111.034 235.453 116.238 238.345C122.244 241.664 128.549 244.378 134.85 247.08C135.518 247.424 136.255 247.611 137.006 247.626C137.383 247.627 137.749 247.502 138.046 247.271C138.343 247.039 138.554 246.714 138.644 246.349C138.669 245.953 138.577 245.558 138.382 245.213C137.29 242.98 134.811 241.85 132.568 240.769C123.254 236.259 115.064 229.762 106.963 223.298C106.764 223.143 106.591 222.959 106.449 222.752L107.847 222.511Z" fill="#A4B5FD"/>
    <path d="M184.34 252.152C203.266 252.152 218.609 236.809 218.609 217.882C218.609 198.954 203.266 183.611 184.34 183.611C165.414 183.611 150.071 198.954 150.071 217.882C150.071 236.809 165.414 252.152 184.34 252.152Z" fill="#A4B5FD"/>
    <path d="M218.413 354.277C224.828 352.262 231.341 350.209 236.975 346.524C240.933 343.936 244.345 340.605 247.938 337.526C250.64 335.211 253.457 333.027 255.936 330.472C258.156 328.081 260.235 325.562 262.16 322.927C266.542 317.19 271.068 311.563 275.737 306.045C278.243 303.103 280.891 300.105 284.391 298.467C290.609 295.546 297.909 297.517 304.471 299.521C314.298 302.524 324.076 305.707 333.27 310.277C338.5 312.881 343.566 315.785 348.846 318.281C358.498 322.839 368.746 325.968 378.955 329.08C379.713 329.403 380.556 329.472 381.357 329.276C381.93 329.014 382.422 328.603 382.782 328.086C384.113 326.442 385.18 324.6 385.943 322.627C386.088 322.403 386.143 322.131 386.095 321.869C386.047 321.606 385.901 321.371 385.686 321.213C381.319 316.959 375.652 314.344 370.356 311.314C366.141 308.906 362.107 306.204 358.078 303.501C354.207 300.908 350.303 298.287 347.055 294.951C345.417 293.264 343.943 291.402 342.169 289.863C340.601 288.58 338.94 287.416 337.201 286.379C329.418 281.409 321.99 275.906 314.969 269.907C309.63 265.343 305.257 259.463 299.552 255.368C296.052 252.857 291.979 250.569 287.699 251.028C282.491 251.574 278.647 255.941 275.017 259.709C262.815 272.381 247.419 281.449 233.803 292.593C222.688 301.678 212.298 312.471 198.759 317.265C199.365 319.274 199.577 321.283 200.189 323.271C200.951 326.033 201.901 328.74 203.033 331.373C204.156 333.704 205.419 335.965 206.817 338.143L212.244 347.004C213.335 348.806 214.476 350.635 216.038 352.065C216.857 352.852 218.413 353.136 218.413 354.277Z" fill="#464353"/>
    <path opacity="0.06" d="M218.413 354.277C224.828 352.262 231.341 350.209 236.975 346.524C240.933 343.936 244.345 340.605 247.938 337.526C250.64 335.211 253.457 333.027 255.936 330.472C258.156 328.081 260.235 325.562 262.16 322.927C266.542 317.19 271.068 311.563 275.737 306.045C278.243 303.103 280.891 300.105 284.391 298.467C290.609 295.546 297.909 297.517 304.471 299.521C314.298 302.524 324.076 305.707 333.27 310.277C338.5 312.881 343.566 315.785 348.846 318.281C358.498 322.839 368.746 325.968 378.955 329.08C379.713 329.403 380.556 329.472 381.357 329.276C381.93 329.014 382.422 328.603 382.782 328.086C384.113 326.442 385.18 324.6 385.943 322.627C386.088 322.403 386.143 322.131 386.095 321.869C386.047 321.606 385.901 321.371 385.686 321.213C381.319 316.959 375.652 314.344 370.356 311.314C366.141 308.906 362.107 306.204 358.078 303.501C354.207 300.908 350.303 298.287 347.055 294.951C345.417 293.264 343.943 291.402 342.169 289.863C340.601 288.58 338.94 287.416 337.201 286.379C329.418 281.409 321.99 275.906 314.969 269.907C309.63 265.343 305.257 259.463 299.552 255.368C296.052 252.857 291.979 250.569 287.699 251.028C282.491 251.574 278.647 255.941 275.017 259.709C262.815 272.381 247.419 281.449 233.803 292.593C222.688 301.678 212.298 312.471 198.759 317.265C199.365 319.274 199.577 321.283 200.189 323.271C200.951 326.033 201.901 328.74 203.033 331.373C204.156 333.704 205.419 335.965 206.817 338.143L212.244 347.004C213.335 348.806 214.476 350.635 216.038 352.065C216.857 352.852 218.413 353.136 218.413 354.277Z" fill="black"/>
    <path d="M367.872 343.876C368.481 344.737 368.895 345.72 369.084 346.758C369.272 347.795 369.231 348.862 368.964 349.882C370.904 351.284 373.267 351.98 375.657 351.853C378.038 351.721 380.379 351.186 382.58 350.269C384.487 349.571 386.293 348.624 387.952 347.452C390.807 345.345 392.866 342.331 394.531 339.202C395.453 337.483 396.24 335.25 395.049 333.699C394.595 333.17 394.038 332.739 393.412 332.432C389.214 330.034 384.843 327.952 380.336 326.203C379.095 325.632 377.749 325.329 376.383 325.313C374.702 325.406 373.179 326.328 371.847 327.355C368.855 329.684 366.442 332.674 364.798 336.09C364.285 337.182 362.735 339.781 363.499 340.906C363.848 341.424 365.137 341.605 365.683 341.927C366.541 342.416 367.287 343.08 367.872 343.876Z" fill="#FBBEBE"/>
    <path d="M392.871 330.958C402.109 332.678 410.604 337.139 419.683 339.546C423.357 340.518 427.14 341.184 430.651 342.615C434.161 344.045 437.47 346.491 438.982 349.974C439.621 351.647 440.045 353.393 440.243 355.172C440.636 357.689 440.958 360.501 439.463 362.565C437.885 364.748 434.904 365.234 432.234 365.551C422.636 366.698 413.039 367.839 403.408 368.647C401.462 368.768 399.524 369 397.605 369.34C396.021 369.662 394.476 370.137 392.904 370.509C390.873 370.989 388.798 371.284 386.735 371.6C381.455 372.354 376.116 373.118 370.815 372.534C368.396 372.267 365.688 371.486 364.624 369.302C364.182 368.17 363.995 366.954 364.078 365.742C364.078 362.505 364.023 359.261 364.078 356.024C364.127 352.699 364.291 349.248 365.797 346.284C366.173 345.377 366.877 344.646 367.768 344.236C368.318 344.079 368.892 344.027 369.461 344.083C372.3 344.182 375.237 344.302 377.776 345.568C379.79 346.568 381.242 343.581 383.295 344.476C387.188 346.196 384.551 340.982 388.482 342.604C389.399 339.776 393.297 341.457 392.62 338.558C391.943 335.659 394.372 336.92 394.094 333.939C394.082 333.289 393.956 332.646 393.723 332.039C393.417 331.455 393.515 330.865 392.871 330.958Z" fill="#464353"/>
    <path opacity="0.06" d="M116.162 156.274C114.044 157.508 111.418 157.279 108.95 157.224C106.792 157.179 104.633 157.291 102.491 157.557C101.72 157.611 100.966 157.811 100.269 158.147C99.3622 158.732 98.6451 159.568 98.2056 160.554C97.3319 162.233 96.7434 164.045 96.464 165.916C96.1583 168.018 96.191 170.316 94.8808 171.982C93.0955 174.247 90.3112 173.898 87.7834 174.346C85.5835 174.768 83.475 175.574 81.5541 176.726C79.6601 177.87 78.0349 179.409 76.7894 181.237C75.5438 183.066 74.7073 185.142 74.3367 187.323C74.2657 187.82 74.2166 188.312 74.1947 188.809C74.1401 190.217 74.2821 191.653 74.0965 193.034C74.0515 193.379 73.9822 193.72 73.889 194.055C73.8648 194.154 73.8338 194.25 73.7962 194.345C73.7143 193.706 73.6215 193.078 73.5123 192.45C71.8478 190.76 70.4058 188.865 69.2211 186.81C68.9018 186.456 68.6451 186.05 68.4622 185.609C66.6934 181.492 65.4868 177.327 65.4868 172.817C65.4864 166.903 67.3563 161.14 70.8288 156.353C74.3014 151.566 79.1989 147.999 84.8208 146.164C90.4426 144.328 96.5009 144.318 102.129 146.134C107.757 147.95 112.667 151.499 116.156 156.274H116.162Z" fill="black"/>
    <path d="M117.958 145.529C116.555 142.281 113.59 139.977 110.544 138.169C104.538 134.588 97.6268 132.338 90.6168 132.246C87.0799 132.247 83.5526 132.612 80.0908 133.338C76.7174 133.941 73.4126 134.879 70.2255 136.138C64.9668 138.326 60.3183 141.758 56.6805 146.141C55.9163 146.199 55.1584 146.321 54.4148 146.506C51.4448 147.249 48.7697 148.881 46.3293 150.732C44.2871 152.212 42.4733 153.983 40.9462 155.99C39.159 158.553 37.9228 161.459 37.3157 164.524C35.2356 174.111 37.7961 184.004 39.6742 193.629C41.5522 203.255 42.6496 213.77 38.0363 222.419C36.2947 225.694 33.8216 228.479 31.9653 231.667C30.1091 234.856 28.8753 238.694 29.929 242.232C31.1846 246.534 35.4103 249.264 37.6159 253.135C38.9667 255.667 39.4489 258.573 38.9883 261.406C38.5277 264.238 37.1498 266.842 35.0663 268.815C38.5331 270.016 42.393 268.723 45.5158 266.801C47.9918 265.359 50.0983 263.361 51.6687 260.964C55.5941 254.609 53.8525 246.403 55.2174 239.06C57.0354 229.451 64.3729 220.879 63.3629 211.15C62.6805 204.598 58.3566 199.166 54.9553 193.547C52.6866 189.801 50.7799 185.846 49.261 181.738C48.1691 178.806 47.2847 175.656 47.8252 172.577C48.004 171.637 48.2917 170.72 48.6823 169.847C48.6823 169.951 48.6823 170.054 48.6823 170.158C48.7446 172.986 49.3797 175.772 50.5495 178.348C54.6114 186.646 65.4266 189.704 70.0071 197.724C71.3447 196.266 72.7369 194.738 73.2828 192.838C73.7633 191.145 73.5176 189.343 73.5886 187.585C73.7797 182.672 76.766 178.042 80.948 175.509C82.8674 174.354 84.9766 173.55 87.1773 173.134C89.6996 172.68 92.4839 173.024 94.2746 170.759C95.5849 169.121 95.5522 166.795 95.8633 164.698C96.1401 162.825 96.7288 161.01 97.6049 159.331C98.0429 158.346 98.7604 157.511 99.6686 156.929C100.366 156.591 101.123 156.39 101.896 156.339C104.036 156.073 106.193 155.962 108.349 156.006C110.844 156.066 113.514 156.29 115.654 155.007C118.668 153.173 119.361 148.805 117.958 145.529Z" fill="#464353"/>
    <path opacity="0.06" d="M423.04 115.392C423.04 115.468 423.04 115.539 423.04 115.615C422.052 124.133 413.863 123.739 411.952 137.159C411.199 142.417 403.217 143.389 397.97 144.803C395.705 144.039 393.412 143.378 391.146 142.554C385.905 140.659 389.568 137.815 391.812 134.757C399.155 124.744 400.547 111.062 408.884 101.862C411.941 107.671 416.778 112.349 422.685 115.211C422.8 115.288 422.92 115.342 423.04 115.392Z" fill="black"/>
    <path d="M423.232 110.505C423.231 111.797 423.158 113.087 423.013 114.37C422.008 123.235 417.585 131.358 410.685 137.013C403.785 142.669 394.952 145.41 386.063 144.656C377.174 143.901 368.93 139.709 363.082 132.972C357.234 126.234 354.244 117.482 354.747 108.575C355.251 99.6673 359.207 91.3073 365.777 85.2714C372.346 79.2354 381.01 75.9992 389.928 76.2506C398.845 76.5019 407.313 80.221 413.532 86.6175C419.751 93.0139 423.231 101.583 423.232 110.505Z" fill="#A1616A"/>
    <path d="M437.017 114.338C440.942 114.147 444.715 115.686 448.34 117.199C462.715 123.204 477.21 129.259 490.056 138.077C496.389 142.444 502.258 147.402 508.116 152.376L532.187 172.828C536.811 176.753 541.468 180.717 545.18 185.522C547.366 188.485 549.359 191.585 551.148 194.803L554.718 200.891C556.181 203.274 557.458 205.765 558.54 208.343C560.374 213.044 561.057 218.526 564.758 221.96C567.242 224.269 570.665 225.208 573.701 226.732C576.736 228.255 579.706 230.93 579.657 234.326C579.657 236.51 578.336 238.476 577.342 240.441C575.284 244.548 574.422 249.151 574.853 253.725L535.49 223.642C533.923 222.446 532.285 221.212 530.358 220.808C527.857 220.262 525.308 221.207 522.895 222.058C503.871 228.767 483.655 231.425 463.544 229.86C454.651 229.161 445.621 227.562 437.836 223.21C433.528 220.808 429.717 217.625 425.934 214.475C421.212 210.522 416.473 206.558 412.285 202.037C411.193 200.831 410.058 199.504 409.779 197.888C409.572 196.72 409.828 195.529 409.927 194.35C410.615 186.068 403.736 179.172 401.639 171.13C400.708 167.338 400.837 163.362 402.012 159.639C403.188 155.915 405.365 152.587 408.305 150.017C412.995 154.123 412.826 161.335 412.28 167.543C411.543 175.902 413.879 180.046 413.142 188.41C416.112 188.301 415.572 190.212 416.838 187.52C418.105 184.828 418.351 181.793 418.591 178.828C419.468 168.105 420.533 157.4 421.785 146.714C422.407 141.369 423.117 136.035 423.799 130.695C424.214 127.446 424.16 124.411 425.874 121.528C428.254 117.537 432.3 114.562 437.017 114.338Z" fill="#A4B5FD"/>
    <path d="M442.154 124.078C444.655 123.292 447.346 124.012 449.857 124.76C454.298 126.078 458.713 127.47 463.102 128.937C466.689 130.133 470.325 131.416 473.361 133.671C476.511 136.007 478.82 139.256 481.108 142.45C482.745 144.748 484.383 147.074 485.475 149.684C486.895 153.102 487.277 156.847 487.659 160.527C487.91 162.115 487.889 163.734 487.599 165.315C487.086 167.032 486.184 168.607 484.962 169.918C483.082 172.143 480.903 174.096 478.487 175.721C472.061 180.046 464.292 181.847 456.725 183.436C449.972 184.85 443.17 186.166 436.28 186.592C433.599 186.761 430.487 186.592 428.849 184.473C428.383 183.813 428.015 183.088 427.757 182.322C423.732 171.66 421.989 160.271 422.642 148.892C422.701 146.818 423.022 144.76 423.597 142.767C424.164 141.171 424.867 139.628 425.699 138.153C427.768 134.238 429.947 130.187 433.512 127.567C437.241 124.837 442.072 123.974 446.696 124.149" fill="#A1616A"/>
    <path opacity="0.06" d="M467.306 164.567C465.16 166.014 464.413 168.81 464.14 171.387C462.977 182.344 467.497 193.193 467.197 204.205C466.957 212.941 463.692 221.327 460.471 229.478C454.979 243.384 452.118 258.486 451.009 273.396C449.901 288.307 448.28 303.834 440.276 316.446C438.458 319.302 436.34 321.955 434.56 324.827C432.693 327.83 431.213 331.051 429.565 334.174C424.707 343.397 418.444 351.809 411.002 359.108C408.818 361.238 406.504 363.302 403.719 364.53C401.925 365.309 399.993 365.72 398.037 365.741C396.081 365.762 394.141 365.391 392.331 364.65C388.596 363.105 385.452 359.622 385.299 355.581C385.162 351.967 387.319 348.708 389.481 345.814C396.808 336.011 405.235 327.079 414.595 319.192C416.292 317.762 418.083 316.282 418.962 314.24C419.95 311.887 419.546 309.217 419.672 306.668C419.874 302.6 421.457 298.74 422.402 294.776C426.223 278.676 419.432 261.095 424.957 245.497C426.185 242.03 428.009 238.716 428.44 235.063C428.746 232.508 428.107 229.653 426.513 227.736C425.015 226.014 424.176 223.817 424.143 221.534C424.143 221.065 424.143 220.601 424.203 220.142C424.869 212.995 425.53 205.816 425.17 198.647C424.809 191.478 423.384 184.271 420.076 177.9C418.362 174.597 416.145 171.507 415.086 167.941C413.383 162.17 414.955 155.93 417.494 150.47C419.475 146.201 422.118 142.133 425.808 139.207C432.666 133.774 442.929 133.147 450.436 137.64C455.972 140.949 459.761 146.512 462.835 152.185C465.04 156.329 467.366 159.839 467.306 164.567Z" fill="black"/>
    <path d="M468.551 164.567C466.405 166.014 465.657 168.81 465.384 171.387C464.221 182.344 468.742 193.193 468.441 204.205C468.201 212.941 464.937 221.327 461.715 229.478C456.223 243.384 453.368 258.486 452.254 273.396C451.14 288.307 449.524 303.834 441.521 316.446C439.703 319.302 437.59 321.955 435.805 324.827C433.943 327.83 432.458 331.051 430.809 334.174C425.95 343.396 419.688 351.808 412.247 359.108C410.063 361.238 407.743 363.302 404.958 364.53C403.164 365.309 401.232 365.72 399.276 365.741C397.32 365.762 395.38 365.391 393.57 364.65C389.841 363.105 386.696 359.622 386.544 355.581C386.402 351.967 388.558 348.708 390.725 345.814C398.053 336.01 406.479 327.078 415.839 319.192C417.537 317.762 419.333 316.282 420.207 314.24C421.2 311.887 420.791 309.217 420.917 306.668C421.119 302.6 422.702 298.74 423.646 294.776C427.468 278.676 420.676 261.095 426.201 245.497C427.43 242.03 429.259 238.716 429.69 235.063C429.99 232.508 429.357 229.653 427.763 227.736C426.237 226.026 425.374 223.826 425.328 221.534C425.328 221.065 425.328 220.601 425.388 220.142C426.048 212.995 426.709 205.816 426.349 198.647C425.988 191.478 424.563 184.271 421.255 177.9C419.541 174.597 417.324 171.507 416.265 167.941C414.562 162.17 416.134 155.93 418.673 150.47C420.66 146.201 423.297 142.133 426.987 139.207C433.845 133.774 444.109 133.147 451.615 137.64C457.151 140.949 460.94 146.512 464.014 152.185C466.274 156.329 468.589 159.839 468.551 164.567Z" fill="#A1616A"/>
    <path d="M523.763 307.137L523.293 307.279L523.763 307.137Z" fill="#464353"/>
    <path d="M428.14 331.499C428.16 331.315 428.193 331.132 428.238 330.953L428.14 331.499Z" fill="#464353"/>
    <path d="M545.191 294.034C546.764 292.216 549.188 291.402 551.519 290.796C555.275 289.825 559.113 289.2 562.984 288.929C565.386 288.67 567.816 288.82 570.168 289.371C572.494 290.01 574.7 291.397 575.879 293.499C576.922 295.355 577.086 297.561 577.222 299.685C577.506 304.052 577.768 308.42 577.047 312.723C576.583 315.452 575.715 318.095 575.153 320.803C573.329 329.681 574.913 338.869 574.749 347.932C574.711 349.865 574.585 351.847 573.772 353.6C572.904 355.461 571.342 356.875 569.819 358.273C568.143 359.785 566.44 361.309 564.42 362.319C561.428 363.82 557.983 364.071 554.636 364.175C552.6 364.235 550.503 364.241 548.631 363.493C546.758 362.745 545.071 361.063 544.935 359.027C544.716 355.571 548.614 353.31 549.728 350.034C550.612 347.425 549.597 344.542 548.188 342.167C545.93 338.381 542.706 335.263 538.847 333.131C537.417 332.345 535.894 331.684 534.704 330.576C533.513 329.468 532.705 327.748 533.213 326.208C533.819 324.346 535.986 323.478 537.936 323.293C539.885 323.107 541.943 323.249 543.695 322.381C545.257 321.611 546.343 320.126 547.091 318.559C548.683 315.214 548.904 311.38 547.708 307.874C547.235 306.541 546.549 305.293 545.677 304.178C544.858 303.13 543.177 302.245 542.592 301.099C541.555 299.035 543.799 295.672 545.191 294.034Z" fill="#A4B5FD"/>
    <path opacity="0.06" d="M513.466 214.911C504.447 206.94 491.874 204.773 480.081 202.354C474.007 201.113 467.961 199.73 461.945 198.205C457.992 197.2 454.028 196.13 449.934 195.852C445.839 195.573 441.624 196.146 438.119 198.232C434.614 200.318 431.972 204.096 431.95 208.174C431.95 209.812 432.338 211.417 432.218 213.039C432.027 215.649 430.58 217.953 429.592 220.393C428.08 224.251 427.849 228.492 428.931 232.492C430.678 238.863 435.712 244.476 435.275 251.055C434.549 262.067 434.773 273.576 437.033 284.359C439.293 295.142 442.116 305.974 442.05 317.008C441.985 328.043 438.644 339.645 430.405 346.993C435.987 352.234 442.814 355.965 450.239 357.831C456.589 359.42 464.139 359.261 468.66 354.528C469.708 353.436 470.576 351.978 470.358 350.477C470.133 349.529 469.735 348.632 469.184 347.829C466.078 342.265 466.454 335.408 467.83 329.195C469.206 322.981 471.559 316.943 472.154 310.599C472.591 305.996 472.099 301.317 472.978 296.775C473.655 293.297 475.118 290.021 475.997 286.587C478.591 276.399 475.866 265.703 473.158 255.554C475.424 260.768 479.71 264.835 484.143 268.373C490.869 273.735 499.004 278.468 507.553 277.518C515.164 276.666 521.644 271.376 526.116 265.168C526.154 257.989 528.643 251.202 528.201 244.039C527.916 240.893 527.353 237.778 526.52 234.73C525.684 231.323 524.827 227.884 523.244 224.755C521.153 220.6 516.949 217.985 513.466 214.911Z" fill="black"/>
    <path d="M515.333 214.911C506.314 206.94 493.746 204.773 481.948 202.354C475.874 201.113 469.83 199.73 463.817 198.205C459.865 197.2 455.896 196.13 451.807 195.852C447.717 195.573 443.503 196.146 439.998 198.232C436.493 200.318 433.845 204.096 433.828 208.174C433.828 209.812 434.211 211.417 434.09 213.039C433.905 215.649 432.425 217.953 431.464 220.393C429.955 224.251 429.725 228.493 430.809 232.492C432.551 238.863 437.584 244.476 437.153 251.055C436.422 262.067 436.645 273.576 438.906 284.359C441.166 295.142 443.989 305.974 443.923 317.008C443.857 328.043 440.494 339.606 432.251 346.944C437.833 352.184 444.66 355.914 452.085 357.782C458.434 359.371 465.99 359.212 470.505 354.479C471.554 353.387 472.422 351.929 472.203 350.427C471.978 349.48 471.58 348.583 471.029 347.78C467.923 342.216 468.3 335.359 469.675 329.145C471.051 322.932 473.404 316.894 474.005 310.55C474.436 305.947 473.945 301.268 474.829 296.726C475.501 293.248 476.969 289.972 477.843 286.538C480.436 276.35 477.717 265.654 475.004 255.505C477.27 260.719 481.555 264.786 485.994 268.324C492.72 273.685 500.849 278.419 509.399 277.469C517.009 276.617 523.49 271.327 527.961 265.119C527.994 257.94 530.483 251.153 530.041 243.99C529.756 240.844 529.193 237.729 528.36 234.681C527.53 231.274 526.667 227.835 525.084 224.706C523.053 220.6 518.816 217.985 515.333 214.911Z" fill="#A1616A"/>
    <path d="M452.68 352.688C448.675 350.248 445.216 347.009 442.52 343.172C441.548 341.796 440.675 340.332 439.463 339.164C438.251 337.996 436.607 337.128 434.931 337.302C433.037 337.499 431.519 338.94 430.318 340.425C427.097 344.416 425.022 349.297 421.446 352.983C417.319 357.247 411.559 359.534 405.81 360.998C400.061 362.461 394.127 363.231 388.493 365.081C386.724 365.66 384.862 366.446 383.907 368.046C382.695 370.083 383.361 372.752 384.638 374.772C386.991 378.594 391.042 381.057 395.268 382.52C399.494 383.983 403.965 384.567 408.371 385.43C416.156 386.953 424.132 389.394 431.879 387.674C434.969 386.986 437.885 385.654 441.008 385.075C448.105 383.754 455.426 386.424 462.551 385.353C465.996 384.835 469.25 383.459 472.378 381.908C473.947 381.23 475.373 380.261 476.582 379.053C477.723 377.786 478.411 375.99 477.941 374.352C477.674 373.408 477.057 372.61 476.647 371.72C476.003 370.345 475.872 368.8 475.719 367.287C475.13 361.531 474.13 355.823 472.727 350.209C472.241 348.249 471.515 346.065 469.686 345.208C469.314 345.007 468.877 344.958 468.469 345.072C467.819 345.317 467.606 346.103 467.41 346.764C466.874 348.591 465.848 350.235 464.443 351.519C463.038 352.804 461.308 353.679 459.441 354.049C457.574 354.419 455.641 354.271 453.852 353.62C452.064 352.969 450.488 351.84 449.295 350.357" fill="#A4B5FD"/>
    <path opacity="0.06" d="M423.231 110.505C423.231 111.796 423.158 113.087 423.013 114.37C421.293 114.628 419.536 114.476 417.885 113.927C416.234 113.378 414.737 112.446 413.514 111.209C412.362 109.986 411.499 108.507 410.358 107.273C409.217 106.039 407.628 105.012 405.99 105.143C404.593 105.247 403.381 106.132 402.425 107.158C401.182 108.494 400.271 110.105 399.767 111.859C399.401 113.098 399.221 114.507 398.194 115.331C397.168 116.156 395.907 116.101 394.689 116.057C393.111 116.003 391.474 115.926 390.081 115.184C387.461 113.77 386.576 110.532 385.605 107.715C383.967 102.981 380.282 94.0275 374.555 93.072C371.825 92.6189 368.505 94.0602 366.365 95.6162C363.139 97.9585 360.758 99.4763 356.587 99.4108C359.217 91.7361 364.484 85.2429 371.45 81.0863C378.417 76.9297 386.632 75.379 394.635 76.7101C402.637 78.0411 409.908 82.1677 415.155 88.3557C420.401 94.5438 423.282 102.392 423.286 110.505H423.231Z" fill="black"/>
    <path d="M356.538 98.1605C355.554 98.1817 354.574 98.0264 353.645 97.7019C350.997 96.6645 349.708 93.6071 349.485 90.7735C349.135 86.4548 350.576 82.2181 352.023 78.1287C352.329 77.2388 352.695 76.2833 353.492 75.7865C354.137 75.4696 354.842 75.2929 355.561 75.2678C359.481 74.7218 362.882 72.325 365.776 69.6388C368.669 66.9526 371.279 63.9061 374.511 61.6676C383.082 55.7547 395.803 56.8576 403.217 64.1518C406.154 67.0345 408.676 70.9437 412.749 71.6207C415.097 72.0084 417.614 71.2003 419.847 72.0739C421.484 72.7127 422.653 74.1595 423.592 75.6391C426.638 80.4218 428.069 86.089 428.544 91.7398C429.019 97.3906 428.582 103.074 428.14 108.725C428.164 109.571 427.947 110.407 427.512 111.133C427.162 111.552 426.724 111.887 426.229 112.116C424.153 113.139 421.808 113.483 419.526 113.099C417.243 112.715 415.14 111.622 413.514 109.975C412.356 108.758 411.499 107.278 410.358 106.039C409.217 104.8 407.628 103.784 405.99 103.915C404.598 104.019 403.375 104.903 402.425 105.93C401.182 107.266 400.271 108.876 399.767 110.63C399.406 111.87 399.221 113.278 398.194 114.097C397.168 114.916 395.907 114.873 394.684 114.829C393.111 114.769 391.474 114.698 390.081 113.95C387.455 112.541 386.571 109.304 385.605 106.487C383.967 101.753 380.287 92.7936 374.555 91.8436C371.825 91.3849 368.505 92.8318 366.365 94.3878C363.09 96.7136 360.731 98.2315 356.538 98.1605Z" fill="#464353"/>
    <path opacity="0.06" d="M175.741 302.038C175.365 304.528 173.083 306.471 171.472 308.404C167.093 313.689 162.655 318.99 157.758 323.828C152.517 328.998 146.762 333.606 141.013 338.214L133.556 344.182C132.636 345.023 131.557 345.672 130.384 346.093C129.009 346.435 127.556 346.263 126.3 345.607C126.409 345.388 126.524 345.186 126.649 344.984L135.592 329.997C137.35 327.06 138.502 324.385 140.506 321.627C143.525 317.5 146.571 313.35 150.289 309.851C154.99 305.423 161.017 302.207 166.608 299.008C167.416 296.584 170.8 295.912 173.088 297.059C173.936 297.498 174.699 298.084 175.343 298.789C175.753 299.82 175.89 300.939 175.741 302.038Z" fill="black"/>
    <path d="M136.215 330.614L127.272 345.607C126.906 346.213 126.529 346.901 126.688 347.588C126.889 348.166 127.272 348.662 127.78 349.003C131.208 351.792 135.008 354.735 136.084 359.021C136.853 362.079 136.084 365.354 136.771 368.423C138.033 373.959 143.596 377.322 148.859 379.451C160.651 384.223 173.743 386.058 186.273 383.819C198.802 381.581 210.693 375.204 218.806 365.398C221.295 362.384 223.425 359.087 225.789 355.975C232.34 347.376 240.655 340.316 248.904 333.328C259.523 324.33 265.779 310.91 275.11 300.569C276.808 298.686 278.68 296.747 281.115 296.125C282.48 295.781 284.391 296.289 284.446 297.697C284.571 300.427 286.766 302.66 288.267 304.942C293.923 313.591 299.841 322.506 308.582 328.021C313.364 331.045 318.786 332.896 324.191 334.572C337.894 338.842 351.865 342.216 365.819 345.557C366.524 344.149 367.369 342.816 368.342 341.577C369.788 339.803 371.694 338.449 373.146 336.664C375.805 333.448 376.738 329.195 377.59 325.111C369.253 320.006 360.698 314.737 352.476 309.43C348.338 306.766 344.172 304.042 340.82 300.438C338.637 298.069 336.802 295.355 334.613 292.969C332.373 290.654 329.961 288.513 327.395 286.565L307.741 270.825C302.096 266.309 296.342 261.543 290.817 256.87C287.71 254.238 284.265 251.47 280.203 251.344C276.726 251.235 273.527 253.097 270.535 254.888C252.962 265.41 235.128 275.46 217.032 285.036C213.368 286.969 209.689 288.891 206.194 291.113C199.396 295.438 193.36 300.858 188.331 307.154C187.408 308.306 186.24 309.616 184.777 309.441C184.375 309.382 183.987 309.247 183.636 309.043C181.381 307.836 180 305.505 178.722 303.294C177.445 301.082 176.02 298.757 173.732 297.61C171.445 296.464 168.065 297.135 167.252 299.565C161.634 302.857 155.629 306.045 150.923 310.473C147.205 313.973 144.158 318.117 141.139 322.25C139.125 325.007 137.967 327.682 136.215 330.614Z" fill="#464353"/>
    <path opacity="0.06" d="M121.567 239.175C121.567 239.175 130.558 243.166 137.006 247.67L121.567 239.175Z" fill="black"/>
    <path d="M571.899 247.38C572.063 252.474 572.194 257.579 572.134 262.668C572.101 265.365 571.986 268.177 570.693 270.541C569.77 272.239 568.312 273.565 566.871 274.865L557.879 283.016C555.089 285.544 552.081 288.181 548.363 288.809C544.11 289.53 539.956 287.46 535.866 286.079C531.749 284.692 527.436 283.967 523.091 283.933C520.602 283.933 518.09 284.13 515.634 283.737C513.857 283.399 512.114 282.903 510.425 282.257L502.307 279.44C502.536 277.393 504.491 276.088 506.129 274.794C511.943 270.077 514.492 262.493 516.327 255.237C517.818 249.572 518.88 243.803 519.504 237.979C519.783 235.096 519.908 232.164 519.302 229.331C518.731 227.045 517.926 224.824 516.9 222.703L514.045 216.265C512.407 212.629 509.131 211.013 505.796 208.868C510.829 210.778 516.966 211.526 520.793 215.315C521.531 216.155 522.406 216.864 523.381 217.412C524.423 217.909 525.608 217.958 526.749 218.144C532.432 218.995 537.264 222.566 541.959 225.869C547.706 229.917 553.613 233.718 559.681 237.275C562.41 238.88 565.228 240.458 567.526 242.647C569.825 244.836 571.626 247.752 571.774 250.924" fill="#464353"/>
    <path opacity="0.06" d="M82.3128 238.437C75.1554 239.852 71.432 248.265 71.8524 255.543C72.2564 262.043 74.9262 268.196 79.3974 272.932C82.3838 276.071 86.1071 278.495 88.8041 281.886C92.7896 286.887 94.1763 293.499 97.7413 298.811C100.329 302.666 103.96 305.69 107.568 308.59C115.889 315.229 124.48 321.513 133.343 327.442C136.946 329.85 140.888 332.285 145.223 332.192C149.306 332.105 153.068 329.708 155.732 326.607C158.396 323.506 160.1 319.738 161.83 316.026C168.065 302.431 174.344 288.689 177.324 274.035C178.258 269.432 178.886 264.688 180.971 260.478C182.609 257.203 185.033 254.396 187.195 251.437C192.303 244.415 195.888 236.404 197.721 227.917C198.911 222.38 199.31 216.451 197.355 211.155C195.401 205.859 190.657 201.268 185.006 200.853C180.535 200.525 176.145 202.818 173.143 206.154C170.14 209.49 168.371 213.754 167.164 218.073C165.435 224.286 164.77 230.747 165.199 237.182C165.548 242.374 166.607 247.615 165.712 252.747C165.079 256.367 163.501 259.747 161.94 263.077C157.905 271.671 153.805 280.374 147.707 287.646C145.719 290.016 142.984 292.412 139.943 291.855C135.739 291.091 134.626 285.768 132.551 282.028C130.007 277.442 125.181 274.685 121.397 271.043C116.014 265.856 112.788 258.901 108.961 252.48C105.134 246.059 100.182 239.72 93.1281 237.258C86.0744 234.796 76.6731 237.957 74.8606 245.208" fill="black"/>
    <path opacity="0.06" d="M87.7124 243.422C80.5496 244.836 71.4322 245.759 71.8799 253.048C72.2793 259.549 74.9497 265.704 79.4249 270.437C82.4113 273.582 86.1346 276.006 88.8316 279.396C92.8171 284.397 94.2038 291.004 97.7688 296.321C100.357 300.182 103.987 303.206 107.596 306.1C115.916 312.743 124.508 319.027 133.37 324.952C136.974 327.366 140.915 329.801 145.25 329.708C149.334 329.62 153.095 327.218 155.76 324.122C158.424 321.027 160.127 317.254 161.858 313.536C168.093 299.941 174.371 286.199 177.352 271.545C178.286 266.948 178.913 262.198 180.999 257.994C182.637 254.718 185.061 251.912 187.223 248.947C192.331 241.928 195.917 233.918 197.749 225.432C198.939 219.891 199.337 213.967 197.383 208.665C195.428 203.364 190.684 198.783 185.033 198.363C180.562 198.035 176.173 200.334 173.17 203.664C170.167 206.995 168.398 211.264 167.192 215.588C165.462 221.801 164.797 228.262 165.226 234.697C165.576 239.895 166.635 245.137 165.74 250.263C165.106 253.888 163.529 257.268 161.967 260.598C157.933 269.192 153.832 277.889 147.734 285.167C145.747 287.537 143.012 289.928 139.971 289.377C135.767 288.607 134.653 283.284 132.579 279.549C130.034 274.963 125.208 272.206 121.425 268.564C116.042 263.383 112.815 256.422 108.988 250.001C105.161 243.58 100.209 237.247 93.1556 234.779C86.1019 232.312 94.9353 248.118 93.1173 255.368" fill="black"/>
    <path d="M82.3128 237.187C75.1554 238.601 71.432 247.015 71.8524 254.293C72.2551 260.795 74.925 266.95 79.3974 271.687C82.3838 274.827 86.1071 277.251 88.8041 280.641C92.7896 285.642 94.1763 292.254 97.7413 297.566C100.329 301.426 103.96 304.451 107.568 307.35C115.889 313.989 124.48 320.272 133.343 326.197C136.946 328.61 140.888 331.045 145.223 330.953C149.306 330.865 153.068 328.468 155.732 325.367C158.396 322.266 160.1 318.499 161.83 314.786C168.065 301.192 174.344 287.45 177.324 272.79C178.258 268.193 178.886 263.443 180.971 259.239C182.609 255.963 185.033 253.157 187.195 250.192C192.304 243.173 195.889 235.163 197.721 226.677C198.911 221.136 199.31 215.212 197.355 209.91C195.401 204.609 190.657 200.028 185.006 199.613C180.535 199.28 176.145 201.579 173.143 204.915C170.14 208.251 168.371 212.515 167.164 216.833C165.435 223.046 164.77 229.507 165.199 235.942C165.548 241.135 166.607 246.376 165.712 251.503C165.079 255.128 163.501 258.507 161.94 261.838C157.905 270.432 153.805 279.134 147.707 286.407C145.719 288.776 142.984 291.168 139.943 290.616C135.739 289.846 134.626 284.529 132.551 280.789C130.007 276.197 125.181 273.44 121.397 269.804C116.014 264.617 112.788 257.661 108.961 251.241C105.134 244.82 100.182 238.487 93.1281 236.024C86.0744 233.562 76.6731 236.723 74.8606 243.974" fill="#FBBEBE"/>
    <g opacity="0.06">
    <path opacity="0.06" d="M54.9555 193.575C52.6867 189.828 50.78 185.874 49.2612 181.765L49.0756 181.219C47.9235 179.983 46.9546 178.587 46.1984 177.076C45.028 174.5 44.3927 171.714 44.3313 168.886C44.3313 168.782 44.3313 168.678 44.3313 168.575C43.9406 169.448 43.653 170.364 43.4741 171.305C42.9282 174.384 43.829 177.529 44.91 180.466C46.4299 184.574 48.3365 188.528 50.6042 192.275C53.9946 197.943 58.324 203.402 58.9955 209.905C60.0055 219.634 52.6679 228.2 50.8554 237.815C49.4687 245.158 51.2266 253.364 47.3012 259.719C45.7322 262.116 43.6253 264.112 41.1484 265.55C39.5948 266.541 37.894 267.278 36.1093 267.734C35.7838 268.121 35.4337 268.485 35.061 268.826C38.5278 270.027 42.3877 268.733 45.5105 266.812C47.9865 265.37 50.093 263.372 51.6634 260.975C55.5888 254.62 53.8472 246.414 55.212 239.071C57.0301 229.462 64.3676 220.89 63.3576 211.161C62.6806 204.62 58.3567 199.166 54.9555 193.575Z" fill="black"/>
    <path opacity="0.06" d="M117.958 145.529C116.555 142.281 113.591 139.977 110.544 138.169C106.682 135.852 102.48 134.157 98.0911 133.146C100.908 134.13 103.618 135.394 106.182 136.919C109.228 138.732 112.188 141.03 113.602 144.284C115.016 147.538 114.311 151.928 111.276 153.741C109.136 155.024 106.466 154.794 103.971 154.74C101.815 154.69 99.6579 154.8 97.5178 155.067C96.745 155.123 95.9895 155.323 95.2903 155.657C94.3793 156.247 93.6617 157.092 93.2266 158.087C92.3488 159.765 91.7583 161.579 91.4796 163.453C91.1739 165.55 91.2012 167.849 89.8909 169.514C88.1111 171.78 85.3268 171.436 82.7935 171.883C80.5936 172.305 78.4851 173.111 76.5643 174.264C72.3823 176.792 69.3959 181.411 69.2048 186.341C69.1393 188.099 69.3795 189.895 68.9046 191.587C68.5982 192.575 68.1174 193.499 67.4851 194.317C68.4525 195.352 69.2987 196.493 70.0074 197.719C71.345 196.261 72.7371 194.732 73.2831 192.832C73.7635 191.14 73.5179 189.338 73.5888 187.58C73.7799 182.666 76.7663 178.036 80.9482 175.503C82.8676 174.349 84.9768 173.545 87.1775 173.128C89.6998 172.675 92.4842 173.019 94.2749 170.753C95.5852 169.115 95.5524 166.789 95.8636 164.693C96.1403 162.819 96.729 161.005 97.6052 159.326C98.0431 158.34 98.7607 157.505 99.6689 156.924C100.366 156.585 101.123 156.385 101.896 156.334C104.037 156.067 106.193 155.956 108.349 156.001C110.844 156.061 113.514 156.285 115.654 155.002C118.668 153.173 119.361 148.805 117.958 145.529Z" fill="black"/>
    </g>
    <path opacity="0.06" d="M82.2092 197.697C82.2092 197.697 88.6569 203.244 100.903 199.881C100.903 199.87 93.3193 202.856 82.2092 197.697Z" fill="black"/>
    <path opacity="0.06" d="M428.019 104.117C428.032 104.96 427.805 105.79 427.364 106.508C427.015 106.926 426.576 107.26 426.081 107.486C424.007 108.51 421.663 108.855 419.382 108.472C417.1 108.089 414.997 106.997 413.372 105.351C412.214 104.128 411.357 102.621 410.216 101.415C409.075 100.208 407.486 99.1542 405.848 99.2852C404.456 99.3944 403.239 100.279 402.283 101.3C401.046 102.641 400.136 104.25 399.625 106.001C399.27 107.246 399.079 108.649 398.058 109.473C397.037 110.298 395.77 110.243 394.547 110.199C392.969 110.145 391.332 110.074 389.945 109.326C387.319 107.917 386.434 104.674 385.463 101.862C383.825 97.1232 380.145 88.1692 374.418 87.2138C371.688 86.7606 368.363 88.2075 366.229 89.758C363.002 92.1002 360.622 93.618 356.445 93.5798C355.461 93.5987 354.482 93.4435 353.552 93.1212C351.15 92.1767 349.867 89.5669 349.479 86.979C349.331 88.1651 349.3 89.3629 349.386 90.5551C349.616 93.3833 350.904 96.4407 353.552 97.4835C354.482 97.8058 355.461 97.9611 356.445 97.9421C360.622 98.0077 362.997 96.4899 366.229 94.1476C368.374 92.5971 371.688 91.1448 374.418 91.6034C380.123 92.5316 383.836 101.486 385.441 106.219C386.413 109.036 387.297 112.279 389.923 113.688C391.31 114.431 392.948 114.507 394.525 114.562C395.748 114.605 397.091 114.611 398.036 113.835C398.98 113.06 399.248 111.602 399.603 110.363C400.113 108.611 401.023 107.002 402.262 105.662C403.217 104.641 404.445 103.757 405.827 103.648C407.508 103.517 409.102 104.538 410.194 105.777C411.286 107.016 412.192 108.507 413.35 109.713C414.976 111.359 417.078 112.451 419.36 112.834C421.641 113.218 423.985 112.872 426.06 111.848C426.554 111.62 426.991 111.287 427.342 110.871C427.784 110.15 428.011 109.319 427.998 108.474C428.425 103.875 428.607 99.2571 428.544 94.639C428.5 97.8002 428.265 100.961 428.019 104.117Z" fill="black"/>
    <path d="M49.0317 337.029C49.0317 337.029 49.8998 336.063 48.2674 335.681V334.092H49.2501C49.248 332.172 48.587 330.312 47.3776 328.821C46.1682 327.33 44.4838 326.3 42.6059 325.902V323.975H42.8625V321.469H36.5458V323.975H36.726V325.924C34.8658 326.341 33.2031 327.38 32.0122 328.869C30.8213 330.357 30.1731 332.207 30.1746 334.114H31.0427V335.637C31.0427 335.637 28.9735 336.614 31.0427 338.367C33.1118 340.12 32.7897 341.386 32.7897 341.386C32.7897 341.386 31.9216 344.662 30.1801 345.088V375.46C30.1793 376.347 30.3534 377.225 30.6922 378.045C31.0309 378.864 31.5279 379.608 32.1546 380.236C32.7812 380.863 33.5254 381.36 34.3444 381.7C35.1635 382.039 36.0414 382.214 36.928 382.214H42.2619C44.0531 382.214 45.7708 381.503 47.0373 380.236C48.3038 378.969 49.0153 377.252 49.0153 375.46V345.088C49.0153 345.088 45.9635 342.8 46.5094 341.386C47.2419 339.874 48.0849 338.418 49.0317 337.029Z" fill="#464353"/>
    </g>
    <defs>
    <linearGradient id="paint0_linear_1_28" x1="303.008" y1="387.57" x2="303.008" y2="54.035" gradientUnits="userSpaceOnUse">
    <stop stop-color="#808080" stop-opacity="0.25"/>
    <stop offset="0.54" stop-color="#808080" stop-opacity="0.12"/>
    <stop offset="1" stop-color="#808080" stop-opacity="0.1"/>
    </linearGradient>
    <clipPath id="clip0_1_28">
    <rect width="629" height="421" fill="white"/>
    </clipPath>
    </defs>
    </svg>
    