<svg width="672" height="440" viewBox="0 0 672 440" fill="none" xmlns="http://www.w3.org/2000/svg">
    <path opacity="0.1" d="M658.988 140.288C664.048 155.598 649.172 169.367 637.471 180.456C621.455 195.669 608.818 214.077 600.379 234.487C595.293 246.821 591.755 260.089 592.704 273.398C595.392 311.143 630.955 336.292 659.37 361.295C663.396 364.871 667.421 368.611 669.767 373.431C677.297 388.9 664.496 406.725 650.397 416.59C600.188 451.701 527.718 441.257 479.017 404.085C453.798 384.83 432.122 358.648 401.56 350.087C382.019 344.642 361.279 347.223 341.06 348.902C310.743 351.413 280.286 351.774 249.918 349.982C239.258 349.324 228.111 348.296 219.184 342.442C196.58 327.639 200.394 292.541 184.082 271.007C172.355 255.533 152.32 249.567 134.881 241.013C108.039 227.774 85.6405 207 70.4283 181.233C56.4283 157.415 49.1746 130.338 42.0989 103.642C36.7624 83.5837 31.4062 62.5774 35.9257 42.3152C40.4453 22.053 58.2861 3.13415 78.9732 4.91211C94.8575 6.27522 107.494 18.8197 122.792 23.3107C159.435 34.0971 195.012 -3.3653 233.026 0.249896C256.961 2.52174 276.264 20.6636 290.857 39.7602C305.45 58.8569 317.803 80.3571 337.074 94.7388C367.05 117.128 408.121 117.918 444.818 110.668C481.514 103.418 516.722 89.1481 553.827 84.3937C575.687 81.595 592.441 94.6137 612.126 101.772C630.191 108.344 652.295 120.039 658.988 140.288Z" fill="#A4B5FD"/>
    <path opacity="0.1" d="M581.115 440C554.648 440 533.192 433.484 533.192 425.447C533.192 417.41 554.648 410.894 581.115 410.894C607.582 410.894 629.038 417.41 629.038 425.447C629.038 433.484 607.582 440 581.115 440Z" fill="#A4B5FD"/>
    <path opacity="0.1" d="M127.99 247.802C57.3029 247.802 -4.57764e-05 244.002 -4.57764e-05 239.314C-4.57764e-05 234.626 57.3029 230.826 127.99 230.826C198.676 230.826 255.979 234.626 255.979 239.314C255.979 244.002 198.676 247.802 127.99 247.802Z" fill="#A4B5FD"/>
    <g opacity="0.5">
    <path opacity="0.5" d="M205.368 45.0417C203.593 45.0417 201.891 45.7466 200.635 47.0013C199.38 48.256 198.675 49.9578 198.675 51.7322V237.76H212.062V51.7256C212.06 49.9523 211.354 48.2523 210.099 46.999C208.844 45.7457 207.142 45.0417 205.368 45.0417Z" fill="#A4B5FD"/>
    <path opacity="0.5" d="M58.497 45.0417C56.7217 45.0417 55.0192 45.7466 53.7639 47.0013C52.5086 48.256 51.8033 49.9577 51.8033 51.7321V237.76H65.2236V51.7255C65.2228 50.8447 65.0479 49.9727 64.7091 49.1596C64.3703 48.3465 63.8741 47.6083 63.2491 46.9873C62.6242 46.3663 61.8827 45.8747 61.0672 45.5409C60.2517 45.207 59.3782 45.0374 58.497 45.0417Z" fill="#A4B5FD"/>
    <path opacity="0.5" d="M19.4288 86.6263C15.732 86.6263 12.7351 83.6309 12.7351 79.9359C12.7351 76.2409 15.732 73.2455 19.4288 73.2455L244.43 73.2455C248.127 73.2455 251.124 76.2409 251.124 79.9359C251.124 83.6309 248.127 86.6263 244.43 86.6263L19.4288 86.6263Z" fill="#A4B5FD"/>
    <path opacity="0.5" d="M216.041 60.0425C216.041 57.1476 218.389 54.8008 221.286 54.8008C224.182 54.8008 226.53 57.1476 226.53 60.0425V99.8162C226.53 102.711 224.182 105.058 221.286 105.058C218.389 105.058 216.041 102.711 216.041 99.8162V60.0425Z" fill="#A4B5FD"/>
    <path opacity="0.5" d="M226.53 64.7441C226.53 61.8492 228.878 59.5024 231.774 59.5024C234.67 59.5024 237.018 61.8492 237.018 64.7441V95.121C237.018 98.0159 234.67 100.363 231.774 100.363C228.878 100.363 226.53 98.0159 226.53 95.121V64.7441Z" fill="#A4B5FD"/>
    <path opacity="0.5" d="M47.8239 99.8162C47.8239 102.711 45.476 105.058 42.5797 105.058C39.6833 105.058 37.3354 102.711 37.3354 99.8162L37.3354 60.0424C37.3354 57.1475 39.6833 54.8007 42.5797 54.8007C45.476 54.8007 47.8239 57.1475 47.8239 60.0424L47.8239 99.8162Z" fill="#A4B5FD"/>
    <path opacity="0.5" d="M37.3354 95.1144C37.3354 98.0094 34.9875 100.356 32.0912 100.356C29.1949 100.356 26.8469 98.0094 26.8469 95.1144L26.8469 64.7376C26.8469 61.8427 29.1949 59.4959 32.0912 59.4959C34.9875 59.4959 37.3354 61.8427 37.3354 64.7376V95.1144Z" fill="#A4B5FD"/>
    </g>
    <g opacity="0.5">
    <path opacity="0.5" d="M145.298 122.903H117.931C114.96 122.903 112.111 124.083 110.011 126.182C107.911 128.282 106.731 131.129 106.731 134.098V181.089H156.472V134.098C156.472 131.134 155.295 128.29 153.201 126.192C151.106 124.093 148.264 122.91 145.298 122.903Z" fill="#A4B5FD"/>
    <path opacity="0.5" d="M127.99 176.868H135.27V201.121H127.99V176.868Z" fill="#A4B5FD"/>
    <path opacity="0.5" d="M142.55 204.15H149.83V228.403H142.55V204.15Z" fill="#A4B5FD"/>
    <path opacity="0.5" d="M112.218 204.15H119.498V228.403H112.218V204.15Z" fill="#A4B5FD"/>
    <path opacity="0.5" d="M106.756 199.297H156.497V205.967H106.756V199.297Z" fill="#A4B5FD"/>
    </g>
    <path opacity="0.1" d="M360.317 400.588C209.564 400.588 87.3535 391.632 87.3535 380.583C87.3535 369.534 209.564 360.578 360.317 360.578C511.071 360.578 633.281 369.534 633.281 380.583C633.281 391.632 511.071 400.588 360.317 400.588Z" fill="#A4B5FD"/>
    <path d="M289.645 309.339C289.645 309.339 270.842 317.828 261.744 317.828C261.744 317.828 252.04 320.251 246.591 322.681C241.143 325.111 219.902 326.316 219.902 326.316C219.902 326.316 195.032 335.41 192.001 339.657C188.97 343.904 179.872 324.511 179.872 324.511L184.728 312.388L276.304 294.806L289.645 309.339Z" fill="#FFB9B9"/>
    <path opacity="0.05" d="M289.645 309.339C289.645 309.339 270.842 317.828 261.744 317.828C261.744 317.828 252.04 320.251 246.591 322.681C241.143 325.111 219.902 326.316 219.902 326.316C219.902 326.316 195.032 335.41 192.001 339.657C188.97 343.904 179.872 324.511 179.872 324.511L184.728 312.388L276.304 294.806L289.645 309.339Z" fill="black"/>
    <path d="M196.837 336.022C196.837 336.022 185.314 351.168 190.163 360.275C195.012 369.382 193.193 369.369 190.163 369.975C187.132 370.58 170.148 374.222 168.323 360.881C166.498 347.539 162.861 317.834 162.861 317.834L187.765 315.404C187.765 315.404 181.064 337.84 196.837 336.022Z" fill="#737A9D"/>
    <path d="M339.992 289.334L287.827 313.587C287.827 313.587 271.448 300.851 272.674 294.187L333.332 279.634L339.992 289.334Z" fill="#4C4C78"/>
    <path opacity="0.1" d="M339.992 289.334L287.827 313.587C287.827 313.587 271.448 300.851 272.674 294.187L333.332 279.634L339.992 289.334Z" fill="black"/>
    <path d="M121.013 320.863L126.494 334.198L139.209 337.214C142.772 334.242 146.583 331.581 150.6 329.259C157.446 325.308 166.452 321.443 174.977 322.055C174.977 322.055 208.946 316.596 210.764 314.153C210.764 314.153 232.604 309.3 237.453 309.906C239.792 310.195 244.819 308.516 249.391 306.692C254.299 304.717 258.687 302.629 258.687 302.629L242.915 277.771C241.075 278.562 239.182 279.222 237.249 279.746C231.221 281.511 220.37 283.803 204.696 283.803C179.22 283.803 144.039 309.873 144.039 309.873C144.039 309.873 143.689 309.991 143.09 310.169C140.455 310.966 132.944 312.843 129.479 309.873C125.262 306.31 121.013 320.863 121.013 320.863Z" fill="#FFB9B9"/>
    <path opacity="0.1" d="M121.013 320.863L126.494 334.198L139.209 337.214C142.772 334.242 146.583 331.581 150.601 329.259C132.101 330.649 143.149 310.235 143.149 310.235H143.11C140.474 311.032 132.964 312.909 129.498 309.939C125.262 306.31 121.013 320.863 121.013 320.863Z" fill="black"/>
    <path d="M150.528 329.773C150.528 329.773 135.856 350.338 142.029 361.921C148.202 373.504 145.89 373.498 142.029 374.275C138.168 375.052 116.539 379.681 114.227 362.698C112.448 349.64 114.009 324.577 114.826 313.699C114.878 313.012 115.067 312.343 115.38 311.729C115.693 311.116 116.126 310.571 116.652 310.126C117.178 309.681 117.787 309.345 118.444 309.138C119.101 308.931 119.793 308.856 120.479 308.918L141.937 310.893C141.937 310.893 130.447 332.091 150.528 329.773Z" fill="#737A9D"/>
    <path d="M498.92 349.963L498.314 379.674L491.64 384.521H468.588L464.345 378.463V349.963L471.019 343.898H492.853L498.92 349.963Z" fill="#A4B5FD"/>
    <path opacity="0.2" d="M495.284 350.568C495.284 350.568 491.034 377.85 495.284 380.28L498.314 379.674L498.92 350.575L495.284 350.568Z" fill="white"/>
    <path d="M445.542 348.145L440.687 343.292H417.628L412.773 348.145C412.773 348.145 406.705 365.727 411.56 377.244L417.035 382.703H440.094L445.556 377.85L445.542 348.145Z" fill="#A4B5FD"/>
    <path opacity="0.1" d="M498.92 349.963L498.314 379.674L491.64 384.521H468.588L464.345 378.463V349.963L471.019 343.898H492.853L498.92 349.963Z" fill="black"/>
    <path opacity="0.1" d="M445.542 348.145L440.687 343.292H417.628L412.773 348.145C412.773 348.145 406.705 365.727 411.56 377.244L417.035 382.703H440.094L445.556 377.85L445.542 348.145Z" fill="black"/>
    <path opacity="0.2" d="M440.094 349.357C440.094 349.357 435.238 370.58 440.094 377.85H445.556V348.145L440.094 349.357Z" fill="white"/>
    <path d="M464.345 247.499C464.345 247.499 461.921 271.146 461.921 274.175C461.921 277.204 463.133 297.223 459.497 316.616C455.86 336.009 461.921 360.262 461.921 360.262H441.906L433.414 294.78L439.481 260.222L441.906 249.31L464.345 247.499Z" fill="#FFB9B9"/>
    <path opacity="0.05" d="M464.345 247.499C464.345 247.499 461.921 271.146 461.921 274.175C461.921 277.204 463.133 297.223 459.497 316.616C455.86 336.009 461.921 360.262 461.921 360.262H441.906L433.414 294.78L439.481 260.222L441.906 249.31L464.345 247.499Z" fill="black"/>
    <path d="M467.982 187.476C467.982 187.476 494.671 188.082 473.444 232.34C473.444 232.34 467.982 250.528 467.982 253.564C467.982 256.6 440.687 256.593 437.676 253.564C434.666 250.535 442.532 225.676 442.532 214.152C442.532 202.629 450.392 183.841 467.982 187.476Z" fill="#CBCDDA"/>
    <path opacity="0.05" d="M467.982 187.476C467.982 187.476 494.671 188.082 473.444 232.34C473.444 232.34 467.982 250.528 467.982 253.564C467.982 256.6 440.687 256.593 437.676 253.564C434.666 250.535 442.532 225.676 442.532 214.152C442.532 202.629 450.392 183.841 467.982 187.476Z" fill="black"/>
    <path d="M500.133 161.393C500.133 161.393 477.074 186.252 457.672 168.064L460.096 232.334C460.096 232.334 491.64 194.141 513.461 197.17L500.133 161.393Z" fill="#FFB9B9"/>
    <path opacity="0.1" d="M237.275 279.819C238.198 286.924 241.096 301.885 249.417 306.732C254.326 304.756 258.713 302.669 258.713 302.669L242.941 277.81C241.102 278.613 239.209 279.284 237.275 279.819Z" fill="black"/>
    <path d="M238.692 275.973C238.692 275.973 240.51 305.685 255.07 308.108L343.01 292.251C347.278 291.476 351.291 289.667 354.697 286.983C358.248 284.191 362.603 280.398 365.179 276.921C366.576 275.025 367.419 273.214 367.281 271.719C366.675 265.048 339.986 249.284 349.084 221.396C347.791 220.372 346.352 219.547 344.815 218.946C337.219 215.792 319.734 213.474 294.494 239.584C294.494 239.617 247.79 277.211 238.692 275.973Z" fill="#4C4C78"/>
    <path d="M476.474 352.386L475.868 382.098L469.201 386.951H446.149L441.899 380.886V352.386L448.573 346.328H470.413L476.474 352.386Z" fill="#A4B5FD"/>
    <path opacity="0.2" d="M472.838 353.018C472.838 353.018 468.588 380.3 472.838 382.73L475.868 382.124L476.474 353.018H472.838Z" fill="white"/>
    <path d="M409.749 349.963L404.893 345.109H381.834L376.979 349.963C376.979 349.963 370.911 367.545 375.767 379.062L381.228 384.521H404.287L409.749 379.668V349.963Z" fill="#A4B5FD"/>
    <path opacity="0.2" d="M404.294 351.174C404.294 351.174 399.438 372.398 404.294 379.668H409.755V349.963L404.294 351.174Z" fill="white"/>
    <path d="M442.071 361.486H409.255C406.685 361.486 404.603 363.791 404.603 366.643C404.603 369.487 406.685 371.799 409.255 371.799H442.071C444.857 371.799 447.018 369.105 446.682 366.043C446.412 363.442 444.423 361.486 442.071 361.486Z" fill="#A4B5FD"/>
    <path opacity="0.1" d="M347.272 266.899C353.762 271.442 360.6 274.419 365.186 276.954C366.583 275.058 367.426 273.247 367.287 271.752C366.681 265.081 339.992 249.317 349.091 221.429C347.797 220.405 346.358 219.58 344.822 218.979C343.396 218.949 341.979 218.755 340.599 218.4C340.599 218.4 335.143 258.411 347.272 266.899Z" fill="black"/>
    <path d="M483.451 208.391C483.451 208.391 474.353 217.484 465.558 223.246C457.441 228.561 471.928 175.044 471.928 175.044C471.928 175.044 462.942 167.8 457.665 163.5C454.141 160.602 449.65 159.144 445.095 159.417C432.952 160.201 410.711 165.305 392.764 189.906C366.681 225.676 343.023 218.4 343.023 218.4C343.023 218.4 337.561 258.417 349.697 266.905C361.832 275.393 375.174 278.423 372.756 283.276C370.338 288.129 383.672 259.629 414.005 254.782C444.337 249.936 477.7 228.712 477.087 218.406C477.08 218.4 485.876 211.439 483.451 208.391Z" fill="#CBCDDA"/>
    <path opacity="0.1" d="M489.822 177.197C489.825 175.444 489.979 173.695 490.283 171.969C498.229 168.018 497.102 162.644 497.102 162.644L510.45 198.414C505.568 197.756 500.199 199.125 494.809 201.707C487.714 196.103 489.822 186.871 489.822 177.197Z" fill="black"/>
    <path d="M516.511 206.883C499.759 206.883 486.179 193.309 486.179 176.565C486.179 159.821 499.759 146.247 516.511 146.247C533.263 146.247 546.843 159.821 546.843 176.565C546.843 193.309 533.263 206.883 516.511 206.883Z" fill="#FFB9B9"/>
    <path opacity="0.1" d="M544.07 183.4C544.63 185.198 545.493 187.048 547.12 188.01C549.097 189.182 551.824 188.602 553.583 187.088C555.342 185.573 556.291 183.308 556.785 181.043C557.497 177.763 557.384 174.358 556.456 171.132C555.665 168.4 554.301 165.864 553.728 163.066C553.115 160.089 553.425 156.974 552.74 154.011C551.811 149.994 549.162 146.629 546.58 143.409C545.77 142.18 544.721 141.127 543.496 140.312C542.27 139.497 540.892 138.938 539.445 138.668L526.749 134.842C524.342 134.036 521.869 133.446 519.357 133.077C516.129 132.747 512.867 133.033 509.745 133.92C507.259 134.545 504.901 135.597 502.775 137.028C500.668 138.592 498.813 140.469 497.273 142.593C490.56 151.364 486.732 165.713 479.808 174.346C482.542 175.189 485.276 172.37 488.01 173.226C488.399 173.394 488.832 173.429 489.242 173.325C489.649 173.104 489.967 172.751 490.145 172.324C492.554 168.117 496.347 164.874 500.877 163.145C504.237 161.874 508.783 161.88 510.621 164.962C511.866 167.043 511.366 169.67 511.036 172.074C510.707 174.478 510.766 177.342 512.67 178.824C513.722 179.534 514.947 179.948 516.215 180.022C522.124 180.796 528.132 180.208 533.779 178.303C535.755 177.645 537.765 175.584 539.853 176.242C542.673 177.131 543.325 181.01 544.07 183.4Z" fill="black"/>
    <path d="M544.735 182.735C545.295 184.533 546.158 186.383 547.785 187.345C549.762 188.517 552.489 187.937 554.248 186.423C556.007 184.908 556.956 182.643 557.45 180.378C558.162 177.098 558.049 173.693 557.121 170.467C556.33 167.734 554.966 165.199 554.393 162.401C553.781 159.424 554.09 156.309 553.405 153.346C552.476 149.329 549.828 145.964 547.245 142.744C546.436 141.515 545.387 140.462 544.161 139.647C542.935 138.832 541.557 138.273 540.11 138.003L527.414 134.177C525.007 133.374 522.534 132.785 520.022 132.419C516.794 132.088 513.532 132.374 510.41 133.262C507.924 133.887 505.566 134.938 503.44 136.37C501.334 137.934 499.478 139.81 497.939 141.934C491.225 150.706 487.398 165.054 480.473 173.687C483.207 174.53 485.942 171.712 488.676 172.568C489.064 172.735 489.497 172.77 489.908 172.667C490.319 172.448 490.643 172.095 490.823 171.666C493.233 167.459 497.025 164.215 501.556 162.486C504.916 161.215 509.462 161.222 511.3 164.304C512.545 166.385 512.044 169.012 511.715 171.415C511.385 173.819 511.445 176.684 513.349 178.165C514.401 178.876 515.625 179.29 516.893 179.364C522.802 180.138 528.81 179.55 534.457 177.645C536.434 176.986 538.443 174.925 540.532 175.584C543.338 176.466 543.99 180.345 544.735 182.735Z" fill="#B96B6B"/>
    <g opacity="0.1">
    <path opacity="0.1" d="M469.873 173.391L471.928 175.05C471.928 175.05 463.436 206.415 463.1 218.736C458.765 217.564 467.106 184.006 469.873 173.391Z" fill="black"/>
    <path opacity="0.1" d="M348.518 262.052C360.647 270.54 373.994 273.569 371.577 278.423C369.159 283.276 382.493 254.776 412.825 249.929C441.28 245.379 472.403 226.42 475.644 215.581C480.19 211.696 483.497 208.397 483.497 208.397C485.922 211.426 477.127 218.4 477.127 218.4C477.733 228.705 444.37 249.929 414.044 254.776C383.719 259.622 370.371 288.122 372.795 283.269C375.22 278.416 361.879 275.367 349.737 266.899C346.265 264.469 344.235 259.458 343.102 253.538C344.275 257.285 346.014 260.32 348.518 262.052Z" fill="black"/>
    </g>
    <path d="M409.749 320.257C411.567 322.681 412.779 347.539 412.779 347.539C412.779 347.539 405.532 383.309 427.932 379.674C450.332 376.039 430.963 350.575 430.963 350.575L433.993 315.411C445.516 285.12 443.092 263.27 443.092 263.27L445.246 243.469L446.129 235.383L420.046 229.318C420.758 230.266 420.455 236.18 419.816 243.048C418.821 253.808 417.016 266.905 417.016 266.905C411.574 272.964 407.93 317.828 409.749 320.257Z" fill="#FFB9B9"/>
    <path opacity="0.1" d="M446.755 174.747C446.755 174.747 473.444 175.353 452.217 219.611C452.217 219.611 446.755 237.799 446.755 240.835C446.755 243.871 419.46 243.864 416.449 240.835C413.438 237.806 421.305 212.947 421.305 201.424C421.305 189.9 429.164 171.106 446.755 174.747Z" fill="black"/>
    <path opacity="0.1" d="M419.835 243.048C425.501 244.595 439.389 244.733 445.272 243.469L446.155 235.383L420.072 229.318C420.771 230.26 420.468 236.173 419.835 243.048Z" fill="black"/>
    <path d="M447.967 174.747C447.967 174.747 474.656 175.353 453.429 219.611C453.429 219.611 447.967 237.799 447.967 240.835C447.967 243.871 420.672 243.864 417.661 240.835C414.65 237.806 422.517 212.947 422.517 201.424C422.517 189.9 430.377 171.106 447.967 174.747Z" fill="#CBCDDA"/>
    <g opacity="0.5">
    <path opacity="0.5" d="M622.562 269.658L641.879 270.053L645.028 274.386V289.36L641.088 292.119H622.562L618.616 287.786V273.602L622.562 269.658Z" fill="#A4B5FD"/>
    <path opacity="0.2" d="M622.951 272.022C622.951 272.022 640.693 274.781 642.267 272.022L641.872 270.046L622.951 269.651V272.022Z" fill="white"/>
    <path opacity="0.5" d="M620.981 313.001L617.825 316.155V331.129L620.981 334.284C620.981 334.284 632.411 338.235 639.902 335.074L643.453 331.524V316.55L640.297 313.001H620.981Z" fill="#A4B5FD"/>
    <path opacity="0.2" d="M621.771 316.55C621.771 316.55 635.567 319.704 640.297 316.55V313.001H620.981L621.771 316.55Z" fill="white"/>
    <path opacity="0.5" d="M628.472 292.014V313.33C628.518 314.174 628.896 314.966 629.525 315.533C630.153 316.099 630.98 316.394 631.825 316.352C632.67 316.394 633.497 316.099 634.126 315.533C634.754 314.966 635.132 314.174 635.178 313.33V292.014C635.178 290.203 633.426 288.801 631.436 289.011C630.658 289.058 629.925 289.39 629.378 289.944C628.83 290.499 628.508 291.236 628.472 292.014Z" fill="#A4B5FD"/>
    <path opacity="0.5" d="M591.623 270.264L610.94 270.659L614.096 274.992V289.966L610.15 292.725H591.623L587.684 288.392V274.208L591.623 270.264Z" fill="#A4B5FD"/>
    <path opacity="0.2" d="M592.019 272.634C592.019 272.634 609.761 275.393 611.336 272.634L610.94 270.659L592.019 270.264V272.634Z" fill="white"/>
    <path opacity="0.5" d="M590.049 313.613L586.893 316.767V331.742L590.049 334.896C590.049 334.896 601.48 338.847 608.97 335.686L612.521 332.137V317.156L609.366 313.607L590.049 313.613Z" fill="#A4B5FD"/>
    <path opacity="0.2" d="M590.833 317.156C590.833 317.156 604.629 320.31 609.359 317.156V313.607H590.042L590.833 317.156Z" fill="white"/>
    <path opacity="0.5" d="M597.553 292.62V313.936C597.599 314.78 597.977 315.572 598.606 316.138C599.234 316.705 600.061 317 600.906 316.958C601.751 317 602.579 316.705 603.207 316.138C603.835 315.572 604.214 314.78 604.26 313.936V292.62C604.26 290.809 602.507 289.406 600.518 289.617C599.74 289.664 599.007 289.996 598.459 290.55C597.912 291.105 597.589 291.842 597.553 292.62Z" fill="#A4B5FD"/>
    <path opacity="0.5" d="M552.239 281.669L568.143 281.992L570.739 285.561V297.888L567.491 300.153H552.239L548.998 296.584V284.909L552.239 281.669Z" fill="#A4B5FD"/>
    <path opacity="0.2" d="M552.569 283.612C552.569 283.612 567.175 285.883 568.473 283.612L568.15 281.992L552.575 281.669L552.569 283.612Z" fill="white"/>
    <path opacity="0.5" d="M550.941 317.347L548.345 319.941V332.269L550.941 334.863C550.941 334.863 560.349 338.109 566.516 335.522L569.441 332.604V320.264L566.845 317.347H550.941Z" fill="#A4B5FD"/>
    <path opacity="0.2" d="M551.593 320.264C551.593 320.264 562.952 322.858 566.845 320.264V317.347H550.941L551.593 320.264Z" fill="white"/>
    <path opacity="0.5" d="M557.108 300.068V317.617C557.149 318.31 557.461 318.959 557.978 319.422C558.495 319.886 559.174 320.127 559.868 320.093C560.564 320.127 561.245 319.884 561.762 319.418C562.28 318.951 562.591 318.299 562.629 317.604V300.068C562.606 299.696 562.505 299.334 562.334 299.004C562.163 298.674 561.924 298.383 561.634 298.151C561.344 297.918 561.008 297.749 560.648 297.654C560.288 297.559 559.913 297.54 559.545 297.598C558.906 297.637 558.303 297.91 557.853 298.366C557.403 298.822 557.137 299.428 557.108 300.068Z" fill="#A4B5FD"/>
    <path opacity="0.5" d="M526.776 282.163L542.68 282.492L545.275 286.055V298.382L542.027 300.654H526.776L523.528 297.085V285.409L526.776 282.163Z" fill="#A4B5FD"/>
    <path opacity="0.2" d="M527.098 284.112C527.098 284.112 541.705 286.384 543.002 284.112L542.68 282.492L527.105 282.169L527.098 284.112Z" fill="white"/>
    <path opacity="0.5" d="M525.478 317.847L522.882 320.442V332.769L525.478 335.364C525.478 335.364 534.886 338.61 541.052 336.022L543.971 333.105V320.751L541.375 317.834L525.478 317.847Z" fill="#A4B5FD"/>
    <path opacity="0.2" d="M526.123 320.751C526.123 320.751 537.481 323.346 541.375 320.751V317.834H525.478L526.123 320.751Z" fill="white"/>
    <path opacity="0.5" d="M531.671 300.568V318.117C531.708 318.813 532.02 319.465 532.537 319.931C533.054 320.398 533.735 320.641 534.431 320.606C535.127 320.641 535.808 320.398 536.325 319.931C536.843 319.465 537.154 318.813 537.192 318.117V300.568C537.169 300.197 537.068 299.835 536.897 299.504C536.726 299.174 536.487 298.884 536.197 298.651C535.907 298.419 535.571 298.249 535.211 298.154C534.851 298.059 534.476 298.04 534.108 298.099C533.469 298.137 532.866 298.41 532.416 298.866C531.966 299.322 531.7 299.928 531.671 300.568Z" fill="#A4B5FD"/>
    </g>
    <g opacity="0.8">
    <path opacity="0.8" d="M594.799 387.919C594.799 387.919 604.135 384.758 608.634 392.983C609.82 395.212 610.423 397.704 610.389 400.229C610.354 402.753 609.683 405.228 608.437 407.424C605.485 412.758 599.404 419.679 587.881 419.066C578.104 418.546 574.856 411.085 573.974 404.151C573.636 401.55 573.972 398.906 574.949 396.472C575.926 394.038 577.512 391.895 579.555 390.249C581.598 388.603 584.029 387.509 586.617 387.071C589.204 386.633 591.86 386.866 594.331 387.748L594.799 387.919Z" fill="#A4B5FD"/>
    <path opacity="0.1" d="M606.454 408.155C607.7 405.959 608.371 403.484 608.406 400.959C608.44 398.435 607.837 395.943 606.651 393.714C602.158 385.489 592.816 388.65 592.816 388.65L592.335 388.479C588.776 387.191 584.864 387.278 581.366 388.722C583.298 387.57 585.463 386.861 587.703 386.647C589.943 386.433 592.202 386.719 594.318 387.484L594.799 387.655C594.799 387.655 604.135 384.495 608.634 392.719C609.82 394.949 610.423 397.441 610.389 399.965C610.354 402.49 609.683 404.964 608.437 407.16C606.46 410.67 603.166 414.865 597.896 417.15C601.515 414.987 604.474 411.876 606.454 408.155Z" fill="white"/>
    <path opacity="0.2" d="M599.622 391.87C599.622 391.87 596.163 394.589 587.763 391.87H599.622Z" fill="black"/>
    <path opacity="0.8" d="M600.36 372.115C600.36 372.115 594.43 388.182 594.918 392.384L590.22 391.89C590.22 391.89 598.126 377.804 596.15 372.135L600.36 372.115Z" fill="#A4B5FD"/>
    <path opacity="0.2" d="M600.36 372.115C600.36 372.115 594.43 388.182 594.918 392.384L590.22 391.89C590.22 391.89 598.126 377.804 596.15 372.135L600.36 372.115Z" fill="black"/>
    <path opacity="0.8" d="M576.141 373.432C576.141 373.432 585.483 368.658 589.66 372.602C593.837 376.546 594.483 386.628 594.483 386.628C594.483 386.628 579.251 388.729 576.141 373.432Z" fill="#A4B5FD"/>
    <path opacity="0.1" d="M576.141 373.432C576.141 373.432 585.483 368.658 589.66 372.602C593.837 376.546 594.483 386.628 594.483 386.628C594.483 386.628 579.251 388.729 576.141 373.432Z" fill="white"/>
    <path opacity="0.8" d="M594.483 386.602C594.483 386.602 592.032 374.9 576.141 373.432" stroke="#A4B5FD" stroke-miterlimit="10"/>
    </g>
    <path d="M555.388 402.465C555.388 402.465 564.724 399.304 569.223 407.529C570.409 409.758 571.012 412.251 570.978 414.775C570.943 417.299 570.272 419.774 569.026 421.97C566.074 427.304 559.993 434.225 548.471 433.613C538.694 433.092 535.446 425.631 534.563 418.697C534.225 416.096 534.561 413.452 535.538 411.018C536.516 408.584 538.101 406.442 540.144 404.796C542.187 403.15 544.619 402.055 547.206 401.617C549.793 401.179 552.449 401.412 554.92 402.294L555.388 402.465Z" fill="#A4B5FD"/>
    <path opacity="0.1" d="M567.023 422.708C568.269 420.512 568.94 418.037 568.975 415.512C569.01 412.988 568.406 410.496 567.221 408.267C562.727 400.042 553.385 403.203 553.385 403.203L552.904 403.032C549.345 401.744 545.433 401.831 541.935 403.275C543.867 402.123 546.032 401.414 548.272 401.2C550.512 400.986 552.771 401.272 554.887 402.037L555.368 402.208C555.368 402.208 564.704 399.048 569.204 407.272C570.389 409.502 570.993 411.994 570.958 414.518C570.924 417.043 570.252 419.517 569.006 421.713C567.03 425.223 563.735 429.418 558.465 431.703C562.084 429.54 565.043 426.429 567.023 422.708Z" fill="white"/>
    <path opacity="0.2" d="M560.191 406.416C560.191 406.416 556.732 409.136 548.332 406.416H560.191Z" fill="black"/>
    <path d="M560.936 386.648C560.936 386.648 555.006 402.715 555.494 406.917L550.796 406.423C550.796 406.423 558.702 392.337 556.726 386.668L560.936 386.648Z" fill="#A4B5FD"/>
    <path opacity="0.2" d="M560.936 386.648C560.936 386.648 555.006 402.715 555.494 406.917L550.796 406.423C550.796 406.423 558.702 392.337 556.726 386.668L560.936 386.648Z" fill="black"/>
    <path d="M536.711 387.985C536.711 387.985 546.053 383.211 550.23 387.155C554.407 391.099 555.052 401.181 555.052 401.181C555.052 401.181 539.82 403.275 536.711 387.985Z" fill="#A4B5FD"/>
    <path opacity="0.1" d="M536.711 387.985C536.711 387.985 546.053 383.211 550.23 387.155C554.407 391.099 555.052 401.181 555.052 401.181C555.052 401.181 539.82 403.275 536.711 387.985Z" fill="white"/>
    <path d="M555.052 401.181C555.052 401.181 552.601 389.48 536.711 388.011" stroke="#A4B5FD" stroke-miterlimit="10"/>
    <path d="M630.494 364.325C630.494 364.325 629.578 363.304 631.298 362.896V361.216H630.264C630.264 359.187 630.962 357.218 632.241 355.641C633.519 354.064 635.3 352.973 637.287 352.55V350.516H637.017V347.882H643.671V350.516H643.48V352.577C645.44 353.022 647.191 354.119 648.445 355.689C649.699 357.258 650.383 359.207 650.384 361.216H649.462V362.83C649.462 362.83 651.649 363.864 649.462 365.707C647.274 367.551 647.617 368.928 647.617 368.928C647.617 368.928 648.539 372.378 650.377 372.839V404.941C650.377 406.833 649.626 408.647 648.288 409.984C646.95 411.321 645.135 412.073 643.242 412.073H637.603C635.716 412.066 633.909 411.312 632.577 409.977C631.245 408.642 630.496 406.833 630.494 404.948V372.839C630.494 372.839 633.716 370.422 633.129 368.928C632.365 367.331 631.484 365.792 630.494 364.325Z" fill="#A4B5FD"/>
    </svg>
    