<svg width="315" height="209" viewBox="0 0 315 209" fill="none" xmlns="http://www.w3.org/2000/svg">
    <g clip-path="url(#clip0_54_446)">
    <path d="M231.374 199.12H224.607V133.099L239.987 132.791L231.374 199.12Z" fill="#FFB8B8"/>
    <path d="M263.981 199.12H270.748V133.099L255.368 132.791L263.981 199.12Z" fill="#FFB8B8"/>
    <path d="M228.199 208.303L213.8 208.171C213.11 208.342 212.391 208.353 211.697 208.204C211.002 208.055 210.351 207.749 209.791 207.31C209.232 206.871 208.78 206.31 208.469 205.67C208.158 205.029 207.996 204.326 207.996 203.614C207.996 202.73 208.245 201.864 208.714 201.116C209.183 200.367 209.854 199.767 210.648 199.384L213.932 197.799L224.607 190.482L232.297 192.642L233.77 199.289C234.199 201.224 233.856 203.25 232.815 204.934C231.774 206.619 230.117 207.828 228.199 208.303Z" fill="#2F2E41"/>
    <path d="M266.957 208.222L252.558 208.089C251.869 208.26 251.149 208.271 250.455 208.122C249.761 207.973 249.109 207.668 248.55 207.228C247.991 206.789 247.538 206.228 247.227 205.588C246.916 204.948 246.755 204.245 246.755 203.532C246.755 202.648 247.004 201.782 247.473 201.034C247.942 200.286 248.612 199.685 249.406 199.302L252.691 197.717L263.365 190.4L271.056 192.56L272.528 199.207C272.957 201.142 272.614 203.168 271.573 204.852C270.532 206.537 268.875 207.746 266.957 208.222Z" fill="#2F2E41"/>
    <path d="M272.586 143.92L251.385 142.022L248.593 117.08L242.342 141.212L220.909 139.292C221.699 124.515 223.399 112.189 227.368 105.973L272.279 97.9521L272.586 143.92Z" fill="#2F2E41"/>
    <path d="M251.159 28.4114C257.486 28.4114 262.615 23.2674 262.615 16.9219C262.615 10.5765 257.486 5.43243 251.159 5.43243C244.833 5.43243 239.704 10.5765 239.704 16.9219C239.704 23.2674 244.833 28.4114 251.159 28.4114Z" fill="#FFB8B8"/>
    <path d="M260.282 40.8777L240.288 38.4096C242.832 32.9768 243.978 27.9038 242.133 23.6011H257.514C255.136 27.8567 257.262 34.1637 260.282 40.8777Z" fill="#FFB8B8"/>
    <path d="M272.279 98.5691C258.21 108.915 242.855 112.445 226.138 108.75C236.281 85.5246 234.833 62.6338 226.138 39.9521L242.133 33.1649C246.619 37.5527 251.762 37.6482 257.514 33.7819L273.202 37.1755C270.332 59.8029 269.37 80.8199 272.279 98.5691Z" fill="#3F3D56"/>
    <path d="M242.708 6.89258L240.773 6.11587C240.773 6.11587 244.818 1.64976 250.446 2.03812L248.863 0.290484C248.863 0.290484 252.732 -1.26293 256.249 2.81481C258.098 4.9584 260.237 7.47807 261.571 10.3164H263.642L262.778 12.2259L265.804 14.1353L262.698 13.7923C262.992 15.4408 262.891 17.1357 262.404 18.7375L262.487 20.2467C262.487 20.2467 258.887 14.6597 258.887 13.883V15.8248C258.887 15.8248 256.952 14.0772 256.952 12.9121L255.897 14.2714L255.37 12.1354L248.863 14.2714L249.918 12.5238L245.873 13.1063L247.456 10.9703C247.456 10.9703 242.884 13.4947 242.708 15.6306C242.532 17.7666 240.246 20.4851 240.246 20.4851L239.191 18.5433C239.191 18.5433 237.608 9.80526 242.708 6.89258Z" fill="#2F2E41"/>
    <path d="M275.084 122.996H205.603C204.899 122.995 204.223 122.714 203.725 122.215C203.227 121.715 202.946 121.037 202.945 120.331V109.669C202.946 108.962 203.227 108.284 203.725 107.785C204.223 107.285 204.899 107.004 205.603 107.003H275.084C275.789 107.004 276.464 107.285 276.963 107.785C277.461 108.284 277.741 108.962 277.742 109.669V120.331C277.741 121.037 277.461 121.715 276.963 122.215C276.464 122.714 275.789 122.995 275.084 122.996Z" fill="#607FE8"/>
    <path d="M215.991 112.735C215.399 112.745 214.834 112.988 214.419 113.412C214.004 113.835 213.771 114.406 213.771 115C213.771 115.594 214.004 116.164 214.419 116.587C214.834 117.011 215.399 117.254 215.991 117.264H264.622C265.22 117.272 265.796 117.042 266.225 116.624C266.654 116.207 266.9 115.636 266.91 115.037C266.92 114.437 266.692 113.859 266.277 113.427C265.862 112.996 265.294 112.747 264.696 112.735C264.672 112.735 264.647 112.735 264.622 112.735H215.991Z" fill="white"/>
    <path d="M233.213 104.431L236.745 110.745C237.163 111.493 237.404 112.327 237.451 113.183C237.498 114.039 237.348 114.894 237.013 115.683C236.679 116.472 236.168 117.173 235.521 117.733C234.874 118.293 234.107 118.697 233.28 118.913C232.445 119.132 231.57 119.153 230.725 118.976C229.88 118.799 229.087 118.428 228.409 117.892C227.731 117.356 227.186 116.669 226.816 115.887C226.447 115.104 226.263 114.246 226.28 113.38L226.446 104.739C223.792 89.3795 221.638 74.8367 222.139 64.6329H234.443L231.982 76.3563L233.213 104.431Z" fill="#FFB8B8"/>
    <path d="M273.817 105.973L271.23 110.298C270.807 111.005 270.215 111.597 269.508 112.019C268.801 112.442 268.001 112.682 267.179 112.718C266.356 112.755 265.538 112.586 264.797 112.228C264.055 111.87 263.414 111.333 262.93 110.666C262.543 110.132 262.265 109.527 262.113 108.885C261.96 108.244 261.936 107.578 262.041 106.927C262.147 106.276 262.38 105.652 262.727 105.091C263.074 104.531 263.528 104.045 264.063 103.662L268.588 100.42L275.047 73.5798L271.049 62.4734L282.122 60.6223C287.322 72.6743 282.085 88.741 273.817 105.973Z" fill="#FFB8B8"/>
    <path d="M237.212 67.101L220.909 66.1755L222.029 48.6553C221.973 46.1752 222.75 43.7484 224.237 41.7655C225.723 39.7827 227.831 38.3593 230.222 37.7245L232.29 37.1755L237.212 67.101Z" fill="#3F3D56"/>
    <path d="M283.353 61.5479L268.28 65.25V36.25L268.902 36.2098C271.379 36.0495 273.832 36.7877 275.812 38.2899C277.792 39.7921 279.167 41.9581 279.687 44.3927L283.353 61.5479Z" fill="#3F3D56"/>
    <path d="M315 208.238H84.879V209H315V208.238Z" fill="#E6E6E6"/>
    <path d="M10.1136 185.765C10.3196 193.483 11.6086 201.133 13.9426 208.49C13.996 208.661 14.0519 208.829 14.1078 209H28.3972C28.382 208.847 28.3667 208.676 28.3515 208.49C27.3987 197.505 21.9055 130.643 28.4734 119.209C27.8992 120.137 9.00586 150.859 10.1136 185.765Z" fill="#E6E6E6"/>
    <path d="M11.1858 208.49C11.3053 208.661 11.4298 208.832 11.5568 209H22.2764C22.1951 208.855 22.1011 208.684 21.9919 208.49C20.2209 205.285 14.9793 195.701 10.1136 185.765C4.88468 175.088 0.0876593 164.005 0.491651 159.994C0.36714 160.899 -3.25095 188.476 11.1858 208.49Z" fill="#E6E6E6"/>
    <path d="M144.992 85.4192H28.4313C27.7267 85.4184 27.0511 85.1373 26.5529 84.6376C26.0547 84.1379 25.7744 83.4604 25.7736 82.7537V17.638C25.7744 16.9313 26.0547 16.2538 26.5529 15.754C27.0511 15.2543 27.7267 14.9732 28.4313 14.9724H144.992C145.697 14.9733 146.372 15.2544 146.871 15.7541C147.369 16.2538 147.649 16.9313 147.65 17.638V82.7537C147.649 83.4604 147.369 84.1379 146.871 84.6376C146.372 85.1373 145.697 85.4184 144.992 85.4192Z" fill="#607FE8"/>
    <path d="M146.434 209H26.8358C26.3325 208.999 25.8499 208.799 25.4941 208.442C25.1382 208.085 24.938 207.601 24.9374 207.096V16.7085C24.938 16.2038 25.1382 15.7198 25.4941 15.3629C25.8499 15.0059 26.3325 14.8052 26.8358 14.8046H146.434C146.938 14.8052 147.42 15.0059 147.776 15.3629C148.132 15.7198 148.332 16.2038 148.333 16.7085V207.096C148.332 207.601 148.132 208.085 147.776 208.442C147.42 208.799 146.938 208.999 146.434 209ZM26.8358 15.5662C26.5338 15.5665 26.2443 15.6869 26.0307 15.9011C25.8172 16.1153 25.6971 16.4057 25.6967 16.7085V207.096C25.6971 207.399 25.8172 207.689 26.0307 207.903C26.2443 208.118 26.5338 208.238 26.8358 208.238H146.434C146.736 208.238 147.026 208.118 147.239 207.903C147.453 207.689 147.573 207.399 147.573 207.096V16.7085C147.573 16.4057 147.453 16.1153 147.239 15.9011C147.026 15.6869 146.736 15.5665 146.434 15.5662H26.8358Z" fill="#E6E6E6"/>
    <path d="M40.9606 120.833C43.2672 120.833 45.1371 118.958 45.1371 116.644C45.1371 114.331 43.2672 112.456 40.9606 112.456C38.654 112.456 36.7842 114.331 36.7842 116.644C36.7842 118.958 38.654 120.833 40.9606 120.833Z" fill="#E6E6E6"/>
    <path d="M129.046 124.641H59.5648C58.8602 124.64 58.1847 124.359 57.6864 123.859C57.1882 123.36 56.9079 122.682 56.9071 121.975V111.313C56.9079 110.606 57.1882 109.929 57.6864 109.429C58.1847 108.93 58.8602 108.648 59.5648 108.648H129.046C129.75 108.648 130.426 108.93 130.924 109.429C131.422 109.929 131.703 110.606 131.704 111.313V121.975C131.703 122.682 131.422 123.36 130.924 123.859C130.426 124.359 129.75 124.64 129.046 124.641Z" fill="#E6E6E6"/>
    <path d="M131.704 125.022H56.9071C56.8064 125.022 56.7099 124.982 56.6387 124.91C56.5675 124.839 56.5275 124.742 56.5275 124.641C56.5275 124.54 56.5675 124.443 56.6387 124.372C56.7099 124.3 56.8064 124.26 56.9071 124.26H131.704C131.804 124.26 131.901 124.3 131.972 124.372C132.043 124.443 132.083 124.54 132.083 124.641C132.083 124.742 132.043 124.839 131.972 124.91C131.901 124.982 131.804 125.022 131.704 125.022Z" fill="#3F3D56"/>
    <path d="M40.9606 145.965C43.2672 145.965 45.1371 144.09 45.1371 141.777C45.1371 139.463 43.2672 137.588 40.9606 137.588C38.654 137.588 36.7842 139.463 36.7842 141.777C36.7842 144.09 38.654 145.965 40.9606 145.965Z" fill="#E6E6E6"/>
    <path d="M129.046 149.773H59.5648C58.8602 149.772 58.1847 149.491 57.6864 148.992C57.1882 148.492 56.9079 147.814 56.9071 147.108V136.446C56.9079 135.739 57.1882 135.061 57.6864 134.562C58.1847 134.062 58.8602 133.781 59.5648 133.78H129.046C129.75 133.781 130.426 134.062 130.924 134.562C131.422 135.061 131.703 135.739 131.704 136.446V147.108C131.703 147.814 131.422 148.492 130.924 148.992C130.426 149.491 129.75 149.772 129.046 149.773Z" fill="#E6E6E6"/>
    <path d="M131.704 150.154H56.9071C56.8064 150.154 56.7099 150.114 56.6387 150.043C56.5675 149.971 56.5275 149.874 56.5275 149.773C56.5275 149.672 56.5675 149.575 56.6387 149.504C56.7099 149.433 56.8064 149.393 56.9071 149.393H131.704C131.804 149.393 131.901 149.433 131.972 149.504C132.043 149.575 132.083 149.672 132.083 149.773C132.083 149.874 132.043 149.971 131.972 150.043C131.901 150.114 131.804 150.154 131.704 150.154Z" fill="#3F3D56"/>
    <path d="M40.9606 171.098C43.2672 171.098 45.1371 169.222 45.1371 166.909C45.1371 164.596 43.2672 162.72 40.9606 162.72C38.654 162.72 36.7842 164.596 36.7842 166.909C36.7842 169.222 38.654 171.098 40.9606 171.098Z" fill="#E6E6E6"/>
    <path d="M88.4203 174.906H59.5648C58.8602 174.905 58.1847 174.624 57.6864 174.124C57.1882 173.624 56.9079 172.947 56.9071 172.24V161.578C56.9079 160.871 57.1882 160.194 57.6864 159.694C58.1847 159.194 58.8602 158.913 59.5648 158.912H88.4203C89.125 158.913 89.8005 159.194 90.2987 159.694C90.7969 160.194 91.0772 160.871 91.0781 161.578V172.24C91.0772 172.947 90.7969 173.624 90.2987 174.124C89.8005 174.624 89.125 174.905 88.4203 174.906Z" fill="#E6E6E6"/>
    <path d="M91.0781 175.286H56.9071C56.8064 175.286 56.7099 175.246 56.6387 175.175C56.5675 175.104 56.5275 175.007 56.5275 174.906C56.5275 174.805 56.5675 174.708 56.6387 174.636C56.7099 174.565 56.8064 174.525 56.9071 174.525H91.0781C91.1788 174.525 91.2754 174.565 91.3466 174.636C91.4178 174.708 91.4578 174.805 91.4578 174.906C91.4578 175.007 91.4178 175.104 91.3466 175.175C91.2754 175.246 91.1788 175.286 91.0781 175.286Z" fill="#3F3D56"/>
    <path d="M129.046 174.906H100.19C99.4857 174.905 98.8102 174.624 98.3119 174.124C97.8137 173.624 97.5334 172.947 97.5326 172.24V161.578C97.5334 160.871 97.8137 160.194 98.3119 159.694C98.8102 159.194 99.4857 158.913 100.19 158.912H129.046C129.75 158.913 130.426 159.194 130.924 159.694C131.422 160.194 131.703 160.871 131.704 161.578V172.24C131.703 172.947 131.422 173.624 130.924 174.124C130.426 174.624 129.75 174.905 129.046 174.906Z" fill="#E6E6E6"/>
    <path d="M131.704 175.286H97.5326C97.4319 175.286 97.3354 175.246 97.2642 175.175C97.193 175.104 97.153 175.007 97.153 174.906C97.153 174.805 97.193 174.708 97.2642 174.636C97.3354 174.565 97.4319 174.525 97.5326 174.525H131.704C131.804 174.525 131.901 174.565 131.972 174.636C132.043 174.708 132.083 174.805 132.083 174.906C132.083 175.007 132.043 175.104 131.972 175.175C131.901 175.246 131.804 175.286 131.704 175.286Z" fill="#3F3D56"/>
    <path d="M41.0972 35.3654C40.5049 35.3752 39.9401 35.618 39.5247 36.0416C39.1093 36.4652 38.8765 37.0355 38.8765 37.6296C38.8765 38.2238 39.1093 38.7941 39.5247 39.2177C39.9401 39.6412 40.5049 39.8841 41.0972 39.8938H132.252C132.549 39.8991 132.844 39.8456 133.12 39.7364C133.396 39.6273 133.648 39.4647 133.861 39.2579C134.075 39.051 134.245 38.8041 134.363 38.5311C134.481 38.2581 134.545 37.9644 134.549 37.6668C134.554 37.3693 134.501 37.0737 134.392 36.797C134.283 36.5202 134.12 36.2678 133.914 36.054C133.707 35.8403 133.461 35.6694 133.188 35.5513C132.916 35.4331 132.623 35.37 132.326 35.3654C132.302 35.365 132.277 35.365 132.252 35.3654H41.0972Z" fill="white"/>
    <path d="M41.0972 47.9316C40.5049 47.9414 39.9401 48.1842 39.5247 48.6078C39.1093 49.0313 38.8765 49.6017 38.8765 50.1958C38.8765 50.7899 39.1093 51.3603 39.5247 51.7838C39.9401 52.2074 40.5049 52.4502 41.0972 52.46H132.252C132.851 52.4692 133.428 52.2398 133.858 51.8222C134.288 51.4046 134.535 50.833 134.545 50.2329C134.554 49.6328 134.326 49.0534 133.91 48.6219C133.494 48.1904 132.925 47.9421 132.326 47.9316C132.302 47.9312 132.277 47.9312 132.252 47.9316H41.0972Z" fill="white"/>
    <path d="M41.0972 60.4978C40.5049 60.5076 39.9401 60.7504 39.5247 61.174C39.1093 61.5975 38.8765 62.1679 38.8765 62.762C38.8765 63.3562 39.1093 63.9265 39.5247 64.35C39.9401 64.7736 40.5049 65.0165 41.0972 65.0262H132.252C132.851 65.0354 133.428 64.806 133.858 64.3884C134.288 63.9709 134.535 63.3992 134.545 62.7992C134.554 62.1991 134.326 61.6196 133.91 61.1881C133.494 60.7566 132.925 60.5083 132.326 60.4978C132.302 60.4974 132.277 60.4974 132.252 60.4978H41.0972Z" fill="white"/>
    <path d="M128.21 193.678L127.254 192.719C127.233 192.699 127.209 192.682 127.182 192.671C127.155 192.66 127.126 192.654 127.097 192.654H126.632C126.588 192.654 126.545 192.667 126.509 192.692C126.472 192.716 126.444 192.751 126.427 192.792C126.41 192.832 126.406 192.877 126.414 192.92C126.423 192.964 126.444 193.003 126.475 193.034L127.004 193.565H122.781C122.68 193.565 122.584 193.605 122.513 193.676C122.441 193.748 122.401 193.844 122.401 193.945C122.401 194.046 122.441 194.143 122.513 194.215C122.584 194.286 122.68 194.326 122.781 194.326H127.004L126.529 194.802C126.494 194.838 126.47 194.883 126.46 194.932C126.45 194.982 126.455 195.033 126.474 195.079C126.493 195.126 126.526 195.166 126.568 195.194C126.609 195.222 126.658 195.236 126.708 195.236H127.084C127.117 195.237 127.15 195.23 127.181 195.217C127.212 195.204 127.24 195.186 127.263 195.162L128.21 194.213C128.245 194.178 128.272 194.136 128.291 194.09C128.31 194.044 128.32 193.995 128.32 193.945C128.32 193.896 128.31 193.846 128.291 193.801C128.272 193.755 128.245 193.713 128.21 193.678Z" fill="#A4B5FD"/>
    <path d="M125.629 200.038C124.427 200.038 123.253 199.681 122.254 199.011C121.255 198.342 120.476 197.39 120.016 196.277C119.557 195.164 119.436 193.939 119.671 192.757C119.905 191.575 120.484 190.489 121.333 189.637C122.183 188.785 123.265 188.205 124.444 187.97C125.622 187.735 126.844 187.856 127.954 188.317C129.064 188.778 130.012 189.559 130.68 190.561C131.347 191.563 131.704 192.741 131.704 193.946C131.702 195.561 131.061 197.11 129.922 198.252C128.784 199.394 127.239 200.036 125.629 200.038ZM125.629 188.614C124.578 188.614 123.55 188.927 122.676 189.513C121.802 190.099 121.12 190.931 120.718 191.905C120.316 192.88 120.21 193.952 120.415 194.986C120.621 196.02 121.127 196.97 121.87 197.715C122.614 198.461 123.561 198.969 124.592 199.174C125.623 199.38 126.692 199.274 127.663 198.871C128.634 198.467 129.464 197.784 130.048 196.907C130.633 196.031 130.944 195 130.944 193.946C130.943 192.532 130.382 191.177 129.386 190.178C128.389 189.178 127.038 188.616 125.629 188.614Z" fill="#3F3D56"/>
    </g>
    <defs>
    <clipPath id="clip0_54_446">
    <rect width="315" height="209" fill="white"/>
    </clipPath>
    </defs>
    </svg>
    